<svg viewBox="0 0 248 30" xmlns="http://www.w3.org/2000/svg" width="300"><g fill="none" fill-rule="evenodd"><path d="M0 0h248v30H0z"/><g fill="#fff"><path d="M15.843 19.869c-.885 4.707-4.413 9.999-9.929 9.999-7.978 0-5.994-9.376-4.742-15.22C2.386 8.987 4.812.968 12.127.968c4.967 0 6.62 3.936 5.7 8.605H15.44C15.88 6.3 15.326 3.1 11.612 3.1c-5.808 0-7.39 8.384-8.16 12.097C2.57 19.426.582 27.735 6.65 27.735c4.118 0 5.957-4.483 6.803-7.866h2.39zM30.59 18.58l-.662-13.934h-.075L23.235 18.58h7.355zm1.324-16.951 1.542 27.577h-2.425l-.37-8.493h-8.38l-4.045 8.493h-2.317L29.156 1.629h2.758zM41.77 14.097h4.19c.81 0 4.93-.294 5.996-5.224.844-4.041-.774-5.112-4.525-5.112h-3.455L41.77 14.096zm-.441 2.133L38.57 29.207h-2.39L42.026 1.63h5.333c5.036 0 8.198 1.469 7.024 7.06-.59 2.685-2.393 5.846-5.445 6.473v.071c3.018.81 2.942 3.273 2.243 6.728-.22 1.324-1.434 6.178-.22 6.916l-.072.329h-2.613c-.551-2.32.552-7.024.81-9.043.55-3.68-2.17-3.935-5.294-3.935h-2.464zM53.98 29.206 59.828 1.63h12.499l-.441 2.132H61.775l-2.096 9.929h9.193l-.48 2.133H59.2l-2.39 11.249h10.297l-.441 2.133zM70.307 29.206 76.154 1.63h12.5l-.442 2.132H78.101l-2.096 9.929h9.194l-.48 2.133h-9.192l-2.39 11.249h10.297l-.442 2.133zM92.076 14.097h4.192c.81 0 4.926-.294 5.993-5.224.845-4.041-.773-5.112-4.522-5.112h-3.457l-2.206 10.335zm-.443 2.133-2.754 12.977h-2.393L92.333 1.63h5.333c5.036 0 8.198 1.469 7.022 7.06-.589 2.685-2.39 5.846-5.441 6.473v.071c3.013.81 2.942 3.273 2.241 6.728-.22 1.324-1.432 6.178-.22 6.916l-.074.329h-2.61c-.55-2.32.55-7.024.808-9.043.552-3.68-2.168-3.935-5.293-3.935h-2.466zM104.36 29.206 110.2 1.63h15.23l-1.14 5.516h-8.75l-1.07 4.891h8.05l-1.17 5.516h-8.06l-2.46 11.653zM137.27 9.647c.37-1.693.664-3.716-1.471-3.716-2.057 0-2.756 2.023-3.124 3.716l-2.39 11.323c-.368 1.583-.587 3.935 1.508 3.935 2.096 0 2.72-2.352 3.089-3.935l2.388-11.323zm4.192 10.773c-1.324 6.211-4.192 9.447-10.736 9.447s-8.125-3.236-6.803-9.447l2.392-11.216C127.42 3.91 131.205.97 136.865.97c5.664 0 8.09 2.94 6.988 8.235l-2.39 11.216zM148.41 1.63h6.472l-4.413 20.813c-.294 1.324-.108 2.46 1.729 2.46 1.691 0 2.5-1.469 2.758-2.645l4.376-20.628h6.47l-4.227 19.966c-.993 4.67-3.861 8.272-10.48 8.272-5.478 0-8.126-2.61-6.912-8.272L148.41 1.63zM171.95 13.764l-.07.075-2.69 15.368h-6.14l5.85-27.579h6.65l1.73 15.409h.11l2.65-15.409h6.14l-5.85 27.579h-6.62zM191.14 24.243c4.266.294 4.67-1.471 5.332-5.148l1.95-9.008c.623-3.236-.405-3.418-3.533-3.494l-3.749 17.65zm-7.539 4.963 5.85-27.577h7.021c2.354 0 5.185.075 7.022 1.289 2.17 1.47 2.023 4.155 1.471 6.8l-2.609 12.245c-.627 2.76-1.912 4.782-4.045 5.957-1.912 1.105-4.009 1.285-5.996 1.285H183.6zM213.76 13.359h2.204c1.876 0 2.683-1.728 3.016-3.418.7-3.273-.625-3.42-3.788-3.349l-1.432 6.767zm-3.383 15.848h-6.473l5.848-27.579h9.449c5.295 0 7.502 2.133 6.323 7.614-.623 2.942-1.765 5.036-4.742 6.287v.071c1.692.405 2.72 1.657 2.427 3.57-.294 2.204-1.25 6.948-1.25 8.713.071.366.184.699.404.956l-.075.368h-7.057c-.076-.515-.112-1.03-.039-1.582.405-2.427 1.03-4.707 1.214-6.396.186-1.694-.109-2.797-1.58-2.908h-2.133l-2.316 10.885zM235.53 10.638h.07l5.22-9.008h6.48l-10.04 15.993-2.47 11.584h-6.47l2.47-11.584-3.13-15.993h6.55z"/></g></g></svg>