<svg version="1.1" id="Layer_1" xmlns="http://www.w3.org/2000/svg" x="0" y="0" viewBox="-180 -150 400 400" style="enable-background:new 0 0 50 50" xml:space="preserve"><style>.st3{fill:#c5c5c5}</style><path d="M-167-107.1c2.2-5.3 3.6-11 6.6-15.9 8.8-14.6 22.1-22.2 39.2-22.3 25.9-.1 51.8 0 77.7.1-.5 2.2-1.1 4.3-1.5 6.5-1.8 8.2-3.5 16.4-5.2 24.6-.2.1-.5.2-.7.3-.5-.1-1-.2-1.5-.2h-62.4c-2 0-4 .1-5.9.6-9.6 2.6-15 10.2-15 21v72.5c0 27.3-.1 54.6-.1 81.9-10.4 0-20.7.1-31.1.1-.1-56.4-.1-112.8-.1-169.2z" style="fill:#888f99"/><path d="M-167 62.1c10.4 0 20.7-.1 31.1-.1h95.4c.2.1.5.2.7.2 4.5 15.8 11.4 30.5 20.2 44.3 3 4.8 6.5 9.3 9.8 13.9-1.4.1-2.7.1-4.1.2-3.4.2-6.9.5-10.3.7-1.6-.1-3.2-.2-4.9-.2-29.4 0-58.9.1-88.3-.1-9 0-17.8-1.1-25.8-5.8-12.4-7.2-20.5-17.4-23.2-31.7-.1-.5-.4-.8-.7-1.3.1-6.6.1-13.3.1-20.1z" style="fill:#9aa2af"/><path d="M-50.2-114.1c1.7-8.2 3.5-16.4 5.2-24.6.5-2.2 1-4.3 1.5-6.5.9 0 1.7-.1 2.6-.1h210.3c22.6 0 40.7 14.1 45.7 35.6.7 3.1 1.1 6.4 1.1 9.6.1 53.5.1 107 0 160.5 0 .5 0 1-.1 1.5h-30.6c0-51 0-102.1-.1-153.1 0-1.5-.4-3.1-.7-4.6-2.2-10.3-8.3-16.5-18.8-18.1-1.3-.2-2.6-.7-3.9-.7H29.1c-1.3 0-2.6.4-3.9.7h-.8c-17.8 0-35.5 0-53.3-.1-6.9 0-14.1-.1-21.3-.1z" style="fill:#a0a0a0"/><path class="st3" d="M185.6 62h30.6c-.2 9.8.9 19.5-2.6 29.1-6 16.3-23.6 29.5-41.2 29.4-33.1-.2-66.1-.1-99.2-.1-20.1 0-40.1.1-60.2.1-7.6 0-15.2-.1-22.8-.2-3.3-4.6-6.8-9.1-9.8-13.9-8.8-13.7-15.6-28.4-20.2-44.2 21.5-.1 43-.1 64.5-.2 51.3 0 102.5 0 153.8.1 2.1 0 4.2-.1 6.4-.1h.7zm-161 45.8c9.7 0 16.6-6.7 16.6-16.3 0-9.6-6.9-16.7-16.2-16.7-9.7 0-16.8 6.9-16.8 16.6-.1 9.6 6.7 16.4 16.4 16.4z"/><path d="M-9.7 120.4c7.6.1 15.2.2 22.8.2 20.1 0 40.1-.1 60.2-.1 2.2 15 4.4 29.9 6.7 44.9-22.9 0-45.8.1-68.7.1-14 0-27.9-.1-41.9-.1 1.8-12.5 3.7-25.1 5.5-37.6.3-2.2.7-4.4 1-6.5 3.4-.2 6.9-.5 10.3-.7 1.3 0 2.7-.1 4.1-.2z" style="fill:#4f5660"/><path class="st3" d="M11.2 165.6c22.9 0 45.8-.1 68.7-.1 3.8.2 7.7.2 11.5.8 7 1.1 11.4 5.4 14.2 11.8 5.2 12.1.3 18.6-12.7 18.3-24.8-.7-49.5-.2-74.3-.3-7-9.1-8.3-19.5-7.4-30.5z"/><path d="M11.2 165.6c-1 11 .4 21.4 7.4 30.5-22.4 0-44.8.1-67.2 0-6.8 0-11.2-5.9-9.5-12.5 3.4-13.3 9.6-18.1 23.4-18.1 1.4 0 2.7 0 4.1-.1 13.9.1 27.9.1 41.8.2z" style="fill:#9aa3b1"/><path d="M-40.5 62h-95.4c0-27.3.1-54.6.1-81.9v-72.5c0-10.8 5.4-18.3 15-21 1.9-.5 3.9-.6 5.9-.6h62.4c.5 0 1 .1 1.5.2 0 1 0 2-.1 3-1.4 10.6-3.4 21.2-4.2 31.9-.9 11.2-.7 22.5-.9 33.8 0 .8.4 1.6.6 2.5-2.4 6.7-4.8 13.3-7.2 20-3.7 10.2-7.4 20.3-11.1 30.5-1.5 4.3.7 8.2 4.6 8.4 3.4.1 5.1-2.1 6.2-5 2.7-7.3 5.5-14.7 8.2-22 .3 1.7.7 3.4.9 5.1 2.3 13.8 4.2 27.7 6.8 41.4 1.8 8.7 4.5 17.4 6.7 26.2zm-56.4-88.3c6.4-6.4 12.5-12.5 18.6-18.5 3.2-3.2 3.7-6.7 1.4-9.1-2.4-2.5-6-2.1-9.1 1.1-7.2 7.2-14.5 14.4-21.7 21.7-3.5 3.5-3.5 6.4 0 9.9C-100.5-14-93.3-6.7-86 .5c3.2 3.2 6.8 3.5 9.1 1 2.2-2.4 1.8-5.9-1.2-8.9-6.1-6.2-12.3-12.4-18.8-18.9z" style="fill:#85e8e8"/><path d="M-40.5 62c-2.3-8.8-5-17.4-6.7-26.3C-49.8 22-51.7 8.1-54-5.7l-.9-5.1c.7-2.1 1.3-4.3 2.1-6.4 5.1-14.1 10.3-28.2 15.4-42.4 1.7-4.6.5-7.7-3.2-8.8-3.1-.9-5.7.5-7.1 4.3-2.7 7.1-5.2 14.2-7.8 21.3-.2-.8-.6-1.6-.6-2.5.2-11.3 0-22.6.9-33.8.8-10.7 2.8-21.3 4.2-31.9.1-1 .1-2 .1-3 .2-.1.5-.2.7-.3 7.2.1 14.4.2 21.6.2 17.8.1 35.5.1 53.3.1V61.9c-21.5.1-43 .1-64.5.2-.2 0-.4 0-.7-.1zm26.3-88.6c-1.3 1.4-2.1 2.4-3 3.2-5.3 5.4-10.7 10.7-16.1 16.2C-36.4-4-36.6-1-34 1.6c2.4 2.3 5.7 2.1 8.6-.8C-18-6.6-10.5-14-3.2-21.4c3.5-3.5 3.5-6.2 0-9.7-7.3-7.4-14.6-14.7-21.9-22-3.1-3.1-6.4-3.4-8.9-1-2.7 2.6-2.4 5.7 1 9.1 4.2 4.3 8.4 8.5 12.7 12.7 1.9 1.9 4 3.7 6.1 5.7z" style="fill:#a2f4f2"/><path d="M24.7 62v-175.9h141.5c10.5 1.6 16.6 7.8 18.8 18.1v19.1c0 46.2 0 92.5-.1 138.7-2.1 0-4.2.1-6.4.1-51.3 0-102.5 0-153.8-.1zM82.8.8h22.4c4.1 0 6.7-2 6.8-5.3.1-3.4-2.6-5.9-6.7-5.9-14.9-.1-29.9-.1-44.8 0-4 0-6.6 2.3-6.6 5.6S56.4.8 60.4.8h22.4zm-.7-42h21.7c4.3 0 6.9-2.2 6.9-5.6 0-3.4-2.6-5.6-6.9-5.6h-43c-4.3 0-6.9 2.2-6.9 5.6 0 3.4 2.6 5.6 6.9 5.6h21.3zm38.7 21H141c4.5 0 6.7-2 6.6-5.7-.1-3.4-2.4-5.5-6.6-5.5h-40.3c-4.1 0-6.5 2.2-6.5 5.6 0 3.5 2.3 5.6 6.4 5.6h20.2zm-5.1 42.1c4.5 0 9 .1 13.5 0 3.8-.1 6.2-2.2 6.3-5.4.1-3.2-2.3-5.7-6-5.8-9.2-.1-18.4-.1-27.7 0-3.8 0-6.1 2.4-6 5.7 0 3.4 2.2 5.4 6.2 5.5h13.7zm-1.3-95.3c-4.4 0-8.7-.1-13.1 0-3.3.1-5.5 2.3-5.6 5.3-.1 3.2 2 5.8 5.4 5.9 8.6.2 17.2.1 25.8 0 3.5-.1 5.7-2.5 5.6-5.7 0-3.2-2.3-5.4-5.8-5.5-4.1-.1-8.2 0-12.3 0zm23.5 32.2c3.9 0 7.7.1 11.6 0 3.8-.1 6.1-2.2 6.2-5.5 0-3.3-2.3-5.6-6-5.7-7.8-.1-15.7-.1-23.5 0-3.6 0-5.8 2.3-5.8 5.5 0 3.3 2.2 5.6 6 5.7 3.8.1 7.7 0 11.5 0zm.6 42c3.7 0 7.5.1 11.2 0 3.6-.1 5.9-2.1 6-5.2.2-3.3-2.1-5.9-5.8-5.9-7.5-.2-14.9-.1-22.4 0-3.7.1-6 2.7-5.9 5.9.1 3.1 2.4 5.2 6 5.3 3.6 0 7.2-.1 10.9-.1zM69.8 21.9c3.5 0 7 .1 10.5 0s5.8-2.4 5.8-5.5c0-3-2.1-5.5-5.4-5.6-7.1-.2-14.2-.2-21.3 0-3.2.1-5.4 2.6-5.5 5.6 0 3.1 2.3 5.4 5.8 5.6 3.3 0 6.7-.1 10.1-.1zm0-84.1c3.4 0 6.7.1 10.1 0 3.7-.1 6.2-2.4 6.2-5.6 0-3.2-2.4-5.6-6.1-5.6-6.6-.1-13.2-.1-19.8 0-3.7 0-6.2 2.3-6.2 5.5s2.4 5.5 6.1 5.7c3.2.1 6.4 0 9.7 0zm-.4 30.8c-3.2 0-6.5-.1-9.7 0-3.5.1-5.8 2.5-5.8 5.6 0 3.1 2.4 5.5 5.8 5.5 6.4.1 12.7.1 19.1 0 3.5-.1 5.8-2.4 5.8-5.5 0-3.2-2.3-5.5-5.8-5.6-3.1-.1-6.2 0-9.4 0z" style="fill:#383c43"/><path d="M184.8 62c0-46.2 0-92.5.1-138.7v-19.1c.2 1.5.7 3.1.7 4.6 0 51 0 102.1.1 153.1-.3.1-.6.1-.9.1z" style="fill:#676b60"/><path d="M166.1-113.9H25.4c1.3-.2 2.6-.7 3.9-.7h132.9c1.3 0 2.6.5 3.9.7z" style="fill:#6c6f60"/><path d="M24.6 107.8c-9.6 0-16.4-6.8-16.4-16.5 0-9.6 7.1-16.6 16.8-16.6 9.4 0 16.3 7.2 16.2 16.7-.1 9.7-6.9 16.5-16.6 16.4z" style="fill:#fdfdfd"/><path d="M-55.6-42.7C-53-49.8-50.4-57-47.8-64c1.4-3.8 4-5.2 7.1-4.3 3.7 1.1 4.9 4.2 3.2 8.8-5.1 14.1-10.3 28.2-15.4 42.4-.8 2.1-1.4 4.2-2.1 6.4-2.7 7.3-5.5 14.7-8.2 22-1.1 2.9-2.8 5.1-6.2 5-3.9-.2-6.1-4.1-4.6-8.4 3.6-10.2 7.4-20.4 11.1-30.5 2.5-6.8 4.9-13.5 7.3-20.1z" style="fill:#505860"/><path d="m-96.9-26.3 18.8 18.8c3 3 3.4 6.5 1.2 8.9-2.3 2.5-6 2.1-9.1-1-7.2-7.2-14.5-14.4-21.7-21.7-3.5-3.5-3.5-6.4 0-9.9 7.2-7.2 14.4-14.5 21.7-21.7 3.2-3.2 6.8-3.6 9.1-1.1s1.8 5.9-1.4 9.1c-6.1 6.2-12.2 12.2-18.6 18.6z" style="fill:#4f5760"/><path d="M-14.2-26.6c-2.1-2-4.2-3.8-6.1-5.7-4.3-4.2-8.5-8.4-12.7-12.7-3.4-3.4-3.7-6.5-1-9.1 2.4-2.4 5.8-2 8.9 1 7.3 7.3 14.7 14.6 21.9 22 3.5 3.5 3.5 6.2 0 9.7C-10.5-14-18-6.6-25.4.8c-2.9 2.9-6.2 3.1-8.6.8-2.6-2.6-2.4-5.6.7-8.8C-28-12.6-22.6-18-17.2-23.4c.9-.9 1.7-1.8 3-3.2z" style="fill:#515860"/><path d="M82.8.8H60.4c-4 0-6.5-2.3-6.5-5.6s2.6-5.6 6.6-5.6c14.9-.1 29.9-.1 44.8 0 4.2 0 6.9 2.5 6.7 5.9-.1 3.3-2.7 5.3-6.8 5.3H82.8z" style="fill:#a0dafa"/><path d="M82.1-41.2H60.8c-4.3 0-6.9-2.2-6.9-5.6 0-3.4 2.6-5.6 6.9-5.6h43c4.3 0 6.9 2.2 6.9 5.6 0 3.4-2.6 5.6-6.9 5.6H82.1z" style="fill:#fcfcfc"/><path d="M120.8-20.2h-20.2c-4.1 0-6.4-2.1-6.4-5.6 0-3.4 2.4-5.6 6.5-5.6H141c4.2 0 6.5 2.1 6.6 5.5.1 3.7-2.2 5.7-6.6 5.7h-20.2z" style="fill:#88d17e"/><path d="M115.7 21.9c-4.6 0-9.2.1-13.8 0-4-.1-6.1-2.1-6.2-5.5 0-3.3 2.2-5.7 6-5.7 9.2-.1 18.4-.1 27.7 0 3.7 0 6.1 2.5 6 5.8-.1 3.2-2.5 5.4-6.3 5.4h-13.4z" style="fill:#a0d9f8"/><path d="M114.4-73.4c4.1 0 8.2-.1 12.3 0 3.5.1 5.8 2.3 5.8 5.5s-2.1 5.6-5.6 5.7c-8.6.1-17.2.1-25.8 0-3.4-.1-5.6-2.6-5.4-5.9.1-3 2.3-5.2 5.6-5.3 4.4-.1 8.7 0 13.1 0z" style="fill:#88d27e"/><path d="M137.9-41.2c-3.9 0-7.7.1-11.6 0-3.7-.1-6-2.3-6-5.7 0-3.2 2.2-5.4 5.8-5.5 7.8-.1 15.7-.1 23.5 0 3.7 0 6.1 2.4 6 5.7 0 3.3-2.4 5.4-6.2 5.5-3.8.1-7.6 0-11.5 0z" style="fill:#e5889c"/><path d="M138.5.8c-3.6 0-7.2.1-10.8 0-3.6-.1-5.9-2.2-6-5.3-.2-3.2 2.2-5.8 5.9-5.9 7.5-.1 14.9-.1 22.4 0 3.7.1 6 2.6 5.8 5.9-.2 3.2-2.4 5.2-6 5.2-3.9.2-7.6.1-11.3.1z" style="fill:#fafafb"/><path d="M69.8 21.9c-3.4 0-6.7.1-10.1 0-3.5-.1-5.8-2.5-5.8-5.6 0-2.9 2.2-5.5 5.5-5.6 7.1-.2 14.2-.2 21.3 0 3.3.1 5.4 2.6 5.4 5.6 0 3.1-2.3 5.4-5.8 5.5-3.5.2-7 .1-10.5.1z" style="fill:#f9f9f9"/><path d="M69.8-62.2c-3.2 0-6.5.1-9.7 0-3.7-.1-6.2-2.4-6.1-5.7 0-3.2 2.5-5.5 6.2-5.5 6.6-.1 13.2-.1 19.8 0 3.7 0 6.1 2.4 6.1 5.6 0 3.2-2.4 5.5-6.2 5.6-3.4.1-6.8 0-10.1 0z" style="fill:#a1dbfb"/><path d="M69.4-31.4c3.1 0 6.2-.1 9.3 0 3.5.2 5.7 2.5 5.8 5.6 0 3.1-2.3 5.5-5.8 5.5-6.4.1-12.7.1-19.1 0-3.4-.1-5.8-2.5-5.8-5.5 0-3.1 2.4-5.5 5.8-5.6 3.4-.1 6.6 0 9.8 0z" style="fill:#e4879c"/></svg>