<svg version="1.1" id="Layer_1" xmlns="http://www.w3.org/2000/svg" x="0" y="0" viewBox="0 0 256 361" style="enable-background:new 0 0 256 361" xml:space="preserve"><style>.st2{fill:#ebebeb}.st3{fill:#fff}</style><path d="M127.8 360.1 23.7 331.2.4 70.8h255.1l-23.2 260.4-104.5 28.9z" style="fill:#264de4"/><path d="M212.4 314.5 232.3 92H128v246l84.4-23.5z" style="fill:#2965f1"/><path class="st2" d="m53.7 188.6 2.9 31.9H128v-31.9H53.7zM47.9 124l2.9 31.9H128V124H47.9zM128 271.6h-.1L92.3 262 90 236.5H58l4.5 50.1 65.4 18.2h.1v-33.2z"/><path class="st3" d="M60.5 0h38.7v16.2H76.7v16.2h22.5v16.2H60.5V0zM106.9 0h38.7v14.1h-22.5v2.8h22.5v32.4h-38.7V34.5h22.5v-2.8h-22.5V0zM153.3 0H192v14.1h-22.5v2.8H192v32.4h-38.7V34.5h22.5v-2.8h-22.5V0zM202.1 188.6l5.8-64.6h-80v31.9h45l-2.9 32.7h-42.1v31.9h39.3l-3.7 41.4-35.6 9.6v33.2l65.5-18.1.5-5.4 7.5-84.1.7-8.5z"/></svg>