<svg version="1.1" id="Layer_1" xmlns="http://www.w3.org/2000/svg" x="0" y="0" viewBox="-180 -100 400 400" style="enable-background:new 0 0 50 50" xml:space="preserve"><style>.st0{fill:#3f6d8e}.st2{fill:#365e7d}.st8{fill:#fed066}</style><path class="st0" d="M-68.6 11.9c-1.2-.8-2.3-1.8-3.6-2.4-29.2-14.3-58.4-28.5-87.5-42.7-2.5-1.2-4.8-2.9-7.2-4.3v-5.2c2-1.2 3.8-2.8 5.9-3.5 58.2-19.7 116.3-39.3 174.5-59 7.5-2.5 14.8-2.7 22.3-.1 4.8 1.7 9.6 3.4 14.4 5-.9.7-1.8 1.6-2.8 2-4 1.4-8 2.6-12 4-20.3 6.9-40.7 14-61 20.8-27.3 9.2-54.6 18.4-82 27.6-2.8 1-5 2.3-5.3 5.5-.3 3.2 2.1 4.4 4.6 5.6C-88.8-25.2-69.1-15.6-49.4-6c33.7 16.4 67.3 32.9 101 49.4-4 2.1-7.9 4.3-11.9 6.2-8.9 4.4-18.1 5.3-27.3 1.1C2.9 46.3-6.4 41.5-15.8 37c-8.2-4-16.5-7.8-24.7-11.6-5.3-2.7-10.5-5.5-15.9-8.1-4-2-8.1-3.6-12.2-5.4z"/><path d="M51.6 43.4C17.9 26.9-15.7 10.4-49.4-6l-59.1-28.8c-2.4-1.2-4.9-2.3-4.6-5.6.3-3.2 2.4-4.6 5.3-5.5 27.3-9.1 54.7-18.3 82-27.6 20.4-6.9 40.7-13.9 61-20.8 4-1.4 8-2.6 12-4 1-.4 1.9-1.3 2.8-2 35 11.8 70 23.6 105 35.5 18.3 6.2 36.6 12.3 54.8 18.5l1.8.6c2.6.8 4.9 2.5 4.4 5.3-.4 2-1.9 4.5-3.7 5.4-9.9 5.2-20.1 9.9-30.1 14.9-1.9.9-3.7 1.9-5.6 2.9-.9-.5-1.8-1.1-2.7-1.6-2.9-1.7-5.6-4-8.6-4.9C124.4-34.6 83.6-45.3 42.7-56c-2.1-4.6-5.1-8.4-9.9-10.7-10-5.5-22.9.3-26.6 11.5-3 9 1.2 14.7 10.6 14.7h12.3c4.9.3 9.7.3 13.4-3.7C81.3-34 120-23.8 158.8-13.5c1.8.5 3.5 1.5 5.2 2.2l-44.4 21.6c-.8.4-1.4 1-2.1 1.5-1.6.6-3.4 1-4.9 1.7-20.3 10-40.7 19.9-61 29.9z" style="fill:#477b9e"/><path class="st2" d="M51.6 43.4c20.4-9.9 40.7-19.9 61.1-29.8 1.5-.8 3.3-1.2 4.9-1.7 4.2 16 8.3 32.1 12.6 48.1 1.3 4.9 2.9 9.7 4.4 14.5-21.9 17.1-46.2 29.6-71.7 40.5-25.6 11-50.6 11.9-75.8 0-15-7.1-29.8-14.3-44.7-21.5 0-.2-.1-.4-.1-.6 1.5-5.5 3.2-10.9 4.6-16.4 4.3-17 8.5-34.1 12.7-51.1C-32.3 29.2-24 33-15.8 37c9.4 4.5 18.7 9.3 28.2 13.7 9.2 4.2 18.4 3.3 27.3-1.1 4-2 7.9-4.2 11.9-6.2z"/><path d="M-57.7 93.5C-42.8 100.7-28 107.9-13 115c25.3 11.9 50.3 11 75.8 0 25.4-10.9 49.8-23.4 71.7-40.5 1.9 5.4 4.3 10.7 5.7 16.2 2 7.6-.8 13.9-7 18.7-23.2 17.8-48.7 31.4-76.1 41.6-11.6 4.3-23.4 7.6-36 6.9-9.2-.5-17.9-3-26.4-6.1-21.3-7.6-41.5-17.5-60.6-29.7-.3-.2-.5-.5-.8-.8.5-1.6 1.1-3.3 1.6-4.9 2.4-7.6 4.9-15.3 7.4-22.9z" style="fill:#fddf7d"/><path d="M164-11.3c-1.7-.8-3.4-1.8-5.2-2.2C120-23.8 81.3-34 42.5-44.2c.1-3.9.1-7.9.2-11.8 40.8 10.7 81.7 21.4 122.5 32.3 3.1.8 5.8 3.2 8.6 4.9.9.5 1.8 1.1 2.7 1.6 5 34.3.9 68.9 2.2 103.3h-11.2V-1.6c0-2.2-.2-4.5-.8-6.6-.3-1.2-1.8-2.1-2.7-3.1z" style="fill:#eaf2fd"/><path d="M-40.5 25.4c-4.2 17-8.4 34.1-12.7 51.1-1.4 5.5-3.1 11-4.6 16.4-.8-.4-1.6-.7-2.3-1.2-8.4-5.7-16.8-11.5-25.2-17.3 2.6-8.8 5.4-17.5 7.7-26.3 3.2-12 5.9-24.1 8.9-36.1 4.1 1.8 8.2 3.4 12.2 5.3 5.5 2.5 10.7 5.3 16 8.1z" style="fill:#2a4b64"/><path d="M-85.2 74.4c8.4 5.8 16.8 11.5 25.2 17.3.7.5 1.5.8 2.3 1.2 0 .2 0 .4.1.6-2.5 7.6-5 15.3-7.4 22.9-.5 1.6-1.1 3.3-1.6 4.9-6.6-4.7-13.3-9.2-19.6-14.2-5.2-4.1-6.3-10.3-4.8-16.3 1.2-5.6 3.7-10.9 5.8-16.4z" style="fill:#fdcf64"/><path d="M177.2 156.2c-3.5 0-7 .1-10.4.1-4.8 0-6.8-2.6-6.5-7.4.8-11.5 1.4-23 2.1-34.5h13.3c-.3 6.2-.4 12.3-.8 18.5-.3 5.3-.9 10.5-1.4 15.8-.3 3.4.9 5.8 3.7 7.5z" style="fill:#eab045"/><path class="st8" d="M175.8 114.5h-13.3c-1-1.1-2.7-2.2-2.8-3.4-.3-5.5-.2-11 0-16.4.2-4.9 3.3-7.6 7.9-8.7h11.2c.3.2.6.4.8.7-1.5 1.8-4.1 3.5-4.2 5.3-.2 7.4.3 14.9.4 22.5z"/><path class="st8" d="M177.2 156.2c-2.8-1.7-4-4.2-3.7-7.5.5-5.3 1.1-10.5 1.4-15.8.4-6.2.5-12.3.8-18.5l.1-.1c2.5 0 5 0 7.5.1.7 11.3 1.5 22.5 2.1 33.8.4 6.8-1.4 8.4-8.2 8z"/><path d="M183.3 114.5c-2.5 0-5 0-7.5-.1-.2-7.5-.7-15-.4-22.5.1-1.8 2.7-3.5 4.2-5.3 4.7 1.8 6.5 4.2 6.6 8.8.1 5 .2 10-.1 15-.1 1.4-1.8 2.7-2.8 4.1z" style="fill:#fedf7e"/><path class="st2" d="M29.1-40.5H16.8c-9.4 0-13.6-5.7-10.6-14.7 3.7-11.2 16.6-17 26.7-11.5-1.8 1.7-3.7 3.3-5.4 5.1-6.6 6.5-5.8 16 1.6 21.1z"/><path class="st0" d="M29.1-40.5c-7.4-5.1-8.2-14.5-1.7-21.1 1.7-1.8 3.6-3.4 5.4-5.1 4.7 2.2 7.7 6 9.9 10.7-.1 3.9-.1 7.9-.2 11.8-3.7 4-8.5 4-13.4 3.7z"/></svg>