<?xml version="1.0" encoding="utf-8"?>
<!-- Generator: Adobe Illustrator 25.4.1, SVG Export Plug-In . SVG Version: 6.00 Build 0)  -->
<svg version="1.1" id="Layer_1" xmlns="http://www.w3.org/2000/svg" xmlns:xlink="http://www.w3.org/1999/xlink" x="0px" y="0px" viewBox="-180 -100 400 400" style="enable-background: new 0 0 50 50" xml:space="preserve">
<style>.st0 {
  fill: #3f6d8e;
}

.st1 {
  fill: #477b9e;
}

.st2 {
  fill: #365e7d;
}

.st3 {
  fill: #fddf7d;
}

.st4 {
  fill: #eaf2fd;
}

.st5 {
  fill: #2a4b64;
}

.st6 {
  fill: #fdcf64;
}

.st7 {
  fill: #eab045;
}

.st8 {
  fill: #fed066;
}

.st9 {
  fill: #fedf7e;
}

</style>
<path class="st0" d="M-68.6,11.9c-1.2-0.8-2.3-1.8-3.6-2.4c-29.2-14.3-58.4-28.5-87.5-42.7c-2.5-1.2-4.8-2.9-7.2-4.3
	c0-1.7,0-3.5,0-5.2c2-1.2,3.8-2.8,5.9-3.5c58.2-19.7,116.3-39.3,174.5-59c7.5-2.5,14.8-2.7,22.3-0.1c4.8,1.7,9.6,3.4,14.4,5
	c-0.9,0.7-1.8,1.6-2.8,2c-4,1.4-8,2.6-12,4c-20.3,6.9-40.7,14-61,20.8c-27.3,9.2-54.6,18.4-82,27.6c-2.8,1-5,2.3-5.3,5.5
	c-0.3,3.2,2.1,4.4,4.6,5.6C-88.8-25.2-69.1-15.6-49.4-6c33.7,16.4,67.3,32.9,101,49.4c-4,2.1-7.9,4.3-11.9,6.2
	c-8.9,4.4-18.1,5.3-27.3,1.1C2.9,46.3-6.4,41.5-15.8,37C-24,33-32.3,29.2-40.5,25.4c-5.3-2.7-10.5-5.5-15.9-8.1
	C-60.4,15.3-64.5,13.7-68.6,11.9z"></path>
<path class="st1" d="M51.6,43.4C17.9,26.9-15.7,10.4-49.4-6c-19.7-9.6-39.4-19.2-59.1-28.8c-2.4-1.2-4.9-2.3-4.6-5.6
	c0.3-3.2,2.4-4.6,5.3-5.5c27.3-9.1,54.7-18.3,82-27.6c20.4-6.9,40.7-13.9,61-20.8c4-1.4,8-2.6,12-4c1-0.4,1.9-1.3,2.8-2
	c35,11.8,70,23.6,105,35.5c18.3,6.2,36.6,12.3,54.8,18.5c0.6,0.2,1.2,0.4,1.8,0.6c2.6,0.8,4.9,2.5,4.4,5.3c-0.4,2-1.9,4.5-3.7,5.4
	c-9.9,5.2-20.1,9.9-30.1,14.9c-1.9,0.9-3.7,1.9-5.6,2.9c-0.9-0.5-1.8-1.1-2.7-1.6c-2.9-1.7-5.6-4-8.6-4.9
	C124.4-34.6,83.6-45.3,42.7-56c-2.1-4.6-5.1-8.4-9.9-10.7C22.8-72.2,9.9-66.4,6.2-55.2c-3,9,1.2,14.7,10.6,14.7c4.1,0,8.2,0,12.3,0
	c4.9,0.3,9.7,0.3,13.4-3.7C81.3-34,120-23.8,158.8-13.5c1.8,0.5,3.5,1.5,5.2,2.2c-14.8,7.2-29.6,14.4-44.4,21.6
	c-0.8,0.4-1.4,1-2.1,1.5c-1.6,0.6-3.4,1-4.9,1.7C92.3,23.5,71.9,33.4,51.6,43.4z"></path>
<path class="st2" d="M51.6,43.4c20.4-9.9,40.7-19.9,61.1-29.8c1.5-0.8,3.3-1.2,4.9-1.7c4.2,16,8.3,32.1,12.6,48.1
	c1.3,4.9,2.9,9.7,4.4,14.5c-21.9,17.1-46.2,29.6-71.7,40.5c-25.6,11-50.6,11.9-75.8,0c-15-7.1-29.8-14.3-44.7-21.5
	c0-0.2-0.1-0.4-0.1-0.6c1.5-5.5,3.2-10.9,4.6-16.4c4.3-17,8.5-34.1,12.7-51.1C-32.3,29.2-24,33-15.8,37c9.4,4.5,18.7,9.3,28.2,13.7
	c9.2,4.2,18.4,3.3,27.3-1.1C43.7,47.6,47.6,45.4,51.6,43.4z"></path>
<path class="st3" d="M-57.7,93.5C-42.8,100.7-28,107.9-13,115c25.3,11.9,50.3,11,75.8,0c25.4-10.9,49.8-23.4,71.7-40.5
	c1.9,5.4,4.3,10.7,5.7,16.2c2,7.6-0.8,13.9-7,18.7C110,127.2,84.5,140.8,57.1,151c-11.6,4.3-23.4,7.6-36,6.9
	c-9.2-0.5-17.9-3-26.4-6.1c-21.3-7.6-41.5-17.5-60.6-29.7c-0.3-0.2-0.5-0.5-0.8-0.8c0.5-1.6,1.1-3.3,1.6-4.9
	C-62.7,108.8-60.2,101.1-57.7,93.5z"></path>
<path class="st4" d="M164-11.3c-1.7-0.8-3.4-1.8-5.2-2.2C120-23.8,81.3-34,42.5-44.2c0.1-3.9,0.1-7.9,0.2-11.8
	c40.8,10.7,81.7,21.4,122.5,32.3c3.1,0.8,5.8,3.2,8.6,4.9c0.9,0.5,1.8,1.1,2.7,1.6c5,34.3,0.9,68.9,2.2,103.3c-3.7,0-7.5,0-11.2,0
	c0-29.2,0-58.4,0-87.7c0-2.2-0.2-4.5-0.8-6.6C166.4-9.4,164.9-10.3,164-11.3z"></path>
<path class="st5" d="M-40.5,25.4c-4.2,17-8.4,34.1-12.7,51.1c-1.4,5.5-3.1,11-4.6,16.4c-0.8-0.4-1.6-0.7-2.3-1.2
	c-8.4-5.7-16.8-11.5-25.2-17.3c2.6-8.8,5.4-17.5,7.7-26.3c3.2-12,5.9-24.1,8.9-36.1c4.1,1.8,8.2,3.4,12.2,5.3
	C-51,19.8-45.8,22.6-40.5,25.4z"></path>
<path class="st6" d="M-85.2,74.4c8.4,5.8,16.8,11.5,25.2,17.3c0.7,0.5,1.5,0.8,2.3,1.2c0,0.2,0,0.4,0.1,0.6
	c-2.5,7.6-5,15.3-7.4,22.9c-0.5,1.6-1.1,3.3-1.6,4.9c-6.6-4.7-13.3-9.2-19.6-14.2c-5.2-4.1-6.3-10.3-4.8-16.3
	C-89.8,85.2-87.3,79.9-85.2,74.4z"></path>
<path class="st7" d="M177.2,156.2c-3.5,0-7,0.1-10.4,0.1c-4.8,0-6.8-2.6-6.5-7.4c0.8-11.5,1.4-23,2.1-34.5c4.4,0,8.9,0,13.3,0
	c-0.3,6.2-0.4,12.3-0.8,18.5c-0.3,5.3-0.9,10.5-1.4,15.8C173.2,152.1,174.4,154.5,177.2,156.2z"></path>
<path class="st8" d="M175.8,114.5c-4.4,0-8.9,0-13.3,0c-1-1.1-2.7-2.2-2.8-3.4c-0.3-5.5-0.2-11,0-16.4c0.2-4.9,3.3-7.6,7.9-8.7
	c3.7,0,7.5,0,11.2,0c0.3,0.2,0.6,0.4,0.8,0.7c-1.5,1.8-4.1,3.5-4.2,5.3C175.2,99.4,175.7,106.9,175.8,114.5L175.8,114.5z"></path>
<path class="st8" d="M177.2,156.2c-2.8-1.7-4-4.2-3.7-7.5c0.5-5.3,1.1-10.5,1.4-15.8c0.4-6.2,0.5-12.3,0.8-18.5c0,0,0.1-0.1,0.1-0.1
	c2.5,0,5,0,7.5,0.1c0.7,11.3,1.5,22.5,2.1,33.8C185.8,155,184,156.6,177.2,156.2z"></path>
<path class="st9" d="M183.3,114.5c-2.5,0-5,0-7.5-0.1c-0.2-7.5-0.7-15-0.4-22.5c0.1-1.8,2.7-3.5,4.2-5.3c4.7,1.8,6.5,4.2,6.6,8.8
	c0.1,5,0.2,10-0.1,15C186,111.8,184.3,113.1,183.3,114.5z"></path>
<path class="st2" d="M29.1-40.5c-4.1,0-8.2,0-12.3,0c-9.4,0-13.6-5.7-10.6-14.7c3.7-11.2,16.6-17,26.7-11.5
	c-1.8,1.7-3.7,3.3-5.4,5.1C20.9-55.1,21.7-45.6,29.1-40.5z"></path>
<path class="st0" d="M29.1-40.5c-7.4-5.1-8.2-14.5-1.7-21.1c1.7-1.8,3.6-3.4,5.4-5.1c4.7,2.2,7.7,6,9.9,10.7
	c-0.1,3.9-0.1,7.9-0.2,11.8C38.8-40.2,34-40.2,29.1-40.5z"></path>
</svg>
