<svg version="1.1" id="Layer_1" xmlns="http://www.w3.org/2000/svg" x="0" y="0" viewBox="0 0 256 361" style="enable-background:new 0 0 256 361" xml:space="preserve"><style>.st2{fill:#ebebeb}.st3{fill:#fff}</style><path d="m255.6 70.8-23.2 260.4-104.5 29-104.2-29L.4 70.8h255.2z" style="fill:#e44d26"/><path d="m128 338 84.4-23.4 19.9-222.5H128V338z" style="fill:#f16529"/><path class="st2" d="M82.8 155.9H128V124H47.9l.8 8.6 7.8 88H128v-31.9H85.7l-2.9-32.8zM90 236.5H58l4.5 50.1 65.4 18.2h.1v-33.2h-.1L92.3 262 90 236.5z"/><path class="st3" d="M24.2 0h16.2v16h14.8V0h16.2v48.6H55.3V32.3H40.4v16.3H24.2V0zM92.8 16.1H78.5V0h44.8v16.1H109v32.5H92.8V16.1zM130.5 0h16.9l10.4 17.1L168.2 0h16.9v48.6H169V24.5l-11.2 17.3h-.3l-11.2-17.3v24.1h-15.9V0h.1zM193.2 0h16.2v32.5h22.8v16.1h-39.1V0h.1zM127.9 220.6h39.3l-3.7 41.4-35.6 9.6v33.2l65.5-18.1.5-5.4 7.5-84.1.8-8.6H128v32h-.1zM127.9 155.9l77.1.1.6-7.2 1.5-16.2.8-8.6h-80v31.9z"/></svg>