<svg id="Layer_1" version="1.1" viewBox="0 0 24 24" xml:space="preserve" xmlns="http://www.w3.org/2000/svg"><radialGradient cx="8.833" cy="6.167" gradientUnits="userSpaceOnUse" id="SVGID_1_" r="17.588"><stop offset="0" style="stop-color:#4b1325;stop-opacity:.98"/><stop offset="1" style="stop-color:#1a1107"/></radialGradient><path fill="url('#SVGID_1_')" d="M1.5 1.5h21v21h-21z"/><path d="M23 23H1V1h22v22zM2 22h20V2H2v20z" fill="#EE3D8B"/><path fill="#EE3D8B" d="M8 6h2v12H8zM18 18h-3.4c-1.67 0-3.19-1.129-3.525-2.765A3.506 3.506 0 0 1 14.5 11H16V8h2v10zm-3.5-5c-.827 0-1.5.673-1.5 1.5s.673 1.5 1.5 1.5H16v-3h-1.5z"/><linearGradient gradientUnits="userSpaceOnUse" id="SVGID_2_" x1="-1.249" x2="25.249" y1="5.822" y2="18.178"><stop offset="0" style="stop-color:#fff;stop-opacity:.2"/><stop offset="1" style="stop-color:#fff;stop-opacity:0"/></linearGradient><path d="M23 23H1V1h22v22z" fill="url('#SVGID_2_')"/></svg>