<svg version="1.1" id="Layer_1" xmlns="http://www.w3.org/2000/svg" x="0" y="0" viewBox="-100 -100 250 250" style="enable-background:new 0 0 50 50" xml:space="preserve"><style>.st0{fill:#212020}.st1{fill:#e6e6e6}.st2{fill:#bbb}.st4{fill:#363535}.st5{fill:#030303}.st6{fill:#0d0c0c}.st7{fill:#282727}.st9{fill:#302f2f}.st10{fill:#141313}.st11{fill:#191818}.st12{fill:#b438bd}.st13{fill:#df40ec}.st14{fill:#6c2b70}.st15{fill:#8b3292}.st16{fill:#8c8b8b}.st19{fill:#413f3f}.st20{fill:#2d2c2c}.st21{fill:#3a3939}.st22{fill:#323031}.st23{fill:#828181}</style><path class="st0" d="M-73.2 58.5c-.1-.3-.2-.7-.3-1 .1-.8.4-1.6.4-2.3.1-4.4.1-8.8.1-13.2.1-3.4.2-6.7.4-10.1-.1-3-.1-6-.2-9 .1-1.5.2-2.9.2-4.4.2-3.5.3-7 .5-10.6-.1-3.3-.1-6.7-.2-10 .1-.8.1-1.6.2-2.4.2-.7.6-1.3.6-2 .1-3.2.1-6.5.1-9.7 0-.8-.3-1.5-.5-2.3v-1c.3-.1.6-.2.9-.2.8 1.4 1.7 2.8 2.5 4.2.3.7.7 1.4 1 2.1.4.8.7 1.6 1.1 2.5-.2 3.3-.3 6.7-.5 10v6.5c-.2 2.5-.3 5-.5 7.5v6.5c0 1.6-.1 3.2 0 4.7.1.8.4 1.8.9 2.4 1.5 1.7 3.1 3.2 4.7 4.8 5 5.1 9.9 10.3 14.9 15.4 6.8 7 13.6 13.9 20.4 20.8 3.3 3.4 6.7 6.6 10 10C-11.4 83.1-6.4 88.6-1.2 94c3.9 4.1 7.9 8.3 11.9 12.3.9.9 2.2 1.4 3.2 2.2-.3 2.8-.7 5.7-1 8.5-.8-.6-1.7-1-2.4-1.7l-24.6-25.5c-8.8-9.2-17.6-18.4-26.5-27.5-8.3-8.5-16.6-17-25-25.5-.6-.6-1.3-.9-2.5-1.6v11.4c-.2 2.3-.3 4.7-.5 7 0 1 .1 2 0 3-.4 2.7.8 4.6 2.7 6.5 5.2 5.2 10.1 10.8 15.2 16.1 7.1 7.5 14.2 14.9 21.4 22.4 5.8 6.1 11.7 12.1 17.6 18.1l.9.9c6.9 7 13.8 14.2 20.7 21.4l2.1 4.5c.1.2.3.5.4.7 0 .1 0 .2.1.3.2.2.3.4.5.6v.9c-.6-.3-1.2-.5-1.7-.9-27.2-28.5-54.4-57.1-81.6-85.7-1.1-1.2-2-2.6-2.9-3.9zM115.9 77.5c-.3.3-.7.6-1 1-1.1.8-2.3 1.6-3.4 2.4l-93.9 67.5c-.4.3-1 .5-1.5.7 0-.4 0-.9-.1-1.3.3-.4.7-.8 1-1.2l3-3.6c6.2-4.4 12.4-8.8 18.6-13.3 23-16.5 46-33.1 69.2-49.4 3-2.1 4.1-4.5 4.2-7.8.5-1.8 1-3.7 1.5-5.5.2-1.2.4-2.3.5-3.5.3-1.3.7-2.7 1-4 .3-1.3.7-2.7 1-4 .3-1.5.7-3 1-4.5.4-1.6.7-3.1 1.3-5.4-1.5.7-2.3 1-3 1.5-3.3 2.3-6.5 4.6-9.7 6.9C93 62.8 80.4 71.5 67.9 80.4 54.3 90 40.7 99.8 27 109.4c-.8.6-2 .7-2.9 1.1.4-2.9.9-5.8 1.3-8.7.6.1 1.3.5 1.6.2 1.5-.8 3-1.8 4.4-2.8C41.6 92 51.7 84.8 61.8 77.6c9.1-6.4 18.2-12.8 27.3-19.1 7.7-5.4 15.3-10.8 23.1-16 4.9-3.2 9.5-6.4 9.8-13 .3-1.7.7-3.3 1-5 .3-2 .7-4 1-6 .8-3.5 1.6-7 2.5-10.5.5-.8 1.1-1.7 1.6-2.5h-.1l1-1c.2-.2.4-.4.6-.5 1-1 1.9-2 2.9-3 0 .7 0 1.3-.1 2-2.7 11.9-5.5 23.7-8.2 35.6-1.2 5.5-2.3 11-3.5 16.5-.1.3-.1.6-.2.9-.8 3.4-1.6 6.7-2.3 10.1-.1.3-.1.6-.2.9-.4 1.9-.9 3.7-1.3 5.6-.1.3-.1.6-.2.9-.2 1.2-.4 2.4-.7 3.5.1.2.2.3.1.5z"/><path class="st1" d="M115.9 77.5v-.4c.5-1.2.9-2.4 1.4-3.5.1-.3.2-.7.3-1 0-.3.1-.6.1-.9.1-.4.2-.7.3-1.1.2-1.2.5-2.3.7-3.5.1-.3.2-.7.3-1 0-.3.1-.6.1-.9.1-.4.2-.7.3-1.1.2-1.1.5-2.3.7-3.4.1-.4.2-.7.3-1.1 0-.3.1-.6.1-.9.1-.4.2-.7.3-1.1l.3-1.5c.1-.3.2-.7.3-1 0-.3.1-.6.1-.9.1-.4.2-.7.3-1.1 0-.3.1-.6.1-.9.1-.4.2-.7.3-1.1.1-.5.1-.9.2-1.4.1-.4.2-.7.3-1.1 0-.3.1-.6.1-.9.1-.4.2-.7.3-1.1 0-.3.1-.6.1-.9.1-.4.2-.7.3-1.1.1-.5.1-.9.2-1.4.1-.4.2-.7.3-1.1 0-.3.1-.6.1-.9.1-.4.2-.7.3-1.1.2-1.1.5-2.3.7-3.4.1-.4.2-.7.3-1.1 0-.3.1-.6.1-.9.1-.4.2-.7.3-1.1.1-.5.1-.9.2-1.4.1-.4.2-.7.3-1.1 0-.3.1-.6.1-.9.1-.4.2-.7.3-1.1 0-.3.1-.6.1-.9.1-.4.2-.7.3-1.1.1-.5.1-.9.2-1.4.1-.4.2-.7.3-1.1 0-.3.1-.6.1-.9.1-.4.2-.7.3-1.1 0-.3.1-.6.1-.9.1-.4.2-.7.3-1.1.1-.5.1-.9.2-1.4.1-.4.2-.7.3-1.1 0-.3.1-.6.1-.9.1-.4.2-.7.3-1.1 0-.3.1-.6.1-.9.1-.4.2-.7.3-1.1.1-.5.1-.9.2-1.4.1-.4.2-.7.3-1.1 0-.3.1-.6.1-.9.1-.4.2-.7.3-1.1 0-.3.1-.6.1-.9.1-.4.2-.7.4-1.1.4-1.3.7-2.6 1.1-3.9 1.9-2 2.1-4.2.2-6-2.6-2.5-5.3-5-8-7.5-6.6-6.2-13.1-12.4-19.7-18.6-.5-.5-1.4-.7-2.1-1-.1-.4-.2-.9-.4-1.1-4.5-4.3-8.9-8.6-13.5-12.9-.4-.3-1.1-.3-1.6-.5-.1-.4-.2-.9-.4-1.1-4.5-4.3-8.9-8.6-13.5-12.9-.4-.3-1.1-.3-1.6-.5-.1-.4-.2-.9-.4-1.1-4.5-4.3-8.9-8.6-13.5-12.9-.4-.3-1.1-.3-1.6-.5-1.5-1.8-3-3.6-4.7-5.3.7-.9-.4-1.3-1.4-1.8l-.5-.5c-2.5-4-5.9-7-10-9.2-.4-.2-1 .1-1.5.1-.3 0-.7 0-1 .1-2.3-1-3.7.4-5 2-.1 0-.3.1-.4.1-.5.1-1.2.2-1.6.5-4 2.5-8 5-12.1 7.5C0-68.2-18-57-35.9-45.8-48-38.2-60-30.6-72.1-23c-1.8 1.1-2 3.5-.6 5.5 0 2.2 0 4.4.1 6.7.1 2.1.3 4.2.4 6.3-.1.8-.1 1.6-.2 2.4-.4.3-1 .6-1 .8 0 3.1.2 6.2.3 9.3v2.7c.1 2.6.2 5.2.4 7.8-.1 1.5-.2 2.9-.2 4.4-.3.2-.9.4-.9.6 0 2.8.2 5.7.3 8.5v3.4c-.3 0-.6 0-.9.1-.2-1-.5-1.9-.4-2.9.1-12.9.3-25.8.5-38.7.1-5-.1-9.9.1-14.9 0-1 .7-2.5 1.5-3 4.5-3 9.1-5.7 13.7-8.6 20-12.5 40-25 59.9-37.6 9.2-5.8 18.6-11.8 28-17.7 1.5-.9 3.1-1.5 4.6-2.4 4.1-2.4 7.5-.7 10.4 2 7.7 7 15.3 14.3 23 21.4 7.5 7 15.1 14.1 22.6 21.1 7.8 7.3 15.6 14.7 23.5 22 6.6 6.2 13 12.6 20 18.3 3.7 3 3.5 5.5 2.1 9.5-2.2 6.6-3.5 13.6-5.1 20.5-3.7 15.9-7.3 31.8-11.1 47.7-.5 1.9-1.9 3.5-3 5.3z"/><path class="st2" d="M16.1 149.1c.5-.2 1.1-.4 1.5-.7l93.9-67.5c1.1-.8 2.3-1.6 3.4-2.4-.9 1-1.6 2.3-2.7 3.1-24.8 17.9-49.6 35.8-74.4 53.6-6 4.3-12.1 8.5-18 12.9-1.3 1-2.3 2.4-3.4 3.5-.5.5-1.1 1.2-1.5 1.1-1.3-.3-2.8-.6-3.6-1.5-1.6-1.7-2.5-4-4.1-5.7-8.8-9.3-17.7-18.5-26.6-27.8-6.7-7-13.3-14-20-21-9.7-10.2-19.4-20.4-29-30.6-1.7-1.8-3.2-3.8-4.7-5.8-.3-.4-.1-1.3-.1-1.9 1 1.3 1.8 2.8 3 3.9C-43 90.9-15.8 119.5 11.4 148c.4.4 1.1.6 1.7.9v-.1c.2.4.4.9.5 1.3.2.1.5.2.7.2.3-.3.5-.7.8-1 .2.1.6-.1 1-.2zM-74.5 35.5c.3 0 .6 0 .9-.1.2 2.2.3 4.4.5 6.5 0 4.4 0 8.8-.1 13.2 0 .8-.3 1.6-.4 2.3-.3-.5-.7-1-1-1.5V44.8c0-3 0-6.2.1-9.3z"/><path class="st1" d="M-74.6 45v11.1c-.2-.1-.4-.1-.4-.2V45.2c0-.1.2-.2.4-.2z"/><path d="M-67-1c.2-3.3.3-6.7.5-10C-60.2-4.7-54 1.7-47.7 8c19 19.2 38 38.4 56.9 57.6 3 3.1 5.9 6.3 8.8 9.5-.4 2.7-.8 5.3-1.1 8-.7-.4-1.5-.8-2-1.4-1.7-1.7-3.2-3.6-4.9-5.3C.7 66.9-8.6 57.4-17.9 48c-13.6-14-27.3-27.8-41-41.6-1.8-1.8-3.4-3.9-5.2-5.6C-64.9 0-66-.4-67-1z" style="fill:#444243"/><path class="st4" d="M-67.5 13c.2-2.5.3-5 .5-7.5.8.6 1.7 1 2.4 1.7 6.5 6.6 12.9 13.2 19.3 19.8 8.9 9.1 17.9 18.2 26.8 27.3 10.8 11 21.6 21.9 32.4 32.9.7.7 1.6 1 2.5 1.5-.3 2.5-.7 4.9-1 7.4-.8-.4-1.7-.6-2.3-1.2-1.7-1.7-3.2-3.6-4.9-5.3C.7 81.7-6.9 74-14.4 66.3c-5.9-6.1-11.8-12.1-17.7-18.2-6.7-6.8-13.3-13.7-20-20.5-4.5-4.6-9-9.3-13.6-13.9-.4-.4-1.2-.5-1.8-.7z"/><path class="st5" d="M9.9 142c-6.9-7.2-13.8-14.3-20.8-21.5l-.9-.9c-5.9-6-11.7-12-17.6-18.1-7.1-7.4-14.3-14.9-21.4-22.4-5.1-5.4-10-10.9-15.2-16.1-1.9-1.9-3.1-3.8-2.7-6.5.1-1 0-2 0-3 .7.5 1.6.9 2.2 1.5 2.4 2.5 4.7 5.1 7.2 7.6 7.9 8.2 15.9 16.2 23.8 24.4 4.9 5.1 9.7 10.4 14.7 15.5 5.5 5.8 11.1 11.4 16.6 17.2.4.4.7.9 1.1 1.4 3.8 4 7.5 8 11.3 11.9.7.7 1.7 1 2.5 1.5-.1 2.5-.5 5-.8 7.5z"/><path class="st6" d="M10.9 134.5c-.9-.5-1.9-.8-2.5-1.5-3.8-3.9-7.6-7.9-11.3-11.9-.4-.4-.7-.9-1.1-1.4-5.5-5.7-11.1-11.4-16.6-17.2-4.9-5.1-9.7-10.4-14.7-15.5-7.9-8.2-15.9-16.3-23.8-24.4-2.4-2.5-4.7-5.1-7.2-7.6-.6-.6-1.5-1-2.2-1.5.2-2.3.3-4.7.5-7 .4.1.9.2 1.1.4 3.8 3.7 7.5 7.5 11.2 11.3 4 4.2 7.9 8.5 11.9 12.7 4.1 4.2 8.3 8.3 12.4 12.5 4.9 5.1 9.6 10.3 14.5 15.4 5.3 5.5 10.7 11 16 16.5 2.2 2.3 4.2 4.7 6.4 6.9 1.9 1.9 4.1 3.6 6.1 5.4-.3 2.2-.5 4.6-.7 6.9z"/><path class="st7" d="M13.9 108.5c-1.1-.7-2.4-1.3-3.2-2.2-4-4.1-8-8.2-11.9-12.3-5.1-5.4-10.2-10.9-15.4-16.3-3.3-3.4-6.7-6.7-10-10-6.8-6.9-13.6-13.9-20.4-20.8-5-5.1-9.9-10.2-14.9-15.4-1.5-1.6-3.2-3.1-4.7-4.8-.5-.6-.9-1.6-.9-2.4-.1-1.6 0-3.2 0-4.7.8.4 1.9.7 2.5 1.3 2.9 2.9 5.7 6 8.5 9 5.8 6 11.6 12 17.5 18 8.1 8.3 16.2 16.5 24.3 24.8 4.5 4.6 9 9.3 13.5 14 2.9 3 5.7 6.2 8.7 9.2 2.2 2.2 4.6 4.2 7 6.3-.2 2-.4 4.1-.6 6.3z"/><path d="M16.4 88.6c-.8-.5-1.8-.8-2.5-1.5C3.1 76.2-7.7 65.2-18.5 54.3c-8.9-9.1-17.9-18.2-26.8-27.3-6.4-6.6-12.9-13.2-19.3-19.8-.7-.7-1.6-1.2-2.4-1.7V-1c1 .6 2.1 1 2.8 1.7 1.8 1.8 3.4 3.8 5.2 5.6C-45.3 20.2-31.6 34-18 47.8-8.7 57.3.6 66.7 9.9 76.2c1.7 1.7 3.2 3.6 4.9 5.3.5.6 1.3.9 2 1.4 0 2-.2 3.8-.4 5.7z" style="fill:#3d3b3b"/><path class="st9" d="M14.5 102c-2.3-2.1-4.7-4.1-7-6.3-3-3-5.8-6.1-8.7-9.2-4.5-4.7-9-9.3-13.5-14C-22.8 64.3-30.9 56-39 47.8c-5.8-6-11.7-12-17.5-18-2.9-3-5.6-6-8.5-9-.6-.6-1.7-.9-2.5-1.3V13c.6.2 1.3.3 1.8.7 4.6 4.6 9.1 9.3 13.6 13.9 6.7 6.8 13.3 13.7 20 20.5 5.9 6.1 11.8 12.1 17.7 18.2C-6.9 74 .7 81.7 8.2 89.5c1.7 1.7 3.2 3.6 4.9 5.3.6.6 1.5.8 2.3 1.2l-.9 6z"/><path class="st10" d="M11.5 127.5c-2-1.8-4.2-3.5-6.1-5.4-2.2-2.2-4.2-4.6-6.4-6.9-5.3-5.5-10.7-11-16-16.5-4.9-5.1-9.6-10.3-14.5-15.4-4.1-4.2-8.3-8.3-12.4-12.5-4-4.2-7.9-8.5-11.9-12.7-3.7-3.8-7.4-7.6-11.2-11.3-.3-.3-.7-.3-1.1-.4v-6c.7.5 1.6.9 2.2 1.5 2.6 2.6 5 5.3 7.6 7.9 3.8 3.9 7.6 7.6 11.3 11.5 4.5 4.7 8.8 9.5 13.3 14.2 4.6 4.8 9.5 9.4 14.1 14.2 3.9 4.1 7.6 8.3 11.5 12.4 6 6.3 12.1 12.5 18.2 18.7.6.6 1.4 1.1 2.1 1.7-.1 1.7-.4 3.4-.7 5z"/><path class="st11" d="M12.3 122.6c-.7-.6-1.5-1-2.1-1.7C4.1 114.7-2 108.5-8 102.2c-3.9-4.1-7.6-8.3-11.5-12.4-4.6-4.8-9.5-9.4-14.1-14.2-4.5-4.7-8.8-9.5-13.3-14.2-3.7-3.9-7.6-7.7-11.3-11.5-2.5-2.6-5-5.3-7.6-7.9-.6-.6-1.5-1-2.2-1.5v-5.4c1.2.8 2 1.1 2.5 1.6 8.4 8.5 16.7 17 25 25.5 8.9 9.1 17.7 18.3 26.5 27.5l24.6 25.5c.7.7 1.6 1.2 2.4 1.7-.3 2-.5 3.8-.7 5.7z"/><path class="st12" d="M18.1 75c-2.9-3.2-5.8-6.4-8.8-9.5-19-19.2-38-38.4-57-57.5C-54 1.7-60.2-4.7-66.5-11c-.4-.8-.7-1.6-1.1-2.5.3-.2.7-.3 1-.5 2.6 2.5 5.2 5 7.8 7.6 4.1 4.1 8.1 8.3 12.2 12.4 2 2.1 4 4.3 6.1 6.4.7.6 1.4 1.2 2 1.8 4.6 4.7 9.2 9.5 13.9 14.3L-10 43.4l5 5c2.6 2.6 5.3 5.1 7.8 7.7C8.3 61.8 13.6 67.4 19.1 73c.6.6 1.6.7 2.4 1.1.3 1 .6 1.9 1 2.9L21 87.5h-1c.1-1.9.1-3.9.4-5.7.8-4.6.6-5.4-2.3-6.8z"/><path class="st13" d="M18.1 75c2.9 1.4 3.1 2.2 2.3 6.7-.3 1.9-.3 3.8-.4 5.7 0 .8-.1 1.6-.1 2.4-.1.4-.2.7-.3 1.1-.1 1-.1 2-.2 2.9-.1.4-.2.7-.3 1.1-.1 1-.1 2-.2 2.9-.1.4-.2.7-.3 1.1-.1 1-.1 2-.2 2.9-.1.4-.2.7-.3 1.1-.1 1-.1 2-.2 2.9-.1.4-.2.7-.3 1.1-.1 1-.1 2-.2 2.9-.1.4-.2.7-.3 1.1-.1 1-.1 2-.2 2.9-.1.4-.2.7-.3 1.1-.1 1-.1 2-.2 2.9-.1.4-.2.7-.3 1.1-.1 1-.1 2-.2 2.9-.1.4-.2.7-.3 1.1 0 1-.1 2-.1 2.9-.1.4-.2.7-.4 1.1-.1 1-.1 2-.2 2.9-1.3 2.8-1.8 5.6-1 8.6 0 .3 0 .7-.1 1-.1 1-.3 2-.4 3v.9c-.3 1-.5 2.1-.8 3.1v.1c-.2 0-.3-.1-.5-.1l-2.1-4.5c.3-2.5.6-5 1-7.5.2-2.3.4-4.7.6-7 .3-1.6.5-3.3.8-4.9.2-1.9.4-3.7.6-5.6.3-2.8.7-5.7 1-8.5.2-2.2.4-4.3.6-6.5l.9-6c.3-2.5.7-4.9 1-7.4.2-1.9.3-3.7.5-5.6.3-2.6.7-5.2 1.1-7.9z"/><path class="st14" d="M21.5 74.1c-.8-.4-1.8-.5-2.4-1.1-5.5-5.6-10.8-11.2-16.3-16.8-2.6-2.6-5.2-5.1-7.8-7.7l-5-5-14.6-14.9c-4.6-4.7-9.2-9.5-13.9-14.3-.6-.6-1.3-1.2-2-1.8-2-2.1-4-4.3-6.1-6.4-4-4.1-8.1-8.3-12.2-12.4-2.6-2.6-5.2-5.1-7.8-7.6-.7-.5-1.4-1.1-2.1-1.6-.8-1.4-1.7-2.8-2.5-4.2 0-.2.1-.5.1-.7.4.1.8.2 1.2.2.5.4.9.8 1.4 1.2C-63.3-13.9-58.2-8.7-53-3.5c2.8 3.1 5.4 6.4 8.4 9.4 5.3 5.4 10.6 10.7 16 16.1.6.6 1.5 1 2.2 1.4 4.5 4.5 9 9 13.4 13.6 2 2.3 3.8 4.8 5.9 6.9C-2 49.2 3.2 54.4 8.3 59.5c.6.6 1.5 1 2.2 1.4 3.2 3.2 6.3 6.4 9.5 9.6.5.6 1.1 1.2 1.6 1.8l.1.1c0 .3 0 .7-.1 1 0 .3-.1.5-.1.7z"/><path class="st2" d="M-72.7-17.4c-1.4-2-1.1-4.4.6-5.5C-60-30.6-48-38.2-35.9-45.8-18-57 0-68.2 17.9-79.4c4-2.5 8-5 12.1-7.5.5-.3 1.1-.3 1.6-.5-.7.6-1.4 1.4-2.2 1.9C17.1-77.7 4.8-70-7.5-62.2-26.7-50.1-46-38-65.3-25.8c-1.7 1.1-3.2 2.5-4.7 3.8-2.2.4-2.4.7-2 2.5v1c-.3.4-.5.7-.7 1.1z"/><path class="st15" d="M13.4 143.4v-.9h2.7v5.3c0 .4 0 .9.1 1.3l-.1-.1c-.3.2-.7.3-1 .5-.3.3-.5.7-.8 1-.2-.1-.5-.2-.7-.2-.2-.4-.4-.9-.5-1.3v.1-.9c-.2-.2-.3-.4-.5-.6-.1-.1-.1-.2-.1-.3 0-.2.1-.4.1-.6v-.1c.3-1.1.5-2.1.8-3.2z"/><path class="st2" d="M-73.1 8c-.1-3.1-.3-6.2-.3-9.3 0-.3.7-.5 1-.8.1 3.3.1 6.7.2 10-.3 0-.6.1-.9.1z"/><path class="st16" d="M-72.7-17.4c.2-.4.4-.7.6-1.1.2.8.5 1.5.5 2.3 0 3.2 0 6.5-.1 9.7 0 .7-.4 1.3-.6 2-.1-2.1-.3-4.2-.4-6.3v-6.6z"/><path class="st2" d="M-73.6 32c-.1-2.8-.2-5.7-.3-8.5 0-.2.6-.4.9-.6.1 3 .1 6 .2 9-.2 0-.5.1-.8.1z"/><path class="st16" d="M-73.1 8c.3 0 .6-.1.9-.1-.2 3.5-.3 7-.5 10.6-.1-2.6-.3-5.2-.4-7.8V8zM-73.6 32c.3 0 .6-.1.8-.1-.1 3.4-.2 6.7-.4 10.1-.2-2.2-.3-4.4-.5-6.5.1-1.2.1-2.4.1-3.5zM-72.1-19.5c-.4-1.8-.2-2.1 2-2.5-.3.5-.7 1-1 1.6 0 .2-.1.5-.1.7-.2 0-.5.1-.9.2z"/><path class="st15" d="M-68.6-15.6c.7.5 1.4 1.1 2.1 1.6-.3.2-.7.3-1 .5-.4-.7-.7-1.4-1.1-2.1z"/><path class="st12" d="M12.6 146.6c0 .2-.1.4-.1.6-.1-.2-.3-.5-.4-.7.1 0 .3.1.5.1zM12.5 147.5c.2.2.3.4.5.6-.2-.2-.3-.4-.5-.6z"/><path d="M126.5 8c-.8 3.5-1.6 7-2.5 10.5-1 .4-2 .6-2.9 1.2-17 11.8-34 23.6-51 35.5-6.9 4.8-13.7 9.6-20.5 14.4-6.5 4.5-12.9 9-19.4 13.4-.6.4-1.5.2-2.3.2.2-2.4.4-4.8.6-7.3.7-.5 1.3-1 2-1.5 32-22 64-44.2 96-66.4z" style="fill:#060506"/><path class="st11" d="M122 29.5c-.3 6.6-5 9.7-9.8 13-7.8 5.2-15.4 10.6-23.1 16-9.1 6.3-18.2 12.7-27.3 19.1C51.7 84.8 41.6 92 31.4 99.2c-1.4 1-2.9 2-4.4 2.8-.4.2-1.1-.1-1.6-.2.3-2.3.5-4.6.8-6.9 1.2-.6 2.5-1.1 3.7-1.8C40.5 85.7 51.1 78.4 61.7 71c7-4.9 13.9-9.9 20.9-14.8 10.6-7.5 21.3-15 32-22.4 2.3-1.6 4.9-2.9 7.4-4.3z"/><path class="st6" d="M27.9 83.3c.8-.1 1.7.1 2.3-.2 6.5-4.4 13-8.9 19.4-13.4 6.9-4.8 13.7-9.6 20.5-14.4 17-11.8 34-23.7 51-35.5.8-.6 1.9-.8 2.9-1.2-.3 2-.7 4-1 6-.8.4-1.7.7-2.4 1.2-5 3.4-9.9 6.9-14.9 10.4-17.7 12.3-35.4 24.7-53 37-5.2 3.7-10.4 7.4-15.6 11-3.3 2.2-6.7 4.2-10 6.4.2-2.5.5-4.9.8-7.3z"/><path d="M112 72.5c-.1 3.3-1.2 5.7-4.2 7.8-23.2 16.3-46.1 32.9-69.2 49.4-6.2 4.4-12.4 8.8-18.6 13.3l.9-7.2c.9-.2 1.9-.2 2.6-.6 14.6-10.4 29.1-20.8 43.6-31.2 12.1-8.7 24.2-17.4 36.3-26 2.8-2.1 5.7-3.7 8.6-5.5z" style="fill:#464444"/><path class="st7" d="M24.1 110.5c1-.3 2.1-.5 2.9-1.1 13.7-9.6 27.3-19.4 40.9-29C80.4 71.5 93 62.8 105.5 54c3.3-2.3 6.5-4.6 9.7-6.9.7-.5 1.5-.8 3-1.5-.5 2.3-.9 3.9-1.3 5.4-.7.3-1.6.6-2.2 1-4.5 3.1-9 6.3-13.4 9.4C88.9 70.3 76.5 79.2 64 88c-10.6 7.5-21.2 15.1-31.9 22.6-2.8 1.9-5.7 3.6-8.6 5.5.2-1.9.4-3.8.6-5.6z"/><path class="st19" d="M112 72.5c-2.9 1.8-5.8 3.4-8.6 5.4-12.1 8.6-24.2 17.4-36.3 26-14.5 10.4-29 20.8-43.6 31.2-.7.5-1.7.4-2.6.6.2-1.6.5-3.2.7-4.8 2.7-1.6 5.4-3.1 8-4.9 15.9-11.3 31.8-22.7 47.7-34.1 9.4-6.7 18.8-13.5 28.3-20.2 2.5-1.8 5.3-3.2 8-4.8-.6 1.9-1.1 3.8-1.6 5.6z"/><path class="st10" d="M27 90.5c3.4-2.1 6.8-4.1 10-6.4 5.3-3.6 10.4-7.4 15.6-11 17.7-12.4 35.4-24.7 53-37 5-3.5 9.9-7 14.9-10.4.7-.5 1.6-.8 2.4-1.2-.3 1.7-.7 3.3-1 5-2.5 1.4-5.1 2.7-7.4 4.3-10.7 7.4-21.3 14.9-32 22.4-7 4.9-13.9 9.9-20.9 14.8C51 78.4 40.4 85.7 29.7 93.1c-1.1.8-2.4 1.2-3.7 1.8.4-1.5.7-2.9 1-4.4z"/><path class="st20" d="M23.6 116c2.9-1.8 5.8-3.5 8.6-5.5 10.7-7.5 21.3-15 31.9-22.6 12.4-8.8 24.9-17.7 37.3-26.5 4.5-3.2 8.9-6.3 13.4-9.4.7-.5 1.5-.7 2.2-1-.3 1.5-.7 3-1 4.5-2.8 1.8-5.6 3.5-8.3 5.4C91.1 72.6 74.6 84.3 58 96c-9.2 6.5-18.4 13.1-27.6 19.5-2.3 1.6-4.9 3-7.3 4.5.1-1.3.3-2.7.5-4z"/><path class="st21" d="M113.5 67c-2.7 1.6-5.4 3-8 4.8C96 78.5 86.6 85.3 77.2 92c-15.9 11.4-31.8 22.8-47.7 34.1-2.5 1.8-5.3 3.3-8 4.9.2-1.3.3-2.7.5-4 1-.5 2.2-.8 3.1-1.5 15.3-10.9 30.5-21.8 45.8-32.7 13.7-9.8 27.5-19.5 41.2-29.2.4-.3 1.2-.1 1.9-.2-.2 1.3-.4 2.4-.5 3.6z"/><path class="st22" d="M23.1 120c2.4-1.5 5-2.8 7.3-4.5L58 96c16.6-11.7 33.1-23.4 49.7-35.1 2.7-1.9 5.5-3.6 8.3-5.4-.3 1.3-.7 2.7-1 4-1 .5-2.2.8-3.1 1.4-8.6 6-17.2 12.1-25.8 18.2-19.2 13.7-38.3 27.4-57.5 41-1.9 1.3-4 2.3-6 3.4.1-1.2.3-2.3.5-3.5z"/><path class="st4" d="M22.6 123.5c2-1.1 4.1-2.1 6-3.4 19.2-13.6 38.4-27.3 57.5-41 8.6-6.1 17.2-12.2 25.8-18.2.9-.6 2.1-.9 3.1-1.4-.3 1.3-.7 2.7-1 4-.6.1-1.4-.1-1.9.2-13.8 9.7-27.5 19.4-41.2 29.2-15.3 10.9-30.5 21.8-45.8 32.7-.9.6-2 1-3.1 1.5.3-1.3.4-2.4.6-3.6z"/><path class="st12" d="M126.5 8c-32 22.2-64 44.3-96 66.5-.7.5-1.3 1-2 1.5-2.1.4-2.9 1.5-3.1 3.7-.5 5.9-1.4 11.8-2.2 17.7-.7 5.7-1.5 11.5-2.3 17.2-.8 5.8-1.5 11.6-2.3 17.4-.6 4.8-1.2 9.7-1.7 14.5-.3.4-.7.8-1 1.2v-5.3c.4-3.5.7-6.9 1.1-10.4.1-.4.3-.7.4-1.1 0-1 .1-1.9.1-2.9.2-.4.5-.8.7-1.2 0-1 .1-2 .1-2.9.2-1.7.4-3.3.6-5 0-.8.1-1.6.1-2.4.1-.5.3-1.1.4-1.6 0-.8.1-1.6.1-2.4.1-.4.3-.7.4-1.1 0-.8.1-1.6.1-2.4.1-.4.3-.7.4-1.1 0-1 .1-1.9.1-2.9.1-.4.3-.7.4-1.1 0-1 .1-1.9.1-2.9.1-.4.3-.7.4-1.1.2-2.1.4-4.3.6-6.4.1-.5.3-1.1.4-1.6 0-.8.1-1.6.1-2.4.1-.4.3-.7.4-1.1 0-1 .1-1.9.1-2.9.1-.4.3-.7.4-1.1 0-1 .1-1.9.1-2.9.2-.4.5-.8.7-1.2 0-1.1.1-2.3.1-3.4.8-.6 1.6-1.1 2.3-1.7.6-.5 1.2-1.2 1.8-1.8h.5c.3-.3.7-.6 1-1h.5c1.5-1.1 3-2.3 4.6-3.4.2 0 .3 0 .5-.1.3-.3.7-.6 1-1h.5c1.5-1.1 3-2.3 4.6-3.4.2 0 .3 0 .5-.1.3-.3.7-.6 1-1h.5c1.5-1.1 3-2.3 4.6-3.4.2 0 .3 0 .4-.1.3-.3.7-.6 1-1h.5c.3-.3.7-.6 1-1h.5c1.5-1.1 3-2.3 4.6-3.4.2 0 .3 0 .5-.1.3-.3.7-.6 1-1h.5l6-4.5h.5c.4-.1.8-.2 1.1-.4 6.3-4.3 12.7-8.6 19-13 1.9-1.3 3.6-3 5.4-4.5 2.8-1.9 5.6-3.7 8.4-5.6 1-.8 2.1-1.6 3.1-2.4 1-.7 2.1-1.3 3.1-2 4-2.8 8.1-5.6 12.1-8.4 3.3-2.3 6.6-4.6 9.9-6.8.4-.2.9-.2 1.4-.3-.6.9-1.2 1.7-1.7 2.5z"/><path class="st23" d="M126.2 34.6c0 .3-.1.6-.1.9-.1.4-.2.7-.3 1.1-.2 1.1-.5 2.3-.7 3.4-.1.4-.2.7-.3 1.1 0 .3-.1.6-.1.9-.1.4-.2.7-.3 1.1-.1.5-.1.9-.2 1.4-.1.4-.2.7-.3 1.1 0 .3-.1.6-.1.9-.1.4-.2.7-.3 1.1 0 .3-.1.6-.1.9-.1.4-.2.7-.3 1.1-.1.5-.1.9-.2 1.4-.1.4-.2.7-.3 1.1 0 .3-.1.6-.1.9-.1.4-.2.7-.3 1.1 0 .3-.1.6-.1.9-.3 0-.5.1-.8.1 1.2-5.5 2.3-11 3.5-16.5 2.7-11.9 5.5-23.7 8.2-35.6.1-.6.1-1.3.1-2 0-.2 0-.4.1-.6.1-.1.1-.2 0-.3-2.4-2.5-4.7-5.1-7.3-7.5-16.6-15.5-33.2-31-49.7-46.5-10.1-9.5-20.3-19-30.4-28.5-2.3-2.1-4.5-4.4-6.7-6.6 1.8 1.2 3.7 2.4 5.5 3.7 1.9 1.5 3.7 3.2 5.6 4.7l.5.5c2.5 2.3 5 4.7 7.5 7 4.9 4.8 9.8 9.6 14.8 14.4.1.1.5.1.7.1 4.9 4.8 9.8 9.6 14.8 14.4.1.1.5.1.7.1 4.9 4.8 9.8 9.6 14.8 14.4.1.1.5.1.7.1.6.7 1.1 1.4 1.8 2.1 8.5 8 17 16.1 25.6 24.1 2.2 2 3.2 4.1 2.2 6.9-.4 1.3-.7 2.6-1.1 3.9-.1.4-.2.7-.4 1.1 0 .3-.1.6-.1.9-.1.4-.2.7-.3 1.1 0 .3-.1.6-.1.9-.1.4-.2.7-.3 1.1-.1.5-.1.9-.2 1.4-.1.4-.2.7-.3 1.1 0 .3-.1.6-.1.9-.1.4-.2.7-.3 1.1 0 .3-.1.6-.1.9-.1.4-.2.7-.3 1.1-.1.5-.1.9-.2 1.4-.1.4-.2.7-.3 1.1 0 .3-.1.6-.1.9-.1.4-.2.7-.3 1.1 0 .3-.1.6-.1.9-.1.4-.2.7-.3 1.1-.1.5-.1.9-.2 1.4-.1.4-.2.7-.3 1.1 0 .3-.1.6-.1.9-.1.4-.2.7-.3 1.1 0 .3-.1.6-.1.9-.1.4-.2.7-.3 1.1-.1.5-.1.9-.2 1.4-1.5.5-1.6.8-1.7 1.2z"/><path class="st14" d="M132.6.1c.1.1.1.2 0 .3 0 .2 0 .4-.1.6-1 1-1.9 2-2.9 3-.2.2-.4.4-.6.5l-1 1h.1c-.5.1-1.1 0-1.4.3-3.3 2.2-6.6 4.5-9.9 6.8-4 2.8-8.1 5.6-12.1 8.4-1 .7-2 1.4-3.1 2-1 .8-2.1 1.6-3.1 2.4-2.8 1.9-5.6 3.7-8.4 5.6-.4.1-.8.1-1.2.3-6.6 4.5-13.1 9-19.6 13.6-1.7 1.2-3.2 2.7-4.8 4H64l-6 4.5h-.5c-.3.3-.7.6-1 1H56c-1.5 1.1-3 2.3-4.6 3.4h-.5c-.3.3-.7.6-1 1h-.5c-.3.3-.7.6-1 1-.1 0-.3 0-.5.1-1.5 1.1-3 2.3-4.6 3.4h-.5c-.3.3-.7.6-1 1-.1 0-.3 0-.5.1-1.5 1.1-3 2.3-4.6 3.4h-.5c-.3.3-.7.6-1 1-.1 0-.3 0-.5.1-1.5 1.1-3 2.3-4.6 3.4h-.5c-.3.3-.7.6-1 1h-.5c-.9-.1-1.8-.2-2.8-.3.2-.3.5-.5.7-.8.6-.4 1.1-.9 1.7-1.3.1 0 .2-.1.4-.1.4-.3.7-.6 1.1-.9.1 0 .3-.1.4-.1.4-.3.7-.6 1.1-.9.1 0 .3-.1.4-.1.4-.3.7-.6 1.1-.9.1 0 .3-.1.4-.1.6-.4 1.1-.9 1.7-1.3.1 0 .2-.1.4-.1.4-.3.7-.6 1.1-.9.1 0 .2-.1.4-.1.4-.3.7-.6 1.1-.9.1 0 .3-.1.4-.1.4-.3.7-.6 1.1-.9.1 0 .3-.1.4-.1.6-.4 1.1-.9 1.7-1.3.1 0 .2-.1.4-.1.4-.3.7-.6 1.1-.9.1 0 .3-.1.4-.1.4-.3.7-.6 1.1-.9.1 0 .3-.1.4-.1.4-.3.7-.6 1.1-.9.1 0 .3-.1.4-.1 1.1-.8 2.1-1.5 3.2-2.3.1 0 .2-.1.4-.1.4-.3.7-.6 1.1-.9.1 0 .2-.1.4-.1.4-.3.7-.6 1.1-.9.1 0 .3-.1.4-.1.4-.3.7-.6 1.1-.9.1 0 .3-.1.4-.1.6-.4 1.1-.9 1.7-1.3.1 0 .2-.1.4-.1.4-.3.7-.6 1.1-.9.1 0 .3-.1.4-.1.4-.3.7-.6 1.1-.9.1 0 .2-.1.4-.1 1.1-.8 2.1-1.5 3.2-2.3.1 0 .2-.1.4-.1.4-.3.7-.6 1.1-.9.1 0 .2-.1.4-.1.4-.3.7-.6 1.1-.9.1 0 .3-.1.4-.1.4-.3.7-.6 1.1-.9.1 0 .3-.1.4-.1.6-.4 1.1-.9 1.7-1.3.1 0 .2-.1.4-.1.4-.3.7-.6 1.1-.9.1 0 .3-.1.4-.1.4-.3.7-.6 1.1-.9.1 0 .3-.1.4-.1.4-.3.7-.6 1.1-.9.1 0 .3-.1.4-.1.4-.3.7-.6 1.1-.9l.9-.6c.4-.3.7-.6 1.1-.9.1 0 .2-.1.4-.1.4-.3.7-.6 1.1-.9.1 0 .2-.1.4-.1.4-.3.7-.6 1.1-.9.1 0 .3-.1.4-.1.4-.3.7-.6 1.1-.9.1 0 .3-.1.4-.2.6-.4 1.1-.9 1.7-1.3.1 0 .2-.1.4-.1.4-.3.7-.6 1.1-.9.1 0 .2-.1.4-.1.4-.3.7-.6 1.1-.9.1 0 .3-.1.4-.1.5-.3.9-.7 1.4-1 .2-.1.4-.3.6-.4.4-.3.7-.6 1.1-.9.1 0 .2-.1.4-.1.4-.3.7-.6 1.1-.9.1 0 .2-.1.4-.1.4-.3.7-.6 1.1-.9.1 0 .3-.1.4-.1.4-.3.7-.6 1.1-.9l.9-.6c.4-.3.7-.6 1.1-.9.1 0 .2-.1.4-.1.5-.4 1-.7 1.4-1.1.5-.3 1-.7 1.5-1 .5-.3 1-.7 1.5-1 .4-.3.8-.5 1.1-.8l.9-.6c.4-.3.7-.6 1.1-.9.1 0 .2-.1.4-.1.4-.3.7-.6 1.1-.9.1 0 .2-.1.4-.1.4-.3.7-.6 1.1-.9.1 0 .3-.1.4-.1.4-.3.7-.6 1.1-.9.1 0 .3-.1.4-.2.6-.4 1.1-.9 1.7-1.3.1 0 .2-.1.4-.1.4-.3.7-.6 1.1-.9.1 0 .2-.1.4-.1.4-.3.7-.6 1.1-.9.1 0 .3-.1.4-.1.4-.3.7-.6 1.1-.9.1 0 .3-.1.4-.2.6-.4 1.1-.9 1.7-1.3.1 0 .2-.1.4-.1.4-.3.7-.6 1.1-.9.1 0 .2-.1.4-.1.4-.3.7-.6 1.1-.9.1 0 .3-.1.4-.1.4-.3.7-.6 1.1-.9.1 0 .3-.1.4-.1.4-.3.7-.6 1.1-.9l.9-.6c.4-.3.7-.6 1.1-.9.1 0 .2-.1.4-.1.4-.3.7-.6 1.1-.9.1 0 .2-.1.4-.1.4-.3.7-.6 1.1-.9.1 0 .3-.1.4-.2.4-.3.7-.6 1.1-.9.8-.3 1.6-.7 2.4-1-.3-.4 0-.4.2-.4z"/><path class="st13" d="M17 146.6c.6-4.8 1.1-9.7 1.7-14.5.7-5.8 1.5-11.6 2.3-17.4.8-5.7 1.5-11.5 2.3-17.2.8-5.9 1.6-11.8 2.2-17.7.2-2.2 1-3.4 3.1-3.7-.2 2.4-.4 4.8-.6 7.3l-.9 7.2c-.3 1.5-.5 2.9-.8 4.4-.3 2.3-.5 4.6-.8 6.9-.4 2.9-.9 5.8-1.3 8.7-.2 1.8-.3 3.7-.5 5.5-.2 1.3-.3 2.7-.5 4-.2 1.2-.3 2.3-.5 3.5-.2 1.2-.3 2.3-.5 3.5-.2 1.3-.3 2.7-.5 4-.2 1.6-.5 3.2-.7 4.8l-.9 7.2c-1.1 1.1-2.1 2.3-3.1 3.5z"/><path class="st23" d="m121.3 56-.3 1.5c-.1.4-.2.7-.3 1.1 0 .3-.1.6-.1.9-.1.4-.2.7-.3 1.1-.2 1.1-.5 2.3-.7 3.4-.1.4-.2.7-.3 1.1 0 .3-.1.6-.1.9-.3 0-.5.1-.8.1.8-3.4 1.6-6.7 2.3-10.1h.6zM118.7 67c-.2 1.2-.5 2.3-.7 3.5-.1.4-.2.7-.3 1.1 0 .3-.1.6-.1.9-.3 0-.5.1-.8.1.4-1.9.9-3.7 1.3-5.6h.6zM117.3 73.5c-.5 1.2-.9 2.4-1.4 3.5.2-1.2.4-2.4.7-3.5h.7z"/><path class="st2" d="M118.7 67h-.7c.1-.3.1-.6.2-.9.3 0 .5-.1.8-.1-.1.3-.2.7-.3 1zM121.3 56h-.7c.1-.3.1-.6.2-.9.3 0 .5-.1.8-.1-.1.3-.2.7-.3 1zM117.3 73.5h-.7c.1-.3.1-.6.2-.9.3 0 .5-.1.8-.1-.2.3-.3.7-.3 1z"/><path class="st15" d="m128 5.5 1-1c-.3.4-.6.7-1 1zM129 4.5c.2-.2.4-.4.6-.5-.2.2-.4.4-.6.5z"/><path d="M132.6.1H130c-2.5-.4-5-.7-7.5-1.1-2.3-2.2-4.7-4.3-7-6.5-2.5-2.3-5-4.7-7.5-7-2.2-2-4.3-4-6.5-6-2-1.8-4-3.7-6-5.5L93-28.5 90.5-31c-1.7-1.5-3.3-3-5-4.5-1.4-1.4-2.7-2.9-4.1-4.3-2.7-2.7-3.4-2.8-6.6-.7-5.9 3.9-11.8 7.7-17.7 11.6C42.3-19.1 27.4-9.3 12.5.5 4.2 6-4.2 11.5-12.6 17.1c-2.4 1.6-4.7 3.4-7 5.1-3-3-6-6-9-9.1 1.2-.9 2.2-1.9 3.5-2.7 10.6-7 21.3-14 32-21 8.7-5.7 17.4-11.2 26-16.9C40.3-32.2 47.7-37 55-41.8c3.7-2.4 7.5-4.8 11.2-7.3 1.4-.9 2.7-2.1 1-3.8-1.9-1.9-3.8-3.7-5.7-5.5-2-1.8-4-3.7-6-5.5-2.3-2.2-4.7-4.3-7-6.5-1.8-1.7-3.7-3.3-5.5-5-1.4-1.5-2.9-3-4.3-4.5-1-1.1-1.9-1.2-3.3-.3-5.1 3.4-10.4 6.6-15.5 9.9C-1.4-57-22.7-43.5-44-30c-5.6 3.5-11.1 7.2-16.7 10.8-2.6-.2-5.2-.5-7.8-.7-.4-.1-.9-.2-1.3-.2-.4-.1-.8-.2-1.2-.2.3-.5.7-1 1-1.6 1-.4 2-.8 2.9-1.4C-39.1-41-11-58.7 17.1-76.4c6.3-4 12.6-8.1 18.9-12.1l1-1c.3 0 .7 0 1-.1.1.2.3.4.4.6 2.2 2.2 4.4 4.5 6.7 6.6 10.1 9.5 20.3 19 30.4 28.5 16.6 15.5 33.2 31 49.7 46.5 2.6 2.4 4.9 5 7.4 7.5z" style="fill:#201f1f"/><path class="st16" d="M36-88.5c-6.3 4-12.6 8.1-18.9 12.1C-11-58.7-39.1-41-67.1-23.4c-.9.6-1.9.9-2.9 1.4 1.6-1.3 3-2.7 4.7-3.8C-46-38-26.7-50.1-7.5-62.2 4.8-70 17.1-77.7 29.4-85.5c.8-.5 1.4-1.3 2.2-1.9.1 0 .3-.1.4-.1 1.3-.3 2.7-.7 4-1z"/><path class="st2" d="M133.6 3.6c1-2.9 0-4.9-2.2-6.9-8.6-7.9-17.1-16-25.6-24.1-.7-.6-1.2-1.4-1.8-2.1.7.3 1.6.5 2.1 1 6.6 6.2 13.1 12.4 19.7 18.6 2.6 2.5 5.3 5 8 7.5 1.8 1.8 1.7 3.9-.2 6zM104-29.5c-.2 0-.6 0-.7-.1-4.9-4.8-9.9-9.6-14.8-14.4.5.2 1.2.1 1.6.5l13.5 12.9c.2.2.3.7.4 1.1zM88.5-44c-.2 0-.6 0-.7-.1-4.9-4.8-9.9-9.6-14.8-14.4.5.2 1.2.1 1.6.5l13.5 12.9c.2.2.3.7.4 1.1zM73-58.5c-.2 0-.6 0-.7-.1-4.9-4.8-9.9-9.6-14.8-14.4.5.2 1.2.1 1.6.5l13.5 12.9c.2.2.3.7.4 1.1zM38.5-89c-.1-.2-.3-.4-.4-.6.5-.1 1.1-.3 1.5-.1 4.1 2.2 7.5 5.2 10 9.2-1.9-1.6-3.7-3.3-5.6-4.7-1.8-1.4-3.7-2.5-5.5-3.8zM57.5-73c-2.5-2.3-5-4.7-7.5-7 1 .6 2.1.9 2.8 1.7 1.7 1.7 3.2 3.5 4.7 5.3zM36-88.5c-1.3.3-2.7.7-4 1 1.3-1.6 2.7-3 5-2l-1 1zM124.7 41.1c.1-.4.2-.7.3-1.1-.1.4-.2.7-.3 1.1zM124.2 43.1c.1-.4.2-.7.3-1.1-.1.4-.2.7-.3 1.1zM123.6 45.6c.1-.4.2-.7.3-1.1 0 .4-.1.7-.3 1.1zM125.7 36.6c.1-.4.2-.7.3-1.1-.1.4-.2.7-.3 1.1zM123.2 47.6c.1-.4.2-.7.3-1.1-.1.4-.2.7-.3 1.1zM126.2 34.6c.1-.4.2-.7.3-1.1-.1.4-.2.7-.3 1.1zM122.7 49.6c.1-.4.2-.7.3-1.1-.1.4-.2.7-.3 1.1zM126.7 32.1c.1-.4.2-.7.3-1.1-.1.4-.2.7-.3 1.1zM122.2 52.1c.1-.4.2-.7.3-1.1-.1.4-.2.7-.3 1.1zM121.7 54.1c.1-.4.2-.7.3-1.1-.1.4-.2.7-.3 1.1zM127.2 30.1c.1-.4.2-.7.3-1.1-.1.4-.2.7-.3 1.1zM127.7 28.1c.1-.4.2-.7.3-1.1-.1.4-.2.7-.3 1.1zM120.7 58.6c.1-.4.2-.7.3-1.1-.1.4-.2.7-.3 1.1zM128.2 25.6c.1-.4.2-.7.3-1.1-.1.4-.2.7-.3 1.1zM120.2 60.6c.1-.4.2-.7.3-1.1-.1.4-.2.7-.3 1.1zM128.7 23.6c.1-.4.2-.7.3-1.1-.1.4-.2.7-.3 1.1zM129.2 21.6c.1-.4.2-.7.3-1.1-.1.4-.2.7-.3 1.1zM119.2 65.1c.1-.4.2-.7.3-1.1-.1.4-.2.7-.3 1.1zM129.7 19.1c.1-.4.2-.7.3-1.1-.1.4-.2.7-.3 1.1zM130.2 17.1c.1-.4.2-.7.3-1.1-.1.4-.2.7-.3 1.1zM117.7 71.6c.1-.4.2-.7.3-1.1-.1.4-.2.7-.3 1.1zM130.6 15.1c.1-.4.2-.7.3-1.1 0 .4-.1.7-.3 1.1zM131.2 12.6c.1-.4.2-.7.3-1.1-.1.4-.2.7-.3 1.1zM131.7 10.6c.1-.4.2-.7.3-1.1-.1.4-.2.7-.3 1.1zM132.1 8.6c.1-.4.2-.7.4-1.1-.1.4-.2.7-.4 1.1z"/><path class="st0" d="M13 149c.2.4.4.9.5 1.3-.2-.4-.4-.9-.5-1.3zM15 149.5c.3-.2.7-.3 1-.5-.3.2-.7.4-1 .5zM14.2 150.5c.3-.3.5-.7.8-1-.2.3-.5.7-.8 1z"/><path class="st14" d="M23.7 81.6c0 1-.1 1.9-.1 2.9-.1.4-.3.7-.4 1.1 0 1-.1 1.9-.1 2.9-.1.4-.3.7-.4 1.1 0 .8-.1 1.6-.1 2.4-.1.5-.3 1.1-.4 1.6-.2 2.1-.4 4.3-.6 6.4-.1.4-.3.7-.4 1.1 0 1-.1 1.9-.1 2.9-.1.4-.3.7-.4 1.1 0 1-.1 1.9-.1 2.9-.1.4-.3.7-.4 1.1 0 .8-.1 1.6-.1 2.4-.1.4-.3.7-.4 1.1 0 .8-.1 1.6-.1 2.4-.1.5-.3 1.1-.4 1.6 0 .8-.1 1.6-.1 2.4-1.4.1-1.7-.7-1.6-1.8.4-3.3.9-6.5 1.3-9.8.8-6.6 1.5-13.3 2.2-19.9L22.5 77c.4-.6.7-1.1 1.2-1.8.3.7.6 1.3.9 1.8 0 1.1-.1 2.3-.1 3.4-.4.4-.6.8-.8 1.2z"/><path class="st15" d="M21 87.5c-.7 6.6-1.4 13.3-2.2 19.9-.4 3.3-.9 6.5-1.3 9.8-.2 1.2.1 2 1.6 1.8-.2 1.7-.4 3.3-.6 5-1.5-.6-1.9.2-2 1.5-.2 2-.7 4-1 6-.2-.5-.4-1.1-.6-1.6.1-1 .1-2 .2-2.9.1-.4.2-.7.4-1.1 0-1 .1-2 .1-2.9.1-.4.2-.7.3-1.1.1-1 .1-2 .2-2.9.1-.4.2-.7.3-1.1.1-1 .1-2 .2-2.9.1-.4.2-.7.3-1.1.1-1 .1-2 .2-2.9.1-.4.2-.7.3-1.1.1-1 .1-2 .2-2.9.1-.4.2-.7.3-1.1.1-1 .1-2 .2-2.9.1-.4.2-.7.3-1.1.1-1 .1-2 .2-2.9.1-.4.2-.7.3-1.1.1-1 .1-2 .2-2.9.1-.4.2-.7.3-1.1.1-1 .1-2 .2-2.9.1-.4.2-.7.3-1.1 0-.8.1-1.6.1-2.4h1zM24.5 77c-.3-.5-.5-1.1-.9-1.8-.4.7-.8 1.2-1.2 1.8-.3-1-.6-1.9-1-2.9 0-.2.1-.4.1-.7 1.1 0 2.2 2.3 3.4.1.3-.1.5-.1.8-.2.9.1 1.8.2 2.8.3l-1.8 1.8c-.7.5-1.5 1-2.2 1.6zM-46.6 6.1c2 2.1 4 4.3 6.1 6.4-2-2.1-4.1-4.3-6.1-6.4zM-10 43.5l5 5-5-5z"/><path class="st12" d="M14.9 129.9c.2.5.4 1.1.6 1.6 0 1-.1 1.9-.1 2.9-.1.4-.3.7-.4 1.1 0 1-.1 1.9-.1 2.9-.3 0-.6.1-.9.1-.9-3-.4-5.8.9-8.6zM14.3 142.5h-.9c.1-1 .3-2 .4-3h.6c0 1-.1 2-.1 3zM13.4 143.4c-.3 1-.5 2.1-.8 3.1.3-1 .5-2 .8-3.1zM19.9 89.9c-.1.4-.2.7-.3 1.1.1-.4.2-.7.3-1.1zM19.4 93.9c-.1.4-.2.7-.3 1.1.1-.4.2-.7.3-1.1zM18.9 97.9c-.1.4-.2.7-.3 1.1.1-.4.2-.7.3-1.1zM18.4 101.9c-.1.4-.2.7-.3 1.1.1-.4.2-.7.3-1.1zM17.9 105.9c-.1.4-.2.7-.3 1.1.1-.4.2-.7.3-1.1zM17.4 109.9c-.1.4-.2.7-.3 1.1.1-.4.2-.7.3-1.1zM16.9 113.9c-.1.4-.2.7-.3 1.1.1-.4.2-.7.3-1.1zM16.4 117.9c-.1.4-.2.7-.3 1.1.1-.4.2-.7.3-1.1zM15.9 121.9c-.1.4-.2.7-.3 1.1.1-.4.2-.7.3-1.1zM15.4 125.9z"/><path class="st15" d="M14.5 139.5h-.6c0-.3 0-.7.1-1 .3 0 .6-.1.9-.1-.2.4-.3.7-.4 1.1z"/><path d="M25.8 73.3c-.3.1-.5.1-.8.2-1.1-.4-2.2-.7-3.3-1.1l-.1-.1c-.5-.6-1.1-1.2-1.6-1.8-3.2-3.2-6.3-6.4-9.5-9.6-.3-.5-.5-1.1-.8-1.5-6.9-7.1-13.9-14.2-20.9-21.3-.5-.5-1.2-.7-1.8-1.1-4.5-4.5-9-9-13.4-13.6-.3-.6-.6-1.2-1-1.6-7.8-8-15.7-16-23.5-24-.5-.6-1.3-.9-2-1.3-5.3-5.2-10.4-10.4-15.6-15.5v-.9c2.6.2 5.2.5 7.8.7l6.6 6.6 4.7 4.7c2.6 2.6 5.2 5.3 7.8 7.9l6.6 6.6c2.2 2.2 4.3 4.4 6.5 6.5 3 3 6 6 9 9.1 2.5 2.5 5 5 7.5 7.6 1.5 1.6 3 3.2 4.6 4.8 1 .9 1.9 1.8 2.9 2.7l2.2 2.2c2.1 2.1 4.2 4.2 6.3 6.4l6.5 6.5c2.5 2.6 5.1 5.1 7.6 7.7 2.2 2.1 4.4 4.2 6.7 6.3.5-.4 1.2-.8 1.9-1.3 20.3-14 40.6-27.9 60.8-41.9 11.6-8 23.3-16.1 35-24.2 2.5.4 5 .7 7.5 1.1-.1.3-.3.7-.4 1-.4.3-.7.6-1.1.9-.1.1-.2.1-.4.1-.4.3-.7.6-1.1.9-.1.1-.2.1-.4.1-.4.3-.7.6-1.1.9-.1.1-.2.1-.4.1-.4.3-.7.6-1.1.9l-.9.6c-.4.3-.7.6-1.1.9-.1.1-.2.1-.4.1-.4.3-.7.6-1.1.9-.1.1-.2.1-.4.1-.4.3-.7.6-1.1.9-.1.1-.2.1-.4.1-.4.3-.7.6-1.1.9-.1.1-.2.1-.4.1-.6.4-1.1.9-1.7 1.3-.1.1-.2.1-.4.2-.4.3-.7.6-1.1.9-.1.1-.2.1-.4.1-.4.3-.7.6-1.1.9-.1.1-.2.1-.4.1-.4.3-.7.6-1.1.9-.1.1-.2.1-.4.1-.6.4-1.1.9-1.7 1.3-.1.1-.2.1-.4.2-.4.3-.7.6-1.1.9-.1.1-.2.1-.4.1-.4.3-.7.6-1.1.9-.1.1-.2.1-.4.1-.4.3-.7.6-1.1.9-.1.1-.2.1-.4.1-.4.3-.7.6-1.1.9l-.9.6c-.4.3-.8.5-1.1.8-.5.3-1 .7-1.5 1-.5.3-1 .7-1.5 1-.5.4-1 .7-1.4 1.1-.1.1-.2.1-.4.1-.4.3-.7.6-1.1.9l-.9.6c-.4.3-.7.6-1.1.9-.1.1-.2.1-.4.1-.4.3-.7.6-1.1.9-.1.1-.2.1-.4.1-.4.3-.7.6-1.1.9-.1.1-.2.1-.4.1-.4.3-.7.6-1.1.9-.2.1-.4.3-.6.4-.5.3-.9.7-1.4 1-.1.1-.2.1-.4.1-.4.3-.7.6-1.1.9-.1.1-.2.1-.4.1-.4.3-.7.6-1.1.9-.1.1-.2.1-.4.1-.6.4-1.1.9-1.7 1.3-.1.1-.2.1-.4.1-.4.3-.7.6-1.1.9-.1.1-.2.1-.4.1-.4.3-.7.6-1.1.9-.1.1-.2.1-.4.1-.4.3-.7.6-1.1.9-.1.1-.2.1-.4.1-.4.3-.7.6-1.1.9l-.9.6c-.4.3-.7.6-1.1.9-.1.1-.2.1-.4.1-.4.3-.7.6-1.1.9-.1.1-.2.1-.4.1-.4.3-.7.6-1.1.9-.1.1-.2.1-.4.1-.4.3-.7.6-1.1.9-.1.1-.2.1-.4.1-.6.4-1.1.9-1.7 1.3-.1.1-.2.1-.4.1-.4.3-.7.6-1.1.9-.1.1-.2.1-.4.1-.4.3-.7.6-1.1.9-.1.1-.2.1-.4.1-.4.3-.7.6-1.1.9-.1.1-.2.1-.4.1-.7 1.1-1.8 1.9-2.8 2.7-.1.1-.2.1-.4.1-.4.3-.7.6-1.1.9-.1.1-.2.1-.4.1-.4.3-.7.6-1.1.9-.1.1-.2.1-.4.1-.6.4-1.1.9-1.7 1.3-.1.1-.2.1-.4.1-.4.3-.7.6-1.1.9-.1.1-.2.1-.4.1-.4.3-.7.6-1.1.9-.1.1-.2.1-.4.1-.4.3-.7.6-1.1.9-.1.1-.2.1-.4.1-.9.9-2 1.7-3 2.5-.1.1-.2.1-.4.1-.4.3-.7.6-1.1.9-.1.1-.2.1-.4.1-.4.3-.7.6-1.1.9-.1.1-.2.1-.4.1-.4.3-.7.6-1.1.9-.1.1-.2.1-.4.1-.6.4-1.1.9-1.7 1.3-.1.1-.2.1-.4.1-.4.3-.7.6-1.1.9-.1.1-.2.1-.4.1-.4.3-.7.6-1.1.9-.1.1-.2.1-.4.1-.4.3-.7.6-1.1.9-.1.1-.2.1-.4.1-.6.4-1.1.9-1.7 1.3-.1.1-.2.1-.4.1-.4.3-.7.6-1.1.9-.1.1-.2.1-.4.1-.4.3-.7.6-1.1.9-.1.1-.2.1-.4.1-.4.3-.7.6-1.1.9-.1.1-.2.1-.4.1-.6.4-1.1.9-1.7 1.3 0 .5-.2.8-.4 1.1z" style="fill:#e641f2"/><path class="st12" d="M-53-3.5c.7.4 1.5.7 2 1.3 7.9 8 15.7 16 23.5 24 .4.4.7 1.1 1 1.6-.7-.5-1.6-.8-2.2-1.4-5.4-5.3-10.8-10.6-16-16.1-2.9-3-5.5-6.2-8.3-9.4zM-13 37c.6.4 1.4.6 1.8 1.1 7 7.1 13.9 14.2 20.9 21.4.4.4.6 1 .8 1.5-.7-.5-1.6-.8-2.2-1.4C3.2 54.4-2 49.2-7.1 44c-2.1-2.2-4-4.7-5.9-7zM21.7 72.4c1.1.4 2.2.7 3.3 1.1-1.2 2.2-2.3-.1-3.4-.1 0-.3 0-.7.1-1zM20 70.5c.5.6 1.1 1.2 1.6 1.8-.5-.6-1.1-1.2-1.6-1.8zM-68.5-20v.9c-.5-.4-.9-.8-1.4-1.2.5.2 1 .3 1.4.3z"/><path class="st14" d="M14.5 139.5c.1-.4.3-.7.4-1.1 0-1 .1-1.9.1-2.9.1-.4.3-.7.4-1.1 0-1 .1-1.9.1-2.9.3-2 .8-4 1-6 .2-1.3.5-2.1 2-1.5 0 1-.1 2-.1 2.9-.2.4-.5.8-.7 1.2 0 1-.1 1.9-.1 2.9-.1.4-.3.7-.4 1.1-.4 3.5-.7 6.9-1.1 10.4h-1.8c0-1 .1-2 .2-3z"/><path class="st15" d="M64.5 49c1.6-1.3 3.1-2.8 4.8-4 6.5-4.6 13.1-9.1 19.6-13.6.3-.2.8-.2 1.2-.3-1.8 1.5-3.5 3.1-5.4 4.5-6.3 4.4-12.6 8.7-19 13-.4.2-.8.3-1.2.4zM58 53.5l6-4.5-6 4.5zM30.5 72.5c1.5-1.1 3-2.3 4.6-3.4-1.6 1.1-3.1 2.3-4.6 3.4zM37 68c1.5-1.1 3-2.3 4.6-3.4-1.6 1.1-3.1 2.3-4.6 3.4zM43.5 63.5c1.5-1.1 3-2.3 4.6-3.4-1.6 1.1-3.1 2.3-4.6 3.4zM51.5 58c1.5-1.1 3-2.3 4.6-3.4-1.6 1.1-3.1 2.3-4.6 3.4zM98.5 25.5c1-.8 2.1-1.6 3.1-2.4-1 .8-2.1 1.6-3.1 2.4zM22.1 93.6c.1-.5.3-1.1.4-1.6-.1.5-.2 1.1-.4 1.6zM19.2 116.6c.1-.5.3-1.1.4-1.6-.2.5-.3 1.1-.4 1.6zM56.5 54.5c.3-.3.7-.6 1-1-.3.4-.6.7-1 1zM50 59c.3-.3.7-.6 1-1-.3.4-.6.7-1 1zM48.5 60c.3-.3.7-.6 1-1-.3.4-.6.7-1 1zM42 64.5c.3-.3.7-.6 1-1-.3.4-.6.7-1 1zM35.5 69c.3-.3.7-.6 1-1-.3.4-.6.7-1 1zM29 73.5c.3-.3.7-.6 1-1-.3.4-.6.7-1 1zM23.7 81.6c.2-.4.5-.8.7-1.2-.3.4-.5.8-.7 1.2zM23.2 85.6c.1-.4.3-.7.4-1.1-.2.4-.3.7-.4 1.1zM22.7 89.6c.1-.4.3-.7.4-1.1-.2.4-.3.7-.4 1.1zM21.2 101.1c.1-.4.3-.7.4-1.1-.2.4-.3.7-.4 1.1zM20.7 105.1c.1-.4.3-.7.4-1.1-.2.4-.3.7-.4 1.1zM20.1 109.1c.1-.4.3-.7.4-1.1-.1.4-.2.7-.4 1.1zM19.7 112.6c.1-.4.3-.7.4-1.1-.2.4-.3.7-.4 1.1zM17.7 128.1c.2-.4.5-.8.7-1.2-.3.4-.5.8-.7 1.2zM17.2 132.1c.1-.4.3-.7.4-1.1-.2.4-.3.7-.4 1.1z"/><path class="st0" d="M132.5 1c0-.2 0-.4.1-.6-.1.2-.1.4-.1.6z"/><path class="st12" d="M46 59c1.1-.8 2.1-1.5 3.2-2.3-1.1.7-2.2 1.5-3.2 2.3zM59 50c1.1-.8 2.1-1.5 3.2-2.3-1.1.7-2.2 1.5-3.2 2.3zM33 67.9c.6-.4 1.1-.9 1.7-1.3-.6.5-1.2.9-1.7 1.3zM39.5 63.5c.6-.4 1.1-.9 1.7-1.3-.6.4-1.2.8-1.7 1.3zM26.5 72.5c.6-.4 1.1-.9 1.7-1.3-.6.4-1.2.8-1.7 1.3zM109 15.4c.6-.4 1.1-.9 1.7-1.3-.6.5-1.2.9-1.7 1.3zM54 53.4c.6-.4 1.1-.9 1.7-1.3-.6.5-1.2.9-1.7 1.3zM115.5 10.9c.6-.4 1.1-.9 1.7-1.3-.6.5-1.2.9-1.7 1.3zM81.5 34.4c.6-.4 1.1-.9 1.7-1.3-.6.5-1.2.9-1.7 1.3zM129.6 1.1c.1-.3.3-.7.4-1h2c-.8.3-1.6.6-2.4 1zM67 44.4c.6-.4 1.1-.9 1.7-1.3-.6.5-1.2.9-1.7 1.3zM96.5 24c.5-.4 1-.7 1.4-1.1-.4.4-.9.8-1.4 1.1zM98 22.9c.5-.3 1-.7 1.5-1-.6.4-1.1.7-1.5 1zM99.4 21.9c.5-.3 1-.7 1.5-1-.5.4-1 .7-1.5 1zM86.5 31c.5-.3.9-.7 1.4-1-.5.3-1 .6-1.4 1zM72 41c.4-.3.7-.6 1.1-.9-.4.3-.7.6-1.1.9zM73.5 40c.4-.3.7-.6 1.1-.9-.4.3-.8.6-1.1.9zM70.5 42c.4-.3.7-.6 1.1-.9-.4.3-.7.6-1.1.9zM69 43c.4-.3.7-.6 1.1-.9-.3.3-.7.6-1.1.9zM75.5 38.5c.4-.3.7-.6 1.1-.9-.3.3-.7.6-1.1.9zM77 37.5c.4-.3.7-.6 1.1-.9-.4.3-.7.6-1.1.9zM65.5 45.5c.4-.3.7-.6 1.1-.9-.4.3-.7.6-1.1.9zM64 46.5c.4-.3.7-.6 1.1-.9-.4.3-.7.6-1.1.9zM78.5 36.5c.4-.3.7-.6 1.1-.9-.4.3-.7.6-1.1.9zM80 35.5c.4-.3.7-.6 1.1-.9-.4.3-.8.6-1.1.9zM62.5 47.5c.4-.3.7-.6 1.1-.9-.3.3-.7.6-1.1.9zM83.5 33c.4-.3.7-.6 1.1-.9-.4.3-.7.6-1.1.9zM57.5 51c.4-.3.7-.6 1.1-.9-.4.3-.7.6-1.1.9zM56 52c.4-.3.7-.6 1.1-.9-.4.3-.7.6-1.1.9zM85 32c.4-.3.7-.6 1.1-.9-.4.3-.7.6-1.1.9zM52.5 54.5c.4-.3.7-.6 1.1-.9-.4.3-.8.6-1.1.9zM51 55.5c.4-.3.7-.6 1.1-.9-.4.3-.7.6-1.1.9zM88.5 29.5c.4-.3.7-.6 1.1-.9-.3.3-.7.6-1.1.9zM90 28.5c.4-.3.7-.6 1.1-.9-.4.3-.7.6-1.1.9zM49.5 56.5c.4-.3.7-.6 1.1-.9-.4.3-.7.6-1.1.9zM91.5 27.5c.4-.3.7-.6 1.1-.9-.4.3-.7.6-1.1.9zM93 26.5c.4-.3.7-.6 1.1-.9-.4.3-.7.6-1.1.9zM44.5 60c.4-.3.7-.6 1.1-.9-.4.3-.7.6-1.1.9zM43 61c.4-.3.7-.6 1.1-.9-.4.3-.7.6-1.1.9zM95 25c.4-.3.7-.6 1.1-.9-.3.3-.7.6-1.1.9zM41.5 62c.4-.3.7-.6 1.1-.9-.3.3-.7.6-1.1.9zM38 64.5c.4-.3.7-.6 1.1-.9-.4.3-.7.6-1.1.9zM36.5 65.5c.4-.3.7-.6 1.1-.9-.4.3-.7.6-1.1.9zM100.9 20.9c.4-.3.8-.5 1.1-.8-.3.3-.7.5-1.1.8zM35 66.5c.4-.3.7-.6 1.1-.9-.3.3-.7.6-1.1.9zM103 19.5c.4-.3.7-.6 1.1-.9-.3.3-.7.6-1.1.9zM104.5 18.5c.4-.3.7-.6 1.1-.9-.4.3-.7.6-1.1.9zM106 17.5c.4-.3.7-.6 1.1-.9-.4.3-.7.6-1.1.9zM31.5 69c.4-.3.7-.6 1.1-.9-.4.3-.7.6-1.1.9zM30 70c.4-.3.7-.6 1.1-.9-.4.3-.7.6-1.1.9zM28.5 71c.4-.3.7-.6 1.1-.9-.4.3-.7.6-1.1.9zM107.5 16.5c.4-.3.7-.6 1.1-.9-.4.3-.8.6-1.1.9zM111 14c.4-.3.7-.6 1.1-.9-.4.3-.7.6-1.1.9zM112.5 13c.4-.3.7-.6 1.1-.9-.4.3-.7.6-1.1.9zM114 12c.4-.3.7-.6 1.1-.9-.4.3-.8.6-1.1.9zM117.5 9.5c.4-.3.7-.6 1.1-.9-.4.3-.7.6-1.1.9zM119 8.5c.4-.3.7-.6 1.1-.9-.4.3-.7.6-1.1.9zM120.5 7.5c.4-.3.7-.6 1.1-.9-.4.3-.8.6-1.1.9zM122 6.4c.4-.3.7-.6 1.1-.9-.4.4-.8.7-1.1.9zM128.5 2c.4-.3.7-.6 1.1-.9-.4.3-.8.6-1.1.9zM124 5c.4-.3.7-.6 1.1-.9-.3.3-.7.6-1.1.9zM125.5 4c.4-.3.7-.6 1.1-.9-.4.3-.7.6-1.1.9zM127 3c.4-.3.7-.6 1.1-.9-.4.3-.7.6-1.1.9z"/><path class="st19" d="M18 60.1c-2.5-2.6-5.1-5.1-7.6-7.7.7-.7 1.3-1.5 2.1-2.1 7-4.8 14.1-9.5 21.2-14.3 9.9-6.8 19.8-13.6 29.7-20.3C73.2 8.9 83 2.2 92.9-4.5c5-3.4 10.1-6.7 15.1-10.1 2.5 2.3 5 4.7 7.5 7-.5.5-1 1.1-1.6 1.5-8.2 5.6-16.4 11.3-24.6 16.9-9.8 6.7-19.6 13.3-29.4 20-11 7.5-22 15.1-33 22.7-3 2.1-5.9 4.4-8.9 6.6z"/><path class="st7" d="M-12.1 29.7c-2.5-2.5-5-5-7.5-7.6 2.3-1.7 4.6-3.5 7-5.1C-4.2 11.5 4.2 6 12.5.5c14.9-9.8 29.8-19.6 44.6-29.4 5.9-3.9 11.8-7.8 17.7-11.6 3.2-2.1 3.9-2 6.6.7 1.4 1.4 2.7 2.9 4.1 4.3C75.4-28.8 65.2-22 55.1-15.3 43.5-7.5 31.8.2 20.2 7.9l-22.8 15c-3.3 2.2-6.3 4.6-9.5 6.8z"/><path class="st6" d="M-41.7-.1c-2.6-2.6-5.2-5.3-7.8-7.9 1.1-.5 2.3-1 3.3-1.6 3.6-2.2 7.1-4.6 10.6-6.9C-24.3-23.7-13-30.9-1.7-38.2c8.1-5.2 16.2-10.3 24.3-15.5 8.6-5.6 17.2-11.2 25.8-16.9 2.3 2.2 4.7 4.3 7 6.5-.9.8-1.6 1.6-2.6 2.2-6.1 4-12.3 7.8-18.4 11.8-8.2 5.3-16.3 10.7-24.6 16-16.6 10.7-33.2 21.3-49.7 32-.6.6-1.1 1.4-1.8 2z"/><path d="M18 60.1c3-2.2 6-4.4 9-6.5C38 46 48.9 38.5 60 30.9c9.8-6.7 19.6-13.3 29.4-20C97.6 5.3 105.8-.3 113.9-6c.6-.4 1.1-1 1.6-1.5 2.3 2.2 4.7 4.3 7 6.5L87.4 23.3c-20.3 14-40.5 27.9-60.8 41.9-.7.5-1.4.9-1.9 1.3-2.3-2.3-4.5-4.4-6.7-6.4z" style="fill:#484546"/><path class="st10" d="M-41.7-.1c.6-.6 1.2-1.4 1.9-1.9C-23.2-12.6-6.6-23.3 9.9-34c8.2-5.3 16.4-10.7 24.6-16 6.1-4 12.3-7.8 18.4-11.8 1-.6 1.7-1.5 2.6-2.2 2 1.8 4 3.7 6 5.5-.6 1.2-1 2.7-2 3.4-10.7 7.1-21.5 14-32.3 21C17.3-27.7 7.4-21.4-2.5-15-10.4-9.9-18.2-4.8-26.1.4c-3 2-6 4.1-9 6.2-2.1-2.3-4.3-4.5-6.6-6.7z"/><path class="st11" d="M-35 6.6c3-2.1 5.9-4.2 9-6.2C-18.2-4.8-10.4-9.9-2.5-15c9.9-6.4 19.8-12.7 29.7-19.1 10.8-7 21.6-13.9 32.3-21 1-.6 1.3-2.2 2-3.4 1.9 1.8 3.9 3.6 5.7 5.5 1.7 1.7.4 2.9-1 3.8-3.7 2.5-7.5 4.9-11.2 7.3-7.4 4.8-14.7 9.6-22.1 14.4-8.7 5.6-17.4 11.2-26 16.9-10.7 7-21.3 14-32 21-1.2.8-2.3 1.8-3.5 2.7-2.1-2.2-4.3-4.4-6.4-6.5z"/><path class="st21" d="M108-14.5c-5 3.4-10.1 6.7-15.1 10.1-9.9 6.6-19.7 13.3-29.6 20L33.6 36c-7 4.8-14.1 9.5-21.2 14.3-.8.5-1.4 1.4-2.1 2.1C8.2 50.2 6 48 3.9 45.8c1.8-1.4 3.5-2.9 5.4-4.2 10-6.7 20.2-13.4 30.2-20.2C53.7 11.9 67.8 2.3 81.9-7.3c6.5-4.4 13.1-8.8 19.6-13.3 2.2 2.1 4.3 4.1 6.5 6.1z"/><path class="st5" d="m-54.1-12.7-6.6-6.6c5.6-3.6 11.1-7.2 16.7-10.8l63.9-40.5c5.2-3.3 10.4-6.5 15.5-9.9 1.3-.9 2.2-.8 3.3.3 1.4 1.5 2.9 3 4.3 4.5-6.7 4.3-13.3 8.7-20 13-8 5.3-16.1 10.4-24.1 15.5-10.3 6.6-20.7 13.2-31 19.8-6.7 4.3-13.4 8.5-20.1 12.9-.8.4-1.3 1.2-1.9 1.8z"/><path class="st4" d="M101.5-20.5c-6.5 4.4-13 8.8-19.6 13.2-14.1 9.6-28.2 19.2-42.4 28.8-10 6.8-20.2 13.4-30.2 20.2-1.9 1.3-3.6 2.8-5.4 4.2-2.1-2.1-4.2-4.2-6.3-6.4C13.7 28.7 29.9 18 46 7.2 53 2.5 60-2.3 67-7c9.5-6.4 19-12.7 28.5-19 2 1.8 4 3.7 6 5.5z"/><path d="M-54.1-12.7c.6-.6 1.1-1.4 1.9-1.9l20.1-12.9c10.3-6.6 20.7-13.2 31-19.8 8-5 16.1-10.1 24.1-15.2 6.7-4.3 13.3-8.7 20-13 1.8 1.7 3.7 3.3 5.5 5-8.6 5.6-17.2 11.3-25.8 16.9-8 5.2-16.2 10.3-24.3 15.5-11.3 7.2-22.6 14.4-33.9 21.7-3.6 2.3-7.1 4.6-10.6 6.9-1 .7-2.2 1.1-3.3 1.6-1.6-1.7-3.2-3.2-4.7-4.8z" style="fill:#080808"/><path class="st20" d="M-12.1 29.7c3.1-2.3 6.2-4.6 9.4-6.7 7.6-5.1 15.2-10 22.8-15C31.8.3 43.4-7.5 55.1-15.2 65.2-22 75.4-28.8 85.5-35.5c1.7 1.5 3.3 3 5 4.5-8.4 5.5-16.8 10.9-25.2 16.5-7.9 5.3-15.8 10.7-23.7 16-6.5 4.3-13 8.5-19.5 12.8C14.7 19.1 7.4 24 0 29c-2.6 1.8-5 3.7-7.6 5.5-1.4-1.6-3-3.2-4.5-4.8z"/><path class="st9" d="M-7.5 34.6c2.5-1.9 5-3.8 7.6-5.5 7.3-5 14.7-9.9 22.1-14.8 6.5-4.3 13-8.5 19.5-12.8 7.9-5.3 15.8-10.7 23.7-16L90.6-31l2.5 2.5-25.8 17.4C57.7-4.8 48.1 1.4 38.6 7.7 26.6 15.8 14.5 23.9 2.5 32c-2.4 1.7-4.8 3.5-7.1 5.3-1-.9-2-1.8-2.9-2.7z"/><path class="st22" d="M-4.6 37.3c2.4-1.8 4.7-3.6 7.1-5.3 12-8.1 24-16.2 36.1-24.3 9.5-6.3 19.1-12.5 28.6-18.9 8.6-5.7 17.2-11.6 25.8-17.4l2.5 2.5C86-19.7 76.5-13.3 67-7 60-2.3 53 2.5 46 7.2 29.9 18 13.7 28.7-2.4 39.5l-2.2-2.2z"/><path class="st15" d="M15.3 134.4c-.1.4-.3.7-.4 1.1.2-.4.3-.7.4-1.1z"/></svg>