<svg version="1.1" id="Layer_1" xmlns="http://www.w3.org/2000/svg" x="0" y="0" viewBox="0 0 1000 400" style="enable-background:new 0 0 1000 400" xml:space="preserve"><style>.st0{fill:#ca2a38}.st1{fill:#fff}.st2{fill:#fefdfd}.st3{fill:#fefcfc}.st4{fill:#fdfbfc}.st9{fill:#020202}.st10{fill:#cb2f3c}</style><path class="st0" d="M498.92 219.97h206.41c3.24 0 3.24 0 3.24 3.18 0 6.74.03 13.49-.01 20.23-.05 9.46-5.68 15.09-15.13 15.09-129.61.01-259.22.01-388.84 0-9.59 0-15.2-5.61-15.24-15.23-.03-6.83.1-13.66-.07-20.48-.06-2.4.76-2.84 2.96-2.84 68.91.06 137.8.05 206.68.05z"/><path class="st1" d="M494.48 124.98c11.49 0 22.98-.01 34.47 0 5.65.01 8.52 2.79 8.52 8.39.02 23.06.02 46.12 0 69.18 0 5.59-2.9 8.5-8.44 8.51-23.15.02-46.3.02-69.45 0-5.32 0-8.17-2.88-8.17-8.19-.01-23.23-.01-46.45 0-69.68 0-5.47 2.78-8.21 8.34-8.21h34.73zM625.18 196.03c-26.57 0-53.13.01-79.7-.04-.85 0-2.28.71-2.52-.67-.26-1.51-.41-3.16.15-4.66.22-.59 1.05-.31 1.61-.31 3.33-.02 6.66-.01 9.99-.01 49.89 0 99.77 0 149.66.02 1.04 0 2.66-.55 3 .42.49 1.41.21 3.11.19 4.68 0 .55-.53.55-.94.56-.67.02-1.33.01-2 .01h-79.44zM367.52 196.03c-25.16 0-50.32-.05-75.48.07-2.47.01-2.64-.93-2.58-2.86.06-1.79-.09-2.97 2.52-2.97 50.48.1 100.97.07 151.45.1.77 0 2.09-.62 2.2.81.11 1.53.51 3.2-.28 4.59-.22.4-1.54.24-2.36.24-25.15.02-50.31.02-75.47.02zM586.93 172.92c0 2.66-.17 5.34.05 7.98.17 2.08-.71 2.92-2.49 3.61-7.07 2.74-14.2 3.87-21.7 1.83-10.37-2.83-14.94-11.95-14.63-21.23.26-7.85 3.23-14.65 10.6-18.28 8.62-4.24 17.35-3.84 25.74 1.09 1.38.81 1.79 1.64.29 2.72-.13.1-.24.23-.35.35-1.11 1.13-2.04 2.76-3.38 3.24-1.47.53-2.62-1.34-4.02-1.99-8.2-3.81-17.25-.42-20.25 7.68-3.14 8.46 1.16 17.99 9.24 20.27 4.04 1.14 8.08.65 12.01-.75 1.02-.36 1.62-.9 1.56-2.15-.11-2.24-.11-4.5 0-6.74.07-1.38-.47-1.69-1.72-1.63-1.74.09-3.5-.02-5.24.04-1.09.04-1.54-.38-1.45-1.44.02-.17.01-.33 0-.5-.14-4.74-.14-4.74 4.63-4.74 3.08 0 6.16.06 9.24-.03 1.48-.04 2.07.35 2 1.94-.12 2.91-.03 5.83-.03 8.74-.03-.01-.06-.01-.1-.01zM699.39 164.41c4.72 1.2 7.81 3.6 8.61 8.17 1.01 5.78-1.89 10.54-7.52 12.45-2.3.78-4.69 1.12-7.12 1.13-4.58.01-9.16-.05-13.74.04-1.49.03-2.02-.35-2.01-1.94.06-12.49.05-24.97.01-37.46-.01-1.42.43-1.88 1.85-1.85 5.33.1 10.66-.06 15.98.16 6.83.29 11.15 4.61 10.97 10.7-.12 4.42-2.87 6.84-7.03 8.6zM616.39 167.99c3.65 6.1 7.13 11.93 10.84 18.15h-8.07c-1.09 0-1.26-.96-1.64-1.65-2.58-4.65-5.14-9.32-7.71-13.98-.8-1.44-4.51-2.44-5.87-1.59-.73.46-.44 1.19-.44 1.81-.03 4.5-.08 8.99.02 13.49.03 1.52-.38 1.98-1.94 1.99-5.47.05-5.47.12-5.47-5.43 0-11.16.04-22.31-.04-33.47-.01-1.85.43-2.47 2.35-2.38 5.9.28 11.84-.5 17.69.61 8.98 1.71 12.83 11.14 7.61 18.33-1.73 2.37-4.14 3.51-7.33 4.12zM322.81 160.08c0-4.33.04-8.66-.02-12.99-.02-1.39.18-2.07 1.87-2.09 5.5-.06 5.5-.14 5.5 5.43 0 6.83-.07 13.66.03 20.49.08 5.58 3.17 8.94 8.35 9.38 5.96.51 10.02-3.17 10.09-9.35.09-7.83.1-15.66-.02-23.49-.03-2.02.57-2.51 2.51-2.47 4.93.11 4.94.02 4.93 4.99-.02 7.25.07 14.49-.09 21.74-.16 7.17-4.29 12.73-10.63 14.77-7.28 2.34-14.93.29-19.26-5.16-2.57-3.23-3.25-7.02-3.25-11.01-.01-3.41-.01-6.82-.01-10.24zM667 160.06c0 3.91.05 7.83-.01 11.74-.19 13.11-13.82 18.63-23.83 14.16-6.01-2.69-9.08-7.4-9.18-13.92-.12-8.41-.02-16.82-.1-25.23-.01-1.46.48-1.77 1.86-1.79 5.42-.08 5.42-.13 5.42 5.23 0 6.83-.1 13.66.04 20.48.15 7.24 5.56 11.16 12.37 9.17 3.82-1.12 5.98-3.99 6.08-8.73.15-7.32.06-14.65.07-21.98 0-.83-.01-1.67 0-2.5 0-.33-.09-.83.09-.97 1.9-1.49 4.1-.41 6.16-.63 1.48-.16 1.1 1.15 1.11 1.97.03 4.33.01 8.66.01 12.99-.03.01-.06.01-.09.01zM428.3 151.58c-6.83 0-13.06-.1-19.29.05-2.07.05-2.49-.64-2.43-2.53.12-4.15.02-4.15 4.3-4.15 8.16 0 16.33.04 24.49-.03 1.62-.02 2.07.42 2.17 2.08.18 3.06-.6 5.48-2.63 7.92-6.08 7.29-11.86 14.82-17.75 22.26-.5.63-1.2 1.16-1.32 2.09.63.61 1.42.3 2.11.31 5.91.03 11.83.07 17.74-.02 1.58-.02 2.18.35 2.18 2.05 0 4.55.08 4.55-4.36 4.55-8.25 0-16.49-.05-24.74.04-1.86.02-2.49-.35-2.56-2.4-.12-3.03.8-5.33 2.71-7.67 6.46-7.93 12.69-16.04 19.38-24.55zM377.44 168.79c0-4.74-.13-9.49.06-14.22.09-2.32-.39-3.28-2.93-3.04-2.72.25-5.49.01-8.23.08-1.18.03-1.54-.36-1.6-1.55-.28-5.1-.32-5.1 4.82-5.1 8.49 0 16.98.05 25.46-.04 1.82-.02 2.46.39 2.42 2.33-.11 4.34 0 4.34-4.31 4.34-2 0-4 .12-5.99-.03-1.91-.15-2.55.39-2.52 2.43.11 9.9-.02 19.8.11 29.69.03 2.16-.62 2.6-2.63 2.54-4.65-.14-4.65-.04-4.65-4.69-.01-4.26-.01-8.5-.01-12.74zM289.66 165.52c0-6.16.04-12.33-.03-18.49-.02-1.49.37-2 1.95-2.02 5.46-.07 5.46-.13 5.46 5.43 0 8.99.06 17.99-.05 26.98-.02 1.89.49 2.4 2.36 2.34 4.41-.14 8.83.01 13.24-.08 1.47-.03 2.01.29 2.01 1.9 0 4.75.08 4.75-4.63 4.75-6.08 0-12.16-.05-18.24.03-1.63.02-2.14-.45-2.11-2.11.1-6.24.04-12.49.04-18.73z"/><path class="st2" d="M532.17 234.46c0 4.46.01 8.92-.01 13.38 0 1.1.37 2.37-1.57 2.38-1.97.01-1.56-1.28-1.56-2.38-.02-4.99-.04-9.99.03-14.98.01-.91-.71-2.53 1.07-2.5 1.63.03 3.73-1.11 4.74 1.39 1.74 4.32 3.53 8.62 5.33 12.91.21.5.27 1.15 1.09 1.52 1.89-4.64 3.76-9.23 5.63-13.81.74-1.81 3.78-2.89 5.52-2.01.72.36.53.97.53 1.51.02 5.58-.01 11.15.03 16.73.01 1.18-.35 1.61-1.56 1.61-1.18 0-1.6-.4-1.59-1.59.05-4.81.02-9.63-.41-14.62-.56 1.22-1.14 2.43-1.66 3.66-1.5 3.52-2.98 7.05-4.45 10.58-.46 1.11-.88 2-2.43 2-1.61 0-1.9-1.05-2.34-2.11l-5.76-13.77c-.21.04-.42.07-.63.1z"/><path class="st3" d="M487.59 240.08c0-2.58.06-5.16-.02-7.73-.04-1.43.32-2.16 1.93-2.08 2.9.14 5.83-.17 8.68.63 5.07 1.43 7.67 4.98 7.42 10.11-.24 4.9-3.27 8.21-8.47 8.9-2.62.34-5.31.18-7.97.3-1.21.05-1.59-.49-1.57-1.64.04-2.84.01-5.67 0-8.49z"/><path class="st2" d="M439.29 250.16c-1.65.34-2.12-.83-2.4-1.96-.66-2.64-2.29-3.57-4.89-3.14-.73.12-1.5.09-2.24.01-3.21-.37-5.91-.01-6.65 3.89-.31 1.64-1.82 1.49-2.81 1.13-1.47-.54-.19-1.53.1-2.16 2.45-5.36 5.01-10.66 7.47-16.01.51-1.12 1.11-1.67 2.41-1.67s1.91.52 2.42 1.65c2.53 5.59 5.11 11.16 7.74 16.71.69 1.48.13 1.75-1.15 1.55zM462.38 249.85c2.89-6.21 5.72-12.39 8.67-18.52.82-1.71 3.49-1.51 4.34.28 2.63 5.56 5.2 11.15 7.77 16.75.24.53 1 1.35.13 1.69-.83.32-1.96.51-2.81-.31-.12-.11-.24-.27-.26-.42-.77-4.9-4.39-4.47-7.91-4.24-.41.03-.85.07-1.25-.01-2.59-.52-3.91.64-4.73 3.05-.81 2.37-.99 2.31-3.95 1.73z"/><path class="st4" d="M511.06 240.07c0-2.58.06-5.15-.02-7.72-.05-1.42.26-2.15 1.9-2.09 2.9.11 5.82.04 8.72.02 1.02-.01 1.79.13 1.76 1.46-.03 1.27-.84 1.21-1.7 1.21-1.91-.01-3.83.07-5.73-.02-1.31-.06-1.82.4-1.69 1.7.07.66.07 1.33 0 1.99-.15 1.47.36 2.13 1.94 2.02 1.65-.12 3.32-.01 4.98-.02.91-.01 1.38.32 1.38 1.31.01.99-.48 1.3-1.38 1.29-1.74-.01-3.49.06-5.23-.02-1.33-.06-1.66.49-1.71 1.75-.19 4.77-.23 4.77 4.4 4.77.91 0 1.83-.03 2.74.01.86.03 1.93-.28 1.98 1.19.05 1.45-.96 1.29-1.86 1.3-2.83.01-5.66-.1-8.47.04-1.77.09-2.08-.67-2.03-2.2.09-2.68.02-5.34.02-7.99z"/><path class="st3" d="M455.48 250.53c-9.1.05-14.52-7.81-10.54-15.06 2.46-4.48 9.44-6.88 14.18-4.99 1.25.5 1.08 1.31.89 2.2-.24 1.13-.98.5-1.55.35-1.7-.46-3.4-.66-5.16-.25-4.1.97-6.47 4.06-6.15 8.12.29 3.8 3.2 6.65 7.19 7.02 1.42.13 2.82-.01 4.2-.38.74-.2 1.52-.47 1.63.75.08.89.01 1.54-1.11 1.83-1.25.34-2.48.32-3.58.41z"/><path class="st4" d="M556.98 230.59c2.46-.78 3.83-.02 4.95 1.78 1.18 1.9 2.62 3.64 3.88 5.49.76 1.13 1.3 1.27 2.11.02 1.26-1.95 2.79-3.74 3.97-5.73 1.09-1.84 2.5-2.2 4.72-1.57-1.57 2.19-2.86 4.42-4.57 6.27-2.94 3.2-4.25 6.78-3.67 11.09.1.73.43 1.88-.65 2.14-1.15.27-2.86.55-2.48-1.51 1.02-5.5-1.61-9.55-4.93-13.42-1.18-1.37-2.14-2.92-3.33-4.56z"/><path class="st0" d="M473.54 169.53c5.83 0 11.66.05 17.49-.03 1.53-.02 1.99.46 1.99 1.99-.05 11.57-.06 23.14 0 34.72.01 1.84-.74 2.24-2.38 2.23-10.24-.05-20.49 0-30.73-.04-3.87-.02-5.81-1.98-5.82-5.91-.04-10.24.02-20.48-.05-30.72-.01-1.73.5-2.31 2.26-2.28 5.74.1 11.49.04 17.24.04z"/><path d="M492.95 147.34c0 5.75-.05 11.49.04 17.23.02 1.56-.44 1.97-1.97 1.96-11.58-.06-23.15-.07-34.73.01-1.85.01-2.19-.67-2.18-2.32.06-10.16.01-20.32.04-30.47.01-4.19 1.92-6.09 6.13-6.1 10.16-.03 20.32.03 30.48-.05 1.76-.01 2.27.51 2.24 2.26-.12 5.83-.05 11.66-.05 17.48zM515.21 169.54c5.75 0 11.5.06 17.25-.04 1.63-.03 2.1.4 2.08 2.06-.08 10.41-.02 20.82-.05 31.23-.01 3.82-1.62 5.49-5.5 5.51-10.33.05-20.66 0-30.99.04-1.55.01-2.25-.39-2.24-2.09.05-11.58.06-23.15-.01-34.73-.01-1.75.68-2.04 2.22-2.02 5.75.08 11.5.04 17.24.04z"/><path d="M514.5 127.64h1.01c1.35.36 2.77-.07 4.11.37 6.69.67 13.72 7.18 14.37 13.31.17 1.07.13 2.17.46 3.21.2 2.17.22 4.35-.03 6.52-1.14 8.4-6.13 13.27-14.12 15.39-3.37.35-6.74.35-10.11 0-6.45-1.22-10.47-5.38-13.36-10.91-.03 2.41.05 4.89-.03 7.36-.03 1.02.26 2.22-.96 2.88-.07-.65-.21-1.3-.21-1.95-.01-11.14-.01-22.28 0-33.42 0-.74.13-1.48.2-2.21.11.05.23.09.34.13 1.17 1.93.52 4.06.64 6.1.09 1.57.07 3.16-.03 4.68 2.82-5.93 7.09-10.17 13.99-11.09 1.22-.38 2.51-.04 3.73-.37z" style="fill:#3a92cc"/><path d="M520.3 166.45c.85-1.02 2.18-1.11 3.26-1.68 5.05-2.68 8.61-6.57 10.19-12.14.15-.54.44-1.05.67-1.57.03 4.55.01 9.11.12 13.66.03 1.41-.39 1.86-1.81 1.83-4.15-.11-8.29-.08-12.43-.1zM495.84 165.77v-12.84c.98-.06 1.01.44 1.14.79 2.16 5.68 6.06 9.64 11.74 11.84.53.2.98.59 1.47.9-4.15.02-8.3.05-12.46.05-.7-.01-1.56.26-1.89-.74zM533.57 141.48c-2.2-6.98-6.95-11.25-13.99-13.07-.03-.4.18-.61.57-.6 3.61.08 7.23-.26 10.84.19 2.38.66 3.52 2.26 3.51 4.69-.01 3.12-.04 6.25-.06 9.37-.56.21-.69-.22-.87-.58z"/><path d="M514.5 127.64c-1.11.69-2.46.26-3.61.75-3.83.39-7.65.86-11.51.64-1.15-.06-2.31 0-3.34-.66a.463.463 0 0 1-.21-.18c.26-.7.88-.67 1.46-.67 5.74.03 11.48.08 17.21.12z" style="fill:#0a0a0a"/><path d="M530.99 128c-3.8.28-7.63-.55-11.41.42-1.3-.57-2.81-.03-4.08-.77 4.62-.04 9.24-.09 13.86-.13.6-.02 1.18.04 1.63.48z" style="fill:#050505"/><path d="M533.57 141.48c.29.19.58.38.86.58 0 .83.01 1.65.01 2.48-.61-.93-.68-2.01-.87-3.06z" style="fill:#85adc8"/><path class="st9" d="M690.79 168.07c1.81-.03 4.1-.07 6.38.7 2.24.76 3.57 2.14 3.68 4.46.12 2.49-.71 4.66-3.15 5.74-3.81 1.68-7.87.8-11.83.93-.77.03-.85-.64-.85-1.26 0-3.08.03-6.15-.02-9.23-.02-1.16.55-1.39 1.54-1.35 1.24.04 2.49.01 4.25.01zM685.02 156.53c.21-5.33.21-5.33 5.68-5.27 1.83.02 3.63.2 5.36.88 1.89.74 2.97 2 3.01 4.1.04 2.11-.73 3.66-2.72 4.58-3.41 1.57-7 .94-10.54.98-.8.01-.79-.7-.79-1.29-.01-1.33-.01-2.66 0-3.98zM603.58 156.79c0-5.73 0-5.75 5.83-5.52 1.49.06 3 .13 4.46.43 2.88.6 4.27 2.31 4.3 5 .04 2.92-1.26 4.62-4.21 5.34-3.03.73-6.12.41-9.19.47-1.06.02-1.2-.63-1.19-1.47.01-1.43 0-2.84 0-4.25z"/><path class="st0" d="M490.83 240.42c0-1.24-.03-2.49.01-3.73.12-4.25-.93-3.77 3.81-3.73 4.6.04 7.52 2.84 7.65 7.1.14 4.51-2.31 7.11-7.08 7.53-4.42.39-4.42.39-4.39-3.94.01-1.07 0-2.15 0-3.23z"/><path class="st10" d="M430.3 233.37c1.22 2.78 2.32 5.35 3.47 7.9.52 1.15.3 1.56-1.04 1.67-7.13.54-7.14.57-4.34-5.86.51-1.19.81-2.5 1.91-3.71zM473.14 233.33c1.33 2.93 2.53 5.55 3.72 8.16.54 1.18-.06 1.44-1.11 1.43-1.83-.03-3.65 0-5.48-.01-.67 0-1.52.02-1.08-1.03 1.17-2.8 2.21-5.66 3.95-8.55z"/><path d="M496.05 128.37c4.95-.58 9.9-.61 14.85.02-7.25 1.79-11.97 6.37-14.85 13.27v-13.29z"/><path d="M496.1 149.65c.66.54.28 1.17.41 1.9-.97-.66-.19-1.32-.41-1.9z" style="fill:#77aed2"/></svg>