<?xml version="1.0" encoding="utf-8"?>
<!-- Generator: Adobe Illustrator 25.4.1, SVG Export Plug-In . SVG Version: 6.00 Build 0)  -->
<svg version="1.1" id="Layer_1" xmlns="http://www.w3.org/2000/svg" xmlns:xlink="http://www.w3.org/1999/xlink" x="0px" y="0px" viewBox="0 0 1000 400" style="enable-background: new 0 0 1000 400" xml:space="preserve">
<style>.st0 {
  fill: #ca2a38;
}

.st1 {
  fill: #fff;
}

.st2 {
  fill: #fefdfd;
}

.st3 {
  fill: #fefcfc;
}

.st4 {
  fill: #fdfbfc;
}

.st5 {
  fill: #3a92cc;
}

.st6 {
  fill: #0a0a0a;
}

.st7 {
  fill: #050505;
}

.st8 {
  fill: #85adc8;
}

.st9 {
  fill: #020202;
}

.st10 {
  fill: #cb2f3c;
}

.st11 {
  fill: #77aed2;
}

</style>
<path class="st0" d="M498.92,219.97c68.8,0,137.61,0,206.41,0c3.24,0,3.24,0,3.24,3.18c0,6.74,0.03,13.49-0.01,20.23
	c-0.05,9.46-5.68,15.09-15.13,15.09c-129.61,0.01-259.22,0.01-388.84,0c-9.59,0-15.2-5.61-15.24-15.23
	c-0.03-6.83,0.1-13.66-0.07-20.48c-0.06-2.4,0.76-2.84,2.96-2.84C361.15,219.98,430.04,219.97,498.92,219.97z"></path>
<path class="st1" d="M494.48,124.98c11.49,0,22.98-0.01,34.47,0c5.65,0.01,8.52,2.79,8.52,8.39c0.02,23.06,0.02,46.12,0,69.18
	c0,5.59-2.9,8.5-8.44,8.51c-23.15,0.02-46.3,0.02-69.45,0c-5.32,0-8.17-2.88-8.17-8.19c-0.01-23.23-0.01-46.45,0-69.68
	c0-5.47,2.78-8.21,8.34-8.21C471.33,124.98,482.9,124.98,494.48,124.98z"></path>
<path class="st1" d="M625.18,196.03c-26.57,0-53.13,0.01-79.7-0.04c-0.85,0-2.28,0.71-2.52-0.67c-0.26-1.51-0.41-3.16,0.15-4.66
	c0.22-0.59,1.05-0.31,1.61-0.31c3.33-0.02,6.66-0.01,9.99-0.01c49.89,0,99.77,0,149.66,0.02c1.04,0,2.66-0.55,3,0.42
	c0.49,1.41,0.21,3.11,0.19,4.68c0,0.55-0.53,0.55-0.94,0.56c-0.67,0.02-1.33,0.01-2,0.01C678.15,196.03,651.66,196.03,625.18,196.03
	z"></path>
<path class="st1" d="M367.52,196.03c-25.16,0-50.32-0.05-75.48,0.07c-2.47,0.01-2.64-0.93-2.58-2.86c0.06-1.79-0.09-2.97,2.52-2.97
	c50.48,0.1,100.97,0.07,151.45,0.1c0.77,0,2.09-0.62,2.2,0.81c0.11,1.53,0.51,3.2-0.28,4.59c-0.22,0.4-1.54,0.24-2.36,0.24
	C417.84,196.03,392.68,196.03,367.52,196.03z"></path>
<path class="st1" d="M586.93,172.92c0,2.66-0.17,5.34,0.05,7.98c0.17,2.08-0.71,2.92-2.49,3.61c-7.07,2.74-14.2,3.87-21.7,1.83
	c-10.37-2.83-14.94-11.95-14.63-21.23c0.26-7.85,3.23-14.65,10.6-18.28c8.62-4.24,17.35-3.84,25.74,1.09
	c1.38,0.81,1.79,1.64,0.29,2.72c-0.13,0.1-0.24,0.23-0.35,0.35c-1.11,1.13-2.04,2.76-3.38,3.24c-1.47,0.53-2.62-1.34-4.02-1.99
	c-8.2-3.81-17.25-0.42-20.25,7.68c-3.14,8.46,1.16,17.99,9.24,20.27c4.04,1.14,8.08,0.65,12.01-0.75c1.02-0.36,1.62-0.9,1.56-2.15
	c-0.11-2.24-0.11-4.5,0-6.74c0.07-1.38-0.47-1.69-1.72-1.63c-1.74,0.09-3.5-0.02-5.24,0.04c-1.09,0.04-1.54-0.38-1.45-1.44
	c0.02-0.17,0.01-0.33,0-0.5c-0.14-4.74-0.14-4.74,4.63-4.74c3.08,0,6.16,0.06,9.24-0.03c1.48-0.04,2.07,0.35,2,1.94
	c-0.12,2.91-0.03,5.83-0.03,8.74C587,172.92,586.97,172.92,586.93,172.92z"></path>
<path class="st1" d="M699.39,164.41c4.72,1.2,7.81,3.6,8.61,8.17c1.01,5.78-1.89,10.54-7.52,12.45c-2.3,0.78-4.69,1.12-7.12,1.13
	c-4.58,0.01-9.16-0.05-13.74,0.04c-1.49,0.03-2.02-0.35-2.01-1.94c0.06-12.49,0.05-24.97,0.01-37.46c-0.01-1.42,0.43-1.88,1.85-1.85
	c5.33,0.1,10.66-0.06,15.98,0.16c6.83,0.29,11.15,4.61,10.97,10.7C706.3,160.23,703.55,162.65,699.39,164.41z"></path>
<path class="st1" d="M616.39,167.99c3.65,6.1,7.13,11.93,10.84,18.15c-2.98,0-5.52,0-8.07,0c-1.09,0-1.26-0.96-1.64-1.65
	c-2.58-4.65-5.14-9.32-7.71-13.98c-0.8-1.44-4.51-2.44-5.87-1.59c-0.73,0.46-0.44,1.19-0.44,1.81c-0.03,4.5-0.08,8.99,0.02,13.49
	c0.03,1.52-0.38,1.98-1.94,1.99c-5.47,0.05-5.47,0.12-5.47-5.43c0-11.16,0.04-22.31-0.04-33.47c-0.01-1.85,0.43-2.47,2.35-2.38
	c5.9,0.28,11.84-0.5,17.69,0.61c8.98,1.71,12.83,11.14,7.61,18.33C621.99,166.24,619.58,167.38,616.39,167.99z"></path>
<path class="st1" d="M322.81,160.08c0-4.33,0.04-8.66-0.02-12.99c-0.02-1.39,0.18-2.07,1.87-2.09c5.5-0.06,5.5-0.14,5.5,5.43
	c0,6.83-0.07,13.66,0.03,20.49c0.08,5.58,3.17,8.94,8.35,9.38c5.96,0.51,10.02-3.17,10.09-9.35c0.09-7.83,0.1-15.66-0.02-23.49
	c-0.03-2.02,0.57-2.51,2.51-2.47c4.93,0.11,4.94,0.02,4.93,4.99c-0.02,7.25,0.07,14.49-0.09,21.74
	c-0.16,7.17-4.29,12.73-10.63,14.77c-7.28,2.34-14.93,0.29-19.26-5.16c-2.57-3.23-3.25-7.02-3.25-11.01
	C322.81,166.91,322.81,163.5,322.81,160.08z"></path>
<path class="st1" d="M667,160.06c0,3.91,0.05,7.83-0.01,11.74c-0.19,13.11-13.82,18.63-23.83,14.16c-6.01-2.69-9.08-7.4-9.18-13.92
	c-0.12-8.41-0.02-16.82-0.1-25.23c-0.01-1.46,0.48-1.77,1.86-1.79c5.42-0.08,5.42-0.13,5.42,5.23c0,6.83-0.1,13.66,0.04,20.48
	c0.15,7.24,5.56,11.16,12.37,9.17c3.82-1.12,5.98-3.99,6.08-8.73c0.15-7.32,0.06-14.65,0.07-21.98c0-0.83-0.01-1.67,0-2.5
	c0-0.33-0.09-0.83,0.09-0.97c1.9-1.49,4.1-0.41,6.16-0.63c1.48-0.16,1.1,1.15,1.11,1.97c0.03,4.33,0.01,8.66,0.01,12.99
	C667.06,160.06,667.03,160.06,667,160.06z"></path>
<path class="st1" d="M428.3,151.58c-6.83,0-13.06-0.1-19.29,0.05c-2.07,0.05-2.49-0.64-2.43-2.53c0.12-4.15,0.02-4.15,4.3-4.15
	c8.16,0,16.33,0.04,24.49-0.03c1.62-0.02,2.07,0.42,2.17,2.08c0.18,3.06-0.6,5.48-2.63,7.92c-6.08,7.29-11.86,14.82-17.75,22.26
	c-0.5,0.63-1.2,1.16-1.32,2.09c0.63,0.61,1.42,0.3,2.11,0.31c5.91,0.03,11.83,0.07,17.74-0.02c1.58-0.02,2.18,0.35,2.18,2.05
	c0,4.55,0.08,4.55-4.36,4.55c-8.25,0-16.49-0.05-24.74,0.04c-1.86,0.02-2.49-0.35-2.56-2.4c-0.12-3.03,0.8-5.33,2.71-7.67
	C415.38,168.2,421.61,160.09,428.3,151.58z"></path>
<path class="st1" d="M377.44,168.79c0-4.74-0.13-9.49,0.06-14.22c0.09-2.32-0.39-3.28-2.93-3.04c-2.72,0.25-5.49,0.01-8.23,0.08
	c-1.18,0.03-1.54-0.36-1.6-1.55c-0.28-5.1-0.32-5.1,4.82-5.1c8.49,0,16.98,0.05,25.46-0.04c1.82-0.02,2.46,0.39,2.42,2.33
	c-0.11,4.34,0,4.34-4.31,4.34c-2,0-4,0.12-5.99-0.03c-1.91-0.15-2.55,0.39-2.52,2.43c0.11,9.9-0.02,19.8,0.11,29.69
	c0.03,2.16-0.62,2.6-2.63,2.54c-4.65-0.14-4.65-0.04-4.65-4.69C377.44,177.27,377.44,173.03,377.44,168.79z"></path>
<path class="st1" d="M289.66,165.52c0-6.16,0.04-12.33-0.03-18.49c-0.02-1.49,0.37-2,1.95-2.02c5.46-0.07,5.46-0.13,5.46,5.43
	c0,8.99,0.06,17.99-0.05,26.98c-0.02,1.89,0.49,2.4,2.36,2.34c4.41-0.14,8.83,0.01,13.24-0.08c1.47-0.03,2.01,0.29,2.01,1.9
	c0,4.75,0.08,4.75-4.63,4.75c-6.08,0-12.16-0.05-18.24,0.03c-1.63,0.02-2.14-0.45-2.11-2.11
	C289.72,178.01,289.66,171.76,289.66,165.52z"></path>
<path class="st2" d="M532.17,234.46c0,4.46,0.01,8.92-0.01,13.38c0,1.1,0.37,2.37-1.57,2.38c-1.97,0.01-1.56-1.28-1.56-2.38
	c-0.02-4.99-0.04-9.99,0.03-14.98c0.01-0.91-0.71-2.53,1.07-2.5c1.63,0.03,3.73-1.11,4.74,1.39c1.74,4.32,3.53,8.62,5.33,12.91
	c0.21,0.5,0.27,1.15,1.09,1.52c1.89-4.64,3.76-9.23,5.63-13.81c0.74-1.81,3.78-2.89,5.52-2.01c0.72,0.36,0.53,0.97,0.53,1.51
	c0.02,5.58-0.01,11.15,0.03,16.73c0.01,1.18-0.35,1.61-1.56,1.61c-1.18,0-1.6-0.4-1.59-1.59c0.05-4.81,0.02-9.63-0.41-14.62
	c-0.56,1.22-1.14,2.43-1.66,3.66c-1.5,3.52-2.98,7.05-4.45,10.58c-0.46,1.11-0.88,2-2.43,2c-1.61,0-1.9-1.05-2.34-2.11
	c-1.92-4.59-3.84-9.18-5.76-13.77C532.59,234.4,532.38,234.43,532.17,234.46z"></path>
<path class="st3" d="M487.59,240.08c0-2.58,0.06-5.16-0.02-7.73c-0.04-1.43,0.32-2.16,1.93-2.08c2.9,0.14,5.83-0.17,8.68,0.63
	c5.07,1.43,7.67,4.98,7.42,10.11c-0.24,4.9-3.27,8.21-8.47,8.9c-2.62,0.34-5.31,0.18-7.97,0.3c-1.21,0.05-1.59-0.49-1.57-1.64
	C487.63,245.73,487.6,242.9,487.59,240.08z"></path>
<path class="st2" d="M439.29,250.16c-1.65,0.34-2.12-0.83-2.4-1.96c-0.66-2.64-2.29-3.57-4.89-3.14c-0.73,0.12-1.5,0.09-2.24,0.01
	c-3.21-0.37-5.91-0.01-6.65,3.89c-0.31,1.64-1.82,1.49-2.81,1.13c-1.47-0.54-0.19-1.53,0.1-2.16c2.45-5.36,5.01-10.66,7.47-16.01
	c0.51-1.12,1.11-1.67,2.41-1.67c1.3,0,1.91,0.52,2.42,1.65c2.53,5.59,5.11,11.16,7.74,16.71
	C441.13,250.09,440.57,250.36,439.29,250.16z"></path>
<path class="st2" d="M462.38,249.85c2.89-6.21,5.72-12.39,8.67-18.52c0.82-1.71,3.49-1.51,4.34,0.28c2.63,5.56,5.2,11.15,7.77,16.75
	c0.24,0.53,1,1.35,0.13,1.69c-0.83,0.32-1.96,0.51-2.81-0.31c-0.12-0.11-0.24-0.27-0.26-0.42c-0.77-4.9-4.39-4.47-7.91-4.24
	c-0.41,0.03-0.85,0.07-1.25-0.01c-2.59-0.52-3.91,0.64-4.73,3.05C465.52,250.49,465.34,250.43,462.38,249.85z"></path>
<path class="st4" d="M511.06,240.07c0-2.58,0.06-5.15-0.02-7.72c-0.05-1.42,0.26-2.15,1.9-2.09c2.9,0.11,5.82,0.04,8.72,0.02
	c1.02-0.01,1.79,0.13,1.76,1.46c-0.03,1.27-0.84,1.21-1.7,1.21c-1.91-0.01-3.83,0.07-5.73-0.02c-1.31-0.06-1.82,0.4-1.69,1.7
	c0.07,0.66,0.07,1.33,0,1.99c-0.15,1.47,0.36,2.13,1.94,2.02c1.65-0.12,3.32-0.01,4.98-0.02c0.91-0.01,1.38,0.32,1.38,1.31
	c0.01,0.99-0.48,1.3-1.38,1.29c-1.74-0.01-3.49,0.06-5.23-0.02c-1.33-0.06-1.66,0.49-1.71,1.75c-0.19,4.77-0.23,4.77,4.4,4.77
	c0.91,0,1.83-0.03,2.74,0.01c0.86,0.03,1.93-0.28,1.98,1.19c0.05,1.45-0.96,1.29-1.86,1.3c-2.83,0.01-5.66-0.1-8.47,0.04
	c-1.77,0.09-2.08-0.67-2.03-2.2C511.13,245.38,511.06,242.72,511.06,240.07z"></path>
<path class="st3" d="M455.48,250.53c-9.1,0.05-14.52-7.81-10.54-15.06c2.46-4.48,9.44-6.88,14.18-4.99c1.25,0.5,1.08,1.31,0.89,2.2
	c-0.24,1.13-0.98,0.5-1.55,0.35c-1.7-0.46-3.4-0.66-5.16-0.25c-4.1,0.97-6.47,4.06-6.15,8.12c0.29,3.8,3.2,6.65,7.19,7.02
	c1.42,0.13,2.82-0.01,4.2-0.38c0.74-0.2,1.52-0.47,1.63,0.75c0.08,0.89,0.01,1.54-1.11,1.83
	C457.81,250.46,456.58,250.44,455.48,250.53z"></path>
<path class="st4" d="M556.98,230.59c2.46-0.78,3.83-0.02,4.95,1.78c1.18,1.9,2.62,3.64,3.88,5.49c0.76,1.13,1.3,1.27,2.11,0.02
	c1.26-1.95,2.79-3.74,3.97-5.73c1.09-1.84,2.5-2.2,4.72-1.57c-1.57,2.19-2.86,4.42-4.57,6.27c-2.94,3.2-4.25,6.78-3.67,11.09
	c0.1,0.73,0.43,1.88-0.65,2.14c-1.15,0.27-2.86,0.55-2.48-1.51c1.02-5.5-1.61-9.55-4.93-13.42
	C559.13,233.78,558.17,232.23,556.98,230.59z"></path>
<path class="st0" d="M473.54,169.53c5.83,0,11.66,0.05,17.49-0.03c1.53-0.02,1.99,0.46,1.99,1.99c-0.05,11.57-0.06,23.14,0,34.72
	c0.01,1.84-0.74,2.24-2.38,2.23c-10.24-0.05-20.49,0-30.73-0.04c-3.87-0.02-5.81-1.98-5.82-5.91c-0.04-10.24,0.02-20.48-0.05-30.72
	c-0.01-1.73,0.5-2.31,2.26-2.28C462.04,169.59,467.79,169.53,473.54,169.53z"></path>
<path d="M492.95,147.34c0,5.75-0.05,11.49,0.04,17.23c0.02,1.56-0.44,1.97-1.97,1.96c-11.58-0.06-23.15-0.07-34.73,0.01
	c-1.85,0.01-2.19-0.67-2.18-2.32c0.06-10.16,0.01-20.32,0.04-30.47c0.01-4.19,1.92-6.09,6.13-6.1c10.16-0.03,20.32,0.03,30.48-0.05
	c1.76-0.01,2.27,0.51,2.24,2.26C492.88,135.69,492.95,141.52,492.95,147.34z"></path>
<path d="M515.21,169.54c5.75,0,11.5,0.06,17.25-0.04c1.63-0.03,2.1,0.4,2.08,2.06c-0.08,10.41-0.02,20.82-0.05,31.23
	c-0.01,3.82-1.62,5.49-5.5,5.51c-10.33,0.05-20.66,0-30.99,0.04c-1.55,0.01-2.25-0.39-2.24-2.09c0.05-11.58,0.06-23.15-0.01-34.73
	c-0.01-1.75,0.68-2.04,2.22-2.02C503.72,169.58,509.47,169.54,515.21,169.54z"></path>
<path class="st5" d="M514.5,127.64c0.34,0,0.67,0,1.01,0c1.35,0.36,2.77-0.07,4.11,0.37c6.69,0.67,13.72,7.18,14.37,13.31
	c0.17,1.07,0.13,2.17,0.46,3.21c0.2,2.17,0.22,4.35-0.03,6.52c-1.14,8.4-6.13,13.27-14.12,15.39c-3.37,0.35-6.74,0.35-10.11,0
	c-6.45-1.22-10.47-5.38-13.36-10.91c-0.03,2.41,0.05,4.89-0.03,7.36c-0.03,1.02,0.26,2.22-0.96,2.88c-0.07-0.65-0.21-1.3-0.21-1.95
	c-0.01-11.14-0.01-22.28,0-33.42c0-0.74,0.13-1.48,0.2-2.21c0.11,0.05,0.23,0.09,0.34,0.13c1.17,1.93,0.52,4.06,0.64,6.1
	c0.09,1.57,0.07,3.16-0.03,4.68c2.82-5.93,7.09-10.17,13.99-11.09C511.99,127.63,513.28,127.97,514.5,127.64z"></path>
<path d="M520.3,166.45c0.85-1.02,2.18-1.11,3.26-1.68c5.05-2.68,8.61-6.57,10.19-12.14c0.15-0.54,0.44-1.05,0.67-1.57
	c0.03,4.55,0.01,9.11,0.12,13.66c0.03,1.41-0.39,1.86-1.81,1.83C528.58,166.44,524.44,166.47,520.3,166.45z"></path>
<path d="M495.84,165.77c0-4.28,0-8.57,0-12.84c0.98-0.06,1.01,0.44,1.14,0.79c2.16,5.68,6.06,9.64,11.74,11.84
	c0.53,0.2,0.98,0.59,1.47,0.9c-4.15,0.02-8.3,0.05-12.46,0.05C497.03,166.5,496.17,166.77,495.84,165.77z"></path>
<path d="M533.57,141.48c-2.2-6.98-6.95-11.25-13.99-13.07c-0.03-0.4,0.18-0.61,0.57-0.6c3.61,0.08,7.23-0.26,10.84,0.19
	c2.38,0.66,3.52,2.26,3.51,4.69c-0.01,3.12-0.04,6.25-0.06,9.37C533.88,142.27,533.75,141.84,533.57,141.48z"></path>
<path class="st6" d="M514.5,127.64c-1.11,0.69-2.46,0.26-3.61,0.75c-3.83,0.39-7.65,0.86-11.51,0.64c-1.15-0.06-2.31,0-3.34-0.66
	c-0.09-0.04-0.16-0.1-0.21-0.18c0.26-0.7,0.88-0.67,1.46-0.67C503.03,127.55,508.77,127.6,514.5,127.64z"></path>
<path class="st7" d="M530.99,128c-3.8,0.28-7.63-0.55-11.41,0.42c-1.3-0.57-2.81-0.03-4.08-0.77c4.62-0.04,9.24-0.09,13.86-0.13
	C529.96,127.5,530.54,127.56,530.99,128z"></path>
<path class="st8" d="M533.57,141.48c0.29,0.19,0.58,0.38,0.86,0.58c0,0.83,0.01,1.65,0.01,2.48
	C533.83,143.61,533.76,142.53,533.57,141.48z"></path>
<path class="st9" d="M690.79,168.07c1.81-0.03,4.1-0.07,6.38,0.7c2.24,0.76,3.57,2.14,3.68,4.46c0.12,2.49-0.71,4.66-3.15,5.74
	c-3.81,1.68-7.87,0.8-11.83,0.93c-0.77,0.03-0.85-0.64-0.85-1.26c0-3.08,0.03-6.15-0.02-9.23c-0.02-1.16,0.55-1.39,1.54-1.35
	C687.78,168.1,689.03,168.07,690.79,168.07z"></path>
<path class="st9" d="M685.02,156.53c0.21-5.33,0.21-5.33,5.68-5.27c1.83,0.02,3.63,0.2,5.36,0.88c1.89,0.74,2.97,2,3.01,4.1
	c0.04,2.11-0.73,3.66-2.72,4.58c-3.41,1.57-7,0.94-10.54,0.98c-0.8,0.01-0.79-0.7-0.79-1.29
	C685.01,159.18,685.01,157.85,685.02,156.53z"></path>
<path class="st9" d="M603.58,156.79c0-5.73,0-5.75,5.83-5.52c1.49,0.06,3,0.13,4.46,0.43c2.88,0.6,4.27,2.31,4.3,5
	c0.04,2.92-1.26,4.62-4.21,5.34c-3.03,0.73-6.12,0.41-9.19,0.47c-1.06,0.02-1.2-0.63-1.19-1.47
	C603.59,159.61,603.58,158.2,603.58,156.79z"></path>
<path class="st0" d="M490.83,240.42c0-1.24-0.03-2.49,0.01-3.73c0.12-4.25-0.93-3.77,3.81-3.73c4.6,0.04,7.52,2.84,7.65,7.1
	c0.14,4.51-2.31,7.11-7.08,7.53c-4.42,0.39-4.42,0.39-4.39-3.94C490.84,242.58,490.83,241.5,490.83,240.42z"></path>
<path class="st10" d="M430.3,233.37c1.22,2.78,2.32,5.35,3.47,7.9c0.52,1.15,0.3,1.56-1.04,1.67c-7.13,0.54-7.14,0.57-4.34-5.86
	C428.9,235.89,429.2,234.58,430.3,233.37z"></path>
<path class="st10" d="M473.14,233.33c1.33,2.93,2.53,5.55,3.72,8.16c0.54,1.18-0.06,1.44-1.11,1.43c-1.83-0.03-3.65,0-5.48-0.01
	c-0.67,0-1.52,0.02-1.08-1.03C470.36,239.08,471.4,236.22,473.14,233.33z"></path>
<path d="M496.05,128.37c4.95-0.58,9.9-0.61,14.85,0.02c-7.25,1.79-11.97,6.37-14.85,13.27C496.05,137.23,496.05,132.8,496.05,128.37
	z"></path>
<path class="st11" d="M496.1,149.65c0.66,0.54,0.28,1.17,0.41,1.9C495.54,150.89,496.32,150.23,496.1,149.65z"></path>
</svg>
