<svg version="1.1" id="Layer_1" xmlns="http://www.w3.org/2000/svg" x="0" y="0" viewBox="-200 -120 450 450" style="enable-background:new 0 0 50 50" xml:space="preserve"><style>.st2{fill:#77c9c5}.st3{fill:#67b2af}.st8{fill:#b8c2cc}.st9{fill:#8f9aa5}</style><path d="M24.8 229.6H-180V-28.3c6.2 4.8 12.4 9.6 18.5 14.4 11.7 9.4 23.3 18.8 35.1 28.2 6.3 5 12.8 9.9 19.1 14.9.6.6 1.1 1.2 1.7 1.7 12.3 9.9 24.7 19.7 37 29.6C-55.3 71.2-42 82-28.7 92.8c-1.3 1.4-2.4 3.1-3.9 4.1-29.9 19.9-59.9 39.8-89.9 59.6-1.1.8-2.1 1.7-3.2 2.6 4 5.9 7.7 11.4 11.3 17 1.6 2.5 3 2.4 5.2.9 3.7-2.7 7.6-5.4 11.4-7.9 23-15.3 45.9-30.6 68.9-45.8 6.9-4.6 14-9 21.1-13.4 1.2.8 2.4 1.6 3.5 2.5 9.7 7.7 19.5 15.5 29.2 23.3-.1 31.2-.1 62.6-.1 93.9z" style="fill:#85e8e8"/><path d="M24.8 229.6v-94l-.1-.3c1.5-1.1 3-2 4.5-3.2 9.7-7.7 19.5-15.3 29.2-23 1.3 1.2 2.4 2.5 3.8 3.4 17.3 11.6 34.6 23.2 52 34.7 14.8 9.9 29.6 19.7 44.4 29.5 1.7 1.2 3.3 2.5 5 0 3.9-5.8 7.7-11.7 11.8-17.8-1.4-1-2.5-2-3.7-2.7-30.4-20.2-60.8-40.5-91.2-60.7-1.1-.7-2.4-1.1-3.5-1.7 12.5-10.1 25-20.2 37.5-30.4 14.1-11.5 28.3-22.9 42.5-34.3 2-1.5 4-3 6-4.6 17-13.6 34-27.3 51.1-40.9 5.1-4.1 10.4-8 15.6-12v257.9c-68.4.1-136.6.1-204.9.1z" style="fill:#6fc1bf"/><path class="st2" d="m-180-29.1 21.6-15.6c16-11.7 31.9-23.5 47.8-35.2 1-.8 2.2-1.3 3.4-1.9v11.9c0 33-.1 66.1-.1 99.1-6.4-5-12.8-9.9-19.1-14.9-11.7-9.3-23.3-18.8-35.1-28.2-6.1-4.9-12.3-9.6-18.5-14.4v-.8z"/><path class="st3" d="M156.8-81.9c8.5 6 17.1 12 25.6 18.1 15.8 11.5 31.5 23.1 47.2 34.7v.8c-5.2 4-10.5 7.9-15.6 12-17.1 13.6-34.1 27.2-51.1 40.9-2 1.6-4 3.1-6 4.6 0-37.1-.1-74.1-.1-111.1z"/><path d="M-107.3 29.2c0-33 .1-66.1.1-99.1v-11.9c0-7 .1-14.1-.1-21.1-.1-2.8.8-3.7 3.6-3.6 10.3.1 20.5.1 30.8.1 32.6 0 65.1-.1 97.7-.1l-.1.2v71.6H-35v24.2h59.7v23.7H-35v24.2h59.7v98l.1.3c-9.7-7.8-19.4-15.5-29.2-23.3-1.1-.9-2.3-1.7-3.5-2.5-6.9-5.7-13.9-11.3-20.8-17C-42 82-55.3 71.2-68.6 60.5c-12.3-9.9-24.7-19.8-37-29.6-.7-.5-1.2-1.2-1.7-1.7z" style="fill:#eaeaef"/><path d="M-28.7 92.8c6.9 5.7 13.9 11.3 20.8 17-7 4.5-14.1 8.8-21.1 13.4-23 15.2-46 30.5-68.9 45.8-3.9 2.6-7.7 5.2-11.4 7.9-2.1 1.6-3.6 1.6-5.2-.9-3.5-5.6-7.3-11-11.3-17 1.1-.9 2.1-1.9 3.2-2.6 30-19.9 59.9-39.7 89.9-59.6 1.6-.9 2.7-2.6 4-4z" style="fill:#7fd6d3"/><path d="M24.8-34.8v-71.6c1.6 0 3.2-.1 4.8-.1h88.5c1.5 0 3-.5 4.5-.7 1.7.3 3.4.7 5.1.7 9.6.1 19.1 0 29.2 0v24.7c0 37 .1 74.1.1 111.1-14.2 11.4-28.3 22.9-42.5 34.3-12.5 10-25 20.2-37.5 30.3-6.2 5.1-12.4 10.1-18.6 15.2-9.7 7.7-19.4 15.4-29.2 23-1.4 1.1-3 2.1-4.5 3.2v-98l.1-.3h59.7V13.3H24.8l-.1-.3v-23.7l.1-.3h59.7v-23.7H24.8v-.1z" style="fill:#d1d1d6"/><path d="M58.4 109.1C64.6 104 70.8 98.9 77 93.9c1.2.6 2.5 1 3.5 1.7 30.4 20.2 60.8 40.4 91.2 60.7 1.2.8 2.3 1.7 3.7 2.7-4 6.1-7.9 11.9-11.8 17.8-1.7 2.5-3.3 1.2-5 0-14.8-9.9-29.6-19.7-44.4-29.5-17.3-11.6-34.7-23.1-52-34.7-1.4-1-2.5-2.4-3.8-3.5z" style="fill:#63aaa7"/><path class="st3" d="M122.5-107.3c-1.5.3-3 .7-4.5.7H29.5c-1.6 0-3.2.1-4.8.1l.1-.2c0-22.4 0-44.8-.1-67.2 0-1.5-.5-3-.7-4.6 1.2.4 2.6.4 3.5 1.1 24.4 18.1 48.8 36.3 73.3 54.4 7.2 5.4 14.5 10.5 21.7 15.7z"/><path class="st2" d="M24.1-178.4c.2 1.5.7 3 .7 4.6.1 22.4.1 44.8.1 67.2-32.6 0-65.1.1-97.7.1.5-.6.9-1.2 1.5-1.7 31.2-23.1 62.5-46.1 93.7-69.2.5-.4 1.1-.7 1.7-1z"/><path class="st8" d="M24.8-10.6h-59.7v-24.2h59.7s.1.3.1.2v23.7l-.1.3zM24.8 37.3h-59.7V13.1h59.7s.1.3.1.2V37l-.1.3z"/><path class="st9" d="M24.8-10.9v-23.7h59.7v23.7H24.8zM24.8 37V13.3h59.7V37H24.8z"/></svg>