<?xml version="1.0" encoding="utf-8"?>
<!-- Generator: Adobe Illustrator 25.4.1, SVG Export Plug-In . SVG Version: 6.00 Build 0)  -->
<svg version="1.1" id="Layer_1" xmlns="http://www.w3.org/2000/svg" xmlns:xlink="http://www.w3.org/1999/xlink" x="0px" y="0px" viewBox="-200 -120 450 450" style="enable-background: new 0 0 50 50" xml:space="preserve">
<style>.st0 {
  fill: #85e8e8;
}

.st1 {
  fill: #6fc1bf;
}

.st2 {
  fill: #77c9c5;
}

.st3 {
  fill: #67b2af;
}

.st4 {
  fill: #eaeaef;
}

.st5 {
  fill: #7fd6d3;
}

.st6 {
  fill: #d1d1d6;
}

.st7 {
  fill: #63aaa7;
}

.st8 {
  fill: #b8c2cc;
}

.st9 {
  fill: #8f9aa5;
}

</style>
<path class="st0" d="M24.8,229.6c-68.3,0-136.5,0-204.8,0c0-86,0-171.9,0-257.9c6.2,4.8,12.4,9.6,18.5,14.4
	c11.7,9.4,23.3,18.8,35.1,28.2c6.3,5,12.8,9.9,19.1,14.9c0.6,0.6,1.1,1.2,1.7,1.7c12.3,9.9,24.7,19.7,37,29.6
	C-55.3,71.2-42,82-28.7,92.8c-1.3,1.4-2.4,3.1-3.9,4.1c-29.9,19.9-59.9,39.8-89.9,59.6c-1.1,0.8-2.1,1.7-3.2,2.6
	c4,5.9,7.7,11.4,11.3,17c1.6,2.5,3,2.4,5.2,0.9c3.7-2.7,7.6-5.4,11.4-7.9c23-15.3,45.9-30.6,68.9-45.8c6.9-4.6,14-9,21.1-13.4
	c1.2,0.8,2.4,1.6,3.5,2.5c9.7,7.7,19.5,15.5,29.2,23.3C24.8,166.9,24.8,198.3,24.8,229.6z"></path>
<path class="st1" d="M24.8,229.6c0-31.3,0-62.7,0-94c0,0-0.1-0.3-0.1-0.3c1.5-1.1,3-2,4.5-3.2c9.7-7.7,19.5-15.3,29.2-23
	c1.3,1.2,2.4,2.5,3.8,3.4c17.3,11.6,34.6,23.2,52,34.7c14.8,9.9,29.6,19.7,44.4,29.5c1.7,1.2,3.3,2.5,5,0
	c3.9-5.8,7.7-11.7,11.8-17.8c-1.4-1-2.5-2-3.7-2.7c-30.4-20.2-60.8-40.5-91.2-60.7c-1.1-0.7-2.4-1.1-3.5-1.7
	c12.5-10.1,25-20.2,37.5-30.4c14.1-11.5,28.3-22.9,42.5-34.3c2-1.5,4-3,6-4.6c17-13.6,34-27.3,51.1-40.9c5.1-4.1,10.4-8,15.6-12
	c0,85.9,0,171.8,0,257.9C161.3,229.6,93.1,229.6,24.8,229.6z"></path>
<path class="st2" d="M-180-29.1c7.2-5.2,14.4-10.4,21.6-15.6c16-11.7,31.9-23.5,47.8-35.2c1-0.8,2.2-1.3,3.4-1.9c0,4,0,8,0,11.9
	c0,33-0.1,66.1-0.1,99.1c-6.4-5-12.8-9.9-19.1-14.9c-11.7-9.3-23.3-18.8-35.1-28.2c-6.1-4.9-12.3-9.6-18.5-14.4
	C-180-28.6-180-28.9-180-29.1z"></path>
<path class="st3" d="M156.8-81.9c8.5,6,17.1,12,25.6,18.1c15.8,11.5,31.5,23.1,47.2,34.7c0,0.3,0,0.5,0,0.8c-5.2,4-10.5,7.9-15.6,12
	c-17.1,13.6-34.1,27.2-51.1,40.9c-2,1.6-4,3.1-6,4.6C156.9-7.9,156.8-44.9,156.8-81.9z"></path>
<path class="st4" d="M-107.3,29.2c0-33,0.1-66.1,0.1-99.1c0-4,0-8,0-11.9c0-7,0.1-14.1-0.1-21.1c-0.1-2.8,0.8-3.7,3.6-3.6
	c10.3,0.1,20.5,0.1,30.8,0.1c32.6,0,65.1-0.1,97.7-0.1c0,0-0.1,0.2-0.1,0.2c0,23.9,0,47.7,0,71.6c-19.9,0-39.8,0-59.7,0
	c0,8.4,0,16.1,0,24.2c20.1,0,39.9,0,59.7,0c0,7.9,0,15.8,0,23.7c-19.9,0-39.8,0-59.7,0c0,8.4,0,16.1,0,24.2c20.1,0,39.9,0,59.7,0
	c0,32.7,0,65.3,0,98c0,0,0.1,0.3,0.1,0.3c-9.7-7.8-19.4-15.5-29.2-23.3c-1.1-0.9-2.3-1.7-3.5-2.5c-6.9-5.7-13.9-11.3-20.8-17
	C-42,82-55.3,71.2-68.6,60.5c-12.3-9.9-24.7-19.8-37-29.6C-106.3,30.4-106.8,29.7-107.3,29.2z"></path>
<path class="st5" d="M-28.7,92.8c6.9,5.7,13.9,11.3,20.8,17c-7,4.5-14.1,8.8-21.1,13.4c-23,15.2-46,30.5-68.9,45.8
	c-3.9,2.6-7.7,5.2-11.4,7.9c-2.1,1.6-3.6,1.6-5.2-0.9c-3.5-5.6-7.3-11-11.3-17c1.1-0.9,2.1-1.9,3.2-2.6c30-19.9,59.9-39.7,89.9-59.6
	C-31.1,95.9-30,94.2-28.7,92.8z"></path>
<path class="st6" d="M24.8-34.8c0-23.9,0-47.7,0-71.6c1.6,0,3.2-0.1,4.8-0.1c29.5,0,59,0,88.5,0c1.5,0,3-0.5,4.5-0.7
	c1.7,0.3,3.4,0.7,5.1,0.7c9.6,0.1,19.1,0,29.2,0c0,8.5,0,16.6,0,24.7c0,37,0.1,74.1,0.1,111.1c-14.2,11.4-28.3,22.9-42.5,34.3
	C102,73.6,89.5,83.8,77,93.9c-6.2,5.1-12.4,10.1-18.6,15.2c-9.7,7.7-19.4,15.4-29.2,23c-1.4,1.1-3,2.1-4.5,3.2c0-32.7,0-65.3,0-98
	l0.1-0.3c19.9,0,39.8,0,59.7,0c0-8.2,0-15.8,0-23.7c-20.1,0-39.9,0-59.7,0l-0.1-0.3c0-7.9,0-15.8,0-23.7l0.1-0.3
	c19.9,0,39.8,0,59.7,0c0-8.2,0-15.8,0-23.7c-20.1,0-39.9,0-59.7,0L24.8-34.8z"></path>
<path class="st7" d="M58.4,109.1C64.6,104,70.8,98.9,77,93.9c1.2,0.6,2.5,1,3.5,1.7c30.4,20.2,60.8,40.4,91.2,60.7
	c1.2,0.8,2.3,1.7,3.7,2.7c-4,6.1-7.9,11.9-11.8,17.8c-1.7,2.5-3.3,1.2-5,0c-14.8-9.9-29.6-19.7-44.4-29.5
	c-17.3-11.6-34.7-23.1-52-34.7C60.8,111.6,59.7,110.2,58.4,109.1z"></path>
<path class="st3" d="M122.5-107.3c-1.5,0.3-3,0.7-4.5,0.7c-29.5,0-59,0-88.5,0c-1.6,0-3.2,0.1-4.8,0.1c0,0,0.1-0.2,0.1-0.2
	c0-22.4,0-44.8-0.1-67.2c0-1.5-0.5-3-0.7-4.6c1.2,0.4,2.6,0.4,3.5,1.1c24.4,18.1,48.8,36.3,73.3,54.4
	C108-117.6,115.3-112.5,122.5-107.3z"></path>
<path class="st2" d="M24.1-178.4c0.2,1.5,0.7,3,0.7,4.6c0.1,22.4,0.1,44.8,0.1,67.2c-32.6,0-65.1,0.1-97.7,0.1
	c0.5-0.6,0.9-1.2,1.5-1.7c31.2-23.1,62.5-46.1,93.7-69.2C22.9-177.8,23.5-178.1,24.1-178.4z"></path>
<path class="st8" d="M24.8-10.6c-19.8,0-39.6,0-59.7,0c0-8.2,0-15.8,0-24.2c19.9,0,39.8,0,59.7,0c0,0,0.1,0.3,0.1,0.2
	c0,7.9,0,15.8,0,23.7L24.8-10.6z"></path>
<path class="st8" d="M24.8,37.3c-19.8,0-39.6,0-59.7,0c0-8.2,0-15.8,0-24.2c19.9,0,39.8,0,59.7,0c0,0,0.1,0.3,0.1,0.2
	c0,7.9,0,15.8,0,23.7L24.8,37.3z"></path>
<path class="st9" d="M24.8-10.9c0-7.9,0-15.8,0-23.7c19.8,0,39.6,0,59.7,0c0,7.9,0,15.5,0,23.7C64.6-10.9,44.7-10.9,24.8-10.9z"></path>
<path class="st9" d="M24.8,37c0-7.9,0-15.8,0-23.7c19.8,0,39.6,0,59.7,0c0,7.9,0,15.5,0,23.7C64.6,37,44.7,37,24.8,37z"></path>
</svg>
