<svg id="Layer_1" version="1.1" viewBox="0 0 512 512" xml:space="preserve" xmlns="http://www.w3.org/2000/svg"><circle cx="256" cy="256" fill="#EB3B00" id="ellipse" r="256"/><path d="m284.5 145.9-.4 231-168.6-23.4c3.9-3.9 8.8-4.9 14.3-7.1 4.8-1.9 8.6-3.4 13.3-5.2 9.2-3.6 18.7-8.2 27.4-10.6V173.1l114-27.2zM112 351.5s1.5 1.7 2.9 2.7c1.6 1 2.1 1.1 3.9 1.9 2.7 1.1 5.5 2 8.4 3 5.8 2 10.7 4 16.6 6.2l99.9 36.9c44.3 15.6 31.6 18.2 68.5 7.1l53-15.5c9.5-2.8 13.7-2.1 14.7-6.6V124.9c-1.9-4-1-2.7-6.9-4.4l-26.6-7.7c-11.7-3.3-23.3-6.8-35.3-10.3-12.8-3.8-23.2-9.4-35.1-4.5l-164 61.4v192.1z" fill="#FFF" id="logo"/></svg>