<svg version="1.1" id="Layer_1" xmlns="http://www.w3.org/2000/svg" x="0" y="0" viewBox="0 0 512 146" style="enable-background:new 0 0 512 146" xml:space="preserve"><style>.st0{fill:#fff;stroke:#000;stroke-miterlimit:10}.st1{fill:#fff}</style><path class="st0" d="M466.2 62c-.4.1-.9 1-.9 1.6-.1 3.5-.2 12.7-.2 19 0 .2.3.5.5.5 1.3.1 4.4.2 7.1.2 3.7 0 5.9-.5 7.1-1 3.1-1.6 4.6-5 4.6-8.7 0-8.4-5.9-11.7-14.7-11.7-.5-.2-2.2-.2-3.5.1zm22.4 38.9c0-8.6-6.3-13.4-17.8-13.4-.5 0-4.2-.1-5 .1-.3.1-.6.3-.6.5 0 6.2-.1 16 .2 19.8.2 1.7 1.4 4 2.9 4.7 1.6.9 5.1 1 7.6 1 6.7 0 12.7-3.8 12.7-12.7zm-40.2-43.7c.9 0 3.5.3 10.2.3 6.3 0 11.4-.2 17.6-.2 7.6 0 18 2.7 18 14 0 5.6-3.9 10-9 12.2-.3.1-.3.3 0 .3 7.3 1.8 13.7 6.3 13.7 14.9 0 8.3-5.2 13.7-12.8 17-4.6 2-10.3 2.7-16.2 2.7-4.4 0-16.3-.5-23-.3-.7-.3.6-3.4 1.2-3.9 1.6-.1 2.8-.2 4.4-.7 2.3-.6 2.6-1.3 3-4.9.2-3 .2-13.8.2-21.5 0-10.5.1-17.7 0-21.1-.1-2.7-1-3.6-3-4.1-1.5-.3-3.9-.6-5.9-.9-.4-.5 1.1-3.5 1.6-3.8zm-50.1 54.1c2.1 1.7 6.2 2.3 9.8 2.3 4.7 0 9.4-.9 13.9-5 4.6-4.2 7.8-10.6 7.8-20.9 0-9.8-3.7-17.8-11.4-22.5-4.3-2.7-9.9-3.8-16.3-3.8-1.9 0-3.7.1-4.9.6-.3.2-.9 1-.9 1.4-.2 1.7-.2 15.1-.2 23 0 8.1 0 19.4.2 20.7.1 1.3.7 3.3 2 4.2zm-19.8-54.1c1.7 0 8 .3 11 .3 5.5 0 9.4-.3 19.7-.3 8.7 0 16 2.3 21.2 6.8 6.3 5.5 9.7 13 9.7 22.3 0 13.1-6 20.7-12 25-6 4.4-13.8 7-25 7-5.9 0-16.1-.2-24.5-.3h-.1c-.4-.8.7-3.8 1.4-3.9 2.3-.3 2.9-.3 4-.8 1.8-.7 2.2-1.7 2.4-4.9.3-6 .2-13.2.2-21.4 0-5.8.1-17.2-.1-20.9-.3-3-1.6-3.8-4.2-4.3-1.3-.3-3-.6-5.5-.9-.2-.5 1.4-3.2 1.8-3.7zM273.3 114.7c-2.2-.3-3.7-.6-5.7-1.5-.3-.2-.7-1-.7-1.4-.2-3-.2-11.7-.2-17.6 0-4.7-.8-8.8-2.8-11.7-2.3-3.3-5.7-5.2-10.1-5.2-3.8 0-9 2.6-13.2 6.3-.1.1-.8.7-.7-.3 0-1 .2-2.9.3-4.2.1-1.2-.6-1.8-.6-1.8-2.8 1.4-10.6 3.2-13.5 3.5-2.1.4-2.6 2.4-.4 3.1h.1c2.3.7 3.9 1.5 5.1 2.3.9.7.8 1.7.8 2.4.1 6.5.1 16.5-.2 22-.1 2.2-.7 3-2.3 3.3l.2-.1c-1.2.3-2.2.5-3.7.7-.5.5-.5 3.3 0 3.9 1 0 6-.3 10.2-.3 5.7 0 8.7.3 10.2.3.6-.7.8-3.3.4-3.9-1.7-.1-2.9-.3-4-.6-1.6-.3-2-1.1-2.1-3-.2-4.6-.2-14.3-.2-21 0-1.8.5-2.7 1-3.2 2-1.7 5.2-3 8.1-3 2.8 0 4.6.9 6 2 1.9 1.6 2.5 3.8 2.8 5.5.4 3.7.3 11.1.3 17.6 0 3.5-.3 4.3-1.6 4.8-.6.3-2.2.6-4 .8-.6.6-.4 3.3 0 3.9 2.5 0 5.5-.3 9.8-.3 5.4 0 8.9.3 10.3.3.6-.4.8-2.9.4-3.6zm24.1-33.2c-4.6 0-7.5 3.6-7.5 9.1 0 5.7 2.5 12.2 9.7 12.2 1.2 0 3.5-.5 4.5-1.7 1.7-1.6 2.8-4.7 2.8-8 0-7.3-3.6-11.6-9.5-11.6zm-.6 38.4c-1.7 0-3 .5-3.7 1-3.7 2.3-5.3 4.6-5.3 7.3 0 2.5 1 4.5 3 6.3 2.5 2.2 6 3.2 10.4 3.2 8.9 0 12.8-4.8 12.8-9.5 0-3.3-1.7-5.5-5-6.7-2.5-1.1-6.9-1.6-12.2-1.6zm.6 22.6c-5.3 0-9.1-1.1-12.4-3.7-3.2-2.4-4.6-6.1-4.6-8.6 0-.7.2-2.6 1.7-4.3 1-1 3-3 8-6.4.2-.1.3-.2.3-.3 0-.2-.2-.3-.3-.4-4.1-1.6-5.3-4.1-5.7-5.5v-.3c-.1-.5-.3-1 .5-1.6l2.4-1.6c1.5-.9 3-1.8 4-2.6.2-.2.2-.3.2-.5s-.2-.3-.3-.4c-6.1-2-9.1-6.5-9.1-13.3 0-4.4 2-8.4 5.6-11 2.4-1.9 8.5-4.3 12.5-4.3h.3c4.1.1 6.3 1 9.6 2.1 1.7.6 3.4.9 5.7.9 3.4 0 4.9-1 6.1-2.3.1.2.3.6.3 1.7.1 1.1-.3 2.8-1.1 4-.7 1-2.3 1.7-3.8 1.7h-.4c-1.6-.2-2.3-.3-2.3-.3l-.3.2c-.1.2 0 .3.1.6l.1.2c.2.8.5 3.1.5 3.7 0 7.1-2.9 10.3-5.9 12.6-3 2.2-6.3 3.6-10.2 3.9-.1 0-.4 0-1.2.1-.4 0-1 .1-1.1.1h-.1c-.7.2-2.4 1-2.4 2.5 0 1.3.8 2.9 4.5 3.1.8.1 1.6.1 2.4.2 5 .3 11.1.8 14 1.7 4 1.5 6.5 5 6.5 9.3 0 6.4-4.6 12.4-12.3 16.2-4 1.7-7.7 2.6-11.8 2.6zM347 81.9c-1.8 0-3.5.4-4.7 1.3-3.4 2.1-5.1 6.3-5.1 12.3 0 11.4 5.7 19.4 13.9 19.4 2.4 0 4.3-.7 6-2.1 2.5-2.1 3.8-6.3 3.8-12.1 0-11.2-5.7-18.8-13.9-18.8zm1.5 37.2c-14.8 0-20.1-10.9-20.1-21 0-7.1 2.9-12.6 8.6-16.5 4.1-2.5 9-3.9 13.3-3.9 11.3 0 19.2 8.1 19.2 19.7 0 7.9-3.1 14.2-9.1 18-2.8 1.9-7.8 3.7-11.9 3.7zM193.6 81.9c-1.8 0-3.5.4-4.7 1.3-3.4 2.1-5.1 6.3-5.1 12.3 0 11.4 5.7 19.4 13.9 19.4 2.4 0 4.3-.7 6-2.1 2.5-2.1 3.8-6.3 3.8-12.1 0-11.2-5.6-18.8-13.9-18.8zm1.6 37.2c-14.8 0-20.1-10.9-20.1-21 0-7.1 2.9-12.6 8.6-16.5 4.1-2.5 9-3.9 13.3-3.9 11.3 0 19.2 8.1 19.2 19.7 0 7.9-3.1 14.2-9.1 18-2.8 1.9-7.8 3.7-11.9 3.7zm-99.4-.9c-.2-.3-.3-1-.3-2 0-.7.2-1.1.3-1.3 1.8-.3 2.8-.5 3.8-.8 1.7-.4 2.4-1.4 2.5-3.6.3-5.2.3-15.1.2-22v-.2c0-.8 0-1.7-1-2.4-1.4-.9-3-1.7-5.2-2.3-.8-.3-1.3-.7-1.2-1.2 0-.5.5-1.1 1.7-1.3 2.9-.3 10.3-2.1 13.3-3.4.2.2.4.7.4 1.4l-.1 1c-.1 1-.2 2.1-.2 3.2 0 .3.3.6.7.6.2 0 .3-.1.5-.2 5.6-4.3 10.6-5.9 13.2-5.9 4.3 0 7.6 2 10.1 6.2.2.3.3.3.6.3.2 0 .4-.1.5-.3 5.1-3.9 10.3-6.3 13.7-6.3 8.1 0 12.9 6 12.9 16.2 0 2.9 0 6.6-.1 10 0 3-.1 5.8-.1 7.8 0 .4.6 1.8 1.6 2.1 1.2.6 2.9.9 5 1.2h.1c.2.6-.2 2.9-.5 3.3-.5 0-1.3 0-2.2-.1-1.7-.1-4-.2-6.6-.2-5.4 0-8.2.1-10.9.3-.2-.7-.3-2.8 0-3.3 1.6-.3 2.3-.5 3.3-.8 1.7-.5 2.2-1.3 2.3-3.6 0-1.7.3-15.7-.2-19.1-.5-3.5-3.1-7.6-8.9-7.6-2.2 0-5.6.9-8.9 3.4-.2.2-.3.6-.3.9v.1c.3 1.8.3 3.9.3 7.1v5.7c0 3.9-.1 7.6 0 10.3 0 1.9 1.1 2.3 2.1 2.7.5.1.9.2 1.3.3.8.2 1.6.3 2.8.6.2.3.2 1.5-.1 2.4-.1.5-.3.8-.3.9-3-.1-6-.2-10.4-.2-1.3 0-3.6.1-5.5.1-1.6 0-3 .1-3.9.1-.1-.2-.3-.8-.3-1.7 0-.8.2-1.4.3-1.6.4-.1.8-.2 1.2-.2 1-.2 1.9-.3 2.8-.5 1.5-.4 2-1.2 2.1-3.1.3-4.3.5-16.8-.1-19.9-1-5-3.9-7.6-8.5-7.6-2.7 0-6.1 1.3-8.9 3.4-.4.3-.8 1.2-.8 2v5.1c0 6.3 0 14.1.1 17.5.1 1 .4 2.3 2.4 2.7.4.1 1.1.3 2 .3l1.6.3c.2.5.1 2.6-.3 3.3-.9 0-1.9-.1-3.1-.1-1.8-.1-4.2-.2-6.8-.2-3 0-5.2.1-7 .2h-3z"/><path class="st1" d="m50 139.1-3.6-1.2s.4-18.2-6.1-19.5c-4.3-5 .7-213.9 16.3-.7 0 0-5.4 2.7-6.3 7.3-1 4.5-.3 14.1-.3 14.1z"/><path d="m50 139.1-3.6-1.2s.4-18.2-6.1-19.5c-4.3-5 .7-213.9 16.3-.7 0 0-5.4 2.7-6.3 7.3-1 4.5-.3 14.1-.3 14.1z" style="fill:#a6a385"/><path class="st1" d="M51.9 121.5S83.1 101 75.8 58.3c-7-31-23.7-41.2-25.5-45.1-2-2.8-3.9-7.7-3.9-7.7l1.3 86.3c.1.2-2.6 26.5 4.2 29.7"/><path d="M51.9 121.5S83.1 101 75.8 58.3c-7-31-23.7-41.2-25.5-45.1-2-2.8-3.9-7.7-3.9-7.7l1.3 86.3c.1.2-2.6 26.5 4.2 29.7" style="fill:#499d4a"/><path class="st1" d="M44.6 122.7s-29.3-20-27.6-55.2C18.7 32.3 39.3 15 43.3 11.8 46 9 46.1 8 46.3 5.2c1.8 3.9 1.5 58.5 1.7 65 .8 24.7-1.4 47.8-3.4 52.5z"/><path d="M44.6 122.7s-29.3-20-27.6-55.2C18.7 32.3 39.3 15 43.3 11.8 46 9 46.1 8 46.3 5.2c1.8 3.9 1.5 58.5 1.7 65 .8 24.7-1.4 47.8-3.4 52.5z" style="fill:#58aa50"/></svg>