<svg id="Layer_1" version="1.1" viewBox="0 0 24 24" xml:space="preserve" xmlns="http://www.w3.org/2000/svg"><radialGradient cx="8.833" cy="6.167" gradientUnits="userSpaceOnUse" id="SVGID_1_" r="17.588"><stop offset="0" style="stop-color:#193458;stop-opacity:.98"/><stop offset=".933" style="stop-color:#210021"/></radialGradient><path fill="url('#SVGID_1_')" d="M1.5 1.5h21v21h-21z"/><path d="M23 23H1V1h22v22zM2 22h20V2H2v20z" fill="#00B5EF"/><path d="M8 18H6V6h2.822c2.088 0 3.956 1.522 4.158 3.6A4.005 4.005 0 0 1 9 14H8v4zm0-6h1c1.103 0 2-.897 2-2s-.897-2-2-2H8v4zM15.237 17.977a6.486 6.486 0 0 1-2.184-.582l.894-1.79c.003.002.82.395 1.81.395a.744.744 0 0 0 .235-1.449l-.483-.16c-1.02-.34-1.836-1.196-1.982-2.261A2.747 2.747 0 0 1 16.244 9c1.45 0 2.58.544 2.703.605l-.89 1.791A4.635 4.635 0 0 0 16.244 11a.744.744 0 0 0-.236 1.449l.616.205a2.741 2.741 0 0 1 1.862 2.88c-.156 1.567-1.68 2.58-3.249 2.443z" fill="#00B5EF"/><linearGradient gradientUnits="userSpaceOnUse" id="SVGID_2_" x1="-1.249" x2="25.249" y1="5.822" y2="18.178"><stop offset="0" style="stop-color:#fff;stop-opacity:.2"/><stop offset="1" style="stop-color:#fff;stop-opacity:0"/></linearGradient><path d="M23 23H1V1h22v22z" fill="url('#SVGID_2_')"/></svg>