<svg version="1.1" id="Layer_1" xmlns="http://www.w3.org/2000/svg" x="0" y="0" viewBox="-250 -150 550 550" style="enable-background:new 0 0 50 50" xml:space="preserve"><style>.st2{fill:#e5889c}.st4{fill:#6fc1bf}.st5{fill:#88d27e}</style><path d="M-231-31v-7c12-.1 24.1-.1 36.1-.2 23.9.1 47.9.2 71.8.2 25.4 0 50.9-.1 76.3-.2H166c12.1 0 24.2 0 36.4.2 1.9 0 3.8.7 5.7 1 1.3 12.1 2.5 24.2 3.9 36.2 2.9 25.8 5.8 51.6 8.6 77.4.6 5.8 1.1 11.7 1.6 17.5H73.7c-8.7 0-13.5 3.5-13.4 9.4.2 5.8 4.4 8.4 13.4 8.4h150.4c.2 1.5.6 3.2.8 5 1.2 10.4 2.3 20.9 3.4 31.3 2.8 25.1 5.7 50.3 8.5 75.4.9 8.2-2.1 14.7-9.6 18.8-.8.5-1.5 1.2-2.3 1.9h-405.2c-14.4 0-20.5-5.8-21.9-20.2-1.7-16.9-3.7-33.8-5.6-50.6-2.2-20.5-4.4-41-6.6-61.6H-77c2 0 4 .1 6-.2 4.3-.8 6.9-3.5 7.2-7.8.3-4.4-1.7-7.9-6.2-9-2.4-.6-4.9-.8-7.4-.8h-130.9c-2.6 0-5.3.5-7.9.8-.2-1-.5-1.9-.6-2.9-3.8-34.4-7.6-68.7-11.4-103.1-.6-6.6-1.8-13.3-2.8-19.9zM-1.5 68c-19 0-35.1 16-35.3 35-.1 19.3 15.7 35.4 35.2 35.6 19.1.2 35.6-16.1 35.5-35.2C33.8 84 17.7 68-1.5 68z" style="fill:#85e8e8"/><path d="M281 4c-1.3 8.3-2.9 16.5-4 24.8-4.9 38.2-9.8 76.5-14.6 114.8-3.4 26.9-6.9 53.8-10.3 80.6-2 15.6-7.3 20.4-23.1 20.4-1.3 0-2.7-.1-4-.1.8-.6 1.4-1.4 2.3-1.9 7.5-4.1 10.5-10.6 9.6-18.8-2.7-25.2-5.6-50.3-8.5-75.4-1.2-10.4-2.3-20.9-3.4-31.3-.2-1.8-.6-3.5-.8-5H73.8c-9 0-13.2-2.7-13.4-8.4-.2-5.9 4.7-9.4 13.4-9.4h148.5c-.5-5.8-.9-11.7-1.6-17.5-2.8-25.8-5.8-51.6-8.6-77.4-1.3-12.1-2.6-24.2-3.9-36.2 9.6 4.3 19.1 8.7 28.7 13C251.6-17 266.3-10 281-3v7z" style="fill:#66afac"/><path class="st2" d="M236.8-24c-9.6-4.3-19.1-8.7-28.7-13-1.9-.3-3.8-1-5.7-1-12.1-.1-24.2-.1-36.4-.2-2-2.9-3.3-6.7-6-8.6-18.7-13.7-37.6-27.1-56.4-40.5-8.5-6-13.4-4.7-17.4 4.8-1.9 4.6-3.7 9.3-5.6 13.9-2.2 5.8-4.6 11.5-7 17.6-1.9-1-3.4-1.7-4.8-2.5-15.3-8.7-30.6-17.6-46-26.2-9.1-5.1-15.5-1.4-15.6 9-.1 10.8 0 21.7 0 32.5h-54c-1.9-3.1-4.7-6.1-5.6-9.5-2.9-10.7-5.1-21.7-7.5-32.5-2-9.2.4-12.7 9.7-14.8 11.6-2.7 23.3-5.4 34.9-8.1 19-4.2 38-8.3 56.9-12.5 51.7-11.6 103.5-23.2 155.2-34.7 7.5-1.7 11.4.7 13.1 8.2 7.7 34.2 15.3 68.5 23 102.7 1.3 5.1 2.7 10.3 3.9 15.4zm-70.4-93.3c-14.6-.1-26.4 11.5-26.5 26.1-.1 14.8 11.8 26.8 26.5 26.7 14.4-.1 26.3-12 26.4-26.4 0-14.5-11.9-26.3-26.4-26.4z"/><path d="M-15.2-103.1c-11.6 2.7-23.3 5.4-34.9 8.1-9.4 2.1-11.7 5.6-9.7 14.8 2.4 10.9 4.6 21.8 7.5 32.5.9 3.4 3.7 6.3 5.6 9.5-25.4.1-50.9.2-76.3.2-23.9 0-47.9-.1-71.8-.1l-26.7-27c-7.5-7.6-7.6-11.3 0-18.8 34.9-34.9 69.7-69.8 104.6-104.6 7.1-7.1 10.8-7.1 18 .2l80.6 80.6c1.2 1.1 2 3 3.1 4.6zm-161 39.1c2.7-1.7 5.7-3.1 7.9-5.3 22.3-22.2 44.6-44.4 66.8-66.7 1.5-1.5 3.4-3.4 3.5-5.2.2-2.7-.1-6.3-1.7-8.1-1.6-1.8-5.3-2.9-7.9-2.6-2.5.3-5.1 2.4-7 4.3-22.1 21.9-44.1 44-66.1 66-1.2 1.2-2.4 2.4-3.2 3.8-3.4 5.8.5 12.8 7.7 13.8zm106-53c-.4-4.2-2.1-6.9-5.5-8.4-4.1-1.7-7.8-.7-10.9 2.5l-42 42c-4.3 4.4-4.6 10.1-.9 13.8 3.4 3.4 9.1 3 13.4-1.3 14.2-14.1 28.3-28.2 42.3-42.4 1.6-1.7 2.4-4.1 3.6-6.2z" style="fill:#9ae58c"/><path class="st2" d="M7.2-38.2c0-10.8-.1-21.7 0-32.5.1-10.4 6.5-14.1 15.6-9 15.4 8.6 30.7 17.5 46 26.2 1.4.8 2.9 1.5 4.8 2.5 2.5-6.1 4.8-11.8 7.1-17.5 1.9-4.6 3.6-9.3 5.6-13.9 4-9.5 8.9-10.9 17.4-4.8 18.9 13.4 37.8 26.8 56.4 40.5 2.7 2 4 5.7 6 8.6-53-.1-105.9-.1-158.9-.1z"/><path class="st4" d="M-1.5 68c19.3 0 35.4 16 35.4 35.3 0 19.2-16.4 35.5-35.5 35.2-19.4-.2-35.3-16.3-35.2-35.6C-36.7 84-20.5 68-1.5 68zM-214.1 112c-.6-5.7-1.2-11.4-1.9-17.1 2.6-.3 5.3-.8 7.9-.8h130.9c2.5 0 5 .2 7.4.8 4.6 1.1 6.5 4.6 6.2 9-.3 4.3-3 7-7.2 7.8-1.9.3-4 .2-6 .2-45.7.1-91.5.1-137.3.1z"/><path class="st2" d="M166.4-117.3c14.5.1 26.4 11.9 26.3 26.3 0 14.4-11.9 26.3-26.4 26.4-14.7.1-26.6-11.9-26.5-26.7.2-14.5 11.9-26.1 26.6-26z"/><path class="st5" d="M-176.2-64c-7.2-1-11-8-7.7-13.9.8-1.4 2-2.6 3.2-3.8 22-22 44-44.1 66.1-66 1.9-1.9 4.5-4 7-4.3 2.6-.3 6.2.8 7.9 2.6 1.6 1.8 2 5.4 1.7 8.1-.2 1.8-2 3.7-3.5 5.2-22.2 22.3-44.4 44.6-66.8 66.7-2.2 2.3-5.3 3.6-7.9 5.4zM-70.2-117c-1.2 2.1-2 4.5-3.6 6.2-14 14.2-28.1 28.3-42.3 42.4-4.3 4.3-9.9 4.7-13.4 1.3-3.7-3.6-3.4-9.4.9-13.8 14-14.1 28-28 42-42 3.2-3.2 6.8-4.2 10.9-2.5 3.4 1.5 5.1 4.2 5.5 8.4z"/></svg>