<?xml version="1.0" encoding="utf-8"?>
<!-- Generator: Adobe Illustrator 25.4.1, SVG Export Plug-In . SVG Version: 6.00 Build 0)  -->
<svg version="1.1" id="Layer_1" xmlns="http://www.w3.org/2000/svg" xmlns:xlink="http://www.w3.org/1999/xlink" x="0px" y="0px" viewBox="0 0 250.68 152.81" height="100px" style="enable-background: new 0 0 250.68 152.81" xml:space="preserve">
<style>.st0 {
  fill: #fff;
}

.st1 {
  fill: #fff;
  stroke: #fffbfb;
  stroke-miterlimit: 10;
}

</style>
<g id="XMLID_1382_">
	<path id="XMLID_1387_" class="st0" d="M17.95,27.66c-0.21,0.25-0.43,0.49-0.61,0.76c-0.03,0.04,0.1,0.19,0.16,0.3
		c0.23-0.21,0.46-0.42,0.61-0.48c-0.08,0.53,0.07,0.94-0.26,1.35c-0.16,0.2,0,0.66,0.01,1c0.3-0.02,0.62,0.03,0.88-0.08
		c0.53-0.23,1.04-0.49,1.61-0.68c1.93-0.62,3.81-1.39,5.72-2.1c1.2-0.45,2.49-0.73,3.57-1.38c1.2-0.72,2.64-0.56,3.79-1.36
		c0.17-0.12,0.81,0.07,0.82,0.15c0.09,1.07,0.45,0.29,0.7,0.11c0.7-0.48,0.83-0.38,1.31,0.31c0.32,0.45,0.33,0.65-0.02,1.08
		c-0.31,0.38,0.22,0.62,0.44,0.89c0.83-0.81,1.17,0.32,1.87,0.62c0.15,0.13,0.23,0.07,0.23,0.05c-0.04-0.08-0.11-0.15-0.17-0.23
		c-0.06,0.06-0.11,0.11-0.17,0.17c0.07,0.06,0.15,0.12,0.11,0c-0.11-0.36-0.11-0.55-0.11-0.74c0.13,0.01,0.29-0.03,0.4,0.03
		c0.31,0.16,0.7,0.29,0.88,0.55c0.17,0.25,0.12,0.65,0.17,0.99c-0.68-0.03-0.65,1.1-1.49,0.9c-0.23-0.06-0.53,0.2-0.81,0.27
		c-1.41,0.38-2.81,0.75-4.06,1.56c-0.61,0.4-1.43,0.78-2.11,0.72c-0.94-0.08-1.45,0.53-2.13,0.84c-1.27,0.58-2.63,0.94-3.93,1.4
		c-1.69,0.6-3.48,1.05-5.15,1.68c-1.75,0.66-3.66,0.81-5.29,1.77c-1.04-0.1-1.97,0.62-3.04,0.4c-0.32-0.07-2.37-0.71-2.82-0.93
		c-0.1-0.05-0.31-0.06-0.39,0.01c-0.3,0.27-0.52,0.19-0.79-0.05c-0.55-0.49-0.94-1.09-1.08-1.81c-0.18-0.92-0.7-1.72-0.8-2.69
		c-0.09-0.92-0.59-1.76-0.85-2.66c-0.44-1.48-0.67-2.98-1.04-4.46c-0.35-1.36-0.47-2.76-0.96-4.11c-0.58-1.59-0.89-3.28-1.24-4.94
		c-0.21-1-0.05-2.13-0.46-3.01c-0.47-1.02-0.56-2.04-0.8-3.07c-0.09-0.38-0.2-0.79-0.28-1.19C0.29,9.26-0.07,8.74,0.02,8.66
		C0.5,8.25,0,7.96,0,7.62c0-0.36,0-0.76,0.15-1.06c0.11-0.22,0.48-0.3,0.74-0.44c0.08,0.21,0.19,0.42,0.22,0.63
		c0.04,0.31-0.02,0.63,0.03,0.94c0.02,0.12,0.22,0.29,0.35,0.29c0.13,0,0.36-0.16,0.37-0.26c0.04-0.5,0-1,0.03-1.5
		c0.01-0.16,0.09-0.4,0.21-0.45c0.13-0.05,0.39,0.02,0.48,0.13C3,6.4,3.29,7.25,3.8,7.39C4.7,7.65,4.59,8.43,4.75,8.9
		c0.22,0.63,1.07,0.9,0.9,1.71c-0.21,1.02,0.94,0.91,1.3,1.49c0.27,0.43,0.21,0.65-0.12,0.92c0.23,0.19,0.48,0.36,0.67,0.58
		c0.04,0.04-0.11,0.32-0.23,0.41c-0.13,0.1-0.32,0.12-0.49,0.18c0.14,0.07,0.31,0.12,0.43,0.21c0.24,0.18,0.55,0.35,0.66,0.6
		c0.21,0.48,0.27,1.02,0.45,1.51c0.18,0.49,0.74,1.13,0.59,1.39c-0.34,0.59,0.33,0.94,0.11,1.4c-0.23,0.04-0.58,0.01-0.67,0.15
		c-0.18,0.27-0.13,0.55,0.32,0.62c0.21,0.03,0.4,0.25,0.58,0.41c0.44,0.41,0.79,0.66,0.93-0.24c0.05-0.32,0.3-0.63,0.52-0.91
		c1.45-1.85,2.82-3.78,4.41-5.5c1.64-1.76,3.41-3.43,5.3-4.92c2.3-1.82,5.03-2.99,7.52-4.54c0.28-0.18,0.73-0.1,1-0.29
		c1.27-0.88,2.78-1.17,4.19-1.71c1.48-0.57,3.07-0.75,4.61-1.13c2.13-0.52,4.41-0.3,6.51-1.11c0.19-0.07,0.69,0.36,0.74,0.3
		c0.58-0.7,0.93-0.2,1.35,0.18c0.14,0.13,0.47,0.21,0.62,0.13c0.19-0.1,0.28-0.38,0.41-0.58c0.35,0.63,0.54-0.17,0.86-0.1
		c0.3,0.07,0.63,0.06,0.94,0c0.41-0.08,0.7,0.45,1.23,0.06c0.34-0.25,1.07-0.17,1.52,0.31c0.04,0.05,0.3-0.15,0.47-0.17
		c0.66-0.08,1.45-0.38,1.96-0.13c0.67,0.34,1.3,0.24,1.94,0.32c0.47,0.06,0.94,0.18,1.41,0.22c0.34,0.03,0.74-0.16,1.03-0.05
		c0.43,0.16,0.79,0.52,1.19,0.76c0.09,0.06,0.26,0,0.39-0.02c1.18-0.14,2.42-0.62,3.44,0.46c0.04,0.04,0.2,0.03,0.26-0.02
		c0.74-0.59,0.9,0.11,1.18,0.53c-0.1,0.08-0.21,0.17-0.31,0.25c0.1,0.04,0.21,0.08,0.56,0.32c0.06,0.05-0.09-0.08-0.25-0.2
		c-0.12,0.19-0.36,0.42-0.33,0.58c0.05,0.21,0.32,0.36,0.5,0.54c0.09-0.2,0.18-0.4,0.08-0.91c-0.25-0.33-0.25-0.45-0.25-0.58
		c0.2-0.12,0.46-0.38,0.58-0.33c0.93,0.42,1.88,0.67,2.91,0.74c0.49,0.03,1.02,0.3,1.43,0.59c0.38,0.27,1.26-0.21,1.17,0.76
		c0.09,0,0.22,0.03,0.26-0.02c0.34-0.38,0.57-0.14,0.93,0.02c0.48,0.22,0.98,0.28,1.43,0.67c0.36,0.31,0.99,0.3,1.5,0.43
		c0.34,0.09,0.71,0.12,1.02,0.28c1.82,0.91,3.57,2,5.46,2.75c1.92,0.76,3.52,2.06,5.38,2.92c1.35,0.62,2.54,1.73,3.83,2.59
		c1.89,1.25,3.76,2.52,5.55,3.94c2.14,1.69,4.19,3.47,6.25,5.24c0.71,0.61,1.23,1.62,2.03,1.92c1.1,0.4,1.18,1.47,1.91,2.09
		c1.35,1.16,2.65,2.4,3.67,3.91c0.3,0.44,0.79,0.88,1.06,1.31c0.67,1.08,1.73,1.78,2.4,2.87c0.98,1.61,2.15,3.12,3.18,4.71
		c1.47,2.27,2.68,4.67,3.93,7.05c0.92,1.74,1.55,3.63,2.38,5.42c0.44,0.95,0.99,2.06,0.18,3.23c-0.21,0.3-0.31,0.41-0.64,0.44
		c-0.46,0.04-0.83-0.31-1.17-0.33c-0.58-0.03-0.91-0.27-1.27-0.63c-0.26-0.26-0.66,0.42-0.95-0.17c-0.21-0.42-0.66-0.72-0.9-1.14
		c-0.74-1.26-1.49-2.52-2.12-3.83c-0.93-1.91-2.04-3.7-3.22-5.44c-1.27-1.87-2.47-3.79-3.93-5.55c-1.62-1.95-3.02-4.09-4.85-5.89
		c-0.18-0.18-0.41-0.32-0.52-0.54c-1.07-2.06-3.33-3.09-4.41-5.13c-1.36-0.6-2.07-1.93-3.17-2.81c-1.08-0.86-2.2-1.67-3.28-2.54
		c-1.47-1.18-2.83-2.5-4.37-3.57c-2.03-1.4-4.13-2.71-6.3-3.88c-4.09-2.21-8.29-4.22-12.72-5.67c-0.77-0.25-1.54-0.64-2.33-0.73
		c-1.67-0.19-3.3-0.61-4.95-0.87c-1.55-0.25-3.13-0.29-4.67-0.65c-0.48-0.11-1.01,0.02-1.5-0.03c-0.47-0.05-0.94,0.15-1.44-0.19
		c-0.26-0.17-0.83,0.17-1.27,0.2c-2.27,0.14-4.54,0.26-6.81,0.39c-0.12,0.01-0.3-0.01-0.35,0.06c-0.4,0.55-0.57,0.02-0.81-0.16
		c-0.16-0.12-0.26-0.45-0.48,0c-0.38,0.8-1.28,1.18-1.95,1.16c-1.13-0.03-2,0.36-2.84,0.94c-0.37,0.26-0.63,0.4-0.92,0
		c-0.44-0.62-0.51-0.34-0.84,0.16c-0.44,0.67-1.23,0.9-2.07,0.86c-0.56-0.02-1.36-0.29-1.17,0.81c-0.45,0.22-0.88,0.59-1.34,0.63
		c-0.82,0.08-0.77,0.05-1.32,0.61c-0.5,0.5-1.12,0.88-1.69,1.3c-0.35-0.7-0.71,0-1.01,0.06c-0.52,0.1-0.72,0.57-0.69,1.14
		c0.01,0.18-0.23,0.43-0.42,0.56c-1.07,0.81-2.45,1.26-3.02,2.64c-0.03,0.07-0.21,0.13-0.31,0.12c-0.83-0.05-1.15,0.54-1.5,1.13
		c-0.28,0.47-1.99,2.18-2.1,2.34c-0.13,0.17-0.11,0.45-0.15,0.69c-0.13,0.13-0.25,0.25-0.38,0.38c-0.45,0.52-0.93,1.01-1.35,1.55
		c-0.3,0.39,0.14,0.25,0.28,0.34c0.09,0.06,0.13,0.2,0.19,0.3c-0.78,0.29-0.5,1.15-0.89,1.67c-0.37,0.5-0.59,1.11-0.93,1.64
		c-0.15,0.23-0.46,0.36-0.67,0.41C18.04,27.87,17.99,27.76,17.95,27.66z M5.04,11.81c-0.02,0.08-0.09,0.21-0.06,0.23
		c0.08,0.06,0.19,0.08,0.29,0.11c0-0.06,0-0.11,0-0.17c0.53,0.49,0.63,0.44,0.72,0.39c-0.18-0.07-0.36-0.16-0.55-0.21
		c-0.04-0.01-0.11,0.11-0.17,0.17c0.14,0.08,0.27,0.16,0.39,0.23C5.19,11.92,5.12,11.86,5.04,11.81z M16.57,30.61
		c-0.3,0.19-0.33,0.39-0.33,0.6c0,0.02,0.15,0.04,0.24,0.06c0.03-0.16,0.08-0.32,0.09-0.49c0-0.06-0.1-0.13-0.26-0.32
		c0.83,0.12,0.59-0.32,0.65-0.6c0.33-0.53,0.27-0.63,0.22-0.72c-0.07,0.18-0.16,0.36-0.21,0.55c-0.01,0.04,0.11,0.11,0.17,0.17
		c0.08-0.14,0.16-0.27,0.23-0.39C16.38,29.89,16.63,30.33,16.57,30.61z M29.98,30.31c-0.08-0.04-0.51,0.31-0.49,0.41
		c0.09,0.35,0.31,0.67,0.48,1.01c0.21-0.21,0.42-0.42,0.72-0.72C30.41,30.7,30.23,30.44,29.98,30.31z M1.51,10.8
		c0,0.02,0.26,0.08,0.35,0.02c0.15-0.09,0.26-0.25,0.39-0.38C1.6,10.22,2.08,9.54,1.74,9.2C1.72,9.18,1.51,9.28,1.51,9.34
		C1.48,9.58,1.5,9.83,1.5,10.07C1.5,10.31,1.49,10.56,1.51,10.8z M34.79,26.9c-0.04,0.23-0.12,0.45-0.12,0.68
		c0,0.11,0.15,0.22,0.23,0.33c0.06-0.22,0.12-0.45,0.23-0.88C35.07,27.01,34.93,26.96,34.79,26.9z M8.22,17.29
		c-0.11-0.08-0.29-0.25-0.32-0.23c-0.15,0.13-0.28,0.28-0.37,0.46c-0.03,0.05,0.11,0.18,0.18,0.3C7.89,17.64,8.06,17.46,8.22,17.29z
		 M7.33,15.55C7.16,15.56,7,15.62,6.83,15.67c0.05,0.08,0.09,0.23,0.14,0.24c0.16,0.01,0.33-0.04,0.54-0.06
		C7.43,15.7,7.37,15.55,7.33,15.55z M44.66,1.23c-0.05,0-0.1,0.15-0.14,0.24c0.16,0.04,0.33,0.1,0.49,0.12
		c0.04,0,0.1-0.15,0.19-0.29C44.99,1.27,44.82,1.22,44.66,1.23z M121.33,49.27c0.04,0.04,0.09,0.12,0.12,0.12
		c0.09-0.02,0.17-0.08,0.25-0.12c-0.04-0.04-0.08-0.08-0.13-0.13C121.5,49.18,121.42,49.22,121.33,49.27z M32.7,31.11
		c0.01-0.03-0.08-0.08-0.12-0.12c-0.04,0.08-0.1,0.16-0.12,0.25c-0.01,0.03,0.08,0.08,0.12,0.12C32.63,31.28,32.69,31.2,32.7,31.11z
		 M33.84,28.1c0.01-0.03-0.08-0.08-0.12-0.12c-0.04,0.08-0.1,0.16-0.12,0.25c-0.01,0.03,0.08,0.08,0.12,0.12
		C33.76,28.27,33.82,28.19,33.84,28.1z M18.64,26.09c-0.04,0.04-0.12,0.09-0.12,0.12c0.02,0.09,0.08,0.17,0.12,0.25
		c0.04-0.04,0.08-0.08,0.13-0.13C18.73,26.25,18.69,26.17,18.64,26.09z M18.83,25.53c0.04,0.04,0.09,0.12,0.12,0.12
		c0.09-0.02,0.17-0.08,0.25-0.12c-0.04-0.04-0.08-0.08-0.13-0.13C19,25.43,18.91,25.48,18.83,25.53z M3.57,15.92
		c-0.04,0.08-0.1,0.16-0.12,0.25c-0.01,0.03,0.08,0.08,0.12,0.12c0.05-0.08,0.09-0.16,0.13-0.24C3.65,16,3.61,15.96,3.57,15.92z
		 M4.64,9.96c-0.03-0.01-0.08,0.08-0.12,0.12c0.08,0.04,0.16,0.1,0.25,0.12c0.03,0.01,0.08-0.08,0.12-0.12
		C4.81,10.03,4.72,9.98,4.64,9.96z M37.3,5.55c0.08,0.04,0.16,0.1,0.25,0.12c0.03,0.01,0.08-0.08,0.12-0.12
		c-0.08-0.05-0.16-0.09-0.24-0.13C37.38,5.47,37.34,5.51,37.3,5.55z M45.34,2.8c-0.03-0.01-0.08,0.08-0.12,0.12
		c0.08,0.04,0.16,0.1,0.25,0.12c0.03,0.01,0.08-0.08,0.12-0.12C45.5,2.87,45.42,2.82,45.34,2.8z M46.53,2.73
		c-0.04,0.04-0.12,0.09-0.12,0.12c0.02,0.09,0.08,0.17,0.12,0.25c0.04-0.04,0.08-0.08,0.13-0.13C46.62,2.89,46.58,2.81,46.53,2.73z
		 M52.94,2.73c-0.04,0.04-0.12,0.09-0.12,0.12c0.02,0.09,0.08,0.17,0.12,0.25c0.04-0.04,0.08-0.08,0.13-0.13
		C53.03,2.89,52.98,2.81,52.94,2.73z M66.69,2.91c0.04,0.04,0.09,0.12,0.12,0.12c0.09-0.02,0.17-0.08,0.25-0.12
		c-0.04-0.04-0.08-0.08-0.13-0.13C66.86,2.82,66.77,2.87,66.69,2.91z M38.43,1.78c0.04,0.04,0.09,0.12,0.12,0.12
		c0.09-0.02,0.17-0.08,0.25-0.12c-0.04-0.04-0.08-0.08-0.13-0.13C38.59,1.69,38.51,1.74,38.43,1.78z M46.15,1.22
		c-0.04,0.04-0.12,0.09-0.12,0.12c0.02,0.09,0.08,0.17,0.12,0.25c0.04-0.04,0.08-0.08,0.13-0.13C46.24,1.38,46.2,1.3,46.15,1.22z
		 M51.43,1.22c-0.04,0.04-0.12,0.09-0.12,0.12c0.02,0.09,0.08,0.17,0.12,0.25c0.04-0.04,0.08-0.08,0.13-0.13
		C51.52,1.38,51.47,1.3,51.43,1.22z"></path>
	<path id="XMLID_1386_" class="st0" d="M21.47,22.32c0.08,0.1,0.17,0.21,0.25,0.31c0.04-0.1,0.08-0.21,0.12-0.31
		C21.72,22.32,21.6,22.32,21.47,22.32z"></path>
	<path id="XMLID_1385_" class="st0" d="M21.85,22.32c0.1-0.08,0.21-0.17,0.31-0.25c-0.1-0.04-0.21-0.08-0.31-0.12
		C21.85,22.07,21.85,22.2,21.85,22.32z"></path>
	<path id="XMLID_1384_" class="st0" d="M9.25,19.65c0.04-0.04,0.12-0.11,0.12-0.12c-0.04-0.08-0.11-0.15-0.17-0.23
		c-0.06,0.06-0.11,0.11-0.17,0.17C9.11,19.53,9.18,19.59,9.25,19.65z"></path>
	<path id="XMLID_1383_" class="st0" d="M6.26,10.96c0.05-0.05,0.09-0.09,0.13-0.13c-0.08-0.04-0.16-0.1-0.25-0.12
		c-0.03-0.01-0.08,0.08-0.12,0.12C6.1,10.87,6.18,10.92,6.26,10.96z"></path>
</g>
<g id="XMLID_00000005253050233268918950000004052286926488628611_">
	<path id="XMLID_00000077291957783746581600000018047076180273150114_" class="st0" d="M232.73,117.16
		c0.21-0.25,0.43-0.49,0.61-0.76c0.03-0.04-0.1-0.19-0.16-0.3c-0.23,0.21-0.46,0.42-0.61,0.48c0.08-0.53-0.07-0.94,0.26-1.35
		c0.16-0.2,0-0.66-0.01-1c-0.3,0.02-0.62-0.03-0.88,0.08c-0.53,0.23-1.04,0.49-1.61,0.68c-1.93,0.62-3.81,1.39-5.72,2.1
		c-1.2,0.45-2.49,0.73-3.57,1.38c-1.2,0.72-2.64,0.56-3.79,1.36c-0.17,0.12-0.81-0.07-0.82-0.15c-0.09-1.07-0.45-0.29-0.7-0.11
		c-0.7,0.48-0.83,0.38-1.31-0.31c-0.32-0.45-0.33-0.65,0.02-1.08c0.31-0.38-0.22-0.62-0.44-0.89c-0.83,0.81-1.17-0.32-1.87-0.62
		c-0.15-0.13-0.23-0.07-0.23-0.05c0.04,0.08,0.11,0.15,0.17,0.23c0.06-0.06,0.11-0.11,0.17-0.17c-0.07-0.06-0.15-0.12-0.11,0
		c0.11,0.36,0.11,0.55,0.11,0.74c-0.13-0.01-0.29,0.03-0.4-0.03c-0.31-0.16-0.7-0.29-0.88-0.55c-0.17-0.25-0.12-0.65-0.17-0.99
		c0.68,0.03,0.65-1.1,1.49-0.9c0.23,0.06,0.53-0.2,0.81-0.27c1.41-0.38,2.81-0.75,4.06-1.56c0.61-0.4,1.43-0.78,2.11-0.72
		c0.94,0.08,1.45-0.53,2.13-0.84c1.27-0.58,2.63-0.94,3.93-1.4c1.69-0.6,3.48-1.05,5.15-1.68c1.75-0.66,3.66-0.81,5.29-1.77
		c1.04,0.1,1.97-0.62,3.04-0.4c0.32,0.07,2.37,0.71,2.82,0.93c0.11,0.05,0.31,0.06,0.39-0.01c0.3-0.27,0.52-0.19,0.79,0.05
		c0.56,0.49,0.94,1.09,1.08,1.81c0.18,0.92,0.7,1.72,0.8,2.69c0.09,0.92,0.59,1.76,0.85,2.66c0.44,1.48,0.67,2.98,1.04,4.46
		c0.35,1.36,0.47,2.76,0.96,4.11c0.58,1.59,0.89,3.28,1.24,4.94c0.21,1,0.05,2.13,0.46,3.01c0.47,1.02,0.56,2.04,0.8,3.07
		c0.09,0.38,0.2,0.79,0.28,1.19c0.07,0.34,0.42,0.86,0.33,0.94c-0.48,0.41,0.02,0.71,0.02,1.04c0,0.36,0,0.76-0.15,1.06
		c-0.11,0.22-0.48,0.3-0.74,0.44c-0.08-0.21-0.19-0.42-0.22-0.63c-0.04-0.31,0.02-0.63-0.03-0.94c-0.02-0.12-0.22-0.29-0.35-0.29
		c-0.13,0-0.36,0.16-0.37,0.26c-0.04,0.5,0,1-0.03,1.5c-0.01,0.16-0.09,0.4-0.21,0.45c-0.13,0.05-0.39-0.02-0.48-0.13
		c-0.42-0.5-0.72-1.35-1.23-1.5c-0.9-0.26-0.79-1.04-0.95-1.51c-0.22-0.63-1.07-0.9-0.9-1.71c0.21-1.02-0.94-0.91-1.3-1.49
		c-0.27-0.43-0.21-0.65,0.12-0.92c-0.23-0.19-0.48-0.36-0.67-0.58c-0.04-0.04,0.11-0.32,0.23-0.41c0.13-0.1,0.32-0.12,0.49-0.18
		c-0.14-0.07-0.31-0.12-0.43-0.21c-0.24-0.18-0.55-0.35-0.66-0.6c-0.21-0.48-0.27-1.02-0.45-1.51c-0.18-0.49-0.74-1.13-0.59-1.39
		c0.34-0.59-0.33-0.94-0.11-1.4c0.23-0.04,0.58-0.01,0.67-0.15c0.18-0.27,0.13-0.55-0.32-0.62c-0.21-0.03-0.4-0.25-0.58-0.41
		c-0.45-0.41-0.79-0.66-0.93,0.24c-0.05,0.32-0.3,0.63-0.52,0.91c-1.45,1.85-2.82,3.78-4.41,5.5c-1.64,1.76-3.41,3.43-5.3,4.92
		c-2.3,1.82-5.03,2.99-7.52,4.54c-0.28,0.18-0.73,0.1-1,0.29c-1.27,0.88-2.78,1.17-4.19,1.71c-1.48,0.57-3.07,0.75-4.61,1.13
		c-2.13,0.52-4.41,0.3-6.51,1.11c-0.19,0.07-0.69-0.36-0.74-0.3c-0.58,0.7-0.93,0.2-1.35-0.18c-0.14-0.13-0.47-0.21-0.62-0.13
		c-0.19,0.1-0.28,0.38-0.41,0.58c-0.35-0.63-0.54,0.17-0.86,0.1c-0.3-0.07-0.63-0.06-0.94,0c-0.41,0.08-0.7-0.45-1.23-0.06
		c-0.34,0.25-1.07,0.17-1.52-0.31c-0.04-0.05-0.3,0.15-0.47,0.17c-0.66,0.08-1.45,0.38-1.96,0.13c-0.67-0.34-1.3-0.24-1.94-0.32
		c-0.47-0.06-0.94-0.18-1.41-0.22c-0.34-0.03-0.74,0.16-1.03,0.05c-0.43-0.16-0.79-0.52-1.19-0.76c-0.09-0.06-0.26,0-0.39,0.02
		c-1.18,0.14-2.42,0.62-3.44-0.46c-0.04-0.04-0.2-0.03-0.26,0.02c-0.74,0.59-0.9-0.11-1.18-0.53c0.1-0.08,0.21-0.17,0.31-0.25
		c-0.1-0.04-0.21-0.08-0.56-0.32c-0.06-0.05,0.09,0.08,0.25,0.2c0.12-0.19,0.36-0.42,0.33-0.58c-0.05-0.21-0.32-0.36-0.5-0.54
		c-0.09,0.2-0.18,0.4-0.08,0.91c0.25,0.33,0.25,0.45,0.25,0.58c-0.2,0.12-0.46,0.38-0.58,0.33c-0.93-0.42-1.88-0.67-2.91-0.74
		c-0.49-0.03-1.02-0.3-1.43-0.59c-0.38-0.27-1.26,0.21-1.17-0.76c-0.09,0-0.22-0.03-0.26,0.02c-0.34,0.38-0.57,0.14-0.93-0.02
		c-0.48-0.22-0.98-0.28-1.43-0.67c-0.36-0.31-0.99-0.3-1.5-0.43c-0.34-0.09-0.71-0.12-1.02-0.28c-1.82-0.91-3.57-2-5.46-2.75
		c-1.92-0.76-3.52-2.06-5.38-2.92c-1.35-0.62-2.54-1.73-3.83-2.59c-1.89-1.25-3.76-2.52-5.55-3.94c-2.14-1.69-4.19-3.47-6.25-5.24
		c-0.71-0.61-1.23-1.62-2.03-1.92c-1.1-0.4-1.18-1.47-1.91-2.09c-1.35-1.16-2.65-2.4-3.67-3.91c-0.3-0.44-0.79-0.88-1.06-1.31
		c-0.67-1.08-1.73-1.78-2.4-2.87c-0.98-1.61-2.15-3.12-3.18-4.71c-1.47-2.27-2.68-4.67-3.93-7.05c-0.92-1.74-1.55-3.63-2.38-5.42
		c-0.44-0.95-0.99-2.06-0.18-3.23c0.21-0.3,0.31-0.41,0.64-0.44c0.46-0.04,0.83,0.31,1.17,0.33c0.58,0.03,0.91,0.27,1.27,0.63
		c0.26,0.26,0.66-0.42,0.95,0.17c0.21,0.42,0.66,0.72,0.9,1.14c0.74,1.26,1.49,2.52,2.12,3.83c0.93,1.91,2.04,3.7,3.22,5.44
		c1.27,1.87,2.47,3.79,3.93,5.55c1.62,1.95,3.02,4.09,4.85,5.89c0.18,0.18,0.41,0.32,0.52,0.54c1.07,2.06,3.33,3.09,4.41,5.13
		c1.36,0.6,2.07,1.93,3.17,2.81c1.08,0.86,2.2,1.67,3.28,2.54c1.47,1.18,2.83,2.5,4.37,3.57c2.03,1.4,4.13,2.71,6.3,3.88
		c4.09,2.21,8.29,4.22,12.72,5.67c0.77,0.25,1.54,0.64,2.33,0.73c1.67,0.19,3.3,0.61,4.95,0.87c1.55,0.25,3.13,0.29,4.67,0.65
		c0.48,0.11,1.01-0.02,1.5,0.03c0.47,0.05,0.94-0.15,1.44,0.19c0.26,0.17,0.83-0.17,1.27-0.2c2.27-0.14,4.54-0.26,6.81-0.39
		c0.12-0.01,0.3,0.01,0.35-0.06c0.4-0.55,0.57-0.02,0.81,0.16c0.16,0.12,0.26,0.45,0.48,0c0.38-0.8,1.28-1.18,1.95-1.16
		c1.13,0.03,2-0.36,2.84-0.94c0.37-0.26,0.63-0.4,0.92,0c0.44,0.62,0.51,0.34,0.84-0.16c0.44-0.67,1.23-0.9,2.07-0.86
		c0.56,0.02,1.36,0.29,1.17-0.81c0.45-0.22,0.88-0.59,1.34-0.63c0.82-0.08,0.77-0.05,1.32-0.61c0.5-0.5,1.12-0.88,1.69-1.3
		c0.35,0.7,0.71,0,1.01-0.06c0.52-0.1,0.72-0.57,0.69-1.14c-0.01-0.18,0.23-0.43,0.42-0.56c1.07-0.81,2.45-1.26,3.02-2.64
		c0.03-0.07,0.21-0.13,0.31-0.12c0.83,0.05,1.15-0.54,1.5-1.13c0.28-0.47,1.99-2.18,2.1-2.34c0.13-0.17,0.11-0.45,0.15-0.69
		c0.13-0.13,0.25-0.25,0.38-0.38c0.45-0.52,0.93-1.01,1.35-1.55c0.3-0.39-0.14-0.25-0.28-0.34c-0.09-0.06-0.13-0.2-0.19-0.3
		c0.78-0.29,0.5-1.15,0.89-1.67c0.37-0.5,0.59-1.11,0.93-1.64c0.15-0.23,0.46-0.36,0.67-0.41
		C232.64,116.95,232.69,117.05,232.73,117.16z M245.64,133.01c0.02-0.08,0.09-0.21,0.06-0.23c-0.08-0.06-0.19-0.08-0.29-0.11
		c0,0.06,0,0.11,0,0.17c-0.53-0.49-0.63-0.44-0.72-0.39c0.18,0.07,0.36,0.16,0.55,0.21c0.04,0.01,0.11-0.11,0.17-0.17
		c-0.14-0.08-0.27-0.16-0.39-0.23C245.49,132.9,245.56,132.95,245.64,133.01z M234.11,114.21c0.3-0.19,0.33-0.39,0.33-0.6
		c0-0.02-0.15-0.04-0.24-0.06c-0.03,0.16-0.08,0.32-0.09,0.49c0,0.06,0.1,0.13,0.26,0.32c-0.83-0.12-0.59,0.32-0.65,0.6
		c-0.33,0.53-0.27,0.63-0.22,0.72c0.07-0.18,0.16-0.36,0.21-0.55c0.01-0.04-0.11-0.11-0.17-0.17c-0.08,0.14-0.16,0.27-0.23,0.39
		C234.29,114.93,234.05,114.49,234.11,114.21z M220.7,114.51c0.08,0.04,0.51-0.31,0.49-0.41c-0.09-0.35-0.31-0.67-0.48-1.01
		c-0.21,0.21-0.42,0.42-0.72,0.72C220.27,114.12,220.45,114.38,220.7,114.51z M249.17,134.02c0-0.02-0.26-0.08-0.35-0.03
		c-0.15,0.09-0.26,0.25-0.39,0.38c0.65,0.23,0.16,0.91,0.51,1.25c0.02,0.02,0.22-0.08,0.23-0.14c0.03-0.24,0.01-0.49,0.01-0.73
		C249.18,134.5,249.19,134.26,249.17,134.02z M215.89,117.92c0.04-0.23,0.12-0.45,0.12-0.68c0-0.11-0.15-0.22-0.23-0.33
		c-0.06,0.22-0.12,0.45-0.23,0.88C215.61,117.81,215.75,117.86,215.89,117.92z M242.45,127.53c0.11,0.08,0.29,0.25,0.32,0.23
		c0.15-0.13,0.28-0.28,0.37-0.46c0.03-0.05-0.11-0.18-0.18-0.3C242.79,127.18,242.62,127.35,242.45,127.53z M243.35,129.27
		c0.17-0.01,0.33-0.07,0.49-0.12c-0.05-0.08-0.09-0.23-0.14-0.24c-0.16-0.01-0.33,0.04-0.54,0.06
		C243.25,129.12,243.31,129.27,243.35,129.27z M206.02,143.59c0.05,0,0.1-0.15,0.14-0.24c-0.16-0.04-0.33-0.1-0.49-0.12
		c-0.04,0-0.1,0.15-0.19,0.29C205.69,143.55,205.85,143.6,206.02,143.59z M129.34,95.55c-0.04-0.04-0.09-0.12-0.12-0.12
		c-0.09,0.02-0.17,0.08-0.25,0.12c0.04,0.04,0.08,0.08,0.13,0.13C129.18,95.64,129.26,95.6,129.34,95.55z M217.97,113.7
		c-0.01,0.03,0.08,0.08,0.12,0.12c0.04-0.08,0.1-0.16,0.12-0.25c0.01-0.03-0.08-0.08-0.12-0.12
		C218.05,113.54,217.99,113.62,217.97,113.7z M216.84,116.72c-0.01,0.03,0.08,0.08,0.12,0.12c0.04-0.08,0.1-0.16,0.12-0.25
		c0.01-0.03-0.08-0.08-0.12-0.12C216.92,116.55,216.86,116.63,216.84,116.72z M232.03,118.73c0.04-0.04,0.12-0.09,0.12-0.12
		c-0.02-0.09-0.08-0.17-0.12-0.25c-0.04,0.04-0.08,0.08-0.13,0.13C231.94,118.56,231.99,118.65,232.03,118.73z M231.85,119.29
		c-0.04-0.04-0.09-0.12-0.12-0.12c-0.09,0.02-0.17,0.08-0.25,0.12c0.04,0.04,0.08,0.08,0.13,0.13
		C231.68,119.38,231.76,119.34,231.85,119.29z M247.11,128.9c0.04-0.08,0.1-0.16,0.12-0.25c0.01-0.03-0.08-0.08-0.12-0.12
		c-0.05,0.08-0.09,0.16-0.13,0.24C247.02,128.82,247.07,128.86,247.11,128.9z M246.04,134.86c0.03,0.01,0.08-0.08,0.12-0.12
		c-0.08-0.04-0.16-0.1-0.25-0.12c-0.03-0.01-0.08,0.08-0.12,0.12C245.87,134.79,245.95,134.84,246.04,134.86z M213.38,139.27
		c-0.08-0.04-0.16-0.1-0.25-0.12c-0.03-0.01-0.08,0.08-0.12,0.12c0.08,0.05,0.16,0.09,0.24,0.13
		C213.3,139.35,213.34,139.31,213.38,139.27z M205.34,142.02c0.03,0.01,0.08-0.08,0.12-0.12c-0.08-0.04-0.16-0.1-0.25-0.12
		c-0.03-0.01-0.08,0.08-0.12,0.12C205.17,141.95,205.25,142,205.34,142.02z M204.15,142.09c0.04-0.04,0.12-0.09,0.12-0.12
		c-0.02-0.09-0.08-0.17-0.12-0.25c-0.04,0.04-0.08,0.08-0.13,0.13C204.06,141.93,204.1,142.01,204.15,142.09z M197.74,142.09
		c0.04-0.04,0.12-0.09,0.12-0.12c-0.02-0.09-0.08-0.17-0.12-0.25c-0.04,0.04-0.08,0.08-0.13,0.13
		C197.65,141.93,197.7,142.01,197.74,142.09z M183.99,141.9c-0.04-0.04-0.09-0.12-0.12-0.12c-0.09,0.02-0.17,0.08-0.25,0.12
		c0.04,0.04,0.08,0.08,0.13,0.13C183.82,141.99,183.9,141.95,183.99,141.9z M212.25,143.03c-0.04-0.04-0.09-0.12-0.12-0.12
		c-0.09,0.02-0.17,0.08-0.25,0.12c0.04,0.04,0.08,0.08,0.13,0.13C212.09,143.12,212.17,143.08,212.25,143.03z M204.52,143.6
		c0.04-0.04,0.12-0.09,0.12-0.12c-0.02-0.09-0.08-0.17-0.12-0.25c-0.04,0.04-0.08,0.08-0.13,0.13
		C204.43,143.44,204.48,143.52,204.52,143.6z M199.25,143.6c0.04-0.04,0.12-0.09,0.12-0.12c-0.02-0.09-0.08-0.17-0.12-0.25
		c-0.04,0.04-0.08,0.08-0.13,0.13C199.16,143.44,199.2,143.52,199.25,143.6z"></path>
	<path id="XMLID_00000112612029902586641700000007474777751468820899_" class="st0" d="M229.21,122.5c-0.08-0.1-0.17-0.21-0.25-0.31
		c-0.04,0.1-0.08,0.21-0.12,0.31C228.96,122.5,229.08,122.5,229.21,122.5z"></path>
	<path id="XMLID_00000150784308616658556480000014222344360913927813_" class="st0" d="M228.83,122.5c-0.1,0.08-0.21,0.17-0.31,0.25
		c0.1,0.04,0.21,0.08,0.31,0.12C228.83,122.75,228.83,122.62,228.83,122.5z"></path>
	<path id="XMLID_00000087398267859921703710000001670085182561059736_" class="st0" d="M241.42,125.16
		c-0.04,0.04-0.12,0.11-0.12,0.12c0.04,0.08,0.11,0.15,0.17,0.23c0.06-0.06,0.11-0.11,0.17-0.17
		C241.57,125.28,241.5,125.22,241.42,125.16z"></path>
	<path id="XMLID_00000101799720796296624900000004346875409695314842_" class="st0" d="M244.42,133.86
		c-0.05,0.05-0.09,0.09-0.13,0.13c0.08,0.04,0.16,0.1,0.25,0.12c0.03,0.01,0.08-0.08,0.12-0.12
		C244.58,133.94,244.5,133.9,244.42,133.86z"></path>
</g>
<path class="st0" d="M82.41,67.44"></path>
<g>
	<path class="st1" d="M78,60.82c0.71-0.48,1.59-0.85,2.61-1.12c2.5-0.65,4.61-0.43,6.36,0.65c0.61,0.39,0.97,0.79,1.08,1.2
		l0.07,0.26c0.05,0.61-0.12,0.96-0.49,1.06c-0.34,0.09-0.91-0.07-1.71-0.49c-1.39-0.7-2.73-0.88-4.03-0.54
		c-0.07,0.02-0.2,0.06-0.4,0.13c-0.2,0.07-0.35,0.12-0.46,0.15c-2.01,0.7-3.5,1.84-4.48,3.41c-0.41,0.69-0.57,1.19-0.49,1.5
		c0.14,0.55,1.35,1.38,3.61,2.51c4.69,2.32,7.95,4.52,9.77,6.61c0.79,0.93,1.29,1.78,1.49,2.57c0.03,0.1,0.07,0.3,0.13,0.6
		c0.06,0.3,0.11,0.55,0.17,0.75c0.31,1.6,0.38,2.86,0.22,3.78c-0.25,1.16-0.86,2.15-1.86,2.97c-0.99,0.82-2.15,1.41-3.49,1.75
		c-3.15,0.82-5.83,0.31-8.06-1.52c-0.66-0.56-1.06-1.11-1.2-1.66c-0.18-0.68-0.01-1.09,0.5-1.23c0.41-0.11,0.91,0.06,1.5,0.49
		c1.29,0.87,2.35,1.41,3.18,1.61c0.84,0.2,1.85,0.15,3.05-0.16l0.87-0.23c1.42-0.44,2.28-0.92,2.58-1.44
		c0.62-0.97,0.71-2.32,0.26-4.06c-0.37-1.44-0.99-2.54-1.84-3.3c-1.82-1.65-4.63-3.43-8.46-5.36c-1.73-0.9-2.96-1.62-3.68-2.16
		c-0.73-0.54-1.17-1.12-1.33-1.74c-0.05-0.21-0.08-0.36-0.07-0.48c-0.07-0.97,0.34-2.08,1.22-3.33C75.49,62.75,76.62,61.69,78,60.82
		z"></path>
	<path class="st1" d="M129.57,52.27c0.25-0.37,0.54-0.54,0.87-0.49c0.54,0.06,0.82,0.33,0.86,0.78c0.05,0.71-0.51,3.49-1.7,8.37
		c-1.35,5.49-2.44,9.27-3.28,11.33c-0.83,2.07-1.79,3.39-2.88,3.97c-0.31,0.17-0.67,0.26-1.09,0.3c-1.2,0.09-2.38-0.58-3.56-2.01
		c-1.17-1.43-2.25-3.51-3.24-6.24c-1.44-3.93-2.24-5.89-2.42-5.87l-0.09,0.17c0,0.04-0.04,0.21-0.12,0.51
		c-0.08,0.31-0.16,0.63-0.24,0.98c-0.08,0.34-0.19,0.77-0.33,1.27c-0.14,0.51-0.26,1-0.37,1.46c-0.45,1.95-1.1,4.14-1.94,6.58
		c-0.84,2.44-1.44,3.88-1.79,4.34c-0.26,0.37-0.7,0.59-1.33,0.63c-0.6,0.05-1.1-0.34-1.5-1.16c-0.4-0.82-1.35-3.46-2.87-7.91
		c-1.78-5.21-2.94-8.56-3.48-10.05c-0.55-1.59-0.84-2.58-0.87-2.96c0-0.03-0.01-0.09-0.01-0.16L98.22,56
		c0.18-0.47,0.53-0.73,1.06-0.77c0.21-0.02,0.39,0.04,0.54,0.17c0.49,0.42,2.15,4.71,4.97,12.85c1.35,3.72,2.04,5.6,2.08,5.63
		c0.04,0.03,0.07,0.05,0.11,0.04c0.18-0.01,0.7-1.44,1.59-4.27c0.78-2.33,1.39-4.8,1.82-7.42c0.43-2.27,0.72-3.64,0.88-4.13
		c0.16-0.49,0.42-0.82,0.8-0.99c0.28-0.09,0.48-0.14,0.63-0.15c0.6-0.05,1.15,0.4,1.67,1.33c0.51,0.94,1.25,2.75,2.2,5.44
		c0.87,2.56,1.67,4.69,2.41,6.41c0.47,1.03,1.01,1.91,1.64,2.64c0.62,0.73,1.13,1.08,1.52,1.05c0.63-0.05,1.33-1.07,2.08-3.06
		c0.75-1.99,1.74-5.44,2.95-10.35C128.38,55.51,129.18,52.8,129.57,52.27z"></path>
	<path class="st1" d="M140.54,52.39c0.08-0.39,0.13-0.64,0.15-0.76c0.02-0.12,0.08-0.32,0.18-0.58c0.09-0.26,0.22-0.44,0.39-0.52
		c0.16-0.08,0.35-0.12,0.56-0.12l0.16,0l0.74,0.13L142.2,64.9c-0.35,9.6-0.6,14.58-0.75,14.93c-0.15,0.38-0.49,0.57-1.02,0.55
		c-0.6-0.02-0.95-0.12-1.05-0.3c-0.07-0.11-0.05-1.91,0.05-5.41C139.8,61.65,140.17,54.22,140.54,52.39z"></path>
	<path class="st1" d="M158.24,53.58c0.64-0.04,1.37-0.02,2.18,0.07c2.21,0.23,3.84,0.62,4.89,1.16c1.35,0.68,2.34,1.58,2.96,2.71
		c0.49,0.76,0.67,1.78,0.53,3.04c-0.12,1.12-0.5,2.22-1.15,3.29c-0.91,1.5-2.45,2.97-4.62,4.39c-2.17,1.42-4.57,2.55-7.18,3.37
		l-2.59,0.84l-0.67,2.27c-0.71,2.31-1.29,3.84-1.74,4.61c-0.46,0.77-0.98,1.12-1.58,1.06c-0.42-0.04-0.77-0.27-1.05-0.67
		s-0.39-0.81-0.35-1.24c0.04-0.42,0.25-0.72,0.63-0.89c0.33-0.14,0.73-0.83,1.18-2.06c0.41-1.16,0.62-1.87,0.65-2.12
		c0.03-0.32-0.13-0.58-0.5-0.8c-0.44-0.26-0.63-0.56-0.6-0.92c0.03-0.28,0.2-0.57,0.52-0.88c0.32-0.3,0.6-0.44,0.84-0.42
		c0.28,0.03,0.54-0.32,0.78-1.04s0.61-2.3,1.11-4.73c0.62-3.13,0.95-4.98,1.01-5.54c0.08-0.77-0.06-1.27-0.43-1.48
		c-0.47-0.26-0.66-0.78-0.58-1.55c0.04-0.42,0.21-0.83,0.5-1.23C153.56,54.11,155.31,53.7,158.24,53.58z M163.97,56.85
		c-0.81-0.37-2.24-0.66-4.28-0.88c-0.91-0.1-1.64-0.12-2.18-0.07c-0.32,0.04-0.55,0.18-0.69,0.43c-0.13,0.25-0.39,1.02-0.77,2.29
		c-0.23,0.79-0.57,2.42-1.02,4.88c-0.46,2.46-0.74,4.21-0.85,5.27c-0.04,0.35-0.04,0.55-0.01,0.59l0.1,0.01
		c0.77,0.08,2.66-0.62,5.66-2.12c1.84-0.94,3.34-2.06,4.51-3.36c1.17-1.3,1.81-2.54,1.94-3.74
		C166.54,58.77,165.73,57.67,163.97,56.85z"></path>
	<path class="st1" d="M191.14,58.36c3.01,0.65,5.14,1.15,6.4,1.5c1.97,0.55,3.06,0.99,3.26,1.34c0.37,0.65,0.28,1.12-0.28,1.41
		c-0.29,0.1-2.25-0.27-5.9-1.14c-3.86-0.89-6.33-1.35-7.42-1.4l-1.92-0.04L185,61.06c-0.08,0.42-0.53,2.38-1.36,5.89l-1.12,4.86
		l1.59,0.61c0.87,0.31,2.37,0.77,4.52,1.36l2.3,0.64l5.29,1.35l-0.1,0.74c-0.06,0.5-0.29,0.78-0.68,0.86
		c-0.31,0.06-1.72-0.17-4.24-0.68c-2.52-0.51-4.74-1.04-6.69-1.58l-2.66-0.74l-1.64,5.71l-0.86,3.12c-0.34,1.23-0.52,1.99-0.55,2.29
		c-0.03,0.3,0.06,0.56,0.26,0.76c0.28,0.3,3.03,1.23,8.25,2.78l7.72,2.3l-0.1,0.74c-0.1,0.49-0.41,0.82-0.94,1
		c-0.41,0.14-1.34,0.01-2.81-0.39c-0.2-0.06-1.97-0.58-5.28-1.57c-4.83-1.48-7.53-2.4-8.1-2.74c-0.66-0.4-1.1-0.85-1.33-1.36
		c-0.21-0.42-0.26-0.94-0.15-1.55c0.11-0.61,0.6-2.59,1.46-5.95l1.8-6.71l-0.94-0.59c-0.59-0.38-1.1-0.87-1.52-1.47
		c-0.42-0.59-0.59-1.06-0.49-1.4c0.18-0.65,0.58-0.89,1.19-0.72c0.37,0.1,0.75,0.34,1.13,0.7c0.67,0.63,1.07,0.9,1.2,0.83
		c0.13-0.07,0.36-0.69,0.68-1.85c0.58-2.08,1-4.01,1.28-5.81c0.31-1.9,0.56-3.2,0.75-3.92c0.2-0.72,0.43-1.11,0.71-1.18
		C184.75,57.2,187.27,57.51,191.14,58.36z"></path>
</g>
</svg>
