<?xml version="1.0" encoding="utf-8"?>
<!-- Generator: Adobe Illustrator 25.4.1, SVG Export Plug-In . SVG Version: 6.00 Build 0)  -->
<svg version="1.1" id="Layer_1" xmlns="http://www.w3.org/2000/svg" xmlns:xlink="http://www.w3.org/1999/xlink" viewBox="-180 -150 400 400" style="enable-background: new 0 0 50 50" xml:space="preserve">
<style>.st0 {
  fill: #020202;
}

.st1 {
  fill: #f1cc8f;
}

.st2 {
  fill: #fadeb7;
}

.st3 {
  fill: #fdfdfd;
}

.st4 {
  fill: #f9ddb7;
}

.st5 {
  fill: #fbe7a1;
}

.st6 {
  fill: #f3c9a0;
}

.st7 {
  fill: #f9f9f9;
}

.st8 {
  fill: #f0c89e;
}

.st9 {
  fill: #fefefe;
}

.st10 {
  fill: #050403;
}

.st11 {
  fill: #050504;
}

</style>
<path class="st0" d="M-42.3,159.6c1.9-8.8,3.7-16.8,5.4-24.9c0.2-0.9,0.3-2.1,0-2.9c-2.1-5.8-4.2-11.7-6.6-17.4
	c-6.9-15.9-3.8-34,8.3-46.4c0.8-0.8,1.8-1.4,2.7-2.1C-45,57.6-49.3,48.5-46.4,37.2c2.6-10.1,11.3-17,23.2-17.9c0-1.3,0-2.6,0-4
	c0-22.8-0.7-45.7,0.2-68.5c1.5-38.1,18.4-68.1,51.4-87.5c54.1-31.8,123.3-6.1,145.2,53.2c4.6,12.4,6.8,25.2,6.8,38.4
	c0,21.5,0,42.9,0,64.4c0,1.2,0,2.5,0,3.9c6.5,0.4,12.7,2.2,16.7,7.2c2.9,3.6,5.7,8.1,6.6,12.6c2.4,12-3.2,20.6-13.8,26.5
	c7.8,7.2,12.8,15.8,13.9,26.2c0.4,4.1,0.7,8.7-0.6,12.6c-3.1,9.5-7.2,18.7-10.8,28.1c-0.6,1.6-1,3.6-0.7,5.3c3.9,19.5,8,39,12,58.5
	c1.2,5.9-1.1,8.7-7.2,8.7c-22,0-43.9,0-65.9,0c-70.4,0-140.7,0-211.1,0c-6.5,0-7.7-0.9-9.4-7.1c-7.2-25.2-14.4-50.5-21.7-75.7
	c-0.5-1.8-2-3.7-3.6-4.6c-10.3-6.1-20.8-11.8-31-17.9c-6.5-3.8-9.6-9.8-8.7-17.3c0.9-7.3,5.1-12.3,12.2-14.7c4.2-1.4,8.4-1,12.4,0.6
	c11.7,4.6,23.4,9.2,34.9,14.1c3.5,1.5,5.5,1.1,8.3-1.5c2.7-2.5,6.4-4.7,9.9-5.3c9.6-1.5,17.5,6.2,16.5,15.9
	c-0.7,6.4-2.5,12.7-3.4,19.1c-0.3,2.3,0,5,1,7C-56.5,131.4-49.6,145-42.3,159.6z M96.5,65.1c-14,3.3-28,2.9-41.9-2
	c0,10.2,0,19.8,0.1,29.4c0,0.9,0.9,1.8,1.3,2.7c6.9,5.6,13.8,11.3,20.9,16.8c0.7,0.6,2.6,0.6,3.4,0.1c7.1-5.5,14-11.1,21-16.7
	c0.7-0.5,1.3-1.6,1.3-2.4c0.1-9.8,0.1-19.6,0.1-29.8C100.2,63.9,98.3,64.5,96.5,65.1z M117.5-43.5c-5.7-6.2-7.6-14.1-9.7-21.8
	c-1.6-5.9-3.3-11.8-5-17.6c-1.9,4.1-3,8.1-4.1,12.1C96.2-62,94-52.9,87.5-45.7C78.8-37.3,68.4-34,56.3-34.4
	c-11.4-0.4-22.9-0.1-34.3-0.1c-1.1,0-2.2,0.1-3.2,0.2c0,2.1,0,4,0,5.8C18.9-17.8,18.2-7,19.4,3.6c3.1,27.9,26.9,49.8,55,51.6
	c28.2,1.9,54.2-16.5,61.7-43.6c3.7-13.2,1.9-26.7,2.1-40.1c0-2,0-3.9,0-5.8C128.3-35.8,125.4-37.1,117.5-43.5z M-17.3,31.5
	c-2.2,0-4.5-0.2-6.7-0.1c-7.5,0.4-12.7,7.8-10.6,15c1.4,5.4,5.7,8.9,11.4,8.9c5.6,0.1,11.2,0,16.8,0c4.5,0,7,2.2,7.1,5.9
	C0.7,65-1.8,67-6.2,67.3c-8.9,0.6-16.6,4-22.3,11.2c-3.7,4.3-5.8,9.3-6.2,14.9c-1.6,6.1,0.3,11.5,2.9,17.3c3.2-4.8,6.7-8.4,11.8-9.7
	c14.1-3.4,28.3-6.6,42.4-9.9c6.7-1.6,13.4-3.2,20.2-4.8c0-6.9-0.5-13.5,0.1-19.9c0.6-6.3-1.7-9.9-6.8-13.6C16.9,39,7.3,19.9,6.7-3.6
	c-0.2-8.8,0-17.7,0-26.6c0-1.3-0.1-2.7-0.2-4c-2.1-0.2-3.7-0.4-5.6-0.5c0-3.9,0-7.6,0-11.7c1.7,0,3.1,0,4.6,0c18.5,0,36.9,0,55.4,0
	c11.1,0,20.6-7.5,23.6-18.3c3.8-13.9,7.8-27.7,11.7-41.6c0.9-3.3,2.4-5.8,6.2-5.9c4-0.1,5.5,2.7,6.5,6c3.6,13.2,7.3,26.3,11,39.5
	c0.9,3.3,1.9,6.7,3.3,9.9c3.2,6.9,8.9,10.2,16.4,10.4c5.5,0.2,11.1,0,16.6,0c0,4.4,0,8,0,11.8c-2,0.2-3.7,0.3-5.7,0.5
	c0,1.6,0,3,0,4.3c0,9.6,0.3,19.2-0.1,28.8c-0.4,10.7-3.3,20.8-8.4,30.3c-6.1,11.4-14.8,20.2-25.4,27.3c-0.9,0.6-1.9,1.8-1.9,2.8
	c-0.1,9-0.1,17.9-0.1,26.6c0.5,0.4,0.7,0.6,0.9,0.6c17.6,4.3,35.3,8.5,52.8,13c4.4,1.1,8.9,2.7,12.5,5.2c3,2,4.7,5.8,7,8.8
	c1.1-3.4,2.7-7,3.5-10.7c0.7-3,0.4-6.3,0.6-9.4c-0.4-5.7-2.6-10.6-6.2-14.9c-5.7-7.2-13.3-10.6-22.3-11.2c-4.4-0.3-7-2.4-6.9-6.1
	c0.1-3.7,2.6-5.9,7.1-5.9c5.5,0,11,0,16.5,0c5.7,0,9.4-2.7,11.6-8.2c1.8-5.2,0.1-10.2-4.3-13.4c-4-3-8.5-2.2-12.9-2.2
	c-4.7-1-6-2.6-6-7.4c0-25.5,0.3-51-0.2-76.5c-0.2-8.3-2.7-16.5-4.1-24.7c-0.2-0.8-0.4-1.7-0.6-2.5c-5.7-17.4-15.6-32-30-43.3
	c-21.9-17.2-46.6-22.8-73.8-17.2c-21.3,4.4-38.2,15.9-51.5,32.8c-7,9-12.4,19-15.2,30.1c-1.4,8.1-3.9,16.2-4.1,24.4
	c-0.5,25.6-0.2,51.2-0.2,76.9C-11.3,28.9-12.6,30.4-17.3,31.5z M20.4,104c-12.5,2.9-24.8,5.6-36.9,8.8c-1.8,0.5-4,2.9-4.4,4.8
	c-4.3,19.1-8.3,38.2-12.2,57.3c-0.2,1.1-0.2,2.5,0.3,3.5c2,4.3,4.2,8.5,6.3,12.7c0.4,0.8,1.2,1.9,1.9,1.9c6.4,0.1,12.8,0.1,19.5,0.1
	c0-8.3,0-16.1,0-23.8c4,0,7.7,0,11.7,0c0,7.9,0,15.7,0,23.7c22.1,0,43.8,0,65.7,0c0-21.2,0-42.3,0-63.7c-11.5,3.2-22.8,6.3-34,9.3
	c-5.3,1.4-7.6,0.1-9.2-5.1C26.2,123.7,23.3,114.1,20.4,104z M136.3,104.2c-3.5,9.5-7,18.7-10.5,28c-2.7,7.2-4.2,8-11.4,5.8
	c-9.9-2.9-19.7-5.8-29.6-8.8c0,21.4,0,42.6,0,63.5c22,0,43.8,0,65.8,0c0-8,0-15.8,0-23.4c4.1,0,7.9,0,12,0c0,8.1,0,15.8,0,23.5
	c9.6,0,18.9,0,28.3,0c-1.3-6.3-2.6-12.4-3.8-18.5c-3.8-18.7-7.6-37.3-11.5-56c-0.6-2.7-1.7-5-4.7-5.7
	C159.5,109.8,148,107,136.3,104.2z M-39.1,193c-0.5-1.1-0.8-1.8-1.2-2.4C-52,167.1-63.8,143.6-75.3,120c-1.2-2.3-1.5-5.5-1.1-8.1
	c0.9-6.5,2.6-12.9,3.6-19.4c0.2-1.5-0.6-3.2-1-4.7c-1.6,0.5-3.5,0.7-4.8,1.6c-1.8,1.3-3.3,3-4.8,4.7c-2.9,3.3-5.9,3.7-10,2
	c-13.4-5.6-27-10.9-40.6-16.1c-1.9-0.7-4.8-0.8-6.6,0.2c-3.9,2.1-3.2,7.2,1.4,9.8c10.9,6.3,21.8,12.6,32.8,18.7
	c3.2,1.8,5,4.1,5.9,7.6c3.9,14.3,8.1,28.5,12.1,42.7c3.2,11.3,6.5,22.7,9.7,34C-65.4,193-52.5,193-39.1,193z M39.3,125.9
	c8.9-2.5,17.3-4.8,26.1-7.3c-8.1-6.6-15.7-12.9-23.9-19.6c-2.5,0.6-6,1.4-9.5,2.3C34.5,109.6,36.9,117.5,39.3,125.9z M115.6,99.1
	c-8.4,6.8-16.2,13.1-24.3,19.6c8.4,2.5,16.2,4.8,24.2,7.1c3.1-8.3,6-16.3,9.1-24.5C120.9,100.4,117.8,99.7,115.6,99.1z"></path>
<path d="M-53.3-46.4c5.8,0,11.7,0,17.7,0c0,3.9,0,7.7,0,11.9c-5.9,0-11.8,0-17.7,0l0.1,0.1c0-4,0-8.1,0-12.1L-53.3-46.4z"></path>
<path d="M-65.1-34.6c-5.8,0-11.7,0-17.7,0c0-3.9,0-7.7,0-11.9c5.9,0,11.8,0,17.7,0l-0.1-0.1c0,4,0,8.1,0,12.1L-65.1-34.6z"></path>
<path d="M-65.1-46.4c0-5.8,0-11.7,0-17.8c3.9,0,7.7,0,11.9,0c0,5.9,0,11.8,0,17.8c0,0,0.1-0.1,0.1-0.1c-4,0-8.1,0-12.1,0L-65.1-46.4
	z"></path>
<path d="M-125.1-94.4c0,5.8,0,11.7,0,17.7c-3.9,0-7.7,0-11.9,0c0-5.9,0-11.8,0-17.7l-0.1,0.1c4,0,8.1,0,12.1,0L-125.1-94.4z"></path>
<path d="M-125.1-106.3c5.8,0,11.7,0,17.7,0c0,3.9,0,7.7,0,11.9c-5.9,0-11.8,0-17.8,0c0,0,0.1,0.1,0.1,0.1c0-4,0-8.1,0-12.1
	L-125.1-106.3z"></path>
<path d="M-137-94.4c-5.8,0-11.7,0-17.8,0c0-3.9,0-7.7,0-11.9c5.9,0,11.8,0,17.7,0l-0.1-0.1c0,4,0,8.1,0,12.1L-137-94.4z"></path>
<path d="M-137-106.3c0-5.8,0-11.7,0-17.8c3.9,0,7.7,0,11.9,0c0,5.9,0,11.8,0,17.8c0,0,0.1-0.1,0.1-0.1c-4,0-8.1,0-12.1,0L-137-106.3
	z"></path>
<path d="M-53.3-34.6c0,5.8,0,11.7,0,17.8c-3.9,0-7.7,0-11.9,0c0-5.9,0-11.8,0-17.8c0,0-0.1,0.1-0.1,0.1c4,0,8.1,0,12.1,0L-53.3-34.6
	z"></path>
<path d="M-143-28.7c0-3.9,0-7.6,0-11.6c3.9,0,7.7,0,11.7,0c0,3.8,0,7.5,0,11.6C-135-28.7-138.8-28.7-143-28.7z"></path>
<path d="M-107,13.2c0-3.9,0-7.6,0-11.6c3.9,0,7.7,0,11.7,0c0,3.8,0,7.5,0,11.6C-99.1,13.2-102.9,13.2-107,13.2z"></path>
<path d="M-65.4-94.5c-3.9,0-7.7,0-11.7,0c0-3.9,0-7.7,0-11.7c3.9,0,7.7,0,11.7,0C-65.4-102.3-65.4-98.5-65.4-94.5z"></path>
<path class="st1" d="M-28.5,78.5c5.7-7.2,13.3-10.6,22.3-11.2c4.4-0.3,7-2.4,6.9-6.1c-0.1-3.7-2.6-5.9-7.1-5.9c-5.6,0-11.2,0-16.8,0
	c-5.6-0.1-9.9-3.5-11.4-8.9c5-1.8,9.9-3.8,15.4-3.2c0.5,0.1,1.7-1.5,1.8-2.4c0.2-3.1,0.1-6.2,0.1-9.3c4.7-1,6-2.6,6-7.4
	c0-25.6-0.3-51.3,0.2-76.9C-10.9-61-8.4-69.1-7-77.2c0.5-0.6,1-1,1.4-1.7c9.9-18.2,23.8-32.4,42.3-41.7c19-9.5,39.2-12.3,60.1-8
	c24.1,4.9,43.2,17.6,57.8,37.2c3.4,4.6,6.3,9.4,9.5,14.2c1.4,8.2,3.9,16.5,4.1,24.7c0.5,25.5,0.2,51,0.2,76.5c0,4.8,1.3,6.4,6,7.4
	c0,2.9,0.1,5.7-0.1,8.6c-0.1,2.3,0.5,3.6,3.1,3.3c5.2-0.6,9.8,0.9,14.1,3.7c-2.2,5.5-5.9,8.2-11.6,8.2c-5.5,0-11,0-16.5,0
	c-4.5,0-7,2.2-7.1,5.9c-0.1,3.7,2.5,5.8,6.9,6.1c9,0.6,16.6,4,22.3,11.2c-5.4,0.4-10.9,0.7-16.6,1.1c8.5,2.6,13.8,4.6,20.2,11.8
	c0.7,0.8,1.7,1.4,2.6,2c-0.2,3.2,0.1,6.4-0.6,9.4c-0.8,3.7-2.4,7.3-3.5,10.7c-2.2-3-4-6.8-7-8.8c-3.6-2.5-8.2-4.1-12.5-5.2
	c-17.6-4.5-35.2-8.7-52.8-13c-0.2-0.1-0.4-0.3-0.9-0.6c0-8.7-0.1-17.7,0.1-26.6c0-1,1-2.2,1.9-2.8c10.6-7.1,19.3-15.9,25.4-27.3
	c5.1-9.5,8-19.6,8.4-30.3c0.3-9.6,0.1-19.2,0.1-28.8c0-1.3,0-2.7,0-4.3c2-0.2,3.7-0.3,5.7-0.5c0-3.7,0-7.4,0-11.8
	c-5.5,0-11,0.1-16.6,0c-7.5-0.2-13.2-3.5-16.4-10.4c-1.4-3.1-2.4-6.5-3.3-9.9c-3.7-13.2-7.3-26.3-11-39.5c-0.9-3.4-2.4-6.1-6.5-6
	c-3.8,0.1-5.3,2.6-6.2,5.9c-3.9,13.9-7.9,27.7-11.7,41.6C81.5-54,72-46.5,60.9-46.5c-18.5,0-36.9,0-55.4,0c-1.5,0-2.9,0-4.6,0
	c0,4.1,0,7.8,0,11.7c1.8,0.2,3.5,0.3,5.6,0.5c0.1,1.4,0.2,2.7,0.2,4c0,8.9-0.2,17.7,0,26.6C7.3,19.9,16.9,39,35.9,52.9
	c5.1,3.7,7.4,7.3,6.8,13.6c-0.6,6.4-0.1,13-0.1,19.9c-6.8,1.6-13.5,3.3-20.2,4.8C8.3,94.5-5.9,97.7-20,101.1
	c-5.1,1.2-8.6,4.9-11.8,9.7c-2.5-5.8-4.5-11.2-2.9-17.3c6.6-6.1,13.3-12.1,22.6-13.8C-17.6,79.3-23,78.9-28.5,78.5z"></path>
<path class="st2" d="M138.3-28.5c-0.2,13.4,1.5,26.9-2.1,40.1c-7.5,27.1-33.5,45.5-61.7,43.6c-28.1-1.9-51.9-23.8-55-51.6
	C18.2-7,18.9-17.8,18.8-28.5c13.4,0,26.9,0.2,40.3-0.1c4.5-0.1,9.2-0.8,13.4-2.4c7.1-2.6,12.6-7.2,15-14.7C94-52.9,96.2-62,98.7-71
	c1.1-4,2.3-8,4.1-12.1c1.7,5.9,3.4,11.8,5,17.6c2.1,7.8,4,15.7,9.7,21.8c0.3,0.9,0.4,1.9,0.8,2.8C122.7-33.1,129.6-29.3,138.3-28.5z
	 M56.1,19.5C56.6,32.8,67.2,42.6,80,41.8c11.7-0.7,21.5-11.2,20.6-22.3c-2.8,0-5.7,0-8.5,0c-1.5,8.3-6.1,13.2-12.9,13.2
	c-2.8,0-5.9-1-8.4-2.4c-4-2.2-5.4-6.5-6-10.8C61.8,19.5,59.1,19.5,56.1,19.5z M48.5-21c-5.7,0-10.4,4.8-10.4,10.5
	c0,5.7,4.8,10.5,10.5,10.4c5.7,0,10.4-4.8,10.4-10.5C59-16.3,54.3-21,48.5-21z M98-10.6c0,5.7,4.7,10.5,10.4,10.5
	c5.7,0,10.5-4.7,10.5-10.4c0-5.7-4.7-10.5-10.4-10.5C102.8-21.1,98-16.3,98-10.6z"></path>
<path class="st3" d="M20.4,104c3,10.1,5.8,19.7,8.7,29.4c1.6,5.3,3.9,6.6,9.2,5.1c11.3-3.1,22.5-6.2,34-9.3c0,21.4,0,42.5,0,63.7
	c-21.8,0-43.6,0-65.7,0c0-7.9,0-15.7,0-23.7c-4,0-7.7,0-11.7,0c0,7.7,0,15.5,0,23.8c-6.7,0-13.1,0.1-19.5-0.1
	c-0.7,0-1.5-1.1-1.9-1.9c-2.2-4.2-4.4-8.4-6.3-12.7c-0.5-1-0.6-2.4-0.3-3.5c4-19.1,8-38.3,12.2-57.3c0.4-1.9,2.6-4.3,4.4-4.8
	C-4.4,109.6,7.8,106.9,20.4,104z"></path>
<path class="st3" d="M136.3,104.2c11.7,2.9,23.2,5.6,34.7,8.5c3,0.7,4.1,3,4.7,5.7c3.8,18.7,7.6,37.3,11.5,56
	c1.2,6.1,2.5,12.2,3.8,18.5c-9.4,0-18.7,0-28.3,0c0-7.6,0-15.4,0-23.5c-4.1,0-7.9,0-12,0c0,7.6,0,15.4,0,23.4c-22.1,0-43.8,0-65.8,0
	c0-20.9,0-42.1,0-63.5c9.9,2.9,19.8,5.8,29.6,8.8c7.2,2.1,8.7,1.3,11.4-5.8C129.2,122.9,132.7,113.6,136.3,104.2z M102.6,168.8
	c14.2,0,27.9,0,41.6,0c0-4,0-7.8,0-11.5c-14,0-27.8,0-41.6,0C102.6,161.3,102.6,165,102.6,168.8z"></path>
<path class="st4" d="M-39.1,193c-13.4,0-26.4,0-39.6,0c-3.2-11.3-6.5-22.7-9.7-34c-4.1-14.2-8.2-28.5-12.1-42.7
	c-1-3.5-2.7-5.8-5.9-7.6c-11-6.1-21.9-12.4-32.8-18.7c-4.5-2.6-5.3-7.7-1.4-9.8c1.7-1,4.7-0.9,6.6-0.2c13.6,5.2,27.1,10.5,40.6,16.1
	c4.1,1.7,7.1,1.3,10-2c1.5-1.7,3-3.4,4.8-4.7c1.3-0.9,3.2-1.1,4.8-1.6c0.4,1.6,1.2,3.3,1,4.7c-1.1,6.5-2.7,12.9-3.6,19.4
	c-0.4,2.6,0,5.8,1.1,8.1c11.6,23.6,23.4,47,35.1,70.5C-39.9,191.2-39.6,191.8-39.1,193z"></path>
<path class="st5" d="M164-77.2c-3.1-4.7-6.1-9.6-9.5-14.2c-14.6-19.6-33.7-32.4-57.8-37.2c-20.9-4.2-41.1-1.5-60.1,8
	C18.2-111.3,4.3-97-5.6-78.9C-6-78.2-6.5-77.7-7-77.2c2.8-11.2,8.1-21.2,15.2-30.1c13.3-17,30.2-28.4,51.5-32.8
	c27.2-5.6,51.9,0,73.8,17.2c14.4,11.3,24.3,25.9,30,43.3C163.7-78.9,163.8-78,164-77.2z"></path>
<path class="st2" d="M96.5,65.1c1.9-0.6,3.7-1.2,6-2c0,10.2,0,20-0.1,29.8c0,0.8-0.6,1.9-1.3,2.4c-6.9,5.7-13.9,11.3-21,16.7
	c-0.7,0.6-2.6,0.5-3.4-0.1c-7-5.5-13.9-11.2-20.9-16.8c0.4-0.5,0.7-1.1,1.2-1.4c8.8-6.3,17.6-12.5,26.3-18.9
	C87.8,71.7,92.1,68.4,96.5,65.1z"></path>
<path class="st6" d="M96.5,65.1c-4.3,3.3-8.7,6.6-13.1,9.8c-8.8,6.3-17.6,12.6-26.3,18.9c-0.5,0.3-0.8,0.9-1.2,1.4
	c-0.5-0.9-1.3-1.8-1.3-2.7c-0.1-9.6-0.1-19.1-0.1-29.4C68.5,68,82.5,68.4,96.5,65.1z"></path>
<path class="st7" d="M39.3,125.9c-2.5-8.3-4.8-16.3-7.3-24.6c3.6-0.9,7-1.7,9.5-2.3c8.1,6.7,15.8,12.9,23.9,19.6
	C56.6,121,48.2,123.4,39.3,125.9z"></path>
<path class="st7" d="M115.6,99.1c2.3,0.6,5.4,1.3,8.9,2.2c-3,8.2-6,16.1-9.1,24.5c-7.9-2.3-15.8-4.6-24.2-7.1
	C99.4,112.2,107.1,105.9,115.6,99.1z"></path>
<path class="st6" d="M87.5-45.7c-2.4,7.6-8,12.2-15,14.7c-4.2,1.5-8.9,2.3-13.4,2.4c-13.4,0.3-26.9,0.1-40.3,0.1c0-1.9,0-3.7,0-5.8
	c1.1-0.1,2.2-0.2,3.2-0.2c11.4,0,22.9-0.3,34.3,0.1C68.4-34,78.8-37.3,87.5-45.7z"></path>
<path class="st5" d="M191.5,47.1c-4.3-2.8-9-4.3-14.1-3.7c-2.6,0.3-3.2-1-3.1-3.3c0.1-2.9,0-5.7,0.1-8.6c4.4,0,8.9-0.8,12.9,2.2
	C191.6,36.9,193.3,41.9,191.5,47.1z"></path>
<path class="st5" d="M-17.3,31.5c0,3.1,0.2,6.2-0.1,9.3c-0.1,0.9-1.3,2.5-1.8,2.4c-5.5-0.6-10.4,1.4-15.4,3.2
	c-2.1-7.1,3.1-14.6,10.6-15C-21.8,31.3-19.6,31.4-17.3,31.5z"></path>
<path class="st5" d="M-28.5,78.5c5.4,0.4,10.9,0.7,16.3,1.1c-9.2,1.7-15.9,7.7-22.6,13.8C-34.3,87.8-32.1,82.9-28.5,78.5z"></path>
<path class="st5" d="M191.8,93.5c-0.9-0.7-1.9-1.2-2.6-2c-6.5-7.2-11.7-9.2-20.2-11.8c5.7-0.4,11.2-0.7,16.6-1.1
	C189.2,82.9,191.3,87.8,191.8,93.5z"></path>
<path class="st8" d="M138.3-28.5c-8.7-0.8-15.6-4.6-20-12.3c-0.5-0.8-0.6-1.8-0.8-2.8c7.9,6.4,10.9,7.7,20.8,9.2
	C138.3-32.4,138.3-30.5,138.3-28.5z"></path>
<circle class="st9" cx="-59.2" cy="-40.5" r="8.5"></circle>
<circle class="st9" cx="-131.1" cy="-100.4" r="8.5"></circle>
<path class="st10" d="M56.1,19.5c3,0,5.7,0,8.7,0c0.6,4.3,2,8.5,6,10.8c2.5,1.4,5.6,2.4,8.4,2.4c6.9,0,11.4-4.9,12.9-13.2
	c2.8,0,5.6,0,8.5,0c0.8,11.1-9,21.6-20.6,22.3C67.2,42.6,56.6,32.8,56.1,19.5z"></path>
<path class="st11" d="M48.5-21C54.3-21,59-16.3,59-10.6c0,5.7-4.7,10.5-10.4,10.5c-5.7,0-10.5-4.7-10.5-10.4
	C38.1-16.2,42.8-21,48.5-21z"></path>
<path class="st11" d="M98-10.6c0-5.7,4.8-10.4,10.5-10.4c5.7,0,10.4,4.8,10.4,10.5c0,5.7-4.8,10.4-10.5,10.4
	C102.7-0.1,98-4.9,98-10.6z"></path>
<path d="M102.6,168.8c0-3.8,0-7.5,0-11.5c13.8,0,27.5,0,41.6,0c0,3.6,0,7.4,0,11.5C130.5,168.8,116.7,168.8,102.6,168.8z"></path>
</svg>
