<svg version="1.1" id="Layer_1" xmlns="http://www.w3.org/2000/svg" viewBox="-180 -150 400 400" style="enable-background:new 0 0 50 50" xml:space="preserve"><style>.st2{fill:#fadeb7}.st3{fill:#fdfdfd}.st5{fill:#fbe7a1}.st6{fill:#f3c9a0}.st7{fill:#f9f9f9}.st9{fill:#fefefe}.st11{fill:#050504}</style><path d="M-42.3 159.6c1.9-8.8 3.7-16.8 5.4-24.9.2-.9.3-2.1 0-2.9-2.1-5.8-4.2-11.7-6.6-17.4-6.9-15.9-3.8-34 8.3-46.4.8-.8 1.8-1.4 2.7-2.1-12.5-8.3-16.8-17.4-13.9-28.7 2.6-10.1 11.3-17 23.2-17.9v-4c0-22.8-.7-45.7.2-68.5 1.5-38.1 18.4-68.1 51.4-87.5 54.1-31.8 123.3-6.1 145.2 53.2 4.6 12.4 6.8 25.2 6.8 38.4V19.2c6.5.4 12.7 2.2 16.7 7.2 2.9 3.6 5.7 8.1 6.6 12.6 2.4 12-3.2 20.6-13.8 26.5 7.8 7.2 12.8 15.8 13.9 26.2.4 4.1.7 8.7-.6 12.6-3.1 9.5-7.2 18.7-10.8 28.1-.6 1.6-1 3.6-.7 5.3 3.9 19.5 8 39 12 58.5 1.2 5.9-1.1 8.7-7.2 8.7h-277c-6.5 0-7.7-.9-9.4-7.1-7.2-25.2-14.4-50.5-21.7-75.7-.5-1.8-2-3.7-3.6-4.6-10.3-6.1-20.8-11.8-31-17.9-6.5-3.8-9.6-9.8-8.7-17.3.9-7.3 5.1-12.3 12.2-14.7 4.2-1.4 8.4-1 12.4.6 11.7 4.6 23.4 9.2 34.9 14.1 3.5 1.5 5.5 1.1 8.3-1.5 2.7-2.5 6.4-4.7 9.9-5.3 9.6-1.5 17.5 6.2 16.5 15.9-.7 6.4-2.5 12.7-3.4 19.1-.3 2.3 0 5 1 7 6.6 13.9 13.5 27.5 20.8 42.1zM96.5 65.1c-14 3.3-28 2.9-41.9-2 0 10.2 0 19.8.1 29.4 0 .9.9 1.8 1.3 2.7 6.9 5.6 13.8 11.3 20.9 16.8.7.6 2.6.6 3.4.1 7.1-5.5 14-11.1 21-16.7.7-.5 1.3-1.6 1.3-2.4.1-9.8.1-19.6.1-29.8-2.5.7-4.4 1.3-6.2 1.9zm21-108.6c-5.7-6.2-7.6-14.1-9.7-21.8-1.6-5.9-3.3-11.8-5-17.6-1.9 4.1-3 8.1-4.1 12.1C96.2-62 94-52.9 87.5-45.7 78.8-37.3 68.4-34 56.3-34.4c-11.4-.4-22.9-.1-34.3-.1-1.1 0-2.2.1-3.2.2v5.8c.1 10.7-.6 21.5.6 32.1 3.1 27.9 26.9 49.8 55 51.6 28.2 1.9 54.2-16.5 61.7-43.6 3.7-13.2 1.9-26.7 2.1-40.1v-5.8c-9.9-1.5-12.8-2.8-20.7-9.2zm-134.8 75c-2.2 0-4.5-.2-6.7-.1-7.5.4-12.7 7.8-10.6 15 1.4 5.4 5.7 8.9 11.4 8.9 5.6.1 11.2 0 16.8 0 4.5 0 7 2.2 7.1 5.9 0 3.8-2.5 5.8-6.9 6.1-8.9.6-16.6 4-22.3 11.2-3.7 4.3-5.8 9.3-6.2 14.9-1.6 6.1.3 11.5 2.9 17.3 3.2-4.8 6.7-8.4 11.8-9.7 14.1-3.4 28.3-6.6 42.4-9.9 6.7-1.6 13.4-3.2 20.2-4.8 0-6.9-.5-13.5.1-19.9.6-6.3-1.7-9.9-6.8-13.6C16.9 39 7.3 19.9 6.7-3.6c-.2-8.8 0-17.7 0-26.6 0-1.3-.1-2.7-.2-4-2.1-.2-3.7-.4-5.6-.5v-11.7h60c11.1 0 20.6-7.5 23.6-18.3 3.8-13.9 7.8-27.7 11.7-41.6.9-3.3 2.4-5.8 6.2-5.9 4-.1 5.5 2.7 6.5 6 3.6 13.2 7.3 26.3 11 39.5.9 3.3 1.9 6.7 3.3 9.9 3.2 6.9 8.9 10.2 16.4 10.4 5.5.2 11.1 0 16.6 0v11.8c-2 .2-3.7.3-5.7.5v4.3c0 9.6.3 19.2-.1 28.8-.4 10.7-3.3 20.8-8.4 30.3-6.1 11.4-14.8 20.2-25.4 27.3-.9.6-1.9 1.8-1.9 2.8-.1 9-.1 17.9-.1 26.6.5.4.7.6.9.6 17.6 4.3 35.3 8.5 52.8 13 4.4 1.1 8.9 2.7 12.5 5.2 3 2 4.7 5.8 7 8.8 1.1-3.4 2.7-7 3.5-10.7.7-3 .4-6.3.6-9.4-.4-5.7-2.6-10.6-6.2-14.9-5.7-7.2-13.3-10.6-22.3-11.2-4.4-.3-7-2.4-6.9-6.1.1-3.7 2.6-5.9 7.1-5.9h16.5c5.7 0 9.4-2.7 11.6-8.2 1.8-5.2.1-10.2-4.3-13.4-4-3-8.5-2.2-12.9-2.2-4.7-1-6-2.6-6-7.4 0-25.5.3-51-.2-76.5-.2-8.3-2.7-16.5-4.1-24.7-.2-.8-.4-1.7-.6-2.5-5.7-17.4-15.6-32-30-43.3C111.7-140 87-145.6 59.8-140c-21.3 4.4-38.2 15.9-51.5 32.8-7 9-12.4 19-15.2 30.1-1.4 8.1-3.9 16.2-4.1 24.4-.5 25.6-.2 51.2-.2 76.9-.1 4.7-1.4 6.2-6.1 7.3zM20.4 104c-12.5 2.9-24.8 5.6-36.9 8.8-1.8.5-4 2.9-4.4 4.8-4.3 19.1-8.3 38.2-12.2 57.3-.2 1.1-.2 2.5.3 3.5 2 4.3 4.2 8.5 6.3 12.7.4.8 1.2 1.9 1.9 1.9 6.4.1 12.8.1 19.5.1v-23.8H6.6V193h65.7v-63.7c-11.5 3.2-22.8 6.3-34 9.3-5.3 1.4-7.6.1-9.2-5.1-2.9-9.8-5.8-19.4-8.7-29.5zm115.9.2c-3.5 9.5-7 18.7-10.5 28-2.7 7.2-4.2 8-11.4 5.8-9.9-2.9-19.7-5.8-29.6-8.8v63.5h65.8v-23.4h12v23.5h28.3c-1.3-6.3-2.6-12.4-3.8-18.5-3.8-18.7-7.6-37.3-11.5-56-.6-2.7-1.7-5-4.7-5.7-11.4-2.8-22.9-5.6-34.6-8.4zM-39.1 193c-.5-1.1-.8-1.8-1.2-2.4-11.7-23.5-23.5-47-35-70.6-1.2-2.3-1.5-5.5-1.1-8.1.9-6.5 2.6-12.9 3.6-19.4.2-1.5-.6-3.2-1-4.7-1.6.5-3.5.7-4.8 1.6-1.8 1.3-3.3 3-4.8 4.7-2.9 3.3-5.9 3.7-10 2-13.4-5.6-27-10.9-40.6-16.1-1.9-.7-4.8-.8-6.6.2-3.9 2.1-3.2 7.2 1.4 9.8 10.9 6.3 21.8 12.6 32.8 18.7 3.2 1.8 5 4.1 5.9 7.6 3.9 14.3 8.1 28.5 12.1 42.7 3.2 11.3 6.5 22.7 9.7 34h39.6zm78.4-67.1c8.9-2.5 17.3-4.8 26.1-7.3-8.1-6.6-15.7-12.9-23.9-19.6-2.5.6-6 1.4-9.5 2.3 2.5 8.3 4.9 16.2 7.3 24.6zm76.3-26.8c-8.4 6.8-16.2 13.1-24.3 19.6 8.4 2.5 16.2 4.8 24.2 7.1 3.1-8.3 6-16.3 9.1-24.5-3.7-.9-6.8-1.6-9-2.2z" style="fill:#020202"/><path d="M-53.3-46.4h17.7v11.9h-17.7l.1.1v-12.1l-.1.1zM-65.1-34.6h-17.7v-11.9h17.7l-.1-.1v12.1l.1-.1z"/><path d="M-65.1-46.4v-17.8h11.9v17.8l.1-.1h-12.1l.1.1zM-125.1-94.4v17.7H-137v-17.7l-.1.1h12.1l-.1-.1z"/><path d="M-125.1-106.3h17.7v11.9h-17.8l.1.1v-12.1.1zM-137-94.4h-17.8v-11.9h17.7l-.1-.1v12.1l.2-.1z"/><path d="M-137-106.3v-17.8h11.9v17.8l.1-.1h-12.1l.1.1zM-53.3-34.6v17.8h-11.9v-17.8l-.1.1h12.1l-.1-.1zM-143-28.7v-11.6h11.7v11.6H-143zM-107 13.2V1.6h11.7v11.6H-107zM-65.4-94.5h-11.7v-11.7h11.7v11.7z"/><path d="M-28.5 78.5c5.7-7.2 13.3-10.6 22.3-11.2 4.4-.3 7-2.4 6.9-6.1-.1-3.7-2.6-5.9-7.1-5.9h-16.8c-5.6-.1-9.9-3.5-11.4-8.9 5-1.8 9.9-3.8 15.4-3.2.5.1 1.7-1.5 1.8-2.4.2-3.1.1-6.2.1-9.3 4.7-1 6-2.6 6-7.4 0-25.6-.3-51.3.2-76.9.2-8.2 2.7-16.3 4.1-24.4.5-.6 1-1 1.4-1.7 9.9-18.2 23.8-32.4 42.3-41.7 19-9.5 39.2-12.3 60.1-8 24.1 4.9 43.2 17.6 57.8 37.2 3.4 4.6 6.3 9.4 9.5 14.2 1.4 8.2 3.9 16.5 4.1 24.7.5 25.5.2 51 .2 76.5 0 4.8 1.3 6.4 6 7.4 0 2.9.1 5.7-.1 8.6-.1 2.3.5 3.6 3.1 3.3 5.2-.6 9.8.9 14.1 3.7-2.2 5.5-5.9 8.2-11.6 8.2h-16.5c-4.5 0-7 2.2-7.1 5.9-.1 3.7 2.5 5.8 6.9 6.1 9 .6 16.6 4 22.3 11.2-5.4.4-10.9.7-16.6 1.1 8.5 2.6 13.8 4.6 20.2 11.8.7.8 1.7 1.4 2.6 2-.2 3.2.1 6.4-.6 9.4-.8 3.7-2.4 7.3-3.5 10.7-2.2-3-4-6.8-7-8.8-3.6-2.5-8.2-4.1-12.5-5.2-17.6-4.5-35.2-8.7-52.8-13-.2-.1-.4-.3-.9-.6 0-8.7-.1-17.7.1-26.6 0-1 1-2.2 1.9-2.8 10.6-7.1 19.3-15.9 25.4-27.3 5.1-9.5 8-19.6 8.4-30.3.3-9.6.1-19.2.1-28.8v-4.3c2-.2 3.7-.3 5.7-.5v-11.8c-5.5 0-11 .1-16.6 0-7.5-.2-13.2-3.5-16.4-10.4-1.4-3.1-2.4-6.5-3.3-9.9-3.7-13.2-7.3-26.3-11-39.5-.9-3.4-2.4-6.1-6.5-6-3.8.1-5.3 2.6-6.2 5.9-3.9 13.9-7.9 27.7-11.7 41.6C81.5-54 72-46.5 60.9-46.5H.9v11.7c1.8.2 3.5.3 5.6.5.1 1.4.2 2.7.2 4 0 8.9-.2 17.7 0 26.6.6 23.6 10.2 42.7 29.2 56.6 5.1 3.7 7.4 7.3 6.8 13.6-.6 6.4-.1 13-.1 19.9-6.8 1.6-13.5 3.3-20.2 4.8-14.1 3.3-28.3 6.5-42.4 9.9-5.1 1.2-8.6 4.9-11.8 9.7-2.5-5.8-4.5-11.2-2.9-17.3 6.6-6.1 13.3-12.1 22.6-13.8-5.5-.4-10.9-.8-16.4-1.2z" style="fill:#f1cc8f"/><path class="st2" d="M138.3-28.5c-.2 13.4 1.5 26.9-2.1 40.1-7.5 27.1-33.5 45.5-61.7 43.6-28.1-1.9-51.9-23.8-55-51.6-1.3-10.6-.6-21.4-.7-32.1 13.4 0 26.9.2 40.3-.1 4.5-.1 9.2-.8 13.4-2.4 7.1-2.6 12.6-7.2 15-14.7C94-52.9 96.2-62 98.7-71c1.1-4 2.3-8 4.1-12.1 1.7 5.9 3.4 11.8 5 17.6 2.1 7.8 4 15.7 9.7 21.8.3.9.4 1.9.8 2.8 4.4 7.8 11.3 11.6 20 12.4zm-82.2 48c.5 13.3 11.1 23.1 23.9 22.3 11.7-.7 21.5-11.2 20.6-22.3h-8.5c-1.5 8.3-6.1 13.2-12.9 13.2-2.8 0-5.9-1-8.4-2.4-4-2.2-5.4-6.5-6-10.8h-8.7zM48.5-21c-5.7 0-10.4 4.8-10.4 10.5S42.9 0 48.6-.1C54.3-.1 59-4.9 59-10.6S54.3-21 48.5-21zM98-10.6c0 5.7 4.7 10.5 10.4 10.5s10.5-4.7 10.5-10.4S114.2-21 108.5-21c-5.7-.1-10.5 4.7-10.5 10.4z"/><path class="st3" d="M20.4 104c3 10.1 5.8 19.7 8.7 29.4 1.6 5.3 3.9 6.6 9.2 5.1 11.3-3.1 22.5-6.2 34-9.3v63.7H6.6v-23.7H-5.1V193c-6.7 0-13.1.1-19.5-.1-.7 0-1.5-1.1-1.9-1.9-2.2-4.2-4.4-8.4-6.3-12.7-.5-1-.6-2.4-.3-3.5 4-19.1 8-38.3 12.2-57.3.4-1.9 2.6-4.3 4.4-4.8 12.1-3.1 24.3-5.8 36.9-8.7zM136.3 104.2c11.7 2.9 23.2 5.6 34.7 8.5 3 .7 4.1 3 4.7 5.7 3.8 18.7 7.6 37.3 11.5 56 1.2 6.1 2.5 12.2 3.8 18.5h-28.3v-23.5h-12v23.4H84.9v-63.5c9.9 2.9 19.8 5.8 29.6 8.8 7.2 2.1 8.7 1.3 11.4-5.8 3.3-9.4 6.8-18.7 10.4-28.1zm-33.7 64.6h41.6v-11.5h-41.6v11.5z"/><path d="M-39.1 193h-39.6c-3.2-11.3-6.5-22.7-9.7-34-4.1-14.2-8.2-28.5-12.1-42.7-1-3.5-2.7-5.8-5.9-7.6-11-6.1-21.9-12.4-32.8-18.7-4.5-2.6-5.3-7.7-1.4-9.8 1.7-1 4.7-.9 6.6-.2 13.6 5.2 27.1 10.5 40.6 16.1 4.1 1.7 7.1 1.3 10-2 1.5-1.7 3-3.4 4.8-4.7 1.3-.9 3.2-1.1 4.8-1.6.4 1.6 1.2 3.3 1 4.7-1.1 6.5-2.7 12.9-3.6 19.4-.4 2.6 0 5.8 1.1 8.1 11.6 23.6 23.4 47 35.1 70.5.3.7.6 1.3 1.1 2.5z" style="fill:#f9ddb7"/><path class="st5" d="M164-77.2c-3.1-4.7-6.1-9.6-9.5-14.2-14.6-19.6-33.7-32.4-57.8-37.2-20.9-4.2-41.1-1.5-60.1 8C18.2-111.3 4.3-97-5.6-78.9c-.4.7-.9 1.2-1.4 1.7 2.8-11.2 8.1-21.2 15.2-30.1 13.3-17 30.2-28.4 51.5-32.8 27.2-5.6 51.9 0 73.8 17.2 14.4 11.3 24.3 25.9 30 43.3.2.7.3 1.6.5 2.4z"/><path class="st2" d="M96.5 65.1c1.9-.6 3.7-1.2 6-2 0 10.2 0 20-.1 29.8 0 .8-.6 1.9-1.3 2.4-6.9 5.7-13.9 11.3-21 16.7-.7.6-2.6.5-3.4-.1-7-5.5-13.9-11.2-20.9-16.8.4-.5.7-1.1 1.2-1.4 8.8-6.3 17.6-12.5 26.3-18.9 4.5-3.1 8.8-6.4 13.2-9.7z"/><path class="st6" d="M96.5 65.1c-4.3 3.3-8.7 6.6-13.1 9.8-8.8 6.3-17.6 12.6-26.3 18.9-.5.3-.8.9-1.2 1.4-.5-.9-1.3-1.8-1.3-2.7-.1-9.6-.1-19.1-.1-29.4 14 4.9 28 5.3 42 2z"/><path class="st7" d="M39.3 125.9c-2.5-8.3-4.8-16.3-7.3-24.6 3.6-.9 7-1.7 9.5-2.3 8.1 6.7 15.8 12.9 23.9 19.6-8.8 2.4-17.2 4.8-26.1 7.3zM115.6 99.1c2.3.6 5.4 1.3 8.9 2.2-3 8.2-6 16.1-9.1 24.5-7.9-2.3-15.8-4.6-24.2-7.1 8.2-6.5 15.9-12.8 24.4-19.6z"/><path class="st6" d="M87.5-45.7c-2.4 7.6-8 12.2-15 14.7-4.2 1.5-8.9 2.3-13.4 2.4-13.4.3-26.9.1-40.3.1v-5.8c1.1-.1 2.2-.2 3.2-.2 11.4 0 22.9-.3 34.3.1 12.1.4 22.5-2.9 31.2-11.3z"/><path class="st5" d="M191.5 47.1c-4.3-2.8-9-4.3-14.1-3.7-2.6.3-3.2-1-3.1-3.3.1-2.9 0-5.7.1-8.6 4.4 0 8.9-.8 12.9 2.2 4.3 3.2 6 8.2 4.2 13.4zM-17.3 31.5c0 3.1.2 6.2-.1 9.3-.1.9-1.3 2.5-1.8 2.4-5.5-.6-10.4 1.4-15.4 3.2-2.1-7.1 3.1-14.6 10.6-15 2.2-.1 4.4 0 6.7.1zM-28.5 78.5c5.4.4 10.9.7 16.3 1.1-9.2 1.7-15.9 7.7-22.6 13.8.5-5.6 2.7-10.5 6.3-14.9zM191.8 93.5c-.9-.7-1.9-1.2-2.6-2-6.5-7.2-11.7-9.2-20.2-11.8 5.7-.4 11.2-.7 16.6-1.1 3.6 4.3 5.7 9.2 6.2 14.9z"/><path d="M138.3-28.5c-8.7-.8-15.6-4.6-20-12.3-.5-.8-.6-1.8-.8-2.8 7.9 6.4 10.9 7.7 20.8 9.2v5.9z" style="fill:#f0c89e"/><circle class="st9" cx="-59.2" cy="-40.5" r="8.5"/><circle class="st9" cx="-131.1" cy="-100.4" r="8.5"/><path d="M56.1 19.5h8.7c.6 4.3 2 8.5 6 10.8 2.5 1.4 5.6 2.4 8.4 2.4 6.9 0 11.4-4.9 12.9-13.2h8.5c.8 11.1-9 21.6-20.6 22.3-12.8.8-23.4-9-23.9-22.3z" style="fill:#050403"/><path class="st11" d="M48.5-21C54.3-21 59-16.3 59-10.6S54.3-.1 48.6-.1 38.1-4.8 38.1-10.5 42.8-21 48.5-21zM98-10.6c0-5.7 4.8-10.4 10.5-10.4s10.4 4.8 10.4 10.5S114.1-.1 108.4-.1 98-4.9 98-10.6z"/><path d="M102.6 168.8v-11.5h41.6v11.5h-41.6z"/></svg>