<svg xmlns="http://www.w3.org/2000/svg" viewBox="0 0 271.12 92.83">
<title>Certifications</title>
	<defs>
		<style>
			.cls-1{fill:#f2ebf2;}.cls-2,.cls-3{fill:none;stroke-miterlimit:10;}.cls-2{stroke:#e6007e;stroke-width:9px;}.cls-3{stroke:#1d1d1b;stroke-width:7px;}
		</style>

        <g id="cert-mask">
		
			<g id="mask-cert-c">
				<path class="cls-2 mask" id="mask-c" d="M57.28,119l1.78-12.22,1.28-5.35,1.27-4.84L57.33,92.3l-6.16,4.53-6.37,3.82-6.87,2.52-4.59,9.19-5.09,7.21-4.59,10.91S18.57,144.09,20.1,150s1.53,8.71,3.56,12,6.45,3.66,6.45,3.66A12.67,12.67,0,0,0,38.44,163c3.82-3,9.16-9.6,9.16-9.6l3.82-5.37,4-6.64"  />
			</g>
		<g id="mask-cert-e">
			<path class="cls-3 mask" id="mask-e" d="M42.49,161.81c3.62-11.7,8.78-16.09,12.92-17.9s8.18-1.54,15-5.56c3.75-2.21,5.5-4,6.69-5.94.84-1.33,4.23-6.15,2.47-8.78-1.58-2.36-6.7-2.09-10.11-.28-2.5,1.32-3.57,3.19-6.89,9.84-6.75,13.49-6.9,14.86-6.16,16.17,1.94,3.42,8.31,3.58,12,2.84a16.25,16.25,0,0,0,8.16-4.44"  />
		</g>
		<g id="mask-cert-r">
			<path class="cls-3 mask" id="mask-r" d="M71.84,150.75c5.82-3.31,13.82-9.18,18.27-19,2.24-5,3.33-10.36,2.87-10.52-1.24-.44-16.85,37-14.28,38.28,2.74,1.4,26.45-38.09,26.45-38.09,3.62-3.35,5.06-3.84,5.62-3.44,5.07,3.51-6.41,21.28-7.17,20.82,0,0,.41-1.08.29-1.14s-1.29,1.64-4.43,7.38"  />
		</g>
		<g id="mask-cert-t">
			<path class="cls-3 mask" id="mask-t" d="M129,100.23a167,167,0,0,0-13.78,29c-1.62,4.64-4,11.45-4.43,18.21-.07,1-.49,7.87-.49,7.87-.18,2.89-.13,6,1,6.39,2.34.73,10.41-10.55,10.6-22.66.22-13.79-15-20.61-12.57-25.55,1.38-2.87,8.35-2.27,20.17-1.48,2.54.17,4.67.4,6.19.59"  />
		</g>
		<g id="mask-cert-i">
			<path class="cls-3 mask" id="mask-i" d="M118.79,151.38c8.85-18.68,14.44-29.34,15.5-28.9,1.77.73-9.78,32.71-9.76,32.72L138.82,113"  />
		</g>
		<g id="mask-cert-f">
			<path class="cls-3 mask" id="mask-f" d="M125.92,152.33q7.79-7.65,15.73-15.92c5.6-5.85,10-10.65,17.36-18.74,4.6-5,8.68-6.62,10.87-12,1.68-4.12,2.71-10.47.2-12.15a3.28,3.28,0,0,0-2.86-.25c-2.32.9-1.48,4.1-4.24,6.82-1.71,1.69-2.68,1.09-4.24,3-1.17,1.4-1.18,2.39-2,4.8a48.29,48.29,0,0,1-4.24,8.3c-1.64,2.83-2,3.12-3.69,6.08,0,0-1.25,2.25-2.4,4.61-3.33,6.89-4,15-7.56,29.32,0,0-.56,2.3-1.1,12.91a7.28,7.28,0,0,0,1.1,4.61c.24.34,1.47,2.13,3,2,1.82-.11,2.92-3,3.69-5a24.87,24.87,0,0,0,1.48-8.85c.08-3,.12-4.84-.56-7.19-.73-2.55-1.62-3.34-2.18-6a16.05,16.05,0,0,1-.21-5.28"  />
		</g>
		<g id="mask-cert-it">
			<path class="cls-3 mask" id="mask-it" d="M146,144.56a75.64,75.64,0,0,0,10.58-9c3.22-3.33,6-6.83,7.3-8.5,2.44-3.1,4.9-6.51,5-6.46S160,138.07,156.53,146.4c-.53,1.28-1.63,4-.37,5.9a3.34,3.34,0,0,0,2.58,1.48c.77,0,1.71-.33,4.06-3.14a30.09,30.09,0,0,0,3.32-4.61c3.69-7.13-1.8-18.86,2.58-30.06a23.88,23.88,0,0,1,3.47-6"  />
		</g>
		<g id="mask-cert-ct" data-name="mask-c">
			<path class="cls-3 mask"id="mask-ct"  d="M161,152.3a67.41,67.41,0,0,0,8.67-11.43,38.44,38.44,0,0,1,2.12-3.38c1.86-2.64,2.64-3.05,5.26-6.21,1.88-2.28,2-2.66,4.24-5.35s3.14-3.42,4.24-3.87c.4-.17,3.62-1.45,5.35.18,1.35,1.28,1,3.58.92,3.88-.29,1.62-1.16,1.78-2,4.24a6.05,6.05,0,0,0-.55,2.95c.25,2,1.84,3,1.64,3.26-.47.64-8.31-6.42-12-4.37-1.08.6-.4,1.22-3.13,7.56a10.9,10.9,0,0,0-1.3,5.17,6.21,6.21,0,0,0,.74,2.95c1.4,2.4,4.32,2.85,5,3a8.13,8.13,0,0,0,5.72-1.29c2.26-1.64,1.23-3,3.76-5.11,1.37-1.12,2.42-1.31,4.54-3.19.63-.57,1.12-1.07,1.44-1.41"  />
		</g>
		<g id="mask-cert-a">
			<path class="cls-3 mask" id="mask-a" d="M188.08,145.73c8.77-6.22,13.12-11.33,15.47-15a22.83,22.83,0,0,1,5.72-6.09c3.75-2.74,6.59-3,7.93-3s3,0,4.24,1.29c.94,1,1.18,2.42,1.47,4.24a10.47,10.47,0,0,1,.19,2.4c-.13,0,1.34-15.38-3.87-17.89-4.73-2.28-12.95,6.26-14.2,7.56-10.61,11-9.62,24.8-8.3,28.77.25.77.89,2.7,2.4,3.14s2.94-.75,3.87-1.48c2.82-2.24,2.52-3.9,5.16-7.38.79-1,.46-.42,5.72-6.08a18.15,18.15,0,0,0,2.76-3.69c.36-.64.75-1.47,1.11-2.21,1.09-2.27,1.22-2.79,1.29-2.77.36.1-.95,12.93-7,23.61-.55,1-1.52,2.59-1.29,2.76.48.36,5.76-5.87,10.33-11.43"  />
		</g>
		<g id="mask-cert-tt">
			<path class="cls-3 mask" id="mask-tt" d="M216.09,148.8A50.16,50.16,0,0,0,226,138.19c1.2-1.74,1.29-2.12,9.23-17.24,2.95-5.61,2.4-4.53,3.69-7,4.14-7.92,5-9.83,5.16-9.77.63.27-12,38.34-17.7,49.61-.39.77-1.78,3.46-1.16,4s4.18-2.26,5.4-3.59c8.44-9.25-9.62-32.34-3.11-41.13,2.49-3.37,9.53-5.89,31.24.7"  />
		</g>
		<g id="mask-cert-et">
			<path class="cls-3 mask" id="mask-et" d="M232.87,151c2.83-5.19,6.06-7.7,8.49-9,2.88-1.58,4-1.17,8.48-3.5a29.93,29.93,0,0,0,7.93-5.72c2.29-2.38,4.27-4.45,4.05-7.19-.16-2.06-1.57-4.45-3.5-4.79-1.43-.26-2.62.71-4.42,2.21-2.46,2-3.49,3.82-6.46,7.75s-2.57,3-3.27,4.18-4,6.72-2.26,12.6c.39,1.28.93,3.08,2.58,4.05,2.08,1.24,4.61.38,6.27-.18,2.39-.81,4-2.09,6.82-4.43,1.34-1.09,2.4-2.06,3.14-2.76" />
		</g>
		<g id="mask-cert-s">
			<path class="cls-3 mask" id="mask-s" d="M253,150.27c6.26-6.85,10.3-10.2,12.91-12a13.82,13.82,0,0,0,4-3.82,22.92,22.92,0,0,0,2.62-6.14c.69-2.32.73-3.4,1.84-4.61.69-.74,2.13-1.9,3-1.48,1,.5.2,2.75.92,6.83.28,1.61.68,2.71.65,2.72s-4.41-21.21-7.48-21c-3.33.25-6.91,26.15-1.1,36.51a25.83,25.83,0,0,1,3.13,9.41,13.41,13.41,0,0,1-.55,7.19,13.16,13.16,0,0,1-5.53,6.09c-2.24,1.44-5.2,3.34-7.56,2.21-3.31-1.59-2.79-7.85-2.77-8.12.4-4.24,3.06-7.21,5.53-9.95,2.22-2.47,2.59-2.18,5.53-5,5.57-5.31,6-8,11.07-12.54a39,39,0,0,1,5.44-4"  />
		</g>
	</g>
	</defs>


	<g id="text">
		<g id="C">
			<path class="cls-1" d="M65.14,97.17C58,88.58,46,92.11,39,99a70,70,0,0,0-21.3,40.54c-3.37,12.63,2.52,37.08,19.66,27.37,3.25-.72,29.85-37.39,21.37-33.9-4.49,7.1-20.63,36.33-29.89,31.52-12.78-21,6.09-62.18,29.47-67.66-1.37,4.41-3.17,9-2.91,13.63-.29,4.33,8.26,10.32,5.86,2.42C60.66,107.34,65.91,102.17,65.14,97.17Z" transform="translate(-15.31 -86.39)" />
		</g>
		<g id="e">
			<path class="cls-1" d="M85.09,132.59c-1.53,7.85-28.74,30.6-22.64,9.8,34.93-14.06,8.71-41.38-6-5-6.4,23.41,17.29,17.08,26.13,4C84.05,140.24,90.77,129.15,85.09,132.59Zm-8.66-9.65c1,7.12-6.66,12.78-12.35,15.69l-.14-.14C66.8,132.68,70,125.34,76.43,122.94Z" transform="translate(-15.31 -86.39)" />
		</g>
		<g id="r">
			<path class="cls-1" d="M110.8,121.66c-1.56-2-4.49-3.1-5.65-.28-5,6.23-10.66,11.72-15.3,18.24,1-5.47,5.26-10.76,5.4-16.18-1-1.57-4-4.2-5.47-2a154.43,154.43,0,0,0-9.73,25.2c-.26,3.47-4.82,10.63-1.35,12.82,1.29.58,3,.87,3.48-.82,5.32-8.85,11.18-19.45,17.89-27.08.24-.26.48-.54.71-.82l.15.07c-1.48,4.06.25,13.8,6,11.54a1.24,1.24,0,0,0-.42-1.46c-1.41-2,.58-4.77.81-7C107.77,129.8,111.42,125.57,110.8,121.66Z" transform="translate(-15.31 -86.39)" />
		</g>
		<g id="t">
			<path class="cls-1" d="M129.18,109.73c.32-.74,2-3.22,1.81-4-.55-1.59-3.37-2.86-4.82-2.45-2.53,1.2-3,5.65-5.51,6.82-2.91.28-6.41.08-9.12,1-1.51,5.21,3.15,5.24,6.92,4.4-3.86,8.19-7.43,16.56-9.37,25.42-1.52,5.68-4.26,24.26,6.46,15.34,3.19-4,7.62-13,10.16-17.47.34-1.07,4.9-6.82,1.06-6-2.61.92-3.24,4.26-4.9,6.25-.4.36-7.4,12.58-7.88,12.07,2.1-12.66,7.4-24.38,12.64-36,5.15-1.39,11.7,2,16.12-.43C142.09,109.43,133.15,110.56,129.18,109.73Z" transform="translate(-15.31 -86.39)" />
		</g>
		<g id="i">
			<path class="cls-1" d="M139.05,118.25c0-2.33,3.07-4.31,2.35-6.46-3.92-5.34-5.55-.73-6.39,3.41C134.53,117,138.08,120.55,139.05,118.25Z" transform="translate(-15.31 -86.39)" />
			<path class="cls-1" d="M141.18,133.66c-4.76,6.47-9.53,13-15.26,18.67,1.65-9.18,5.78-18.42,9.65-26.91.46-1.06.43-1.3-.35-2.13-6.5-7.6-16,24.07-14.13,28.62,1.66,6.26,8.44,2.37,10.51-1.57l11.93-16.54A6.1,6.1,0,0,0,144,133C142.8,131.62,142,132.58,141.18,133.66Z" transform="translate(-15.31 -86.39)" />
		</g>
		<g id="f">
			<path class="cls-1" d="M170.08,91.2c-12.51.66-28.69,40.88-32,52.47-15.69,51.9,22.59,38.62,8.94,1.28,1.68-1.3,18-12.86,10.8-12.36a75.35,75.35,0,0,1-12.22,10.16c1.66-10.49,11.19-16.09,16.69-24.57C165.89,112,177.67,97.36,170.08,91.2Zm-29.39,81.87c-1.51-8.47.88-16.75,3.05-24.86,0,0,.3-.12.35-.14C145.64,157,145,165.05,140.69,173.07Zm29.39-79.53c-.72,12.15-9.89,23.38-17.89,32C156.29,114,161.8,102.69,170.08,93.54Z" transform="translate(-15.31 -86.39)" />
		</g>
		<g id="i2">
			<path class="cls-1" d="M171.57,118.25c0-2.33,3.06-4.31,2.34-6.46-3.91-5.34-5.54-.73-6.39,3.41C167.05,117,170.6,120.55,171.57,118.25Z" transform="translate(-15.31 -86.39)" />
			<path class="cls-1" d="M173.7,133.66c-4.77,6.47-9.54,13-15.27,18.67,1.66-9.18,5.79-18.42,9.66-26.91.45-1.06.43-1.3-.36-2.13-6.49-7.6-16,24.07-14.13,28.62,1.67,6.26,8.44,2.38,10.51-1.57L176,133.8a6,6,0,0,0,.5-.85C175.32,131.62,174.5,132.58,173.7,133.66Z" transform="translate(-15.31 -86.39)" />
		</g>
		<g id="c-2" data-name="c">
			<path class="cls-1" d="M201.17,132.66c-2.56-.91-9.84,11.92-14.19,13.71-18.17,12.08-8.43-19.27,1.77-22.15-1.1,3.94-3.3,10.7,2.06,12.35,1,.24,1.35-.12,1.06-1.06-.8-4.13,2.2-7.65,2.7-11.51-6.46-12.6-20.41,2.1-22.08,11-4.66,11.64,6.67,22.41,17,13.63C192.14,146.14,203.07,135.63,201.17,132.66Z" transform="translate(-15.31 -86.39)" />
		</g>
		<g id="a">
			<path class="cls-1" d="M230.85,132.24c-2.27,0-12.31,12-14.2,13.13l-.28-.14c.37-4.41,5.6-11.06,3.76-14.77-1.16-1.1-3.86-2.46-4.9-.63-5.12,6.5-9.71,13.49-15.76,19.24.32-9.54,9.66-26,20.41-24.82.58,1.2.53,4.45,2.74,4.16,2.62-1.18.69-5.18-1-6.54-6.2-6.62-15.08-.64-19.27,5.22-5.49,5.31-14.76,29.1-.25,26.09,1.68-1.43,6.33-7,7.88-8.59-.08,2.58-1.9,5.74.21,7.67,1.89,1.38,3.6,1.19,5.11-.57l3.41-4C219.74,145.48,234.3,132.37,230.85,132.24Z" transform="translate(-15.31 -86.39)" />
		</g>
		<g id="t-2" data-name="t">
			<path class="cls-1" d="M245.48,109.73c.31-.74,2-3.22,1.81-4-.56-1.59-3.37-2.86-4.83-2.45-2.52,1.19-3.05,5.65-5.5,6.82-2.92.28-6.41.08-9.13,1-1.51,5.21,3.16,5.24,6.93,4.4-3.86,8.19-7.43,16.56-9.37,25.42-1.53,5.68-4.27,24.26,6.46,15.34,3.18-4,7.61-13,10.15-17.47.34-1.07,4.9-6.82,1.06-6-2.61.92-3.24,4.26-4.9,6.25-.4.36-7.4,12.58-7.88,12.07,2.11-12.66,7.4-24.38,12.64-36,5.15-1.39,11.71,2,16.12-.43C258.38,109.43,249.44,110.56,245.48,109.73Z" transform="translate(-15.31 -86.39)" />
		</g>
		<g id="e-2" data-name="e">
			<path class="cls-1" d="M268.13,132.59c-1.54,7.85-28.75,30.6-22.65,9.8,34.93-14.06,8.72-41.38-6-5-6.4,23.41,17.29,17.08,26.13,4C267.08,140.24,273.8,129.15,268.13,132.59Zm-8.67-9.65c1,7.12-6.66,12.78-12.35,15.69l-.14-.14C249.83,132.68,253,125.34,259.46,122.94Z" transform="translate(-15.31 -86.39)" />
		</g>
		<g id="s">
			<path class="cls-1" d="M284.6,132.59c-2.26-1.72-9.45,7.28-11.5,8.45-.51-4.27.42-7.76,1.91-11.71.71,1.87,7.42,4.23,5.18,1-2.92-3.09,1.71-8.86-4.61-9.58-9.19,3.16-8.3,16.93-7.77,24.88-5.16,6.87-13.56,13.69-13.1,23.11,3.52,11.24,22.51,3.94,21.72-6.53,1.32-6.09-3.22-12.32-2-17.89C274.55,143.52,287.53,133,284.6,132.59Zm-23,38.34c-4.1-6.64,3.32-14.92,7.27-20.09C270,157.84,270.29,169.25,261.56,170.93Z" transform="translate(-15.31 -86.39)" />
		</g>
	</g>
	
</svg>
