<svg id="text" xmlns="http://www.w3.org/2000/svg" viewBox="0 0 55.7 45.82"><defs><style>.cls-1{fill:#f2ebf2;}</style></defs><g id="i"><path class="cls-1" d="M139.05,118.25c0-2.33,3.07-4.31,2.35-6.46-3.92-5.34-5.55-.73-6.39,3.41C134.53,117,138.08,120.55,139.05,118.25Z" transform="translate(-120.84 -109.38)"/><path class="cls-1" d="M141.18,133.66c-4.76,6.47-9.53,13-15.26,18.67,1.65-9.18,5.78-18.42,9.65-26.91.46-1.06.43-1.3-.35-2.13-6.5-7.6-16,24.07-14.13,28.62,1.66,6.26,8.44,2.37,10.51-1.57l11.93-16.54A6.1,6.1,0,0,0,144,133C142.8,131.62,142,132.58,141.18,133.66Z" transform="translate(-120.84 -109.38)"/></g><g id="i2"><path class="cls-1" d="M171.57,118.25c0-2.33,3.06-4.31,2.34-6.46-3.91-5.34-5.54-.73-6.39,3.41C167.05,117,170.6,120.55,171.57,118.25Z" transform="translate(-120.84 -109.38)"/><path class="cls-1" d="M173.7,133.66c-4.77,6.47-9.54,13-15.27,18.67,1.66-9.18,5.79-18.42,9.66-26.91.45-1.06.43-1.3-.36-2.13-6.49-7.6-16,24.07-14.13,28.62,1.67,6.26,8.44,2.38,10.51-1.57L176,133.8a6,6,0,0,0,.5-.85C175.32,131.62,174.5,132.58,173.7,133.66Z" transform="translate(-120.84 -109.38)"/></g></svg>