<svg id="Layer_1" data-name="Layer 1" xmlns="http://www.w3.org/2000/svg" viewBox="0 0 286.02 131.96"><defs><style>.cls-1{fill:#f2ebf2;}.cls-2{fill:none;stroke:#1d1d1b;stroke-miterlimit:10;stroke-width:9px;}</style></defs><g id="text"><path id="C" class="cls-1" d="M58.33,96.88a6.2,6.2,0,0,0-2.1.21c-.64.19-1.26.41-1.88.64a17.63,17.63,0,0,0-4.12,2.2c-1.23.9-2.46,1.88-3.69,2.92a56.06,56.06,0,0,0-11.18,12.63,77,77,0,0,0-7.49,15.2,49.64,49.64,0,0,0-2,7.38,69,69,0,0,0-1,7.6,47.33,47.33,0,0,0-.07,5.82,33.91,33.91,0,0,0,.78,5.75,19.83,19.83,0,0,0,1.2,3.87,15.38,15.38,0,0,0,2.06,3.44,3.19,3.19,0,0,0,1.25,1.14,2.89,2.89,0,0,0,1.66-.35,26.29,26.29,0,0,0,3.63-2,24.74,24.74,0,0,0,3.26-2.52,74.92,74.92,0,0,0,6.71-7.35,91.64,91.64,0,0,0,5.79-8.13c1.23-1.89,2.43-3.78,3.62-5.68s2.29-3.83,3.34-5.82a4,4,0,0,1,.63-.85,1.56,1.56,0,0,1,.93-.43,1.18,1.18,0,0,1,1.1.36.92.92,0,0,1,0,1.06c-.61,1.19-1.23,2.37-1.84,3.55S57.64,139.91,57,141q-2.91,4.77-6,9.3t-6.47,9a34.54,34.54,0,0,1-3.69,4.55,24.53,24.53,0,0,1-3.48,3,11,11,0,0,1-4.26,1.81,11.4,11.4,0,0,1-7.56-.71,11.83,11.83,0,0,1-5.5-5.32,22.61,22.61,0,0,1-1.6-3.94,36.55,36.55,0,0,1-1-4.08,37.38,37.38,0,0,1-.49-7.57,68.38,68.38,0,0,1,.71-7.56,64.94,64.94,0,0,1,5.39-18.24,80.74,80.74,0,0,1,10.08-16.19A50.44,50.44,0,0,1,39,99,37.08,37.08,0,0,1,46,94.18a22,22,0,0,1,4.69-1.84,13.36,13.36,0,0,1,5-.36c.57.1,1.14.2,1.7.32a8.27,8.27,0,0,1,1.64.53q1.28.72,2.55,1.5c.86.52,1.68,1,2.49,1.56a3.78,3.78,0,0,1,.6.6l.53.68a2.3,2.3,0,0,1,.08,2.62c-.81,1.66-1.54,3.38-2.21,5.15a31.23,31.23,0,0,0-1.49,5.5,18.42,18.42,0,0,0-.25,2.49,5.92,5.92,0,0,0,.47,2.48c.28,1-.07,1.45-1.07,1.35l-.57-.14a2.92,2.92,0,0,1-.56-.21,6.65,6.65,0,0,1-4.12-5.9,12.4,12.4,0,0,1,.07-3c.14-1,.33-2,.57-3s.59-2.26.92-3.37.66-2.24,1-3.38Z" transform="translate(-14.58 -50.39)"/><path id="e" class="cls-1" d="M62.45,142.39a22.69,22.69,0,0,0-.79,3,10.4,10.4,0,0,0-.14,2.95,2.5,2.5,0,0,0,1,2.34,3.36,3.36,0,0,0,2.42.28,13.19,13.19,0,0,0,3.23-1.17,34.44,34.44,0,0,0,3.47-2,35.32,35.32,0,0,0,3.09-2.2,18.16,18.16,0,0,0,2.1-1.88q1.84-1.71,3.55-3.55a24.57,24.57,0,0,0,3-4.12,12,12,0,0,0,.89-1.67q.39-.89.81-1.74a1.11,1.11,0,0,1,1.5-.71,1.05,1.05,0,0,1,.78,1.42c-.15.38-.29.77-.43,1.18a10,10,0,0,1-.5,1.17,44.86,44.86,0,0,1-3.83,5.78,30.5,30.5,0,0,1-4.83,4.94Q75.94,148,74,149.46A24.4,24.4,0,0,1,69.76,152a13.05,13.05,0,0,1-2.13.92,10.16,10.16,0,0,1-5.47.32,8.39,8.39,0,0,1-5.5-3.73,8.91,8.91,0,0,1-1.31-3.9,13.46,13.46,0,0,1,.07-4.16,24.49,24.49,0,0,1,1.06-4,33.48,33.48,0,0,1,3.3-6.81,53.14,53.14,0,0,1,4.51-6.11,16,16,0,0,1,2.49-2.38,18.7,18.7,0,0,1,2.91-1.81,14.17,14.17,0,0,1,1.52-.64,10.25,10.25,0,0,1,1.6-.42,5.54,5.54,0,0,1,3.55.42A8.07,8.07,0,0,1,79.13,122a3.6,3.6,0,0,1,.85,2,6.77,6.77,0,0,1-.21,2.16A14,14,0,0,1,77.71,131a26.2,26.2,0,0,1-13.06,10.72Zm1.49-3.9.14.14,1.7-.85a31.94,31.94,0,0,0,5-3.52,20.45,20.45,0,0,0,4-4.65,16.75,16.75,0,0,0,1.13-2.09,9.11,9.11,0,0,0,.71-2.31,5.63,5.63,0,0,0,.18-1.14,1.83,1.83,0,0,0-.32-1.13A7.36,7.36,0,0,0,74.05,124a13.29,13.29,0,0,0-2.16,1.81A23.82,23.82,0,0,0,70,128c-.57.76-1.06,1.44-1.49,2.06A34.27,34.27,0,0,0,66,134.12C65.3,135.52,64.6,137,63.94,138.49Z" transform="translate(-14.58 -50.39)"/><path id="r" class="cls-1" d="M100.07,131.57l-.71.81a126.61,126.61,0,0,0-10.93,15.76l-6,10.09-.29.42a5.2,5.2,0,0,1-.64,1,1.12,1.12,0,0,1-1.13.28,8.08,8.08,0,0,1-1.71-.46,2.69,2.69,0,0,1-1.27-1.1,1.45,1.45,0,0,1-.15-.68,4.32,4.32,0,0,1,.07-.74c.43-1.71.86-3.42,1.28-5.15s.9-3.44,1.42-5.15q1.78-6.24,4.09-12.17t5-11.83a3.29,3.29,0,0,1,.64-1.2,1.39,1.39,0,0,1,1.77-.78,5.91,5.91,0,0,1,3.7,2.77,1.79,1.79,0,0,1,.07,1.63q-1.35,3.41-2.66,6.78c-.88,2.25-1.74,4.51-2.6,6.78a2.22,2.22,0,0,0-.21,1l.64-.78c1.28-1.65,2.56-3.29,3.83-4.9s2.61-3.21,4-4.82a22.42,22.42,0,0,1,2.17-2.31c.78-.74,1.55-1.5,2.3-2.31.52-.61,1-1.28,1.56-2,.29-.38.56-.75.82-1.13s.53-.76.82-1.14a1.45,1.45,0,0,1,1.77-.57,5.64,5.64,0,0,1,3.06,2,1.9,1.9,0,0,1,.07,2.06c-.38,1-.77,2-1.17,3s-.77,2-1.11,3c-.47,1.38-.88,2.76-1.24,4.16s-.72,2.78-1.1,4.15a1.33,1.33,0,0,0-.14.57,2.22,2.22,0,0,1-.07.57,1.88,1.88,0,0,0,.5,1.7,1.29,1.29,0,0,1,.42.57,1,1,0,0,1,0,.89,1,1,0,0,1-.78.46,2.56,2.56,0,0,1-1.42-.14,6.66,6.66,0,0,1-2-1.17,4.77,4.77,0,0,1-1.28-1.89,18,18,0,0,1-1-3.69,10.17,10.17,0,0,1,.14-3.76,2.29,2.29,0,0,0,.18-.68,6.21,6.21,0,0,1,.11-.67l-.15-.07C100.55,131,100.31,131.31,100.07,131.57Z" transform="translate(-14.58 -50.39)"/><path id="t" class="cls-1" d="M118.46,115.48c-.71.1-1.38.17-2,.22s-1.24.12-1.81.21a2.3,2.3,0,0,1-2.77-1.28,10.2,10.2,0,0,1-.5-1.21,2.63,2.63,0,0,1-.07-1.34,1.57,1.57,0,0,1,.25-1,1.54,1.54,0,0,1,1-.35c.71-.1,1.46-.17,2.24-.22s1.57-.11,2.38-.21l1.77-.14c.57,0,1.14-.07,1.7-.07a1.19,1.19,0,0,0,1.07-.78l1.38-2.24c.45-.73.94-1.48,1.46-2.24a3.4,3.4,0,0,1,1.6-1.56,3.07,3.07,0,0,1,2.09.21,8.61,8.61,0,0,1,2.13,1.28,1.48,1.48,0,0,1,.6,1,2.68,2.68,0,0,1-.31,1.24l-1.5,2.77,5.9.57c.66.1,1.31.2,1.95.32L139,111a6.87,6.87,0,0,1,3.48,2.27c.14.24.27.46.39.68a.69.69,0,0,1-.1.74,1.75,1.75,0,0,1-1.5.93h-1.13a4.46,4.46,0,0,1-1.14-.15c-1.94-.23-3.88-.39-5.82-.46s-3.9-.08-5.89,0a4.46,4.46,0,0,0-.64.14q-2,4.4-3.91,8.77t-3.58,8.84q-1.68,4.47-3,9a77.1,77.1,0,0,0-2.13,9.34,1.32,1.32,0,0,0,.64-.43,3.51,3.51,0,0,0,.35-.57l6.89-11.07c.52-.76,1-1.52,1.42-2.28s.9-1.53,1.42-2.34a3.45,3.45,0,0,1,2.06-1.63,1.89,1.89,0,0,1,.75-.14.65.65,0,0,1,.6.35.83.83,0,0,1,.21.71,4.77,4.77,0,0,1-.21.71l-2.41,4.33-6,11c-.66,1.13-1.32,2.23-2,3.3a36.75,36.75,0,0,1-2.2,3.16,5.36,5.36,0,0,1-5.39,2.13,2.58,2.58,0,0,1-2.28-2.13,25.53,25.53,0,0,1-.21-5.68,66.35,66.35,0,0,1,1.42-9.66,84.83,84.83,0,0,1,2.7-9.44c.85-2.56,1.8-5,2.84-7.46s2.13-4.85,3.27-7.31c.09-.14.18-.31.28-.5A4.77,4.77,0,0,0,118.46,115.48Z" transform="translate(-14.58 -50.39)"/><path id="i" class="cls-1" d="M125.92,152.33l.92-.78c.52-.52,1-1.05,1.53-1.6s1-1.12,1.45-1.74q2.91-3.61,5.83-7.17t5.53-7.38l.57-.71a1.66,1.66,0,0,1,1-.67c.31,0,.72.2,1.24.67a6.1,6.1,0,0,1-.49.85L131.6,150.34a39.54,39.54,0,0,1-3.2,3.63,4.32,4.32,0,0,1-3,1.27,4.19,4.19,0,0,1-3.09-1.06,2.52,2.52,0,0,1-.82-1,7.75,7.75,0,0,1-.39-1.24,13.72,13.72,0,0,1-.21-3.73,24.88,24.88,0,0,1,.56-3.73,65.36,65.36,0,0,1,8.24-20.09l1.28-1.78a1.7,1.7,0,0,1,1.7-.64,5.18,5.18,0,0,1,2.56,1.35,2.1,2.1,0,0,1,.64,1,2.27,2.27,0,0,1-.29,1.17l-3.76,8.38c-1.14,2.7-2.15,5.4-3.05,8.1s-1.73,5.46-2.49,8.3a3.84,3.84,0,0,0-.17.93Q126.06,151.63,125.92,152.33ZM135,115.2a3.62,3.62,0,0,1,.21-1.07c.24-.66.47-1.31.71-1.95s.47-1.29.71-2a1.12,1.12,0,0,1,1.42-.85,4.93,4.93,0,0,1,3.34,2.41,1.24,1.24,0,0,1,0,1.49q-.51.78-1,1.56c-.31.53-.58,1-.82,1.57a4,4,0,0,0-.32.88c-.07.31-.15.63-.25,1-.05.57-.33.81-.85.71a3.29,3.29,0,0,1-2.24-1.2A3.45,3.45,0,0,1,135,115.2Z" transform="translate(-14.58 -50.39)"/><path id="f" class="cls-1" d="M145.58,142.75l1.07-.71q3-2.21,5.82-4.48a48.05,48.05,0,0,0,5.33-5,1.07,1.07,0,0,1,1.56.08,2,2,0,0,1,.46.63c.07.19,0,.43-.25.71a15.59,15.59,0,0,1-1.42,1.64,56.65,56.65,0,0,1-4.93,4.51c-1.73,1.39-3.49,2.78-5.29,4.15L147,145a14.79,14.79,0,0,1,1.92,4.44,32,32,0,0,1,.89,5,38.11,38.11,0,0,1,.14,5.11q-.1,2.52-.39,4.65a31,31,0,0,1-3.76,10.86,5.17,5.17,0,0,1-2.67,2.59,6.24,6.24,0,0,1-3.94-.24,5.66,5.66,0,0,1-4-4.05,27.23,27.23,0,0,1-.93-8.59,79.45,79.45,0,0,1,1.28-10.69c.67-3.48,1.49-6.94,2.49-10.4a112.23,112.23,0,0,1,5-14.31q3-6.92,6.46-13.73A120.09,120.09,0,0,1,161,97.52c.71-1,1.43-1.85,2.17-2.7a17.54,17.54,0,0,1,2.45-2.34c.33-.24.67-.47,1-.71a6.66,6.66,0,0,1,1.11-.6,3.36,3.36,0,0,1,1.17-.29,2,2,0,0,1,1.17.32,4.44,4.44,0,0,1,2.48,3.55,10.16,10.16,0,0,1,0,2.59,21.37,21.37,0,0,1-.53,2.52,64.8,64.8,0,0,1-4.26,9.66,80.68,80.68,0,0,1-5.47,8.66q-3,4.13-6.32,7.88t-6.82,7.32a3.4,3.4,0,0,0-.71,1c-.47,1.28-.93,2.56-1.38,3.83s-.89,2.56-1.31,3.84A1.92,1.92,0,0,0,145.58,142.75Zm-1.49,5.32-.28.14h-.07l-.14.5q-1.35,4.83-2.38,9.66a44.18,44.18,0,0,0-1,9.94c0,.75,0,1.51,0,2.27a11.46,11.46,0,0,0,.4,2.49,33.92,33.92,0,0,0,3.9-12.15A43.76,43.76,0,0,0,144.09,148.07Zm26-54.53a63.53,63.53,0,0,0-5.61,7.07,84.07,84.07,0,0,0-4.72,7.74q-2.17,4-4,8.16t-3.44,8.42s-.05.26-.14.64a52.61,52.61,0,0,0,4.51-4.87c1.49-1.82,2.92-3.73,4.29-5.71s2.65-4,3.83-6.07a57.58,57.58,0,0,0,3.06-6.07q.92-2.35,1.74-4.65A9.53,9.53,0,0,0,170.08,93.54Z" transform="translate(-14.58 -50.39)"/><path id="i2" class="cls-1" d="M158.43,152.33l.93-.78c.52-.52,1-1.05,1.52-1.6s1-1.12,1.46-1.74q2.91-3.61,5.82-7.17t5.54-7.38l.57-.71a1.63,1.63,0,0,1,1-.67c.3,0,.72.2,1.24.67a6,6,0,0,1-.5.85l-11.93,16.54a39.44,39.44,0,0,1-3.19,3.63,4.34,4.34,0,0,1-3,1.27,4.21,4.21,0,0,1-3.09-1.06,2.42,2.42,0,0,1-.81-1,6.86,6.86,0,0,1-.39-1.24,14.14,14.14,0,0,1-.22-3.73,26.26,26.26,0,0,1,.57-3.73,65.12,65.12,0,0,1,8.24-20.09l1.27-1.78a1.7,1.7,0,0,1,1.71-.64,5.15,5.15,0,0,1,2.55,1.35,2,2,0,0,1,.64,1,2.14,2.14,0,0,1-.28,1.17l-3.76,8.38q-1.71,4-3.06,8.1t-2.48,8.3a3.41,3.41,0,0,0-.18.93A8.35,8.35,0,0,1,158.43,152.33Zm9.09-37.13a3.62,3.62,0,0,1,.21-1.07l.71-1.95c.24-.64.48-1.29.71-2a1.12,1.12,0,0,1,1.42-.85,4.89,4.89,0,0,1,3.34,2.41,1.24,1.24,0,0,1,0,1.49q-.49.78-1,1.56a15.65,15.65,0,0,0-.81,1.57,4,4,0,0,0-.32.88c-.07.31-.16.63-.25,1,0,.57-.33.81-.85.71a3.27,3.27,0,0,1-2.24-1.2A3.42,3.42,0,0,1,167.52,115.2Z" transform="translate(-14.58 -50.39)"/><path id="c-2" data-name="c" class="cls-1" d="M188.75,124.22a15,15,0,0,0-4.33,3,28.48,28.48,0,0,0-7.1,12.5,11.81,11.81,0,0,0-.14,6.53,8.42,8.42,0,0,0,.74,1.95,2.2,2.2,0,0,0,.89.92,2.12,2.12,0,0,0,1.21.18,10.09,10.09,0,0,0,1.7-.35,12.67,12.67,0,0,0,2.73-1,16.72,16.72,0,0,0,2.52-1.6,23.66,23.66,0,0,0,3-2.49c.93-.89,1.84-1.84,2.74-2.84l3.4-3.83a37.06,37.06,0,0,0,3.13-4.05,1.49,1.49,0,0,1,.89-.71,1.17,1.17,0,0,1,1,.22c.67.37.76,1,.29,1.84q-1.43,2.13-3.13,4.4c-1.65,2.09-3.4,4.19-5.25,6.32a22.42,22.42,0,0,1-3.62,3.41,20.54,20.54,0,0,1-4.4,2.49,11.63,11.63,0,0,1-3,.71,9,9,0,0,1-3.13-.29,9.17,9.17,0,0,1-7-7.67,15.43,15.43,0,0,1-.32-4.47,19.64,19.64,0,0,1,.89-4.4,31.65,31.65,0,0,1,3-6.89,23.59,23.59,0,0,1,4.9-5.75,13,13,0,0,1,4.19-2.63,6.71,6.71,0,0,1,4.26-.53,9.66,9.66,0,0,1,3.84,2,7.21,7.21,0,0,1,1.2,1.21,3.37,3.37,0,0,1,.64,1.63,3.59,3.59,0,0,1-.42,2,25.92,25.92,0,0,0-1.35,3.34,28,28,0,0,0-.93,3.55,6.14,6.14,0,0,0,0,2.63c.29.94-.07,1.3-1.06,1.06a4.09,4.09,0,0,1-2.42-1.63,5.91,5.91,0,0,1-1.06-3.06,12.16,12.16,0,0,1,.28-3.19q.36-1.56.78-3.12Z" transform="translate(-14.58 -50.39)"/><path id="a" class="cls-1" d="M210,144.59l-.85.93-5.68,6.39c-.24.23-.46.45-.68.64s-.44.4-.67.63a3.28,3.28,0,0,1-3.55.5,6.15,6.15,0,0,1-3.77-4.05,13.1,13.1,0,0,1-.35-4.54,28.47,28.47,0,0,1,1.49-6.67,35.46,35.46,0,0,1,2.91-6.18,56.28,56.28,0,0,1,3.52-5.15,29.9,29.9,0,0,1,4.29-4.51,17.63,17.63,0,0,1,2.59-1.88,14.14,14.14,0,0,1,3-1.31,8.47,8.47,0,0,1,5-.18,10.66,10.66,0,0,1,4.36,2.66,7.46,7.46,0,0,1,2.06,3.13,3,3,0,0,1,.07,2.13c-.24.76-.61,1.18-1.13,1.28a1.75,1.75,0,0,1-1.57-.71,2,2,0,0,1-.6-1.07q-.1-.57-.18-1.14a2.4,2.4,0,0,0-.39-1.24,2.24,2.24,0,0,0-1.24-.32,5.26,5.26,0,0,0-2.06.14,9.36,9.36,0,0,0-1.92.79,19.53,19.53,0,0,0-3.33,2.23c-1,.83-2,1.72-2.91,2.66a35.56,35.56,0,0,0-5.65,7.89,34.19,34.19,0,0,0-3.23,9.15c0,.24-.08.46-.11.64a6.25,6.25,0,0,0,0,.64v.43a2.89,2.89,0,0,0,.07.57l.78-.71a69.72,69.72,0,0,0,5-5.61q2.34-2.91,4.62-6c.75-1.08,1.58-2.2,2.48-3.33.14-.24.27-.44.39-.61a2.22,2.22,0,0,1,.46-.46,10.4,10.4,0,0,0,1.14-1.17,5.94,5.94,0,0,0,.85-1.38,1.61,1.61,0,0,1,1.85-.86,6.55,6.55,0,0,1,1.63.5,4.91,4.91,0,0,1,1.42,1,1.74,1.74,0,0,1,.57,2.13q-.85,2.28-1.63,4.48t-1.57,4.47c-.23.62-.43,1.22-.6,1.81s-.34,1.22-.53,1.88l.28.14.71-.63,11.5-11.51a2.28,2.28,0,0,0,.43-.35,2.06,2.06,0,0,1,.5-.36,1.15,1.15,0,0,1,1.06-.28,1,1,0,0,1,.46.14.71.71,0,0,1,.32.29.44.44,0,0,1,0,.49,1.77,1.77,0,0,1-.28.43A17,17,0,0,1,230,135c-.47.45-.95.94-1.42,1.46-1.66,1.85-3.3,3.7-4.93,5.57s-3.28,3.73-4.94,5.58l-3.41,4c-1.51,1.76-3.22,1.95-5.11.57a2.58,2.58,0,0,1-1-2.48c.09-.67.19-1.3.28-1.92s.19-1.25.29-1.92A8.26,8.26,0,0,1,210,144.59Z" transform="translate(-14.58 -50.39)"/><path id="t-2" data-name="t" class="cls-1" d="M234.76,115.48c-.71.1-1.39.17-2,.22s-1.24.12-1.81.21a2.3,2.3,0,0,1-2.77-1.28,8.73,8.73,0,0,1-.49-1.21,2.52,2.52,0,0,1-.08-1.34,1.57,1.57,0,0,1,.25-1,1.54,1.54,0,0,1,1-.35c.71-.1,1.46-.17,2.24-.22s1.57-.11,2.38-.21l1.77-.14c.57,0,1.14-.07,1.71-.07a1.18,1.18,0,0,0,1.06-.78c.48-.76.94-1.51,1.39-2.24s.93-1.48,1.45-2.24a3.44,3.44,0,0,1,1.6-1.56,3.07,3.07,0,0,1,2.09.21,8.61,8.61,0,0,1,2.13,1.28,1.54,1.54,0,0,1,.61,1A2.71,2.71,0,0,1,247,107l-1.49,2.77,5.89.57c.66.1,1.31.2,1.95.32l2,.39a6.8,6.8,0,0,1,3.47,2.27c.15.24.28.46.39.68a.67.67,0,0,1-.1.74,1.75,1.75,0,0,1-1.49.93h-1.14a4.33,4.33,0,0,1-1.13-.15c-1.95-.23-3.89-.39-5.83-.46s-3.9-.08-5.89,0a4.46,4.46,0,0,0-.64.14c-1.32,2.93-2.63,5.86-3.9,8.77s-2.48,5.85-3.59,8.84-2.12,6-3,9a77.1,77.1,0,0,0-2.13,9.34,1.27,1.27,0,0,0,.64-.43,4.48,4.48,0,0,0,.36-.57l6.88-11.07c.52-.76,1-1.52,1.42-2.28s.9-1.53,1.42-2.34a3.45,3.45,0,0,1,2.06-1.63,1.92,1.92,0,0,1,.75-.14.65.65,0,0,1,.6.35.83.83,0,0,1,.21.71,3.19,3.19,0,0,1-.21.71L242,138.77l-6,11q-1,1.69-2,3.3c-.67,1.06-1.4,2.12-2.2,3.16a5.37,5.37,0,0,1-5.4,2.13,2.56,2.56,0,0,1-2.27-2.13,24.94,24.94,0,0,1-.22-5.68,66.35,66.35,0,0,1,1.42-9.66,84.83,84.83,0,0,1,2.7-9.44c.85-2.56,1.8-5,2.84-7.46s2.13-4.85,3.27-7.31a4.47,4.47,0,0,0,.28-.5A4.68,4.68,0,0,0,234.76,115.48Z" transform="translate(-14.58 -50.39)"/><path id="e-2" data-name="e" class="cls-1" d="M245.48,142.39a22.62,22.62,0,0,0-.78,3,10.4,10.4,0,0,0-.15,2.95,2.5,2.5,0,0,0,1,2.34,3.37,3.37,0,0,0,2.42.28,13,13,0,0,0,3.23-1.17,35.72,35.72,0,0,0,3.48-2,36.66,36.66,0,0,0,3.08-2.2,17.35,17.35,0,0,0,2.1-1.88q1.85-1.71,3.55-3.55a24.57,24.57,0,0,0,3.05-4.12,12,12,0,0,0,.89-1.67c.26-.59.53-1.17.82-1.74a1.1,1.1,0,0,1,1.49-.71,1.05,1.05,0,0,1,.78,1.42c-.14.38-.29.77-.43,1.18a10,10,0,0,1-.5,1.17,44.86,44.86,0,0,1-3.83,5.78,30.5,30.5,0,0,1-4.83,4.94c-1.23,1.09-2.49,2.12-3.8,3.09a24.4,24.4,0,0,1-4.22,2.52,13.05,13.05,0,0,1-2.13.92,10.16,10.16,0,0,1-5.47.32,8.39,8.39,0,0,1-5.5-3.73,8.91,8.91,0,0,1-1.31-3.9,13.46,13.46,0,0,1,.07-4.16,25.54,25.54,0,0,1,1.06-4,34.56,34.56,0,0,1,3.3-6.81,54.34,54.34,0,0,1,4.51-6.11,16,16,0,0,1,2.49-2.38,18.7,18.7,0,0,1,2.91-1.81,13.53,13.53,0,0,1,1.53-.64,9.86,9.86,0,0,1,1.59-.42,5.54,5.54,0,0,1,3.55.42,8.07,8.07,0,0,1,2.77,2.35,3.6,3.6,0,0,1,.85,2,6.77,6.77,0,0,1-.21,2.16,13.76,13.76,0,0,1-2.06,4.76,26.16,26.16,0,0,1-13.06,10.72Zm1.49-3.9.14.14,1.7-.85a31.94,31.94,0,0,0,5-3.52,20.45,20.45,0,0,0,4-4.65,16.81,16.81,0,0,0,1.14-2.09,10,10,0,0,0,.71-2.31,6.41,6.41,0,0,0,.17-1.14,1.83,1.83,0,0,0-.32-1.13,7.31,7.31,0,0,0-2.37,1.06,13,13,0,0,0-2.17,1.81,23.82,23.82,0,0,0-1.85,2.17c-.56.76-1.06,1.44-1.49,2.06a37.08,37.08,0,0,0-2.52,4.08C248.33,135.52,247.63,137,247,138.49Z" transform="translate(-14.58 -50.39)"/><path id="s" class="cls-1" d="M275,129.33a34.42,34.42,0,0,0-1.7,5.71,19.21,19.21,0,0,0-.21,6l1.06-.92,7-6.46,1.42-1.07a2.12,2.12,0,0,1,2,0c.66.29.75.74.28,1.35l-.28.29-.29.28-9.87,9.8a1.89,1.89,0,0,0-.49,1.92c.33,1.27.65,2.55,1,3.83s.6,2.56.88,3.83a25.39,25.39,0,0,1,.64,8.31,11.7,11.7,0,0,1-6.18,10.08,12.9,12.9,0,0,1-11.35,1.21,3.66,3.66,0,0,1-.93-.39c-.28-.17-.57-.32-.85-.46a5,5,0,0,1-2.41-3.91,10.77,10.77,0,0,1,.14-3.55,14.88,14.88,0,0,1,1.13-3.33,41.58,41.58,0,0,1,3.23-5.61,61.21,61.21,0,0,1,4-5.11q1-1.22,1.95-2.31c.64-.74,1.29-1.43,1.95-2.1a2.84,2.84,0,0,0,.75-1.1,2.44,2.44,0,0,0,0-1.24,33.45,33.45,0,0,1-.46-4,30.94,30.94,0,0,1,0-4,32.11,32.11,0,0,1,3.4-12.14,8.43,8.43,0,0,1,1.35-1.88,6,6,0,0,1,1.85-1.32,4.23,4.23,0,0,1,1.56-.35,5.25,5.25,0,0,1,3.2,1.7,2,2,0,0,1,.49,2.2,8.8,8.8,0,0,0-.07,3.69c.1.38.19.75.29,1.11a1.47,1.47,0,0,0,.71.88,1.42,1.42,0,0,1,.42.5.79.79,0,0,1,.11.67.58.58,0,0,1-.53.39h-.86a2,2,0,0,1-.78-.14A6.67,6.67,0,0,1,275,129.33Zm-6.18,21.51a31.74,31.74,0,0,0-2.12,2.56c-.76,1-1.48,2-2.17,3.12s-1.33,2.17-1.92,3.23a18.61,18.61,0,0,0-1.31,2.81,22.59,22.59,0,0,0-.92,3.69,6.23,6.23,0,0,0,.42,3.69q.36.85.75,1a1.83,1.83,0,0,0,1.24-.21,10.5,10.5,0,0,0,6-7.24,20,20,0,0,0,.61-5.15c0-1.73-.13-3.47-.32-5.22Z" transform="translate(-14.58 -50.39)"/></g><g id="Layer_4" data-name="Layer 4"><path class="cls-2" d="M59.54,116.41c4.47-9.82,5.73-19.09,2-22.08-4.92-3.94-17.13,4.1-23.07,9.34-10.36,9.15-13.69,20.44-16.23,29-2.68,9.06-4.71,16.29-1.48,24.1,1.81,4.38,6.49,11.9,12.38,11.93,8.1,0,15.61-14.09,17.9-18.39,2.72-5.13,2.93-7.45,6-9.3,4.67-2.85,8.32.13,14.58-3.24,1.55-.83,5.33-2.87,6.15-6.84.08-.39.74-3.8-1.14-5.75-2.91-3-10.43-1-14.87,2.58-6.48,5.2-9.84,16.4-5,21.7,4.18,4.62,12.6,2.61,13.1,2.49,8.9-2.25,14.12-11.7,16.68-16.33s5.15-9.35,5.15-9.35c2-3.67,2.37-4.36,2.45-4.32.44.19-17.44,36.3-15.34,37.49,2.33,1.31,27.4-40.85,30.82-39,2.29,1.23-7.33,20.8-4.76,22.2,2,1.1,10.81-9.46,16.84-21.3,4.48-8.81,7.12-17.72,6.66-17.9-1.13-.44-24,50.82-20.38,52.76,2.17,1.17,14.14-15.36,19.64-23.57,4.21-6.31,7.47-12,7.85-11.78.89.47-17.25,30-13.07,33.29,1.14.9,6.35-3.58,16.63-12.45,8.11-7,12.26-10.6,17-15.67,11-11.75,13.31-17.89,14.3-21.72.39-1.5,2.4-9.29-.17-10.8s-8.86,4.08-12.26,8.33c-1.52,1.9-3.23,4.6-7.19,17.54-3.66,11.91-3.8,14.91-7.37,25-.77,2.18-1.35,3.69-2.47,7-4.16,12.27-4.27,15.25-3.94,17.71.06.48,1.18,8.24,4.34,8.73,4.34.67,12-12.37,8.76-18.29-.89-1.61-2.61-2.72-2.77-5.2-.12-1.86.75-2.94,1.74-5,3-6.14.89-8.17,3.55-11.83,1.31-1.79,1.75-1.21,6.89-4.89,5.68-4.09,7.58-6.56,8.21-6.1.93.68-2.18,6.7-4.72,10.91-5.64,9.35-10.3,12.71-9.24,14.43s6.71.42,10.5-1.57c5.81-3,8.62-8.52,9.87-11a43.87,43.87,0,0,0,2.56-6.43c2.37-7,1.89-9.61,3.9-10.58,0,0,1-.46,8.31,1.85,3.52,4.35,3.64,7,3.12,8.66-1.05,3.37-5.16,3.42-11.23,8.67-2.49,2.16-6.69,6.37-5.81,7.84.6,1,3.35.39,6.89-.39a28.74,28.74,0,0,0,8.76-3,24.61,24.61,0,0,0,3.07-1.87,14.53,14.53,0,0,0,4.78-5.2c1.89-4,.15-7.24,2.88-10.28.42-.47.39-.31,6.49-3.31,3.79-1.87,7.87-3.94,7.87-3.94a42.75,42.75,0,0,0,4.7,4.11c.25-.25-9.29-14.72-16.51-13.46-11,1.92-16.18,40.17-9.84,42.81,2.19.9,5.55-2.52,10.33-7.38,11-11.22,14.64-22.49,16-22s-.76,10.55-2.88,17.89c-1.53,5.33-2.73,7.92-2.09,8.31,1.26.77,8.14-7.68,13.28-15.19a151.24,151.24,0,0,0,18.48-37.26c.92.32-28.05,50.15-19.68,56.58,4.67,3.6,19.17-7.55,20.7-8.72A41.41,41.41,0,0,0,260.74,131c1.46-3.4,3-6.93,1.42-8.94-2.28-3-10.67-2-14.84,2.48-1.85,2-1.36,3-4.38,12.58-2.25,7.11-3,8-2.28,9.39,2,4.06,12.17,5.27,18.62,1.2,3-1.91,3.29-3.75,10.19-12,3.8-4.54,4.13-4.46,5.54-6.32,1.28-1.7,8.29-17.76,7-18.28-1.82-.73-21.14,27.86-12.87,42.06,2,3.37,5.93,6.71,5,11.07-.8,3.76-4.75,6-6.39,6.89-.66.37-7.37,4.13-10.6,1.57-3.54-2.82-.62-11.47-.28-12.47,4.25-12.61,17.52-20.23,27.76-25.94,7.76-4.33,8.88-3.84,10.18-6,6.58-10.76-12.45-39.67-35.42-56.09C223.42,46.5,182.05,54.38,130,64.31c-10.64,2-26.11,5.69-33.45,18.2-.36.61-8.3,14.57-2,24.11,3.1,4.68,8.29,6.26,10.33,6.89,10,3.07,15.74-3,31.06-1.33,3.13.33,4.58.76,6.53,1.1,26.58,4.62,47.46-24.76,67.2-18,10.27,3.52,7.85,12.58,21.65,17.21,10.89,3.66,22.93,1.55,27.44.76a72,72,0,0,0,13.4-3.71" transform="translate(-14.58 -50.39)"/></g></svg>