<?xml version="1.0" encoding="utf-8"?>
<!-- Generator: Adobe Illustrator 25.4.1, SVG Export Plug-In . SVG Version: 6.00 Build 0)  -->
<svg version="1.1" id="Layer_1" xmlns="http://www.w3.org/2000/svg" xmlns:xlink="http://www.w3.org/1999/xlink" x="0px" y="0px"
	 viewBox="-180 -150 400 400" style="enable-background:new 0 0 50 50;" xml:space="preserve">
<style type="text/css">
	.st0{fill:#888F99;}
	.st1{fill:#9AA2AF;}
	.st2{fill:#A0A0A0;}
	.st3{fill:#C5C5C5;}
	.st4{fill:#4F5660;}
	.st5{fill:#9AA3B1;}
	.st6{fill:#85E8E8;}
	.st7{fill:#A2F4F2;}
	.st8{fill:#383C43;}
	.st9{fill:#676B60;}
	.st10{fill:#6C6F60;}
	.st11{fill:#FDFDFD;}
	.st12{fill:#505860;}
	.st13{fill:#4F5760;}
	.st14{fill:#515860;}
	.st15{fill:#A0DAFA;}
	.st16{fill:#FCFCFC;}
	.st17{fill:#88D17E;}
	.st18{fill:#A0D9F8;}
	.st19{fill:#88D27E;}
	.st20{fill:#E5889C;}
	.st21{fill:#FAFAFB;}
	.st22{fill:#F9F9F9;}
	.st23{fill:#A1DBFB;}
	.st24{fill:#E4879C;}
</style>
<path class="st0" d="M-167-107.1c2.2-5.3,3.6-11,6.6-15.9c8.8-14.6,22.1-22.2,39.2-22.3c25.9-0.1,51.8,0,77.7,0.1
	c-0.5,2.2-1.1,4.3-1.5,6.5c-1.8,8.2-3.5,16.4-5.2,24.6c-0.2,0.1-0.5,0.2-0.7,0.3c-0.5-0.1-1-0.2-1.5-0.2c-20.8,0-41.6,0-62.4,0
	c-2,0-4,0.1-5.9,0.6c-9.6,2.6-15,10.2-15,21c0,24.2,0,48.4,0,72.5c0,27.3-0.1,54.6-0.1,81.9c-10.4,0-20.7,0.1-31.1,0.1
	C-167,5.7-167-50.7-167-107.1z"/>
<path class="st1" d="M-167,62.1c10.4,0,20.7-0.1,31.1-0.1c31.8,0,63.6,0,95.4,0c0.2,0.1,0.5,0.2,0.7,0.2
	c4.5,15.8,11.4,30.5,20.2,44.3c3,4.8,6.5,9.3,9.8,13.9c-1.4,0.1-2.7,0.1-4.1,0.2c-3.4,0.2-6.9,0.5-10.3,0.7
	c-1.6-0.1-3.2-0.2-4.9-0.2c-29.4,0-58.9,0.1-88.3-0.1c-9,0-17.8-1.1-25.8-5.8c-12.4-7.2-20.5-17.4-23.2-31.7
	c-0.1-0.5-0.4-0.8-0.7-1.3C-167,75.6-167,68.9-167,62.1z"/>
<path class="st2" d="M-50.2-114.1c1.7-8.2,3.5-16.4,5.2-24.6c0.5-2.2,1-4.3,1.5-6.5c0.9,0,1.7-0.1,2.6-0.1c70.1,0,140.2,0,210.3,0
	c22.6,0,40.7,14.1,45.7,35.6c0.7,3.1,1.1,6.4,1.1,9.6c0.1,53.5,0.1,107,0,160.5c0,0.5,0,1-0.1,1.5c-10.2,0-20.4,0-30.6,0
	c0-51,0-102.1-0.1-153.1c0-1.5-0.4-3.1-0.7-4.6c-2.2-10.3-8.3-16.5-18.8-18.1c-1.3-0.2-2.6-0.7-3.9-0.7c-44.3,0-88.6,0-132.9,0
	c-1.3,0-2.6,0.4-3.9,0.7c-0.3,0-0.5,0-0.8,0c-17.8,0-35.5,0-53.3-0.1C-35.8-114-43-114.1-50.2-114.1z"/>
<path class="st3" d="M185.6,62c10.2,0,20.4,0,30.6,0c-0.2,9.8,0.9,19.5-2.6,29.1c-6,16.3-23.6,29.5-41.2,29.4
	c-33.1-0.2-66.1-0.1-99.2-0.1c-20.1,0-40.1,0.1-60.2,0.1c-7.6,0-15.2-0.1-22.8-0.2c-3.3-4.6-6.8-9.1-9.8-13.9
	C-28.4,92.7-35.2,78-39.8,62.2c21.5-0.1,43-0.1,64.5-0.2c51.3,0,102.5,0,153.8,0.1c2.1,0,4.2-0.1,6.4-0.1
	C185.1,62,185.4,62,185.6,62z M24.6,107.8c9.7,0,16.6-6.7,16.6-16.3c0-9.6-6.9-16.7-16.2-16.7c-9.7,0-16.8,6.9-16.8,16.6
	C8.1,101,14.9,107.8,24.6,107.8z"/>
<path class="st4" d="M-9.7,120.4c7.6,0.1,15.2,0.2,22.8,0.2c20.1,0,40.1-0.1,60.2-0.1c2.2,15,4.4,29.9,6.7,44.9
	c-22.9,0-45.8,0.1-68.7,0.1c-14,0-27.9-0.1-41.9-0.1c1.8-12.5,3.7-25.1,5.5-37.6c0.3-2.2,0.7-4.4,1-6.5c3.4-0.2,6.9-0.5,10.3-0.7
	C-12.5,120.6-11.1,120.5-9.7,120.4z"/>
<path class="st3" d="M11.2,165.6c22.9,0,45.8-0.1,68.7-0.1c3.8,0.2,7.7,0.2,11.5,0.8c7,1.1,11.4,5.4,14.2,11.8
	c5.2,12.1,0.3,18.6-12.7,18.3c-24.8-0.7-49.5-0.2-74.3-0.3C11.6,187,10.3,176.6,11.2,165.6z"/>
<path class="st5" d="M11.2,165.6c-1,11,0.4,21.4,7.4,30.5c-22.4,0-44.8,0.1-67.2,0c-6.8,0-11.2-5.9-9.5-12.5
	c3.4-13.3,9.6-18.1,23.4-18.1c1.4,0,2.7,0,4.1-0.1C-16.7,165.5-2.7,165.5,11.2,165.6z"/>
<path class="st6" d="M-40.5,62c-31.8,0-63.6,0-95.4,0c0-27.3,0.1-54.6,0.1-81.9c0-24.2,0-48.4,0-72.5c0-10.8,5.4-18.3,15-21
	c1.9-0.5,3.9-0.6,5.9-0.6c20.8,0,41.6,0,62.4,0c0.5,0,1,0.1,1.5,0.2c0,1,0,2-0.1,3c-1.4,10.6-3.4,21.2-4.2,31.9
	c-0.9,11.2-0.7,22.5-0.9,33.8c0,0.8,0.4,1.6,0.6,2.5c-2.4,6.7-4.8,13.3-7.2,20c-3.7,10.2-7.4,20.3-11.1,30.5
	c-1.5,4.3,0.7,8.2,4.6,8.4c3.4,0.1,5.1-2.1,6.2-5c2.7-7.3,5.5-14.7,8.2-22c0.3,1.7,0.7,3.4,0.9,5.1c2.3,13.8,4.2,27.7,6.8,41.4
	C-45.4,44.5-42.7,53.2-40.5,62z M-96.9-26.3c6.4-6.4,12.5-12.5,18.6-18.5c3.2-3.2,3.7-6.7,1.4-9.1c-2.4-2.5-6-2.1-9.1,1.1
	c-7.2,7.2-14.5,14.4-21.7,21.7c-3.5,3.5-3.5,6.4,0,9.9c7.2,7.2,14.4,14.5,21.7,21.7c3.2,3.2,6.8,3.5,9.1,1c2.2-2.4,1.8-5.9-1.2-8.9
	C-84.2-13.6-90.4-19.8-96.9-26.3z"/>
<path class="st7" d="M-40.5,62c-2.3-8.8-5-17.4-6.7-26.3C-49.8,22-51.7,8.1-54-5.7c-0.3-1.7-0.6-3.4-0.9-5.1
	c0.7-2.1,1.3-4.3,2.1-6.4c5.1-14.1,10.3-28.2,15.4-42.4c1.7-4.6,0.5-7.7-3.2-8.8c-3.1-0.9-5.7,0.5-7.1,4.3
	c-2.7,7.1-5.2,14.2-7.8,21.3c-0.2-0.8-0.6-1.6-0.6-2.5c0.2-11.3,0-22.6,0.9-33.8c0.8-10.7,2.8-21.3,4.2-31.9c0.1-1,0.1-2,0.1-3
	c0.2-0.1,0.5-0.2,0.7-0.3c7.2,0.1,14.4,0.2,21.6,0.2c17.8,0.1,35.5,0.1,53.3,0.1c0,58.6,0,117.3,0,175.9c-21.5,0.1-43,0.1-64.5,0.2
	C-40,62.1-40.2,62.1-40.5,62z M-14.2-26.6c-1.3,1.4-2.1,2.4-3,3.2C-22.5-18-27.9-12.7-33.3-7.2C-36.4-4-36.6-1-34,1.6
	c2.4,2.3,5.7,2.1,8.6-0.8C-18-6.6-10.5-14-3.2-21.4c3.5-3.5,3.5-6.2,0-9.7c-7.3-7.4-14.6-14.7-21.9-22c-3.1-3.1-6.4-3.4-8.9-1
	c-2.7,2.6-2.4,5.7,1,9.1c4.2,4.3,8.4,8.5,12.7,12.7C-18.4-30.4-16.3-28.6-14.2-26.6z"/>
<path class="st8" d="M24.7,62c0-58.6,0-117.3,0-175.9c0.3,0,0.5,0,0.8,0c46.9,0,93.8,0,140.7,0c10.5,1.6,16.6,7.8,18.8,18.1
	c0,6.4,0,12.7,0,19.1c0,46.2,0,92.5-0.1,138.7c-2.1,0-4.2,0.1-6.4,0.1C127.2,62.1,76,62.1,24.7,62z M82.8,0.8c7.5,0,14.9,0,22.4,0
	c4.1,0,6.7-2,6.8-5.3c0.1-3.4-2.6-5.9-6.7-5.9c-14.9-0.1-29.9-0.1-44.8,0c-4,0-6.6,2.3-6.6,5.6c0,3.3,2.5,5.6,6.5,5.6
	C67.9,0.8,75.4,0.8,82.8,0.8z M82.1-41.2c7.2,0,14.5,0,21.7,0c4.3,0,6.9-2.2,6.9-5.6c0-3.4-2.6-5.6-6.9-5.6c-14.3,0-28.7,0-43,0
	c-4.3,0-6.9,2.2-6.9,5.6c0,3.4,2.6,5.6,6.9,5.6C67.9-41.2,75-41.2,82.1-41.2z M120.8-20.2c6.7,0,13.4,0,20.2,0c4.5,0,6.7-2,6.6-5.7
	c-0.1-3.4-2.4-5.5-6.6-5.5c-13.4,0-26.9,0-40.3,0c-4.1,0-6.5,2.2-6.5,5.6c0,3.5,2.3,5.6,6.4,5.6C107.4-20.2,114.1-20.2,120.8-20.2z
	 M115.7,21.9c4.5,0,9,0.1,13.5,0c3.8-0.1,6.2-2.2,6.3-5.4c0.1-3.2-2.3-5.7-6-5.8c-9.2-0.1-18.4-0.1-27.7,0c-3.8,0-6.1,2.4-6,5.7
	c0,3.4,2.2,5.4,6.2,5.5C106.4,21.9,111.1,21.9,115.7,21.9z M114.4-73.4c-4.4,0-8.7-0.1-13.1,0c-3.3,0.1-5.5,2.3-5.6,5.3
	c-0.1,3.2,2,5.8,5.4,5.9c8.6,0.2,17.2,0.1,25.8,0c3.5-0.1,5.7-2.5,5.6-5.7c0-3.2-2.3-5.4-5.8-5.5C122.6-73.5,118.5-73.4,114.4-73.4z
	 M137.9-41.2c3.9,0,7.7,0.1,11.6,0c3.8-0.1,6.1-2.2,6.2-5.5c0-3.3-2.3-5.6-6-5.7c-7.8-0.1-15.7-0.1-23.5,0c-3.6,0-5.8,2.3-5.8,5.5
	c0,3.3,2.2,5.6,6,5.7C130.2-41.1,134.1-41.2,137.9-41.2z M138.5,0.8c3.7,0,7.5,0.1,11.2,0c3.6-0.1,5.9-2.1,6-5.2
	c0.2-3.3-2.1-5.9-5.8-5.9c-7.5-0.2-14.9-0.1-22.4,0c-3.7,0.1-6,2.7-5.9,5.9c0.1,3.1,2.4,5.2,6,5.3C131.2,0.9,134.8,0.8,138.5,0.8z
	 M69.8,21.9c3.5,0,7,0.1,10.5,0c3.5-0.1,5.8-2.4,5.8-5.5c0-3-2.1-5.5-5.4-5.6c-7.1-0.2-14.2-0.2-21.3,0c-3.2,0.1-5.4,2.6-5.5,5.6
	c0,3.1,2.3,5.4,5.8,5.6C63,22,66.4,21.9,69.8,21.9z M69.8-62.2c3.4,0,6.7,0.1,10.1,0c3.7-0.1,6.2-2.4,6.2-5.6c0-3.2-2.4-5.6-6.1-5.6
	c-6.6-0.1-13.2-0.1-19.8,0c-3.7,0-6.2,2.3-6.2,5.5c0,3.2,2.4,5.5,6.1,5.7C63.3-62.1,66.5-62.2,69.8-62.2z M69.4-31.4
	c-3.2,0-6.5-0.1-9.7,0c-3.5,0.1-5.8,2.5-5.8,5.6c0,3.1,2.4,5.5,5.8,5.5c6.4,0.1,12.7,0.1,19.1,0c3.5-0.1,5.8-2.4,5.8-5.5
	c0-3.2-2.3-5.5-5.8-5.6C75.7-31.5,72.6-31.4,69.4-31.4z"/>
<path class="st9" d="M184.8,62c0-46.2,0-92.5,0.1-138.7c0-6.4,0-12.7,0-19.1c0.2,1.5,0.7,3.1,0.7,4.6c0,51,0,102.1,0.1,153.1
	C185.4,62,185.1,62,184.8,62z"/>
<path class="st10" d="M166.1-113.9c-46.9,0-93.8,0-140.7,0c1.3-0.2,2.6-0.7,3.9-0.7c44.3,0,88.6,0,132.9,0
	C163.5-114.6,164.8-114.1,166.1-113.9z"/>
<path class="st11" d="M24.6,107.8c-9.6,0-16.4-6.8-16.4-16.5c0-9.6,7.1-16.6,16.8-16.6c9.4,0,16.3,7.2,16.2,16.7
	C41.1,101.1,34.3,107.9,24.6,107.8z"/>
<path class="st12" d="M-55.6-42.7C-53-49.8-50.4-57-47.8-64c1.4-3.8,4-5.2,7.1-4.3c3.7,1.1,4.9,4.2,3.2,8.8
	c-5.1,14.1-10.3,28.2-15.4,42.4c-0.8,2.1-1.4,4.2-2.1,6.4c-2.7,7.3-5.5,14.7-8.2,22c-1.1,2.9-2.8,5.1-6.2,5
	c-3.9-0.2-6.1-4.1-4.6-8.4c3.6-10.2,7.4-20.4,11.1-30.5C-60.4-29.4-58-36.1-55.6-42.7z"/>
<path class="st13" d="M-96.9-26.3c6.5,6.5,12.7,12.7,18.8,18.8c3,3,3.4,6.5,1.2,8.9c-2.3,2.5-6,2.1-9.1-1
	c-7.2-7.2-14.5-14.4-21.7-21.7c-3.5-3.5-3.5-6.4,0-9.9c7.2-7.2,14.4-14.5,21.7-21.7c3.2-3.2,6.8-3.6,9.1-1.1
	c2.3,2.5,1.8,5.9-1.4,9.1C-84.4-38.7-90.5-32.7-96.9-26.3z"/>
<path class="st14" d="M-14.2-26.6c-2.1-2-4.2-3.8-6.1-5.7c-4.3-4.2-8.5-8.4-12.7-12.7c-3.4-3.4-3.7-6.5-1-9.1c2.4-2.4,5.8-2,8.9,1
	c7.3,7.3,14.7,14.6,21.9,22c3.5,3.5,3.5,6.2,0,9.7C-10.5-14-18-6.6-25.4,0.8c-2.9,2.9-6.2,3.1-8.6,0.8C-36.6-1-36.4-4-33.3-7.2
	c5.3-5.4,10.7-10.8,16.1-16.2C-16.3-24.3-15.5-25.2-14.2-26.6z"/>
<path class="st15" d="M82.8,0.8c-7.5,0-14.9,0-22.4,0c-4,0-6.5-2.3-6.5-5.6c0-3.3,2.6-5.6,6.6-5.6c14.9-0.1,29.9-0.1,44.8,0
	c4.2,0,6.9,2.5,6.7,5.9c-0.1,3.3-2.7,5.3-6.8,5.3C97.8,0.8,90.3,0.8,82.8,0.8z"/>
<path class="st16" d="M82.1-41.2c-7.1,0-14.2,0-21.3,0c-4.3,0-6.9-2.2-6.9-5.6c0-3.4,2.6-5.6,6.9-5.6c14.3,0,28.7,0,43,0
	c4.3,0,6.9,2.2,6.9,5.6c0,3.4-2.6,5.6-6.9,5.6C96.6-41.2,89.4-41.2,82.1-41.2z"/>
<path class="st17" d="M120.8-20.2c-6.7,0-13.4,0-20.2,0c-4.1,0-6.4-2.1-6.4-5.6c0-3.4,2.4-5.6,6.5-5.6c13.4,0,26.9,0,40.3,0
	c4.2,0,6.5,2.1,6.6,5.5c0.1,3.7-2.2,5.7-6.6,5.7C134.2-20.2,127.5-20.2,120.8-20.2z"/>
<path class="st18" d="M115.7,21.9c-4.6,0-9.2,0.1-13.8,0c-4-0.1-6.1-2.1-6.2-5.5c0-3.3,2.2-5.7,6-5.7c9.2-0.1,18.4-0.1,27.7,0
	c3.7,0,6.1,2.5,6,5.8c-0.1,3.2-2.5,5.4-6.3,5.4C124.6,21.9,120.2,21.9,115.7,21.9z"/>
<path class="st19" d="M114.4-73.4c4.1,0,8.2-0.1,12.3,0c3.5,0.1,5.8,2.3,5.8,5.5c0,3.2-2.1,5.6-5.6,5.7c-8.6,0.1-17.2,0.1-25.8,0
	c-3.4-0.1-5.6-2.6-5.4-5.9c0.1-3,2.3-5.2,5.6-5.3C105.7-73.5,110-73.4,114.4-73.4z"/>
<path class="st20" d="M137.9-41.2c-3.9,0-7.7,0.1-11.6,0c-3.7-0.1-6-2.3-6-5.7c0-3.2,2.2-5.4,5.8-5.5c7.8-0.1,15.7-0.1,23.5,0
	c3.7,0,6.1,2.4,6,5.7c0,3.3-2.4,5.4-6.2,5.5C145.6-41.1,141.8-41.2,137.9-41.2z"/>
<path class="st21" d="M138.5,0.8c-3.6,0-7.2,0.1-10.8,0c-3.6-0.1-5.9-2.2-6-5.3c-0.2-3.2,2.2-5.8,5.9-5.9c7.5-0.1,14.9-0.1,22.4,0
	c3.7,0.1,6,2.6,5.8,5.9c-0.2,3.2-2.4,5.2-6,5.2C145.9,0.9,142.2,0.8,138.5,0.8z"/>
<path class="st22" d="M69.8,21.9c-3.4,0-6.7,0.1-10.1,0c-3.5-0.1-5.8-2.5-5.8-5.6c0-2.9,2.2-5.5,5.5-5.6c7.1-0.2,14.2-0.2,21.3,0
	c3.3,0.1,5.4,2.6,5.4,5.6c0,3.1-2.3,5.4-5.8,5.5C76.8,22,73.3,21.9,69.8,21.9z"/>
<path class="st23" d="M69.8-62.2c-3.2,0-6.5,0.1-9.7,0c-3.7-0.1-6.2-2.4-6.1-5.7c0-3.2,2.5-5.5,6.2-5.5c6.6-0.1,13.2-0.1,19.8,0
	c3.7,0,6.1,2.4,6.1,5.6c0,3.2-2.4,5.5-6.2,5.6C76.5-62.1,73.1-62.2,69.8-62.2z"/>
<path class="st24" d="M69.4-31.4c3.1,0,6.2-0.1,9.3,0c3.5,0.2,5.7,2.5,5.8,5.6c0,3.1-2.3,5.5-5.8,5.5c-6.4,0.1-12.7,0.1-19.1,0
	c-3.4-0.1-5.8-2.5-5.8-5.5c0-3.1,2.4-5.5,5.8-5.6C63-31.5,66.2-31.4,69.4-31.4z"/>
</svg>
