<?xml version="1.0" encoding="utf-8"?>
<!-- Generator: Adobe Illustrator 25.4.1, SVG Export Plug-In . SVG Version: 6.00 Build 0)  -->
<svg version="1.1" xmlns="http://www.w3.org/2000/svg" xmlns:xlink="http://www.w3.org/1999/xlink" x="0px" y="0px"
	 viewBox="-100 -100 250 250" style="enable-background:new 0 0 50 50;" xml:space="preserve">
<style type="text/css">
	.st0{display:none;}
	.st1{display:inline;fill:#212020;}
	.st2{display:inline;fill:#E6E6E6;}
	.st3{display:inline;fill:#BBBBBB;}
	.st4{display:inline;fill:#444243;}
	.st5{display:inline;fill:#363535;}
	.st6{display:inline;fill:#030303;}
	.st7{display:inline;fill:#0D0C0C;}
	.st8{display:inline;fill:#282727;}
	.st9{display:inline;fill:#3D3B3B;}
	.st10{display:inline;fill:#302F2F;}
	.st11{display:inline;fill:#141313;}
	.st12{display:inline;fill:#191818;}
	.st13{display:inline;fill:#B438BD;}
	.st14{display:inline;fill:#DF40EC;}
	.st15{display:inline;fill:#6C2B70;}
	.st16{display:inline;fill:#8B3292;}
	.st17{display:inline;fill:#8C8B8B;}
	.st18{display:inline;fill:#060506;}
	.st19{display:inline;fill:#464444;}
	.st20{display:inline;fill:#413F3F;}
	.st21{display:inline;fill:#2D2C2C;}
	.st22{display:inline;fill:#3A3939;}
	.st23{display:inline;fill:#323031;}
	.st24{display:inline;fill:#828181;}
	.st25{display:inline;fill:#201F1F;}
	.st26{display:inline;fill:#E641F2;}
	.st27{display:inline;fill:#484546;}
	.st28{display:inline;fill:#080808;}
	.st29{fill:#1C1C1C;}
	.st30{fill:#282828;}
	.st31{fill:#494949;}
	.st32{fill:none;stroke:#C319DB;stroke-width:4;stroke-miterlimit:10;}
</style>
<g id="Layer_1" class="st0">
	<path class="st1" d="M-73.2,58.5c-0.1-0.3-0.2-0.7-0.3-1c0.1-0.8,0.4-1.6,0.4-2.3c0.1-4.4,0.1-8.8,0.1-13.2
		c0.1-3.4,0.2-6.7,0.4-10.1c-0.1-3-0.1-6-0.2-9c0.1-1.5,0.2-2.9,0.2-4.4c0.2-3.5,0.3-7,0.5-10.6c-0.1-3.3-0.1-6.7-0.2-10
		c0.1-0.8,0.1-1.6,0.2-2.4c0.2-0.7,0.6-1.3,0.6-2c0.1-3.2,0.1-6.5,0.1-9.7c0-0.8-0.3-1.5-0.5-2.3c0-0.3,0-0.7,0-1
		c0.3-0.1,0.6-0.2,0.9-0.2c0.8,1.4,1.7,2.8,2.5,4.2c0.3,0.7,0.7,1.4,1,2.1c0.4,0.8,0.7,1.6,1.1,2.5c-0.2,3.3-0.3,6.7-0.5,10
		c0,2.2,0,4.3,0,6.5c-0.2,2.5-0.3,5-0.5,7.5c0,2.2,0,4.3,0,6.5c0,1.6-0.1,3.2,0,4.7c0.1,0.8,0.4,1.8,0.9,2.4
		c1.5,1.7,3.1,3.2,4.7,4.8c5,5.1,9.9,10.3,14.9,15.4c6.8,7,13.6,13.9,20.4,20.8c3.3,3.4,6.7,6.6,10,10C-11.4,83.1-6.4,88.6-1.2,94
		c3.9,4.1,7.9,8.3,11.9,12.3c0.9,0.9,2.2,1.4,3.2,2.2c-0.3,2.8-0.7,5.7-1,8.5c-0.8-0.6-1.7-1-2.4-1.7c-8.2-8.5-16.4-17-24.6-25.5
		c-8.8-9.2-17.6-18.4-26.5-27.5c-8.3-8.5-16.6-17-25-25.5c-0.6-0.6-1.3-0.9-2.5-1.6c0,2.2,0,3.8,0,5.4c0,2,0,4,0,6
		c-0.2,2.3-0.3,4.7-0.5,7c0,1,0.1,2,0,3c-0.4,2.7,0.8,4.6,2.7,6.5c5.2,5.2,10.1,10.8,15.2,16.1c7.1,7.5,14.2,14.9,21.4,22.4
		c5.8,6.1,11.7,12.1,17.6,18.1c0.3,0.3,0.6,0.6,0.9,0.9C-3.9,127.6,3,134.8,9.9,142c0.7,1.5,1.4,3,2.1,4.5c0.1,0.2,0.3,0.5,0.4,0.7
		c0,0.1,0,0.2,0.1,0.3c0.2,0.2,0.3,0.4,0.5,0.6c0,0.3,0,0.6,0,0.9c-0.6-0.3-1.2-0.5-1.7-0.9C-15.9,119.6-43.1,91-70.3,62.4
		C-71.4,61.2-72.3,59.8-73.2,58.5z"/>
	<path class="st1" d="M115.9,77.5c-0.3,0.3-0.7,0.6-1,1c-1.1,0.8-2.3,1.6-3.4,2.4c-31.3,22.5-62.6,45-93.9,67.5
		c-0.4,0.3-1,0.5-1.5,0.7c0-0.4,0-0.9-0.1-1.3c0.3-0.4,0.7-0.8,1-1.2c1-1.2,2-2.4,3-3.6c6.2-4.4,12.4-8.8,18.6-13.3
		c23-16.5,46-33.1,69.2-49.4c3-2.1,4.1-4.5,4.2-7.8c0.5-1.8,1-3.7,1.5-5.5c0.2-1.2,0.4-2.3,0.5-3.5c0.3-1.3,0.7-2.7,1-4
		c0.3-1.3,0.7-2.7,1-4c0.3-1.5,0.7-3,1-4.5c0.4-1.6,0.7-3.1,1.3-5.4c-1.5,0.7-2.3,1-3,1.5c-3.3,2.3-6.5,4.6-9.7,6.9
		C93,62.8,80.4,71.5,67.9,80.4C54.3,90,40.7,99.8,27,109.4c-0.8,0.6-2,0.7-2.9,1.1c0.4-2.9,0.9-5.8,1.3-8.7c0.6,0.1,1.3,0.5,1.6,0.2
		c1.5-0.8,3-1.8,4.4-2.8C41.6,92,51.7,84.8,61.8,77.6c9.1-6.4,18.2-12.8,27.3-19.1c7.7-5.4,15.3-10.8,23.1-16
		c4.9-3.2,9.5-6.4,9.8-13c0.3-1.7,0.7-3.3,1-5c0.3-2,0.7-4,1-6c0.8-3.5,1.6-7,2.5-10.5c0.5-0.8,1.1-1.7,1.6-2.5c0,0-0.1,0-0.1,0
		c0.3-0.3,0.7-0.7,1-1c0,0,0,0,0,0c0.2-0.2,0.4-0.4,0.6-0.5c1-1,1.9-2,2.9-3c0,0.7,0,1.3-0.1,2c-2.7,11.9-5.5,23.7-8.2,35.6
		c-1.2,5.5-2.3,11-3.5,16.5c-0.1,0.3-0.1,0.6-0.2,0.9c-0.8,3.4-1.6,6.7-2.3,10.1c-0.1,0.3-0.1,0.6-0.2,0.9c-0.4,1.9-0.9,3.7-1.3,5.6
		c-0.1,0.3-0.1,0.6-0.2,0.9c-0.2,1.2-0.4,2.4-0.7,3.5C115.9,77.2,116,77.3,115.9,77.5z"/>
	<path class="st2" d="M115.9,77.5c0-0.1,0-0.3,0-0.4c0.5-1.2,0.9-2.4,1.4-3.5c0.1-0.3,0.2-0.7,0.3-1c0-0.3,0.1-0.6,0.1-0.9
		c0.1-0.4,0.2-0.7,0.3-1.1c0.2-1.2,0.5-2.3,0.7-3.5c0.1-0.3,0.2-0.7,0.3-1c0-0.3,0.1-0.6,0.1-0.9c0.1-0.4,0.2-0.7,0.3-1.1
		c0.2-1.1,0.5-2.3,0.7-3.4c0.1-0.4,0.2-0.7,0.3-1.1c0-0.3,0.1-0.6,0.1-0.9c0.1-0.4,0.2-0.7,0.3-1.1c0.1-0.5,0.2-1,0.3-1.5
		c0.1-0.3,0.2-0.7,0.3-1c0-0.3,0.1-0.6,0.1-0.9c0.1-0.4,0.2-0.7,0.3-1.1c0-0.3,0.1-0.6,0.1-0.9c0.1-0.4,0.2-0.7,0.3-1.1
		c0.1-0.5,0.1-0.9,0.2-1.4c0.1-0.4,0.2-0.7,0.3-1.1c0-0.3,0.1-0.6,0.1-0.9c0.1-0.4,0.2-0.7,0.3-1.1c0-0.3,0.1-0.6,0.1-0.9
		c0.1-0.4,0.2-0.7,0.3-1.1c0.1-0.5,0.1-0.9,0.2-1.4c0.1-0.4,0.2-0.7,0.3-1.1c0-0.3,0.1-0.6,0.1-0.9c0.1-0.4,0.2-0.7,0.3-1.1
		c0.2-1.1,0.5-2.3,0.7-3.4c0.1-0.4,0.2-0.7,0.3-1.1c0-0.3,0.1-0.6,0.1-0.9c0.1-0.4,0.2-0.7,0.3-1.1c0.1-0.5,0.1-0.9,0.2-1.4
		c0.1-0.4,0.2-0.7,0.3-1.1c0-0.3,0.1-0.6,0.1-0.9c0.1-0.4,0.2-0.7,0.3-1.1c0-0.3,0.1-0.6,0.1-0.9c0.1-0.4,0.2-0.7,0.3-1.1
		c0.1-0.5,0.1-0.9,0.2-1.4c0.1-0.4,0.2-0.7,0.3-1.1c0-0.3,0.1-0.6,0.1-0.9c0.1-0.4,0.2-0.7,0.3-1.1c0-0.3,0.1-0.6,0.1-0.9
		c0.1-0.4,0.2-0.7,0.3-1.1c0.1-0.5,0.1-0.9,0.2-1.4c0.1-0.4,0.2-0.7,0.3-1.1c0-0.3,0.1-0.6,0.1-0.9c0.1-0.4,0.2-0.7,0.3-1.1
		c0-0.3,0.1-0.6,0.1-0.9c0.1-0.4,0.2-0.7,0.3-1.1c0.1-0.5,0.1-0.9,0.2-1.4c0.1-0.4,0.2-0.7,0.3-1.1c0-0.3,0.1-0.6,0.1-0.9
		c0.1-0.4,0.2-0.7,0.3-1.1c0-0.3,0.1-0.6,0.1-0.9c0.1-0.4,0.2-0.7,0.4-1.1c0.4-1.3,0.7-2.6,1.1-3.9c1.9-2,2.1-4.2,0.2-6
		c-2.6-2.5-5.3-5-8-7.5c-6.6-6.2-13.1-12.4-19.7-18.6c-0.5-0.5-1.4-0.7-2.1-1l0,0c-0.1-0.4-0.2-0.9-0.4-1.1
		c-4.5-4.3-8.9-8.6-13.5-12.9c-0.4-0.3-1.1-0.3-1.6-0.5l0,0c-0.1-0.4-0.2-0.9-0.4-1.1c-4.5-4.3-8.9-8.6-13.5-12.9
		c-0.4-0.3-1.1-0.3-1.6-0.5l0,0c-0.1-0.4-0.2-0.9-0.4-1.1c-4.5-4.3-8.9-8.6-13.5-12.9c-0.4-0.3-1.1-0.3-1.6-0.5l0,0
		c-1.5-1.8-3-3.6-4.7-5.3C52.1-79.1,51-79.5,50-80c-0.2-0.2-0.3-0.3-0.5-0.5c-2.5-4-5.9-7-10-9.2c-0.4-0.2-1,0.1-1.5,0.1
		c-0.3,0-0.7,0-1,0.1c-2.3-1-3.7,0.4-5,2c-0.1,0-0.3,0.1-0.4,0.1c-0.5,0.1-1.2,0.2-1.6,0.5c-4,2.5-8,5-12.1,7.5
		C0-68.2-18-57-35.9-45.8C-48-38.2-60-30.6-72.1-23c-1.8,1.1-2,3.5-0.6,5.5c0,2.2,0,4.4,0.1,6.7c0.1,2.1,0.3,4.2,0.4,6.3
		c-0.1,0.8-0.1,1.6-0.2,2.4c-0.4,0.3-1,0.6-1,0.8c0,3.1,0.2,6.2,0.3,9.3c0,0.9,0,1.8,0,2.7c0.1,2.6,0.2,5.2,0.4,7.8
		c-0.1,1.5-0.2,2.9-0.2,4.4c-0.3,0.2-0.9,0.4-0.9,0.6c0,2.8,0.2,5.7,0.3,8.5c0,1.1,0,2.3,0,3.4c-0.3,0-0.6,0-0.9,0.1
		c-0.2-1-0.5-1.9-0.4-2.9c0.1-12.9,0.3-25.8,0.5-38.7c0.1-5-0.1-9.9,0.1-14.9c0-1,0.7-2.5,1.5-3c4.5-3,9.1-5.7,13.7-8.6
		c20-12.5,40-25,59.9-37.6C10.1-76,19.5-82,28.9-87.9c1.5-0.9,3.1-1.5,4.6-2.4c4.1-2.4,7.5-0.7,10.4,2c7.7,7,15.3,14.3,23,21.4
		c7.5,7,15.1,14.1,22.6,21.1c7.8,7.3,15.6,14.7,23.5,22c6.6,6.2,13,12.6,20,18.3c3.7,3,3.5,5.5,2.1,9.5c-2.2,6.6-3.5,13.6-5.1,20.5
		c-3.7,15.9-7.3,31.8-11.1,47.7C118.4,74.1,117,75.7,115.9,77.5z"/>
	<path class="st3" d="M16.1,149.1c0.5-0.2,1.1-0.4,1.5-0.7c31.3-22.5,62.6-45,93.9-67.5c1.1-0.8,2.3-1.6,3.4-2.4
		c-0.9,1-1.6,2.3-2.7,3.1c-24.8,17.9-49.6,35.8-74.4,53.6c-6,4.3-12.1,8.5-18,12.9c-1.3,1-2.3,2.4-3.4,3.5c-0.5,0.5-1.1,1.2-1.5,1.1
		c-1.3-0.3-2.8-0.6-3.6-1.5c-1.6-1.7-2.5-4-4.1-5.7c-8.8-9.3-17.7-18.5-26.6-27.8c-6.7-7-13.3-14-20-21c-9.7-10.2-19.4-20.4-29-30.6
		c-1.7-1.8-3.2-3.8-4.7-5.8c-0.3-0.4-0.1-1.3-0.1-1.9c1,1.3,1.8,2.8,3,3.9c27.2,28.6,54.4,57.2,81.6,85.7c0.4,0.4,1.1,0.6,1.7,0.9
		c0,0,0-0.1,0-0.1c0.2,0.4,0.4,0.9,0.5,1.3c0.2,0.1,0.5,0.2,0.7,0.2c0.3-0.3,0.5-0.7,0.8-1l0,0C15.3,149.4,15.7,149.2,16.1,149.1
		L16.1,149.1z"/>
	<path class="st3" d="M-74.5,35.5c0.3,0,0.6,0,0.9-0.1c0.2,2.2,0.3,4.4,0.5,6.5c0,4.4,0,8.8-0.1,13.2c0,0.8-0.3,1.6-0.4,2.3
		c-0.3-0.5-0.7-1-1-1.5c0-3.7,0-7.4,0-11.1C-74.6,41.8-74.6,38.6-74.5,35.5z"/>
	<path class="st2" d="M-74.6,45c0,3.7,0,7.4,0,11.1c-0.2-0.1-0.4-0.1-0.4-0.2c0-3.6,0-7.1,0-10.7C-75,45.1-74.8,45-74.6,45z"/>
	<path class="st4" d="M-67-1c0.2-3.3,0.3-6.7,0.5-10c6.3,6.3,12.5,12.7,18.8,19c19,19.2,38,38.4,56.9,57.6c3,3.1,5.9,6.3,8.8,9.5
		c-0.4,2.7-0.8,5.3-1.1,8c-0.7-0.4-1.5-0.8-2-1.4c-1.7-1.7-3.2-3.6-4.9-5.3c-9.3-9.5-18.6-19-27.9-28.4C-31.5,34-45.2,20.2-58.9,6.4
		c-1.8-1.8-3.4-3.9-5.2-5.6C-64.9,0-66-0.4-67-1z"/>
	<path class="st5" d="M-67.5,13c0.2-2.5,0.3-5,0.5-7.5c0.8,0.6,1.7,1,2.4,1.7c6.5,6.6,12.9,13.2,19.3,19.8
		c8.9,9.1,17.9,18.2,26.8,27.3c10.8,11,21.6,21.9,32.4,32.9c0.7,0.7,1.6,1,2.5,1.5c-0.3,2.5-0.7,4.9-1,7.4c-0.8-0.4-1.7-0.6-2.3-1.2
		c-1.7-1.7-3.2-3.6-4.9-5.3C0.7,81.7-6.9,74-14.4,66.3c-5.9-6.1-11.8-12.1-17.7-18.2c-6.7-6.8-13.3-13.7-20-20.5
		c-4.5-4.6-9-9.3-13.6-13.9C-66.1,13.3-66.9,13.2-67.5,13z"/>
	<path class="st6" d="M9.9,142c-6.9-7.2-13.8-14.3-20.8-21.5c-0.3-0.3-0.6-0.6-0.9-0.9c-5.9-6-11.7-12-17.6-18.1
		c-7.1-7.4-14.3-14.9-21.4-22.4c-5.1-5.4-10-10.9-15.2-16.1c-1.9-1.9-3.1-3.8-2.7-6.5c0.1-1,0-2,0-3c0.7,0.5,1.6,0.9,2.2,1.5
		c2.4,2.5,4.7,5.1,7.2,7.6c7.9,8.2,15.9,16.2,23.8,24.4c4.9,5.1,9.7,10.4,14.7,15.5c5.5,5.8,11.1,11.4,16.6,17.2
		c0.4,0.4,0.7,0.9,1.1,1.4c3.8,4,7.5,8,11.3,11.9c0.7,0.7,1.7,1,2.5,1.5C10.6,137,10.2,139.5,9.9,142z"/>
	<path class="st7" d="M10.9,134.5C10,134,9,133.7,8.4,133c-3.8-3.9-7.6-7.9-11.3-11.9c-0.4-0.4-0.7-0.9-1.1-1.4
		c-5.5-5.7-11.1-11.4-16.6-17.2c-4.9-5.1-9.7-10.4-14.7-15.5c-7.9-8.2-15.9-16.3-23.8-24.4c-2.4-2.5-4.7-5.1-7.2-7.6
		c-0.6-0.6-1.5-1-2.2-1.5c0.2-2.3,0.3-4.7,0.5-7c0.4,0.1,0.9,0.2,1.1,0.4c3.8,3.7,7.5,7.5,11.2,11.3c4,4.2,7.9,8.5,11.9,12.7
		c4.1,4.2,8.3,8.3,12.4,12.5c4.9,5.1,9.6,10.3,14.5,15.4c5.3,5.5,10.7,11,16,16.5c2.2,2.3,4.2,4.7,6.4,6.9c1.9,1.9,4.1,3.6,6.1,5.4
		C11.3,129.8,11.1,132.2,10.9,134.5z"/>
	<path class="st8" d="M13.9,108.5c-1.1-0.7-2.4-1.3-3.2-2.2c-4-4.1-8-8.2-11.9-12.3c-5.1-5.4-10.2-10.9-15.4-16.3
		c-3.3-3.4-6.7-6.7-10-10c-6.8-6.9-13.6-13.9-20.4-20.8c-5-5.1-9.9-10.2-14.9-15.4c-1.5-1.6-3.2-3.1-4.7-4.8
		c-0.5-0.6-0.9-1.6-0.9-2.4c-0.1-1.6,0-3.2,0-4.7c0.8,0.4,1.9,0.7,2.5,1.3c2.9,2.9,5.7,6,8.5,9c5.8,6,11.6,12,17.5,18
		c8.1,8.3,16.2,16.5,24.3,24.8c4.5,4.6,9,9.3,13.5,14c2.9,3,5.7,6.2,8.7,9.2c2.2,2.2,4.6,4.2,7,6.3
		C14.3,104.2,14.1,106.3,13.9,108.5z"/>
	<path class="st9" d="M16.4,88.6c-0.8-0.5-1.8-0.8-2.5-1.5C3.1,76.2-7.7,65.2-18.5,54.3c-8.9-9.1-17.9-18.2-26.8-27.3
		c-6.4-6.6-12.9-13.2-19.3-19.8C-65.3,6.5-66.2,6-67,5.5c0-2.2,0-4.3,0-6.5c1,0.6,2.1,1,2.8,1.7c1.8,1.8,3.4,3.8,5.2,5.6
		c13.7,13.9,27.4,27.7,41,41.5c9.3,9.5,18.6,18.9,27.9,28.4c1.7,1.7,3.2,3.6,4.9,5.3c0.5,0.6,1.3,0.9,2,1.4
		C16.8,84.9,16.6,86.7,16.4,88.6z"/>
	<path class="st10" d="M14.5,102c-2.3-2.1-4.7-4.1-7-6.3c-3-3-5.8-6.1-8.7-9.2c-4.5-4.7-9-9.3-13.5-14C-22.8,64.3-30.9,56-39,47.8
		c-5.8-6-11.7-12-17.5-18c-2.9-3-5.6-6-8.5-9c-0.6-0.6-1.7-0.9-2.5-1.3c0-2.2,0-4.3,0-6.5c0.6,0.2,1.3,0.3,1.8,0.7
		c4.6,4.6,9.1,9.3,13.6,13.9c6.7,6.8,13.3,13.7,20,20.5c5.9,6.1,11.8,12.1,17.7,18.2C-6.9,74,0.7,81.7,8.2,89.5
		c1.7,1.7,3.2,3.6,4.9,5.3c0.6,0.6,1.5,0.8,2.3,1.2C15.1,98,14.8,100,14.5,102z"/>
	<path class="st11" d="M11.5,127.5c-2-1.8-4.2-3.5-6.1-5.4c-2.2-2.2-4.2-4.6-6.4-6.9c-5.3-5.5-10.7-11-16-16.5
		c-4.9-5.1-9.6-10.3-14.5-15.4c-4.1-4.2-8.3-8.3-12.4-12.5c-4-4.2-7.9-8.5-11.9-12.7c-3.7-3.8-7.4-7.6-11.2-11.3
		c-0.3-0.3-0.7-0.3-1.1-0.4c0-2,0-4,0-6c0.7,0.5,1.6,0.9,2.2,1.5c2.6,2.6,5,5.3,7.6,7.9c3.8,3.9,7.6,7.6,11.3,11.5
		c4.5,4.7,8.8,9.5,13.3,14.2c4.6,4.8,9.5,9.4,14.1,14.2c3.9,4.1,7.6,8.3,11.5,12.4c6,6.3,12.1,12.5,18.2,18.7
		c0.6,0.6,1.4,1.1,2.1,1.7C12.1,124.2,11.8,125.9,11.5,127.5z"/>
	<path class="st12" d="M12.3,122.6c-0.7-0.6-1.5-1-2.1-1.7C4.1,114.7-2,108.5-8,102.2c-3.9-4.1-7.6-8.3-11.5-12.4
		c-4.6-4.8-9.5-9.4-14.1-14.2c-4.5-4.7-8.8-9.5-13.3-14.2c-3.7-3.9-7.6-7.7-11.3-11.5c-2.5-2.6-5-5.3-7.6-7.9
		c-0.6-0.6-1.5-1-2.2-1.5c0-1.6,0-3.1,0-5.4c1.2,0.8,2,1.1,2.5,1.6c8.4,8.5,16.7,17,25,25.5c8.9,9.1,17.7,18.3,26.5,27.5
		c8.2,8.5,16.4,17,24.6,25.5c0.7,0.7,1.6,1.2,2.4,1.7C12.7,118.9,12.5,120.7,12.3,122.6z"/>
	<path class="st13" d="M18.1,75c-2.9-3.2-5.8-6.4-8.8-9.5C-9.7,46.3-28.7,27.1-47.7,8c-6.3-6.3-12.5-12.7-18.8-19
		c-0.4-0.8-0.7-1.6-1.1-2.5c0.3-0.2,0.7-0.3,1-0.5c2.6,2.5,5.2,5,7.8,7.6c4.1,4.1,8.1,8.3,12.2,12.4c2,2.1,4,4.3,6.1,6.4
		c0.7,0.6,1.4,1.2,2,1.8c4.6,4.7,9.2,9.5,13.9,14.3c4.9,5,9.7,9.9,14.6,14.9c1.7,1.7,3.3,3.3,5,5c2.6,2.6,5.3,5.1,7.8,7.7
		C8.3,61.8,13.6,67.4,19.1,73c0.6,0.6,1.6,0.7,2.4,1.1c0.3,1,0.6,1.9,1,2.9c-0.5,3.5-1,7-1.5,10.5c-0.3,0-0.7,0-1,0
		c0.1-1.9,0.1-3.9,0.4-5.7C21.2,77.2,21,76.4,18.1,75z"/>
	<path class="st14" d="M18.1,75c2.9,1.4,3.1,2.2,2.3,6.7c-0.3,1.9-0.3,3.8-0.4,5.7c0,0.8-0.1,1.6-0.1,2.4c-0.1,0.4-0.2,0.7-0.3,1.1
		c-0.1,1-0.1,2-0.2,2.9c-0.1,0.4-0.2,0.7-0.3,1.1c-0.1,1-0.1,2-0.2,2.9c-0.1,0.4-0.2,0.7-0.3,1.1c-0.1,1-0.1,2-0.2,2.9
		c-0.1,0.4-0.2,0.7-0.3,1.1c-0.1,1-0.1,2-0.2,2.9c-0.1,0.4-0.2,0.7-0.3,1.1c-0.1,1-0.1,2-0.2,2.9c-0.1,0.4-0.2,0.7-0.3,1.1
		c-0.1,1-0.1,2-0.2,2.9c-0.1,0.4-0.2,0.7-0.3,1.1c-0.1,1-0.1,2-0.2,2.9c-0.1,0.4-0.2,0.7-0.3,1.1c-0.1,1-0.1,2-0.2,2.9
		c-0.1,0.4-0.2,0.7-0.3,1.1c0,1-0.1,2-0.1,2.9c-0.1,0.4-0.2,0.7-0.4,1.1c-0.1,1-0.1,2-0.2,2.9c-1.3,2.8-1.8,5.6-1,8.6
		c0,0.3,0,0.7-0.1,1c-0.1,1-0.3,2-0.4,3c0,0.3,0,0.6,0,0.9c-0.3,1-0.5,2.1-0.8,3.1l0,0.1c-0.2,0-0.3-0.1-0.5-0.1
		c-0.7-1.5-1.4-3-2.1-4.5c0.3-2.5,0.6-5,1-7.5c0.2-2.3,0.4-4.7,0.6-7c0.3-1.6,0.5-3.3,0.8-4.9c0.2-1.9,0.4-3.7,0.6-5.6
		c0.3-2.8,0.7-5.7,1-8.5c0.2-2.2,0.4-4.3,0.6-6.5c0.3-2,0.6-4,0.9-6c0.3-2.5,0.7-4.9,1-7.4c0.2-1.9,0.3-3.7,0.5-5.6
		C17.3,80.3,17.7,77.7,18.1,75z"/>
	<path class="st15" d="M21.5,74.1c-0.8-0.4-1.8-0.5-2.4-1.1C13.6,67.4,8.3,61.8,2.8,56.2c-2.6-2.6-5.2-5.1-7.8-7.7
		c-1.7-1.7-3.3-3.3-5-5c-4.9-5-9.7-9.9-14.6-14.9c-4.6-4.7-9.2-9.5-13.9-14.3c-0.6-0.6-1.3-1.2-2-1.8c-2-2.1-4-4.3-6.1-6.4
		c-4-4.1-8.1-8.3-12.2-12.4c-2.6-2.6-5.2-5.1-7.8-7.6c-0.7-0.5-1.4-1.1-2.1-1.6c-0.8-1.4-1.7-2.8-2.5-4.2c0-0.2,0.1-0.5,0.1-0.7
		c0.4,0.1,0.8,0.2,1.2,0.2c0.5,0.4,0.9,0.8,1.4,1.2C-63.3-13.9-58.2-8.7-53-3.5c2.8,3.1,5.4,6.4,8.4,9.4c5.3,5.4,10.6,10.7,16,16.1
		c0.6,0.6,1.5,1,2.2,1.4c4.5,4.5,9,9,13.4,13.6c2,2.3,3.8,4.8,5.9,6.9C-2,49.2,3.2,54.4,8.3,59.5c0.6,0.6,1.5,1,2.2,1.4
		c3.2,3.2,6.3,6.4,9.5,9.6c0.5,0.6,1.1,1.2,1.6,1.8l0.1,0.1c0,0.3,0,0.7-0.1,1C21.6,73.7,21.5,73.9,21.5,74.1z"/>
	<path class="st3" d="M-72.7-17.4c-1.4-2-1.1-4.4,0.6-5.5C-60-30.6-48-38.2-35.9-45.8C-18-57,0-68.2,17.9-79.4c4-2.5,8-5,12.1-7.5
		c0.5-0.3,1.1-0.3,1.6-0.5c-0.7,0.6-1.4,1.4-2.2,1.9C17.1-77.7,4.8-70-7.5-62.2C-26.7-50.1-46-38-65.3-25.8
		c-1.7,1.1-3.2,2.5-4.7,3.8l0,0c-2.2,0.4-2.4,0.7-2,2.5c0,0.3,0,0.7,0,1C-72.3-18.1-72.5-17.8-72.7-17.4z"/>
	<path class="st16" d="M13.4,143.4c0-0.3,0-0.6,0-0.9c0.3,0,0.6,0,0.9,0c0.6,0,1.2,0,1.8,0c0,1.8,0,3.5,0,5.3c0,0.4,0,0.9,0.1,1.3
		c0,0-0.1-0.1-0.1-0.1c-0.3,0.2-0.7,0.3-1,0.5c0,0,0,0,0,0c-0.3,0.3-0.5,0.7-0.8,1c-0.2-0.1-0.5-0.2-0.7-0.2
		c-0.2-0.4-0.4-0.9-0.5-1.3c0,0,0,0.1,0,0.1c0-0.3,0-0.6,0-0.9c-0.2-0.2-0.3-0.4-0.5-0.6c-0.1-0.1-0.1-0.2-0.1-0.3
		c0-0.2,0.1-0.4,0.1-0.6c0,0,0-0.1,0-0.1C12.9,145.5,13.1,144.5,13.4,143.4z"/>
	<path class="st3" d="M-73.1,8c-0.1-3.1-0.3-6.2-0.3-9.3c0-0.3,0.7-0.5,1-0.8c0.1,3.3,0.1,6.7,0.2,10C-72.5,7.9-72.8,8-73.1,8z"/>
	<path class="st17" d="M-72.7-17.4c0.2-0.4,0.4-0.7,0.6-1.1c0.2,0.8,0.5,1.5,0.5,2.3c0,3.2,0,6.5-0.1,9.7c0,0.7-0.4,1.3-0.6,2
		c-0.1-2.1-0.3-4.2-0.4-6.3C-72.7-13-72.7-15.2-72.7-17.4z"/>
	<path class="st3" d="M-73.6,32c-0.1-2.8-0.2-5.7-0.3-8.5c0-0.2,0.6-0.4,0.9-0.6c0.1,3,0.1,6,0.2,9C-73,31.9-73.3,32-73.6,32z"/>
	<path class="st17" d="M-73.1,8c0.3,0,0.6-0.1,0.9-0.1c-0.2,3.5-0.3,7-0.5,10.6c-0.1-2.6-0.3-5.2-0.4-7.8C-73.1,9.8-73.1,8.9-73.1,8
		z"/>
	<path class="st17" d="M-73.6,32c0.3,0,0.6-0.1,0.8-0.1c-0.1,3.4-0.2,6.7-0.4,10.1c-0.2-2.2-0.3-4.4-0.5-6.5
		C-73.6,34.3-73.6,33.1-73.6,32z"/>
	<path class="st17" d="M-72.1-19.5c-0.4-1.8-0.2-2.1,2-2.5c-0.3,0.5-0.7,1-1,1.6c0,0.2-0.1,0.5-0.1,0.7
		C-71.4-19.7-71.7-19.6-72.1-19.5z"/>
	<path class="st16" d="M-68.6-15.6c0.7,0.5,1.4,1.1,2.1,1.6c-0.3,0.2-0.7,0.3-1,0.5C-67.9-14.2-68.2-14.9-68.6-15.6z"/>
	<path class="st13" d="M12.6,146.6c0,0.2-0.1,0.4-0.1,0.6c-0.1-0.2-0.3-0.5-0.4-0.7C12.2,146.5,12.4,146.6,12.6,146.6z"/>
	<path class="st13" d="M12.5,147.5c0.2,0.2,0.3,0.4,0.5,0.6C12.8,147.9,12.7,147.7,12.5,147.5z"/>
	<path class="st18" d="M126.5,8c-0.8,3.5-1.6,7-2.5,10.5c-1,0.4-2,0.6-2.9,1.2c-17,11.8-34,23.6-51,35.5
		c-6.9,4.8-13.7,9.6-20.5,14.4c-6.5,4.5-12.9,9-19.4,13.4c-0.6,0.4-1.5,0.2-2.3,0.2c0.2-2.4,0.4-4.8,0.6-7.3c0.7-0.5,1.3-1,2-1.5
		C62.5,52.4,94.5,30.2,126.5,8z"/>
	<path class="st12" d="M122,29.5c-0.3,6.6-5,9.7-9.8,13c-7.8,5.2-15.4,10.6-23.1,16C80,64.8,70.9,71.2,61.8,77.6
		C51.7,84.8,41.6,92,31.4,99.2c-1.4,1-2.9,2-4.4,2.8c-0.4,0.2-1.1-0.1-1.6-0.2c0.3-2.3,0.5-4.6,0.8-6.9c1.2-0.6,2.5-1.1,3.7-1.8
		C40.5,85.7,51.1,78.4,61.7,71c7-4.9,13.9-9.9,20.9-14.8c10.6-7.5,21.3-15,32-22.4C116.9,32.2,119.5,30.9,122,29.5z"/>
	<path class="st7" d="M27.9,83.3c0.8-0.1,1.7,0.1,2.3-0.2c6.5-4.4,13-8.9,19.4-13.4c6.9-4.8,13.7-9.6,20.5-14.4
		c17-11.8,34-23.7,51-35.5c0.8-0.6,1.9-0.8,2.9-1.2c-0.3,2-0.7,4-1,6c-0.8,0.4-1.7,0.7-2.4,1.2c-5,3.4-9.9,6.9-14.9,10.4
		c-17.7,12.3-35.4,24.7-53,37c-5.2,3.7-10.4,7.4-15.6,11c-3.3,2.2-6.7,4.2-10,6.4C27.3,88.1,27.6,85.7,27.9,83.3z"/>
	<path class="st19" d="M112,72.5c-0.1,3.3-1.2,5.7-4.2,7.8c-23.2,16.3-46.1,32.9-69.2,49.4c-6.2,4.4-12.4,8.8-18.6,13.3
		c0.3-2.4,0.6-4.8,0.9-7.2c0.9-0.2,1.9-0.2,2.6-0.6c14.6-10.4,29.1-20.8,43.6-31.2c12.1-8.7,24.2-17.4,36.3-26
		C106.2,75.9,109.1,74.3,112,72.5z"/>
	<path class="st8" d="M24.1,110.5c1-0.3,2.1-0.5,2.9-1.1C40.7,99.8,54.3,90,67.9,80.4C80.4,71.5,93,62.8,105.5,54
		c3.3-2.3,6.5-4.6,9.7-6.9c0.7-0.5,1.5-0.8,3-1.5c-0.5,2.3-0.9,3.9-1.3,5.4c-0.7,0.3-1.6,0.6-2.2,1c-4.5,3.1-9,6.3-13.4,9.4
		C88.9,70.3,76.5,79.2,64,88c-10.6,7.5-21.2,15.1-31.9,22.6c-2.8,1.9-5.7,3.6-8.6,5.5C23.7,114.2,23.9,112.3,24.1,110.5z"/>
	<path class="st20" d="M112,72.5c-2.9,1.8-5.8,3.4-8.6,5.4c-12.1,8.6-24.2,17.4-36.3,26c-14.5,10.4-29,20.8-43.6,31.2
		c-0.7,0.5-1.7,0.4-2.6,0.6c0.2-1.6,0.5-3.2,0.7-4.8c2.7-1.6,5.4-3.1,8-4.9c15.9-11.3,31.8-22.7,47.7-34.1
		c9.4-6.7,18.8-13.5,28.3-20.2c2.5-1.8,5.3-3.2,8-4.8C113,68.8,112.5,70.7,112,72.5z"/>
	<path class="st11" d="M27,90.5c3.4-2.1,6.8-4.1,10-6.4c5.3-3.6,10.4-7.4,15.6-11c17.7-12.4,35.4-24.7,53-37c5-3.5,9.9-7,14.9-10.4
		c0.7-0.5,1.6-0.8,2.4-1.2c-0.3,1.7-0.7,3.3-1,5c-2.5,1.4-5.1,2.7-7.4,4.3c-10.7,7.4-21.3,14.9-32,22.4c-7,4.9-13.9,9.9-20.9,14.8
		c-10.6,7.4-21.2,14.7-31.9,22.1c-1.1,0.8-2.4,1.2-3.7,1.8C26.4,93.4,26.7,92,27,90.5z"/>
	<path class="st21" d="M23.6,116c2.9-1.8,5.8-3.5,8.6-5.5c10.7-7.5,21.3-15,31.9-22.6c12.4-8.8,24.9-17.7,37.3-26.5
		c4.5-3.2,8.9-6.3,13.4-9.4c0.7-0.5,1.5-0.7,2.2-1c-0.3,1.5-0.7,3-1,4.5c-2.8,1.8-5.6,3.5-8.3,5.4C91.1,72.6,74.6,84.3,58,96
		c-9.2,6.5-18.4,13.1-27.6,19.5c-2.3,1.6-4.9,3-7.3,4.5C23.2,118.7,23.4,117.3,23.6,116z"/>
	<path class="st22" d="M113.5,67c-2.7,1.6-5.4,3-8,4.8C96,78.5,86.6,85.3,77.2,92c-15.9,11.4-31.8,22.8-47.7,34.1
		c-2.5,1.8-5.3,3.3-8,4.9c0.2-1.3,0.3-2.7,0.5-4c1-0.5,2.2-0.8,3.1-1.5c15.3-10.9,30.5-21.8,45.8-32.7c13.7-9.8,27.5-19.5,41.2-29.2
		c0.4-0.3,1.2-0.1,1.9-0.2C113.8,64.7,113.6,65.8,113.5,67z"/>
	<path class="st23" d="M23.1,120c2.4-1.5,5-2.8,7.3-4.5c9.2-6.5,18.4-13,27.6-19.5c16.6-11.7,33.1-23.4,49.7-35.1
		c2.7-1.9,5.5-3.6,8.3-5.4c-0.3,1.3-0.7,2.7-1,4c-1,0.5-2.2,0.8-3.1,1.4c-8.6,6-17.2,12.1-25.8,18.2c-19.2,13.7-38.3,27.4-57.5,41
		c-1.9,1.3-4,2.3-6,3.4C22.7,122.3,22.9,121.2,23.1,120z"/>
	<path class="st5" d="M22.6,123.5c2-1.1,4.1-2.1,6-3.4c19.2-13.6,38.4-27.3,57.5-41c8.6-6.1,17.2-12.2,25.8-18.2
		c0.9-0.6,2.1-0.9,3.1-1.4c-0.3,1.3-0.7,2.7-1,4c-0.6,0.1-1.4-0.1-1.9,0.2c-13.8,9.7-27.5,19.4-41.2,29.2
		c-15.3,10.9-30.5,21.8-45.8,32.7c-0.9,0.6-2,1-3.1,1.5C22.3,125.8,22.4,124.7,22.6,123.5z"/>
	<path class="st13" d="M126.5,8c-32,22.2-64,44.3-96,66.5c-0.7,0.5-1.3,1-2,1.5c-2.1,0.4-2.9,1.5-3.1,3.7
		c-0.5,5.9-1.4,11.8-2.2,17.7c-0.7,5.7-1.5,11.5-2.3,17.2c-0.8,5.8-1.5,11.6-2.3,17.4c-0.6,4.8-1.2,9.7-1.7,14.5
		c-0.3,0.4-0.7,0.8-1,1.2c0-1.8,0-3.5,0-5.3c0.4-3.5,0.7-6.9,1.1-10.4c0.1-0.4,0.3-0.7,0.4-1.1c0-1,0.1-1.9,0.1-2.9
		c0.2-0.4,0.5-0.8,0.7-1.2c0-1,0.1-2,0.1-2.9c0.2-1.7,0.4-3.3,0.6-5c0-0.8,0.1-1.6,0.1-2.4c0.1-0.5,0.3-1.1,0.4-1.6
		c0-0.8,0.1-1.6,0.1-2.4c0.1-0.4,0.3-0.7,0.4-1.1c0-0.8,0.1-1.6,0.1-2.4c0.1-0.4,0.3-0.7,0.4-1.1c0-1,0.1-1.9,0.1-2.9
		c0.1-0.4,0.3-0.7,0.4-1.1c0-1,0.1-1.9,0.1-2.9c0.1-0.4,0.3-0.7,0.4-1.1c0.2-2.1,0.4-4.3,0.6-6.4c0.1-0.5,0.3-1.1,0.4-1.6
		c0-0.8,0.1-1.6,0.1-2.4c0.1-0.4,0.3-0.7,0.4-1.1c0-1,0.1-1.9,0.1-2.9c0.1-0.4,0.3-0.7,0.4-1.1c0-1,0.1-1.9,0.1-2.9
		c0.2-0.4,0.5-0.8,0.7-1.2c0-1.1,0.1-2.3,0.1-3.4c0.8-0.6,1.6-1.1,2.3-1.7c0.6-0.5,1.2-1.2,1.8-1.8c0.2,0,0.3,0,0.5,0
		c0.3-0.3,0.7-0.6,1-1c0.2,0,0.3,0,0.5,0c1.5-1.1,3-2.3,4.6-3.4c0.2,0,0.3,0,0.5-0.1c0.3-0.3,0.7-0.6,1-1c0.2,0,0.3,0,0.5,0
		c1.5-1.1,3-2.3,4.6-3.4c0.2,0,0.3,0,0.5-0.1c0.3-0.3,0.7-0.6,1-1c0.2,0,0.3,0,0.5,0c1.5-1.1,3-2.3,4.6-3.4c0.2,0,0.3,0,0.4-0.1
		c0.3-0.3,0.7-0.6,1-1c0.2,0,0.3,0,0.5,0c0.3-0.3,0.7-0.6,1-1c0.2,0,0.3,0,0.5,0c1.5-1.1,3-2.3,4.6-3.4c0.2,0,0.3,0,0.5-0.1
		c0.3-0.3,0.7-0.6,1-1c0.2,0,0.3,0,0.5,0c2-1.5,4-3,6-4.5c0.2,0,0.3,0,0.5,0c0.4-0.1,0.8-0.2,1.1-0.4c6.3-4.3,12.7-8.6,19-13
		c1.9-1.3,3.6-3,5.4-4.5c2.8-1.9,5.6-3.7,8.4-5.6c1-0.8,2.1-1.6,3.1-2.4c1-0.7,2.1-1.3,3.1-2c4-2.8,8.1-5.6,12.1-8.4
		c3.3-2.3,6.6-4.6,9.9-6.8c0.4-0.2,0.9-0.2,1.4-0.3C127.6,6.4,127,7.2,126.5,8z"/>
	<path class="st24" d="M126.2,34.6c0,0.3-0.1,0.6-0.1,0.9c-0.1,0.4-0.2,0.7-0.3,1.1c-0.2,1.1-0.5,2.3-0.7,3.4
		c-0.1,0.4-0.2,0.7-0.3,1.1c0,0.3-0.1,0.6-0.1,0.9c-0.1,0.4-0.2,0.7-0.3,1.1c-0.1,0.5-0.1,0.9-0.2,1.4c-0.1,0.4-0.2,0.7-0.3,1.1
		c0,0.3-0.1,0.6-0.1,0.9c-0.1,0.4-0.2,0.7-0.3,1.1c0,0.3-0.1,0.6-0.1,0.9c-0.1,0.4-0.2,0.7-0.3,1.1c-0.1,0.5-0.1,0.9-0.2,1.4
		c-0.1,0.4-0.2,0.7-0.3,1.1c0,0.3-0.1,0.6-0.1,0.9c-0.1,0.4-0.2,0.7-0.3,1.1c0,0.3-0.1,0.6-0.1,0.9c-0.3,0-0.5,0.1-0.8,0.1
		c1.2-5.5,2.3-11,3.5-16.5c2.7-11.9,5.5-23.7,8.2-35.6c0.1-0.6,0.1-1.3,0.1-2c0,0,0,0,0,0c0-0.2,0-0.4,0.1-0.6
		c0.1-0.1,0.1-0.2,0-0.3c-2.4-2.5-4.7-5.1-7.3-7.5c-16.6-15.5-33.2-31-49.7-46.5c-10.1-9.5-20.3-19-30.4-28.5
		c-2.3-2.1-4.5-4.4-6.7-6.6c1.8,1.2,3.7,2.4,5.5,3.7c1.9,1.5,3.7,3.2,5.6,4.7c0.2,0.2,0.3,0.3,0.5,0.5c2.5,2.3,5,4.7,7.5,7
		c0,0,0,0,0,0c4.9,4.8,9.8,9.6,14.8,14.4c0.1,0.1,0.5,0.1,0.7,0.1c0,0,0,0,0,0c4.9,4.8,9.8,9.6,14.8,14.4c0.1,0.1,0.5,0.1,0.7,0.1
		c0,0,0,0,0,0c4.9,4.8,9.8,9.6,14.8,14.4c0.1,0.1,0.5,0.1,0.7,0.1c0,0,0,0,0,0c0.6,0.7,1.1,1.4,1.8,2.1c8.5,8,17,16.1,25.6,24.1
		c2.2,2,3.2,4.1,2.2,6.9c-0.4,1.3-0.7,2.6-1.1,3.9c-0.1,0.4-0.2,0.7-0.4,1.1c0,0.3-0.1,0.6-0.1,0.9c-0.1,0.4-0.2,0.7-0.3,1.1
		c0,0.3-0.1,0.6-0.1,0.9c-0.1,0.4-0.2,0.7-0.3,1.1c-0.1,0.5-0.1,0.9-0.2,1.4c-0.1,0.4-0.2,0.7-0.3,1.1c0,0.3-0.1,0.6-0.1,0.9
		c-0.1,0.4-0.2,0.7-0.3,1.1c0,0.3-0.1,0.6-0.1,0.9c-0.1,0.4-0.2,0.7-0.3,1.1c-0.1,0.5-0.1,0.9-0.2,1.4c-0.1,0.4-0.2,0.7-0.3,1.1
		c0,0.3-0.1,0.6-0.1,0.9c-0.1,0.4-0.2,0.7-0.3,1.1c0,0.3-0.1,0.6-0.1,0.9c-0.1,0.4-0.2,0.7-0.3,1.1c-0.1,0.5-0.1,0.9-0.2,1.4
		c-0.1,0.4-0.2,0.7-0.3,1.1c0,0.3-0.1,0.6-0.1,0.9c-0.1,0.4-0.2,0.7-0.3,1.1c0,0.3-0.1,0.6-0.1,0.9c-0.1,0.4-0.2,0.7-0.3,1.1
		c-0.1,0.5-0.1,0.9-0.2,1.4C126.4,33.9,126.3,34.2,126.2,34.6z"/>
	<path class="st15" d="M132.6,0.1c0.1,0.1,0.1,0.2,0,0.3c0,0.2,0,0.4-0.1,0.6c0,0,0,0,0,0c-1,1-1.9,2-2.9,3
		c-0.2,0.2-0.4,0.4-0.6,0.5c0,0,0,0,0,0c-0.3,0.3-0.7,0.7-1,1c0,0,0.1,0,0.1,0c-0.5,0.1-1.1,0-1.4,0.3c-3.3,2.2-6.6,4.5-9.9,6.8
		c-4,2.8-8.1,5.6-12.1,8.4c-1,0.7-2,1.4-3.1,2c-1,0.8-2.1,1.6-3.1,2.4c-2.8,1.9-5.6,3.7-8.4,5.6c-0.4,0.1-0.8,0.1-1.2,0.3
		c-6.6,4.5-13.1,9-19.6,13.6c-1.7,1.2-3.2,2.7-4.8,4c-0.2,0-0.3,0-0.5,0c-2,1.5-4,3-6,4.5c-0.2,0-0.3,0-0.5,0c-0.3,0.3-0.7,0.6-1,1
		c-0.1,0-0.3,0-0.5,0c-1.5,1.1-3,2.3-4.6,3.4c-0.2,0-0.3,0-0.5,0c-0.3,0.3-0.7,0.6-1,1c-0.1,0-0.3,0-0.5,0c-0.3,0.3-0.7,0.6-1,1
		c-0.1,0-0.3,0-0.5,0.1c-1.5,1.1-3,2.3-4.6,3.4c-0.1,0-0.3,0-0.5,0c-0.3,0.3-0.7,0.6-1,1c-0.1,0-0.3,0-0.5,0.1
		c-1.5,1.1-3,2.3-4.6,3.4c-0.1,0-0.3,0-0.5,0c-0.3,0.3-0.7,0.6-1,1c-0.1,0-0.3,0-0.5,0.1c-1.5,1.1-3,2.3-4.6,3.4c-0.1,0-0.3,0-0.5,0
		c-0.3,0.3-0.7,0.6-1,1c-0.2,0-0.3,0-0.5,0c-0.9-0.1-1.8-0.2-2.8-0.3c0.2-0.3,0.5-0.5,0.7-0.8c0.6-0.4,1.1-0.9,1.7-1.3
		c0.1,0,0.2-0.1,0.4-0.1c0.4-0.3,0.7-0.6,1.1-0.9c0.1,0,0.3-0.1,0.4-0.1c0.4-0.3,0.7-0.6,1.1-0.9c0.1,0,0.3-0.1,0.4-0.1
		c0.4-0.3,0.7-0.6,1.1-0.9c0.1,0,0.3-0.1,0.4-0.1c0.6-0.4,1.1-0.9,1.7-1.3c0.1,0,0.2-0.1,0.4-0.1c0.4-0.3,0.7-0.6,1.1-0.9
		c0.1,0,0.2-0.1,0.4-0.1c0.4-0.3,0.7-0.6,1.1-0.9c0.1,0,0.3-0.1,0.4-0.1c0.4-0.3,0.7-0.6,1.1-0.9c0.1,0,0.3-0.1,0.4-0.1
		c0.6-0.4,1.1-0.9,1.7-1.3c0.1,0,0.2-0.1,0.4-0.1c0.4-0.3,0.7-0.6,1.1-0.9c0.1,0,0.3-0.1,0.4-0.1c0.4-0.3,0.7-0.6,1.1-0.9
		c0.1,0,0.3-0.1,0.4-0.1c0.4-0.3,0.7-0.6,1.1-0.9c0.1,0,0.3-0.1,0.4-0.1c1.1-0.8,2.1-1.5,3.2-2.3c0.1,0,0.2-0.1,0.4-0.1
		c0.4-0.3,0.7-0.6,1.1-0.9c0.1,0,0.2-0.1,0.4-0.1c0.4-0.3,0.7-0.6,1.1-0.9c0.1,0,0.3-0.1,0.4-0.1c0.4-0.3,0.7-0.6,1.1-0.9
		c0.1,0,0.3-0.1,0.4-0.1c0.6-0.4,1.1-0.9,1.7-1.3c0.1,0,0.2-0.1,0.4-0.1c0.4-0.3,0.7-0.6,1.1-0.9c0.1,0,0.3-0.1,0.4-0.1
		c0.4-0.3,0.7-0.6,1.1-0.9c0.1,0,0.2-0.1,0.4-0.1c1.1-0.8,2.1-1.5,3.2-2.3c0.1,0,0.2-0.1,0.4-0.1c0.4-0.3,0.7-0.6,1.1-0.9
		c0.1,0,0.2-0.1,0.4-0.1c0.4-0.3,0.7-0.6,1.1-0.9c0.1,0,0.3-0.1,0.4-0.1c0.4-0.3,0.7-0.6,1.1-0.9c0.1,0,0.3-0.1,0.4-0.1
		c0.6-0.4,1.1-0.9,1.7-1.3c0.1,0,0.2-0.1,0.4-0.1c0.4-0.3,0.7-0.6,1.1-0.9c0.1,0,0.3-0.1,0.4-0.1c0.4-0.3,0.7-0.6,1.1-0.9
		c0.1,0,0.3-0.1,0.4-0.1c0.4-0.3,0.7-0.6,1.1-0.9c0.1,0,0.3-0.1,0.4-0.1c0.4-0.3,0.7-0.6,1.1-0.9c0.3-0.2,0.6-0.4,0.9-0.6
		c0.4-0.3,0.7-0.6,1.1-0.9c0.1,0,0.2-0.1,0.4-0.1c0.4-0.3,0.7-0.6,1.1-0.9c0.1,0,0.2-0.1,0.4-0.1c0.4-0.3,0.7-0.6,1.1-0.9
		c0.1,0,0.3-0.1,0.4-0.1c0.4-0.3,0.7-0.6,1.1-0.9c0.1,0,0.3-0.1,0.4-0.2c0.6-0.4,1.1-0.9,1.7-1.3c0.1,0,0.2-0.1,0.4-0.1
		c0.4-0.3,0.7-0.6,1.1-0.9c0.1,0,0.2-0.1,0.4-0.1c0.4-0.3,0.7-0.6,1.1-0.9c0.1,0,0.3-0.1,0.4-0.1c0.5-0.3,0.9-0.7,1.4-1
		c0.2-0.1,0.4-0.3,0.6-0.4c0.4-0.3,0.7-0.6,1.1-0.9c0.1,0,0.2-0.1,0.4-0.1c0.4-0.3,0.7-0.6,1.1-0.9c0.1,0,0.2-0.1,0.4-0.1
		c0.4-0.3,0.7-0.6,1.1-0.9c0.1,0,0.3-0.1,0.4-0.1c0.4-0.3,0.7-0.6,1.1-0.9c0.3-0.2,0.6-0.4,0.9-0.6c0.4-0.3,0.7-0.6,1.1-0.9
		c0.1,0,0.2-0.1,0.4-0.1c0.5-0.4,1-0.7,1.4-1.1c0,0,0,0,0,0c0.5-0.3,1-0.7,1.5-1l0,0c0.5-0.3,1-0.7,1.5-1l0,0
		c0.4-0.3,0.8-0.5,1.1-0.8c0.3-0.2,0.6-0.4,0.9-0.6c0.4-0.3,0.7-0.6,1.1-0.9c0.1,0,0.2-0.1,0.4-0.1c0.4-0.3,0.7-0.6,1.1-0.9
		c0.1,0,0.2-0.1,0.4-0.1c0.4-0.3,0.7-0.6,1.1-0.9c0.1,0,0.3-0.1,0.4-0.1c0.4-0.3,0.7-0.6,1.1-0.9c0.1,0,0.3-0.1,0.4-0.2
		c0.6-0.4,1.1-0.9,1.7-1.3c0.1,0,0.2-0.1,0.4-0.1c0.4-0.3,0.7-0.6,1.1-0.9c0.1,0,0.2-0.1,0.4-0.1c0.4-0.3,0.7-0.6,1.1-0.9
		c0.1,0,0.3-0.1,0.4-0.1c0.4-0.3,0.7-0.6,1.1-0.9c0.1,0,0.3-0.1,0.4-0.2c0.6-0.4,1.1-0.9,1.7-1.3c0.1,0,0.2-0.1,0.4-0.1
		c0.4-0.3,0.7-0.6,1.1-0.9c0.1,0,0.2-0.1,0.4-0.1c0.4-0.3,0.7-0.6,1.1-0.9c0.1,0,0.3-0.1,0.4-0.1c0.4-0.3,0.7-0.6,1.1-0.9
		c0.1,0,0.3-0.1,0.4-0.1c0.4-0.3,0.7-0.6,1.1-0.9c0.3-0.2,0.6-0.4,0.9-0.6c0.4-0.3,0.7-0.6,1.1-0.9c0.1,0,0.2-0.1,0.4-0.1
		c0.4-0.3,0.7-0.6,1.1-0.9c0.1,0,0.2-0.1,0.4-0.1c0.4-0.3,0.7-0.6,1.1-0.9c0.1,0,0.3-0.1,0.4-0.2c0.4-0.3,0.7-0.6,1.1-0.9l0,0
		c0.8-0.3,1.6-0.7,2.4-1C132.1,0.1,132.4,0.1,132.6,0.1z"/>
	<path class="st14" d="M17,146.6c0.6-4.8,1.1-9.7,1.7-14.5c0.7-5.8,1.5-11.6,2.3-17.4c0.8-5.7,1.5-11.5,2.3-17.2
		c0.8-5.9,1.6-11.8,2.2-17.7c0.2-2.2,1-3.4,3.1-3.7c-0.2,2.4-0.4,4.8-0.6,7.3c-0.3,2.4-0.6,4.8-0.9,7.2c-0.3,1.5-0.5,2.9-0.8,4.4
		c-0.3,2.3-0.5,4.6-0.8,6.9c-0.4,2.9-0.9,5.8-1.3,8.7c-0.2,1.8-0.3,3.7-0.5,5.5c-0.2,1.3-0.3,2.7-0.5,4c-0.2,1.2-0.3,2.3-0.5,3.5
		c-0.2,1.2-0.3,2.3-0.5,3.5c-0.2,1.3-0.3,2.7-0.5,4c-0.2,1.6-0.5,3.2-0.7,4.8c-0.3,2.4-0.6,4.8-0.9,7.2C19,144.2,18,145.4,17,146.6z
		"/>
	<path class="st24" d="M121.3,56c-0.1,0.5-0.2,1-0.3,1.5c-0.1,0.4-0.2,0.7-0.3,1.1c0,0.3-0.1,0.6-0.1,0.9c-0.1,0.4-0.2,0.7-0.3,1.1
		c-0.2,1.1-0.5,2.3-0.7,3.4c-0.1,0.4-0.2,0.7-0.3,1.1c0,0.3-0.1,0.6-0.1,0.9c-0.3,0-0.5,0.1-0.8,0.1c0.8-3.4,1.6-6.7,2.3-10.1
		C120.8,56,121,56,121.3,56z"/>
	<path class="st24" d="M118.7,67c-0.2,1.2-0.5,2.3-0.7,3.5c-0.1,0.4-0.2,0.7-0.3,1.1c0,0.3-0.1,0.6-0.1,0.9c-0.3,0-0.5,0.1-0.8,0.1
		c0.4-1.9,0.9-3.7,1.3-5.6C118.3,67,118.5,67,118.7,67z"/>
	<path class="st24" d="M117.3,73.5c-0.5,1.2-0.9,2.4-1.4,3.5c0.2-1.2,0.4-2.4,0.7-3.5C116.8,73.5,117,73.5,117.3,73.5z"/>
	<path class="st3" d="M118.7,67c-0.2,0-0.5,0-0.7,0c0.1-0.3,0.1-0.6,0.2-0.9c0.3,0,0.5-0.1,0.8-0.1C118.9,66.3,118.8,66.7,118.7,67z
		"/>
	<path class="st3" d="M121.3,56c-0.2,0-0.5,0-0.7,0c0.1-0.3,0.1-0.6,0.2-0.9c0.3,0,0.5-0.1,0.8-0.1C121.5,55.3,121.4,55.7,121.3,56z
		"/>
	<path class="st3" d="M117.3,73.5c-0.2,0-0.5,0-0.7,0c0.1-0.3,0.1-0.6,0.2-0.9c0.3,0,0.5-0.1,0.8-0.1
		C117.4,72.8,117.3,73.2,117.3,73.5z"/>
	<path class="st16" d="M128,5.5c0.3-0.3,0.7-0.7,1-1C128.7,4.9,128.4,5.2,128,5.5z"/>
	<path class="st16" d="M129,4.5c0.2-0.2,0.4-0.4,0.6-0.5C129.4,4.2,129.2,4.4,129,4.5z"/>
	<path class="st25" d="M132.6,0.1c-0.2,0-0.4,0-0.6,0c-0.7,0-1.3,0-2,0c-2.5-0.4-5-0.7-7.5-1.1c-2.3-2.2-4.7-4.3-7-6.5
		c-2.5-2.3-5-4.7-7.5-7c-2.2-2-4.3-4-6.5-6c-2-1.8-4-3.7-6-5.5c-0.8-0.8-1.7-1.7-2.5-2.5c-0.8-0.8-1.7-1.7-2.5-2.5
		c-1.7-1.5-3.3-3-5-4.5c-1.4-1.4-2.7-2.9-4.1-4.3c-2.7-2.7-3.4-2.8-6.6-0.7c-5.9,3.9-11.8,7.7-17.7,11.6
		C42.3-19.1,27.4-9.3,12.5,0.5C4.2,6-4.2,11.5-12.6,17.1c-2.4,1.6-4.7,3.4-7,5.1c-3-3-6-6-9-9.1c1.2-0.9,2.2-1.9,3.5-2.7
		c10.6-7,21.3-14,32-21c8.7-5.7,17.4-11.2,26-16.9C40.3-32.2,47.7-37,55-41.8c3.7-2.4,7.5-4.8,11.2-7.3c1.4-0.9,2.7-2.1,1-3.8
		c-1.9-1.9-3.8-3.7-5.7-5.5c-2-1.8-4-3.7-6-5.5c-2.3-2.2-4.7-4.3-7-6.5c-1.8-1.7-3.7-3.3-5.5-5c-1.4-1.5-2.9-3-4.3-4.5
		c-1-1.1-1.9-1.2-3.3-0.3c-5.1,3.4-10.4,6.6-15.5,9.9C-1.4-57-22.7-43.5-44-30c-5.6,3.5-11.1,7.2-16.7,10.8
		c-2.6-0.2-5.2-0.5-7.8-0.7c-0.4-0.1-0.9-0.2-1.3-0.2c-0.4-0.1-0.8-0.2-1.2-0.2c0.3-0.5,0.7-1,1-1.6c0,0,0,0,0,0
		c1-0.4,2-0.8,2.9-1.4C-39.1-41-11-58.7,17.1-76.4c6.3-4,12.6-8.1,18.9-12.1c0.3-0.3,0.7-0.7,1-1c0.3,0,0.7,0,1-0.1
		c0.1,0.2,0.3,0.4,0.4,0.6c2.2,2.2,4.4,4.5,6.7,6.6c10.1,9.5,20.3,19,30.4,28.5c16.6,15.5,33.2,31,49.7,46.5
		C127.8-5,130.1-2.4,132.6,0.1z"/>
	<path class="st17" d="M36-88.5c-6.3,4-12.6,8.1-18.9,12.1C-11-58.7-39.1-41-67.1-23.4c-0.9,0.6-1.9,0.9-2.9,1.4
		c1.6-1.3,3-2.7,4.7-3.8C-46-38-26.7-50.1-7.5-62.2C4.8-70,17.1-77.7,29.4-85.5c0.8-0.5,1.4-1.3,2.2-1.9c0.1,0,0.3-0.1,0.4-0.1
		C33.3-87.8,34.7-88.2,36-88.5z"/>
	<path class="st3" d="M133.6,3.6c1-2.9,0-4.9-2.2-6.9c-8.6-7.9-17.1-16-25.6-24.1c-0.7-0.6-1.2-1.4-1.8-2.1c0.7,0.3,1.6,0.5,2.1,1
		c6.6,6.2,13.1,12.4,19.7,18.6c2.6,2.5,5.3,5,8,7.5C135.6-0.6,135.5,1.5,133.6,3.6z"/>
	<path class="st3" d="M104-29.5c-0.2,0-0.6,0-0.7-0.1c-4.9-4.8-9.9-9.6-14.8-14.4c0.5,0.2,1.2,0.1,1.6,0.5c4.5,4.3,9,8.6,13.5,12.9
		C103.8-30.4,103.9-29.9,104-29.5z"/>
	<path class="st3" d="M88.5-44c-0.2,0-0.6,0-0.7-0.1c-4.9-4.8-9.9-9.6-14.8-14.4c0.5,0.2,1.2,0.1,1.6,0.5c4.5,4.3,9,8.6,13.5,12.9
		C88.3-44.9,88.4-44.4,88.5-44z"/>
	<path class="st3" d="M73-58.5c-0.2,0-0.6,0-0.7-0.1c-4.9-4.8-9.9-9.6-14.8-14.4c0.5,0.2,1.2,0.1,1.6,0.5c4.5,4.3,9,8.6,13.5,12.9
		C72.8-59.4,72.9-58.9,73-58.5z"/>
	<path class="st3" d="M38.5-89c-0.1-0.2-0.3-0.4-0.4-0.6c0.5-0.1,1.1-0.3,1.5-0.1c4.1,2.2,7.5,5.2,10,9.2c-1.9-1.6-3.7-3.3-5.6-4.7
		C42.2-86.6,40.3-87.7,38.5-89z"/>
	<path class="st3" d="M57.5-73c-2.5-2.3-5-4.7-7.5-7c1,0.6,2.1,0.9,2.8,1.7C54.5-76.6,56-74.8,57.5-73z"/>
	<path class="st3" d="M36-88.5c-1.3,0.3-2.7,0.7-4,1c1.3-1.6,2.7-3,5-2C36.7-89.2,36.3-88.8,36-88.5z"/>
	<path class="st3" d="M124.7,41.1c0.1-0.4,0.2-0.7,0.3-1.1C124.9,40.4,124.8,40.7,124.7,41.1z"/>
	<path class="st3" d="M124.2,43.1c0.1-0.4,0.2-0.7,0.3-1.1C124.4,42.4,124.3,42.7,124.2,43.1z"/>
	<path class="st3" d="M123.6,45.6c0.1-0.4,0.2-0.7,0.3-1.1C123.9,44.9,123.8,45.2,123.6,45.6z"/>
	<path class="st3" d="M125.7,36.6c0.1-0.4,0.2-0.7,0.3-1.1C125.9,35.9,125.8,36.2,125.7,36.6z"/>
	<path class="st3" d="M123.2,47.6c0.1-0.4,0.2-0.7,0.3-1.1C123.4,46.9,123.3,47.2,123.2,47.6z"/>
	<path class="st3" d="M126.2,34.6c0.1-0.4,0.2-0.7,0.3-1.1C126.4,33.9,126.3,34.2,126.2,34.6z"/>
	<path class="st3" d="M122.7,49.6c0.1-0.4,0.2-0.7,0.3-1.1C122.9,48.9,122.8,49.2,122.7,49.6z"/>
	<path class="st3" d="M126.7,32.1c0.1-0.4,0.2-0.7,0.3-1.1C126.9,31.4,126.8,31.7,126.7,32.1z"/>
	<path class="st3" d="M122.2,52.1c0.1-0.4,0.2-0.7,0.3-1.1C122.4,51.4,122.3,51.7,122.2,52.1z"/>
	<path class="st3" d="M121.7,54.1c0.1-0.4,0.2-0.7,0.3-1.1C121.9,53.4,121.8,53.7,121.7,54.1z"/>
	<path class="st3" d="M127.2,30.1c0.1-0.4,0.2-0.7,0.3-1.1C127.4,29.4,127.3,29.7,127.2,30.1z"/>
	<path class="st3" d="M127.7,28.1c0.1-0.4,0.2-0.7,0.3-1.1C127.9,27.4,127.8,27.7,127.7,28.1z"/>
	<path class="st3" d="M120.7,58.6c0.1-0.4,0.2-0.7,0.3-1.1C120.9,57.9,120.8,58.2,120.7,58.6z"/>
	<path class="st3" d="M128.2,25.6c0.1-0.4,0.2-0.7,0.3-1.1C128.4,24.9,128.3,25.2,128.2,25.6z"/>
	<path class="st3" d="M120.2,60.6c0.1-0.4,0.2-0.7,0.3-1.1C120.4,59.9,120.3,60.2,120.2,60.6z"/>
	<path class="st3" d="M128.7,23.6c0.1-0.4,0.2-0.7,0.3-1.1C128.9,22.9,128.8,23.2,128.7,23.6z"/>
	<path class="st3" d="M129.2,21.6c0.1-0.4,0.2-0.7,0.3-1.1C129.4,20.9,129.3,21.2,129.2,21.6z"/>
	<path class="st3" d="M119.2,65.1c0.1-0.4,0.2-0.7,0.3-1.1C119.4,64.4,119.3,64.7,119.2,65.1z"/>
	<path class="st3" d="M129.7,19.1c0.1-0.4,0.2-0.7,0.3-1.1C129.9,18.4,129.8,18.7,129.7,19.1z"/>
	<path class="st3" d="M130.2,17.1c0.1-0.4,0.2-0.7,0.3-1.1C130.4,16.4,130.3,16.7,130.2,17.1z"/>
	<path class="st3" d="M117.7,71.6c0.1-0.4,0.2-0.7,0.3-1.1C117.9,70.9,117.8,71.2,117.7,71.6z"/>
	<path class="st3" d="M130.6,15.1c0.1-0.4,0.2-0.7,0.3-1.1C130.9,14.4,130.8,14.7,130.6,15.1z"/>
	<path class="st3" d="M131.2,12.6c0.1-0.4,0.2-0.7,0.3-1.1C131.4,11.9,131.3,12.2,131.2,12.6z"/>
	<path class="st3" d="M131.7,10.6c0.1-0.4,0.2-0.7,0.3-1.1C131.9,9.9,131.8,10.2,131.7,10.6z"/>
	<path class="st3" d="M132.1,8.6c0.1-0.4,0.2-0.7,0.4-1.1C132.4,7.9,132.3,8.2,132.1,8.6z"/>
	<path class="st1" d="M13,149c0.2,0.4,0.4,0.9,0.5,1.3C13.3,149.9,13.1,149.4,13,149z"/>
	<path class="st1" d="M15,149.5c0.3-0.2,0.7-0.3,1-0.5C15.7,149.2,15.3,149.4,15,149.5z"/>
	<path class="st1" d="M14.2,150.5c0.3-0.3,0.5-0.7,0.8-1C14.8,149.8,14.5,150.2,14.2,150.5z"/>
	<path class="st15" d="M23.7,81.6c0,1-0.1,1.9-0.1,2.9c-0.1,0.4-0.3,0.7-0.4,1.1c0,1-0.1,1.9-0.1,2.9c-0.1,0.4-0.3,0.7-0.4,1.1
		c0,0.8-0.1,1.6-0.1,2.4c-0.1,0.5-0.3,1.1-0.4,1.6c-0.2,2.1-0.4,4.3-0.6,6.4c-0.1,0.4-0.3,0.7-0.4,1.1c0,1-0.1,1.9-0.1,2.9
		c-0.1,0.4-0.3,0.7-0.4,1.1c0,1-0.1,1.9-0.1,2.9c-0.1,0.4-0.3,0.7-0.4,1.1c0,0.8-0.1,1.6-0.1,2.4c-0.1,0.4-0.3,0.7-0.4,1.1
		c0,0.8-0.1,1.6-0.1,2.4c-0.1,0.5-0.3,1.1-0.4,1.6c0,0.8-0.1,1.6-0.1,2.4c-1.4,0.1-1.7-0.7-1.6-1.8c0.4-3.3,0.9-6.5,1.3-9.8
		c0.8-6.6,1.5-13.3,2.2-19.9c0.5-3.5,1-7,1.5-10.5c0.4-0.6,0.7-1.1,1.2-1.8c0.3,0.7,0.6,1.3,0.9,1.8c0,1.1-0.1,2.3-0.1,3.4
		C24.1,80.8,23.9,81.2,23.7,81.6z"/>
	<path class="st16" d="M21,87.5c-0.7,6.6-1.4,13.3-2.2,19.9c-0.4,3.3-0.9,6.5-1.3,9.8c-0.2,1.2,0.1,2,1.6,1.8
		c-0.2,1.7-0.4,3.3-0.6,5c-1.5-0.6-1.9,0.2-2,1.5c-0.2,2-0.7,4-1,6c-0.2-0.5-0.4-1.1-0.6-1.6c0.1-1,0.1-2,0.2-2.9
		c0.1-0.4,0.2-0.7,0.4-1.1c0-1,0.1-2,0.1-2.9c0.1-0.4,0.2-0.7,0.3-1.1c0.1-1,0.1-2,0.2-2.9c0.1-0.4,0.2-0.7,0.3-1.1
		c0.1-1,0.1-2,0.2-2.9c0.1-0.4,0.2-0.7,0.3-1.1c0.1-1,0.1-2,0.2-2.9c0.1-0.4,0.2-0.7,0.3-1.1c0.1-1,0.1-2,0.2-2.9
		c0.1-0.4,0.2-0.7,0.3-1.1c0.1-1,0.1-2,0.2-2.9c0.1-0.4,0.2-0.7,0.3-1.1c0.1-1,0.1-2,0.2-2.9c0.1-0.4,0.2-0.7,0.3-1.1
		c0.1-1,0.1-2,0.2-2.9c0.1-0.4,0.2-0.7,0.3-1.1c0.1-1,0.1-2,0.2-2.9c0.1-0.4,0.2-0.7,0.3-1.1c0-0.8,0.1-1.6,0.1-2.4
		C20.3,87.5,20.7,87.5,21,87.5z"/>
	<path class="st16" d="M24.5,77c-0.3-0.5-0.5-1.1-0.9-1.8c-0.4,0.7-0.8,1.2-1.2,1.8c-0.3-1-0.6-1.9-1-2.9c0-0.2,0.1-0.4,0.1-0.7
		c1.1,0,2.2,2.3,3.4,0.1c0.3-0.1,0.5-0.1,0.8-0.2c0.9,0.1,1.8,0.2,2.8,0.3c-0.6,0.6-1.2,1.2-1.8,1.8C26,75.9,25.2,76.4,24.5,77z"/>
	<path class="st16" d="M-46.6,6.1c2,2.1,4,4.3,6.1,6.4C-42.5,10.4-44.6,8.2-46.6,6.1z"/>
	<path class="st16" d="M-10,43.5c1.7,1.7,3.3,3.3,5,5C-6.7,46.8-8.3,45.2-10,43.5z"/>
	<path class="st13" d="M14.9,129.9c0.2,0.5,0.4,1.1,0.6,1.6c0,1-0.1,1.9-0.1,2.9c-0.1,0.4-0.3,0.7-0.4,1.1c0,1-0.1,1.9-0.1,2.9
		c-0.3,0-0.6,0.1-0.9,0.1C13.1,135.5,13.6,132.7,14.9,129.9z"/>
	<path class="st13" d="M14.3,142.5c-0.3,0-0.6,0-0.9,0c0.1-1,0.3-2,0.4-3c0.2,0,0.4,0,0.6,0C14.4,140.5,14.3,141.5,14.3,142.5z"/>
	<path class="st13" d="M13.4,143.4c-0.3,1-0.5,2.1-0.8,3.1C12.9,145.5,13.1,144.5,13.4,143.4z"/>
	<path class="st13" d="M19.9,89.9c-0.1,0.4-0.2,0.7-0.3,1.1C19.7,90.6,19.8,90.3,19.9,89.9z"/>
	<path class="st13" d="M19.4,93.9c-0.1,0.4-0.2,0.7-0.3,1.1C19.2,94.6,19.3,94.3,19.4,93.9z"/>
	<path class="st13" d="M18.9,97.9c-0.1,0.4-0.2,0.7-0.3,1.1C18.7,98.6,18.8,98.3,18.9,97.9z"/>
	<path class="st13" d="M18.4,101.9c-0.1,0.4-0.2,0.7-0.3,1.1C18.2,102.6,18.3,102.3,18.4,101.9z"/>
	<path class="st13" d="M17.9,105.9c-0.1,0.4-0.2,0.7-0.3,1.1C17.7,106.6,17.8,106.3,17.9,105.9z"/>
	<path class="st13" d="M17.4,109.9c-0.1,0.4-0.2,0.7-0.3,1.1C17.2,110.6,17.3,110.3,17.4,109.9z"/>
	<path class="st13" d="M16.9,113.9c-0.1,0.4-0.2,0.7-0.3,1.1C16.7,114.6,16.8,114.3,16.9,113.9z"/>
	<path class="st13" d="M16.4,117.9c-0.1,0.4-0.2,0.7-0.3,1.1C16.2,118.6,16.3,118.3,16.4,117.9z"/>
	<path class="st13" d="M15.9,121.9c-0.1,0.4-0.2,0.7-0.3,1.1C15.7,122.6,15.8,122.3,15.9,121.9z"/>
	<path class="st13" d="M15.4,125.9c-0.1,0.4-0.2,0.7-0.4,1.1C15.2,126.6,15.3,126.3,15.4,125.9z"/>
	<path class="st16" d="M14.5,139.5c-0.2,0-0.4,0-0.6,0c0-0.3,0-0.7,0.1-1c0.3,0,0.6-0.1,0.9-0.1C14.7,138.8,14.6,139.1,14.5,139.5z"
		/>
	<path class="st26" d="M25.8,73.3c-0.3,0.1-0.5,0.1-0.8,0.2c-1.1-0.4-2.2-0.7-3.3-1.1c0,0-0.1-0.1-0.1-0.1c-0.5-0.6-1.1-1.2-1.6-1.8
		c-3.2-3.2-6.3-6.4-9.5-9.6c-0.3-0.5-0.5-1.1-0.8-1.5C2.8,52.3-4.2,45.2-11.2,38.1c-0.5-0.5-1.2-0.7-1.8-1.1c-4.5-4.5-9-9-13.4-13.6
		c-0.3-0.6-0.6-1.2-1-1.6c-7.8-8-15.7-16-23.5-24c-0.5-0.6-1.3-0.9-2-1.3C-58.2-8.7-63.3-13.9-68.5-19c0-0.3,0-0.6,0-0.9
		c2.6,0.2,5.2,0.5,7.8,0.7c2.2,2.2,4.4,4.4,6.6,6.6c1.6,1.6,3.1,3.1,4.7,4.7c2.6,2.6,5.2,5.3,7.8,7.9c2.2,2.2,4.4,4.4,6.6,6.6
		c2.2,2.2,4.3,4.4,6.5,6.5c3,3,6,6,9,9.1c2.5,2.5,5,5,7.5,7.6c1.5,1.6,3,3.2,4.6,4.8c1,0.9,1.9,1.8,2.9,2.7c0.7,0.7,1.5,1.5,2.2,2.2
		c2.1,2.1,4.2,4.2,6.3,6.4c2.2,2.2,4.3,4.3,6.5,6.5c2.5,2.6,5.1,5.1,7.6,7.7c2.2,2.1,4.4,4.2,6.7,6.3c0.5-0.4,1.2-0.8,1.9-1.3
		c20.3-14,40.6-27.9,60.8-41.9C99.1,15.2,110.8,7.1,122.5-1c2.5,0.4,5,0.7,7.5,1.1c-0.1,0.3-0.3,0.7-0.4,1c0,0,0,0,0,0
		c-0.4,0.3-0.7,0.6-1.1,0.9c-0.1,0.1-0.2,0.1-0.4,0.1c-0.4,0.3-0.7,0.6-1.1,0.9c-0.1,0.1-0.2,0.1-0.4,0.1c-0.4,0.3-0.7,0.6-1.1,0.9
		c-0.1,0.1-0.2,0.1-0.4,0.1c-0.4,0.3-0.7,0.6-1.1,0.9c-0.3,0.2-0.6,0.4-0.9,0.6c-0.4,0.3-0.7,0.6-1.1,0.9c-0.1,0.1-0.2,0.1-0.4,0.1
		c-0.4,0.3-0.7,0.6-1.1,0.9c-0.1,0.1-0.2,0.1-0.4,0.1c-0.4,0.3-0.7,0.6-1.1,0.9c-0.1,0.1-0.2,0.1-0.4,0.1c-0.4,0.3-0.7,0.6-1.1,0.9
		c-0.1,0.1-0.2,0.1-0.4,0.1c-0.6,0.4-1.1,0.9-1.7,1.3c-0.1,0.1-0.2,0.1-0.4,0.2c-0.4,0.3-0.7,0.6-1.1,0.9c-0.1,0.1-0.2,0.1-0.4,0.1
		c-0.4,0.3-0.7,0.6-1.1,0.9c-0.1,0.1-0.2,0.1-0.4,0.1c-0.4,0.3-0.7,0.6-1.1,0.9c-0.1,0.1-0.2,0.1-0.4,0.1c-0.6,0.4-1.1,0.9-1.7,1.3
		c-0.1,0.1-0.2,0.1-0.4,0.2c-0.4,0.3-0.7,0.6-1.1,0.9c-0.1,0.1-0.2,0.1-0.4,0.1c-0.4,0.3-0.7,0.6-1.1,0.9c-0.1,0.1-0.2,0.1-0.4,0.1
		c-0.4,0.3-0.7,0.6-1.1,0.9c-0.1,0.1-0.2,0.1-0.4,0.1c-0.4,0.3-0.7,0.6-1.1,0.9c-0.3,0.2-0.6,0.4-0.9,0.6c-0.4,0.3-0.8,0.5-1.1,0.8
		c0,0,0,0,0,0c-0.5,0.3-1,0.7-1.5,1c0,0,0,0,0,0c-0.5,0.3-1,0.7-1.5,1c0,0,0,0,0,0c-0.5,0.4-1,0.7-1.4,1.1c-0.1,0.1-0.2,0.1-0.4,0.1
		c-0.4,0.3-0.7,0.6-1.1,0.9c-0.3,0.2-0.6,0.4-0.9,0.6c-0.4,0.3-0.7,0.6-1.1,0.9c-0.1,0.1-0.2,0.1-0.4,0.1c-0.4,0.3-0.7,0.6-1.1,0.9
		c-0.1,0.1-0.2,0.1-0.4,0.1c-0.4,0.3-0.7,0.6-1.1,0.9c-0.1,0.1-0.2,0.1-0.4,0.1c-0.4,0.3-0.7,0.6-1.1,0.9c-0.2,0.1-0.4,0.3-0.6,0.4
		c-0.5,0.3-0.9,0.7-1.4,1c-0.1,0.1-0.2,0.1-0.4,0.1c-0.4,0.3-0.7,0.6-1.1,0.9c-0.1,0.1-0.2,0.1-0.4,0.1c-0.4,0.3-0.7,0.6-1.1,0.9
		c-0.1,0.1-0.2,0.1-0.4,0.1c-0.6,0.4-1.1,0.9-1.7,1.3c-0.1,0.1-0.2,0.1-0.4,0.1c-0.4,0.3-0.7,0.6-1.1,0.9c-0.1,0.1-0.2,0.1-0.4,0.1
		c-0.4,0.3-0.7,0.6-1.1,0.9c-0.1,0.1-0.2,0.1-0.4,0.1c-0.4,0.3-0.7,0.6-1.1,0.9c-0.1,0.1-0.2,0.1-0.4,0.1c-0.4,0.3-0.7,0.6-1.1,0.9
		c-0.3,0.2-0.6,0.4-0.9,0.6c-0.4,0.3-0.7,0.6-1.1,0.9c-0.1,0.1-0.2,0.1-0.4,0.1c-0.4,0.3-0.7,0.6-1.1,0.9c-0.1,0.1-0.2,0.1-0.4,0.1
		c-0.4,0.3-0.7,0.6-1.1,0.9c-0.1,0.1-0.2,0.1-0.4,0.1c-0.4,0.3-0.7,0.6-1.1,0.9c-0.1,0.1-0.2,0.1-0.4,0.1c-0.6,0.4-1.1,0.9-1.7,1.3
		c-0.1,0.1-0.2,0.1-0.4,0.1c-0.4,0.3-0.7,0.6-1.1,0.9c-0.1,0.1-0.2,0.1-0.4,0.1c-0.4,0.3-0.7,0.6-1.1,0.9c-0.1,0.1-0.2,0.1-0.4,0.1
		c-0.4,0.3-0.7,0.6-1.1,0.9c-0.1,0.1-0.2,0.1-0.4,0.1C61.1,48.4,60,49.2,59,50c-0.1,0.1-0.2,0.1-0.4,0.1c-0.4,0.3-0.7,0.6-1.1,0.9
		c-0.1,0.1-0.2,0.1-0.4,0.1c-0.4,0.3-0.7,0.6-1.1,0.9c-0.1,0.1-0.2,0.1-0.4,0.1c-0.6,0.4-1.1,0.9-1.7,1.3c-0.1,0.1-0.2,0.1-0.4,0.1
		c-0.4,0.3-0.7,0.6-1.1,0.9c-0.1,0.1-0.2,0.1-0.4,0.1c-0.4,0.3-0.7,0.6-1.1,0.9c-0.1,0.1-0.2,0.1-0.4,0.1c-0.4,0.3-0.7,0.6-1.1,0.9
		c-0.1,0.1-0.2,0.1-0.4,0.1C48.1,57.4,47,58.2,46,59c-0.1,0.1-0.2,0.1-0.4,0.1c-0.4,0.3-0.7,0.6-1.1,0.9c-0.1,0.1-0.2,0.1-0.4,0.1
		c-0.4,0.3-0.7,0.6-1.1,0.9c-0.1,0.1-0.2,0.1-0.4,0.1c-0.4,0.3-0.7,0.6-1.1,0.9c-0.1,0.1-0.2,0.1-0.4,0.1c-0.6,0.4-1.1,0.9-1.7,1.3
		c-0.1,0.1-0.2,0.1-0.4,0.1c-0.4,0.3-0.7,0.6-1.1,0.9c-0.1,0.1-0.2,0.1-0.4,0.1c-0.4,0.3-0.7,0.6-1.1,0.9c-0.1,0.1-0.2,0.1-0.4,0.1
		c-0.4,0.3-0.7,0.6-1.1,0.9c-0.1,0.1-0.2,0.1-0.4,0.1c-0.6,0.4-1.1,0.9-1.7,1.3c-0.1,0.1-0.2,0.1-0.4,0.1c-0.4,0.3-0.7,0.6-1.1,0.9
		c-0.1,0.1-0.2,0.1-0.4,0.1c-0.4,0.3-0.7,0.6-1.1,0.9c-0.1,0.1-0.2,0.1-0.4,0.1c-0.4,0.3-0.7,0.6-1.1,0.9c-0.1,0.1-0.2,0.1-0.4,0.1
		c-0.6,0.4-1.1,0.9-1.7,1.3C26.2,72.7,26,73,25.8,73.3z"/>
	<path class="st13" d="M-53-3.5c0.7,0.4,1.5,0.7,2,1.3c7.9,8,15.7,16,23.5,24c0.4,0.4,0.7,1.1,1,1.6c-0.7-0.5-1.6-0.8-2.2-1.4
		c-5.4-5.3-10.8-10.6-16-16.1C-47.6,2.9-50.2-0.3-53-3.5z"/>
	<path class="st13" d="M-13,37c0.6,0.4,1.4,0.6,1.8,1.1c7,7.1,13.9,14.2,20.9,21.4c0.4,0.4,0.6,1,0.8,1.5c-0.7-0.5-1.6-0.8-2.2-1.4
		C3.2,54.4-2,49.2-7.1,44C-9.2,41.8-11.1,39.3-13,37z"/>
	<path class="st13" d="M21.7,72.4c1.1,0.4,2.2,0.7,3.3,1.1c-1.2,2.2-2.3-0.1-3.4-0.1C21.6,73.1,21.6,72.7,21.7,72.4z"/>
	<path class="st13" d="M20,70.5c0.5,0.6,1.1,1.2,1.6,1.8C21.1,71.7,20.5,71.1,20,70.5z"/>
	<path class="st13" d="M-68.5-20c0,0.3,0,0.6,0,0.9c-0.5-0.4-0.9-0.8-1.4-1.2C-69.4-20.1-68.9-20-68.5-20z"/>
	<path class="st15" d="M14.5,139.5c0.1-0.4,0.3-0.7,0.4-1.1c0-1,0.1-1.9,0.1-2.9c0.1-0.4,0.3-0.7,0.4-1.1c0-1,0.1-1.9,0.1-2.9
		c0.3-2,0.8-4,1-6c0.2-1.3,0.5-2.1,2-1.5c0,1-0.1,2-0.1,2.9c-0.2,0.4-0.5,0.8-0.7,1.2c0,1-0.1,1.9-0.1,2.9c-0.1,0.4-0.3,0.7-0.4,1.1
		c-0.4,3.5-0.7,6.9-1.1,10.4c-0.6,0-1.2,0-1.8,0C14.3,141.5,14.4,140.5,14.5,139.5z"/>
	<path class="st16" d="M64.5,49c1.6-1.3,3.1-2.8,4.8-4c6.5-4.6,13.1-9.1,19.6-13.6c0.3-0.2,0.8-0.2,1.2-0.3
		c-1.8,1.5-3.5,3.1-5.4,4.5c-6.3,4.4-12.6,8.7-19,13C65.3,48.8,64.9,48.9,64.5,49z"/>
	<path class="st16" d="M58,53.5c2-1.5,4-3,6-4.5C62,50.5,60,52,58,53.5z"/>
	<path class="st16" d="M30.5,72.5c1.5-1.1,3-2.3,4.6-3.4C33.5,70.2,32,71.4,30.5,72.5z"/>
	<path class="st16" d="M37,68c1.5-1.1,3-2.3,4.6-3.4C40,65.7,38.5,66.9,37,68z"/>
	<path class="st16" d="M43.5,63.5c1.5-1.1,3-2.3,4.6-3.4C46.5,61.2,45,62.4,43.5,63.5z"/>
	<path class="st16" d="M51.5,58c1.5-1.1,3-2.3,4.6-3.4C54.5,55.7,53,56.9,51.5,58z"/>
	<path class="st16" d="M98.5,25.5c1-0.8,2.1-1.6,3.1-2.4C100.6,23.9,99.5,24.7,98.5,25.5z"/>
	<path class="st16" d="M22.1,93.6c0.1-0.5,0.3-1.1,0.4-1.6C22.4,92.5,22.3,93.1,22.1,93.6z"/>
	<path class="st16" d="M19.2,116.6c0.1-0.5,0.3-1.1,0.4-1.6C19.4,115.5,19.3,116.1,19.2,116.6z"/>
	<path class="st16" d="M56.5,54.5c0.3-0.3,0.7-0.6,1-1C57.2,53.9,56.9,54.2,56.5,54.5z"/>
	<path class="st16" d="M50,59c0.3-0.3,0.7-0.6,1-1C50.7,58.4,50.4,58.7,50,59z"/>
	<path class="st16" d="M48.5,60c0.3-0.3,0.7-0.6,1-1C49.2,59.4,48.9,59.7,48.5,60z"/>
	<path class="st16" d="M42,64.5c0.3-0.3,0.7-0.6,1-1C42.7,63.9,42.4,64.2,42,64.5z"/>
	<path class="st16" d="M35.5,69c0.3-0.3,0.7-0.6,1-1C36.2,68.4,35.9,68.7,35.5,69z"/>
	<path class="st16" d="M29,73.5c0.3-0.3,0.7-0.6,1-1C29.7,72.9,29.4,73.2,29,73.5z"/>
	<path class="st16" d="M23.7,81.6c0.2-0.4,0.5-0.8,0.7-1.2C24.1,80.8,23.9,81.2,23.7,81.6z"/>
	<path class="st16" d="M23.2,85.6c0.1-0.4,0.3-0.7,0.4-1.1C23.4,84.9,23.3,85.2,23.2,85.6z"/>
	<path class="st16" d="M22.7,89.6c0.1-0.4,0.3-0.7,0.4-1.1C22.9,88.9,22.8,89.2,22.7,89.6z"/>
	<path class="st16" d="M21.2,101.1c0.1-0.4,0.3-0.7,0.4-1.1C21.4,100.4,21.3,100.7,21.2,101.1z"/>
	<path class="st16" d="M20.7,105.1c0.1-0.4,0.3-0.7,0.4-1.1C20.9,104.4,20.8,104.7,20.7,105.1z"/>
	<path class="st16" d="M20.1,109.1c0.1-0.4,0.3-0.7,0.4-1.1C20.4,108.4,20.3,108.7,20.1,109.1z"/>
	<path class="st16" d="M19.7,112.6c0.1-0.4,0.3-0.7,0.4-1.1C19.9,111.9,19.8,112.2,19.7,112.6z"/>
	<path class="st16" d="M17.7,128.1c0.2-0.4,0.5-0.8,0.7-1.2C18.1,127.3,17.9,127.7,17.7,128.1z"/>
	<path class="st16" d="M17.2,132.1c0.1-0.4,0.3-0.7,0.4-1.1C17.4,131.4,17.3,131.7,17.2,132.1z"/>
	<path class="st1" d="M132.5,1c0-0.2,0-0.4,0.1-0.6C132.5,0.6,132.5,0.8,132.5,1z"/>
	<path class="st13" d="M46,59c1.1-0.8,2.1-1.5,3.2-2.3C48.1,57.4,47,58.2,46,59z"/>
	<path class="st13" d="M59,50c1.1-0.8,2.1-1.5,3.2-2.3C61.1,48.4,60,49.2,59,50z"/>
	<path class="st13" d="M33,67.9c0.6-0.4,1.1-0.9,1.7-1.3C34.1,67.1,33.5,67.5,33,67.9z"/>
	<path class="st13" d="M39.5,63.5c0.6-0.4,1.1-0.9,1.7-1.3C40.6,62.6,40,63,39.5,63.5z"/>
	<path class="st13" d="M26.5,72.5c0.6-0.4,1.1-0.9,1.7-1.3C27.6,71.6,27,72,26.5,72.5z"/>
	<path class="st13" d="M109,15.4c0.6-0.4,1.1-0.9,1.7-1.3C110.1,14.6,109.5,15,109,15.4z"/>
	<path class="st13" d="M54,53.4c0.6-0.4,1.1-0.9,1.7-1.3C55.1,52.6,54.5,53,54,53.4z"/>
	<path class="st13" d="M115.5,10.9c0.6-0.4,1.1-0.9,1.7-1.3C116.6,10.1,116,10.5,115.5,10.9z"/>
	<path class="st13" d="M81.5,34.4c0.6-0.4,1.1-0.9,1.7-1.3C82.6,33.6,82,34,81.5,34.4z"/>
	<path class="st13" d="M129.6,1.1c0.1-0.3,0.3-0.7,0.4-1c0.7,0,1.3,0,2,0C131.2,0.4,130.4,0.7,129.6,1.1z"/>
	<path class="st13" d="M67,44.4c0.6-0.4,1.1-0.9,1.7-1.3C68.1,43.6,67.5,44,67,44.4z"/>
	<path class="st13" d="M96.5,24c0.5-0.4,1-0.7,1.4-1.1C97.5,23.3,97,23.7,96.5,24z"/>
	<path class="st13" d="M98,22.9c0.5-0.3,1-0.7,1.5-1C98.9,22.3,98.4,22.6,98,22.9z"/>
	<path class="st13" d="M99.4,21.9c0.5-0.3,1-0.7,1.5-1C100.4,21.3,99.9,21.6,99.4,21.9z"/>
	<path class="st13" d="M86.5,31c0.5-0.3,0.9-0.7,1.4-1C87.4,30.3,86.9,30.6,86.5,31z"/>
	<path class="st13" d="M72,41c0.4-0.3,0.7-0.6,1.1-0.9C72.7,40.4,72.4,40.7,72,41z"/>
	<path class="st13" d="M73.5,40c0.4-0.3,0.7-0.6,1.1-0.9C74.2,39.4,73.8,39.7,73.5,40z"/>
	<path class="st13" d="M70.5,42c0.4-0.3,0.7-0.6,1.1-0.9C71.2,41.4,70.9,41.7,70.5,42z"/>
	<path class="st13" d="M69,43c0.4-0.3,0.7-0.6,1.1-0.9C69.8,42.4,69.4,42.7,69,43z"/>
	<path class="st13" d="M75.5,38.5c0.4-0.3,0.7-0.6,1.1-0.9C76.3,37.9,75.9,38.2,75.5,38.5z"/>
	<path class="st13" d="M77,37.5c0.4-0.3,0.7-0.6,1.1-0.9C77.7,36.9,77.4,37.2,77,37.5z"/>
	<path class="st13" d="M65.5,45.5c0.4-0.3,0.7-0.6,1.1-0.9C66.2,44.9,65.9,45.2,65.5,45.5z"/>
	<path class="st13" d="M64,46.5c0.4-0.3,0.7-0.6,1.1-0.9C64.7,45.9,64.4,46.2,64,46.5z"/>
	<path class="st13" d="M78.5,36.5c0.4-0.3,0.7-0.6,1.1-0.9C79.2,35.9,78.9,36.2,78.5,36.5z"/>
	<path class="st13" d="M80,35.5c0.4-0.3,0.7-0.6,1.1-0.9C80.7,34.9,80.3,35.2,80,35.5z"/>
	<path class="st13" d="M62.5,47.5c0.4-0.3,0.7-0.6,1.1-0.9C63.3,46.9,62.9,47.2,62.5,47.5z"/>
	<path class="st13" d="M83.5,33c0.4-0.3,0.7-0.6,1.1-0.9C84.2,32.4,83.9,32.7,83.5,33z"/>
	<path class="st13" d="M57.5,51c0.4-0.3,0.7-0.6,1.1-0.9C58.2,50.4,57.9,50.7,57.5,51z"/>
	<path class="st13" d="M56,52c0.4-0.3,0.7-0.6,1.1-0.9C56.7,51.4,56.4,51.7,56,52z"/>
	<path class="st13" d="M85,32c0.4-0.3,0.7-0.6,1.1-0.9C85.7,31.4,85.4,31.7,85,32z"/>
	<path class="st13" d="M52.5,54.5c0.4-0.3,0.7-0.6,1.1-0.9C53.2,53.9,52.8,54.2,52.5,54.5z"/>
	<path class="st13" d="M51,55.5c0.4-0.3,0.7-0.6,1.1-0.9C51.7,54.9,51.4,55.2,51,55.5z"/>
	<path class="st13" d="M88.5,29.5c0.4-0.3,0.7-0.6,1.1-0.9C89.3,28.9,88.9,29.2,88.5,29.5z"/>
	<path class="st13" d="M90,28.5c0.4-0.3,0.7-0.6,1.1-0.9C90.7,27.9,90.4,28.2,90,28.5z"/>
	<path class="st13" d="M49.5,56.5c0.4-0.3,0.7-0.6,1.1-0.9C50.2,55.9,49.9,56.2,49.5,56.5z"/>
	<path class="st13" d="M91.5,27.5c0.4-0.3,0.7-0.6,1.1-0.9C92.2,26.9,91.9,27.2,91.5,27.5z"/>
	<path class="st13" d="M93,26.5c0.4-0.3,0.7-0.6,1.1-0.9C93.7,25.9,93.4,26.2,93,26.5z"/>
	<path class="st13" d="M44.5,60c0.4-0.3,0.7-0.6,1.1-0.9C45.2,59.4,44.9,59.7,44.5,60z"/>
	<path class="st13" d="M43,61c0.4-0.3,0.7-0.6,1.1-0.9C43.7,60.4,43.4,60.7,43,61z"/>
	<path class="st13" d="M95,25c0.4-0.3,0.7-0.6,1.1-0.9C95.8,24.4,95.4,24.7,95,25z"/>
	<path class="st13" d="M41.5,62c0.4-0.3,0.7-0.6,1.1-0.9C42.3,61.4,41.9,61.7,41.5,62z"/>
	<path class="st13" d="M38,64.5c0.4-0.3,0.7-0.6,1.1-0.9C38.7,63.9,38.4,64.2,38,64.5z"/>
	<path class="st13" d="M36.5,65.5c0.4-0.3,0.7-0.6,1.1-0.9C37.2,64.9,36.9,65.2,36.5,65.5z"/>
	<path class="st13" d="M100.9,20.9c0.4-0.3,0.8-0.5,1.1-0.8C101.7,20.4,101.3,20.6,100.9,20.9z"/>
	<path class="st13" d="M35,66.5c0.4-0.3,0.7-0.6,1.1-0.9C35.8,65.9,35.4,66.2,35,66.5z"/>
	<path class="st13" d="M103,19.5c0.4-0.3,0.7-0.6,1.1-0.9C103.8,18.9,103.4,19.2,103,19.5z"/>
	<path class="st13" d="M104.5,18.5c0.4-0.3,0.7-0.6,1.1-0.9C105.2,17.9,104.9,18.2,104.5,18.5z"/>
	<path class="st13" d="M106,17.5c0.4-0.3,0.7-0.6,1.1-0.9C106.7,16.9,106.4,17.2,106,17.5z"/>
	<path class="st13" d="M31.5,69c0.4-0.3,0.7-0.6,1.1-0.9C32.2,68.4,31.9,68.7,31.5,69z"/>
	<path class="st13" d="M30,70c0.4-0.3,0.7-0.6,1.1-0.9C30.7,69.4,30.4,69.7,30,70z"/>
	<path class="st13" d="M28.5,71c0.4-0.3,0.7-0.6,1.1-0.9C29.2,70.4,28.9,70.7,28.5,71z"/>
	<path class="st13" d="M107.5,16.5c0.4-0.3,0.7-0.6,1.1-0.9C108.2,15.9,107.8,16.2,107.5,16.5z"/>
	<path class="st13" d="M111,14c0.4-0.3,0.7-0.6,1.1-0.9C111.7,13.4,111.4,13.7,111,14z"/>
	<path class="st13" d="M112.5,13c0.4-0.3,0.7-0.6,1.1-0.9C113.2,12.4,112.9,12.7,112.5,13z"/>
	<path class="st13" d="M114,12c0.4-0.3,0.7-0.6,1.1-0.9C114.7,11.4,114.3,11.7,114,12z"/>
	<path class="st13" d="M117.5,9.5c0.4-0.3,0.7-0.6,1.1-0.9C118.2,8.9,117.9,9.2,117.5,9.5z"/>
	<path class="st13" d="M119,8.5c0.4-0.3,0.7-0.6,1.1-0.9C119.7,7.9,119.4,8.2,119,8.5z"/>
	<path class="st13" d="M120.5,7.5c0.4-0.3,0.7-0.6,1.1-0.9C121.2,6.9,120.8,7.2,120.5,7.5z"/>
	<path class="st13" d="M122,6.4c0.4-0.3,0.7-0.6,1.1-0.9C122.7,5.9,122.3,6.2,122,6.4z"/>
	<path class="st13" d="M128.5,2c0.4-0.3,0.7-0.6,1.1-0.9C129.2,1.4,128.8,1.7,128.5,2z"/>
	<path class="st13" d="M124,5c0.4-0.3,0.7-0.6,1.1-0.9C124.8,4.4,124.4,4.7,124,5z"/>
	<path class="st13" d="M125.5,4c0.4-0.3,0.7-0.6,1.1-0.9C126.2,3.4,125.9,3.7,125.5,4z"/>
	<path class="st13" d="M127,3c0.4-0.3,0.7-0.6,1.1-0.9C127.7,2.4,127.4,2.7,127,3z"/>
	<path class="st20" d="M18,60.1c-2.5-2.6-5.1-5.1-7.6-7.7c0.7-0.7,1.3-1.5,2.1-2.1c7-4.8,14.1-9.5,21.2-14.3
		c9.9-6.8,19.8-13.6,29.7-20.3C73.2,8.9,83,2.2,92.9-4.5c5-3.4,10.1-6.7,15.1-10.1c2.5,2.3,5,4.7,7.5,7c-0.5,0.5-1,1.1-1.6,1.5
		c-8.2,5.6-16.4,11.3-24.6,16.9c-9.8,6.7-19.6,13.3-29.4,20c-11,7.5-22,15.1-33,22.7C23.9,55.6,21,57.9,18,60.1z"/>
	<path class="st8" d="M-12.1,29.7c-2.5-2.5-5-5-7.5-7.6c2.3-1.7,4.6-3.5,7-5.1C-4.2,11.5,4.2,6,12.5,0.5
		c14.9-9.8,29.8-19.6,44.6-29.4c5.9-3.9,11.8-7.8,17.7-11.6c3.2-2.1,3.9-2,6.6,0.7c1.4,1.4,2.7,2.9,4.1,4.3
		C75.4-28.8,65.2-22,55.1-15.3C43.5-7.5,31.8,0.2,20.2,7.9c-7.6,5-15.2,10-22.8,15C-5.9,25.1-8.9,27.5-12.1,29.7z"/>
	<path class="st7" d="M-41.7-0.1c-2.6-2.6-5.2-5.3-7.8-7.9c1.1-0.5,2.3-1,3.3-1.6c3.6-2.2,7.1-4.6,10.6-6.9
		c11.3-7.2,22.6-14.4,33.9-21.7c8.1-5.2,16.2-10.3,24.3-15.5c8.6-5.6,17.2-11.2,25.8-16.9c2.3,2.2,4.7,4.3,7,6.5
		c-0.9,0.8-1.6,1.6-2.6,2.2c-6.1,4-12.3,7.8-18.4,11.8c-8.2,5.3-16.3,10.7-24.6,16c-16.6,10.7-33.2,21.3-49.7,32
		C-40.5-1.5-41-0.7-41.7-0.1z"/>
	<path class="st27" d="M18,60.1c3-2.2,6-4.4,9-6.5c11-7.6,21.9-15.1,33-22.7c9.8-6.7,19.6-13.3,29.4-20C97.6,5.3,105.8-0.3,113.9-6
		c0.6-0.4,1.1-1,1.6-1.5c2.3,2.2,4.7,4.3,7,6.5c-11.7,8.1-23.4,16.2-35.1,24.3c-20.3,14-40.5,27.9-60.8,41.9
		c-0.7,0.5-1.4,0.9-1.9,1.3C22.4,64.2,20.2,62.1,18,60.1z"/>
	<path class="st11" d="M-41.7-0.1c0.6-0.6,1.2-1.4,1.9-1.9C-23.2-12.6-6.6-23.3,9.9-34c8.2-5.3,16.4-10.7,24.6-16
		c6.1-4,12.3-7.8,18.4-11.8c1-0.6,1.7-1.5,2.6-2.2c2,1.8,4,3.7,6,5.5c-0.6,1.2-1,2.7-2,3.4c-10.7,7.1-21.5,14-32.3,21
		C17.3-27.7,7.4-21.4-2.5-15C-10.4-9.9-18.2-4.8-26.1,0.4c-3,2-6,4.1-9,6.2C-37.2,4.3-39.4,2.1-41.7-0.1z"/>
	<path class="st12" d="M-35,6.6c3-2.1,5.9-4.2,9-6.2C-18.2-4.8-10.4-9.9-2.5-15c9.9-6.4,19.8-12.7,29.7-19.1
		c10.8-7,21.6-13.9,32.3-21c1-0.6,1.3-2.2,2-3.4c1.9,1.8,3.9,3.6,5.7,5.5c1.7,1.7,0.4,2.9-1,3.8c-3.7,2.5-7.5,4.9-11.2,7.3
		c-7.4,4.8-14.7,9.6-22.1,14.4c-8.7,5.6-17.4,11.2-26,16.9c-10.7,7-21.3,14-32,21c-1.2,0.8-2.3,1.8-3.5,2.7
		C-30.7,10.9-32.9,8.7-35,6.6z"/>
	<path class="st22" d="M108-14.5c-5,3.4-10.1,6.7-15.1,10.1C83,2.2,73.2,8.9,63.3,15.6C53.4,22.4,43.5,29.2,33.6,36
		c-7,4.8-14.1,9.5-21.2,14.3c-0.8,0.5-1.4,1.4-2.1,2.1C8.2,50.2,6,48,3.9,45.8c1.8-1.4,3.5-2.9,5.4-4.2c10-6.7,20.2-13.4,30.2-20.2
		C53.7,11.9,67.8,2.3,81.9-7.3c6.5-4.4,13.1-8.8,19.6-13.3C103.7-18.5,105.8-16.5,108-14.5z"/>
	<path class="st6" d="M-54.1-12.7c-2.2-2.2-4.4-4.4-6.6-6.6c5.6-3.6,11.1-7.2,16.7-10.8c21.3-13.5,42.6-27,63.9-40.5
		c5.2-3.3,10.4-6.5,15.5-9.9c1.3-0.9,2.2-0.8,3.3,0.3c1.4,1.5,2.9,3,4.3,4.5c-6.7,4.3-13.3,8.7-20,13C15-57.4,6.9-52.3-1.1-47.2
		c-10.3,6.6-20.7,13.2-31,19.8c-6.7,4.3-13.4,8.5-20.1,12.9C-53-14.1-53.5-13.3-54.1-12.7z"/>
	<path class="st5" d="M101.5-20.5C95-16.1,88.5-11.7,81.9-7.3C67.8,2.3,53.7,11.9,39.5,21.5c-10,6.8-20.2,13.4-30.2,20.2
		c-1.9,1.3-3.6,2.8-5.4,4.2c-2.1-2.1-4.2-4.2-6.3-6.4C13.7,28.7,29.9,18,46,7.2C53,2.5,60-2.3,67-7c9.5-6.4,19-12.7,28.5-19
		C97.5-24.2,99.5-22.3,101.5-20.5z"/>
	<path class="st28" d="M-54.1-12.7c0.6-0.6,1.1-1.4,1.9-1.9c6.7-4.3,13.4-8.6,20.1-12.9c10.3-6.6,20.7-13.2,31-19.8
		C6.9-52.3,15-57.4,23-62.5c6.7-4.3,13.3-8.7,20-13c1.8,1.7,3.7,3.3,5.5,5c-8.6,5.6-17.2,11.3-25.8,16.9
		C14.7-48.4,6.5-43.3-1.6-38.1c-11.3,7.2-22.6,14.4-33.9,21.7c-3.6,2.3-7.1,4.6-10.6,6.9c-1,0.7-2.2,1.1-3.3,1.6
		C-51-9.6-52.6-11.1-54.1-12.7z"/>
	<path class="st21" d="M-12.1,29.7c3.1-2.3,6.2-4.6,9.4-6.7c7.6-5.1,15.2-10,22.8-15c11.7-7.7,23.3-15.5,35-23.2
		C65.2-22,75.4-28.8,85.5-35.5c1.7,1.5,3.3,3,5,4.5c-8.4,5.5-16.8,10.9-25.2,16.5c-7.9,5.3-15.8,10.7-23.7,16
		c-6.5,4.3-13,8.5-19.5,12.8C14.7,19.1,7.4,24,0,29c-2.6,1.8-5,3.7-7.6,5.5C-9,32.9-10.6,31.3-12.1,29.7z"/>
	<path class="st10" d="M-7.5,34.6c2.5-1.9,5-3.8,7.6-5.5c7.3-5,14.7-9.9,22.1-14.8c6.5-4.3,13-8.5,19.5-12.8
		c7.9-5.3,15.8-10.7,23.7-16c8.4-5.5,16.8-11,25.2-16.5c0.8,0.8,1.7,1.7,2.5,2.5c-8.6,5.8-17.2,11.6-25.8,17.4
		C57.7-4.8,48.1,1.4,38.6,7.7C26.6,15.8,14.5,23.9,2.5,32c-2.4,1.7-4.8,3.5-7.1,5.3C-5.6,36.4-6.6,35.5-7.5,34.6z"/>
	<path class="st23" d="M-4.6,37.3c2.4-1.8,4.7-3.6,7.1-5.3c12-8.1,24-16.2,36.1-24.3c9.5-6.3,19.1-12.5,28.6-18.9
		c8.6-5.7,17.2-11.6,25.8-17.4c0.8,0.8,1.7,1.7,2.5,2.5C86-19.7,76.5-13.3,67-7C60-2.3,53,2.5,46,7.2C29.9,18,13.7,28.7-2.4,39.5
		C-3.2,38.7-3.9,38-4.6,37.3z"/>
	<path class="st16" d="M15.3,134.4c-0.1,0.4-0.3,0.7-0.4,1.1C15.1,135.1,15.2,134.8,15.3,134.4z"/>
</g>
<g id="Layer_2">
	<polygon class="st29" points="-69.8,-20.2 25,73.5 131.9,0.1 39.5,-89.7 	"/>
</g>
<g id="Layer_3">
	<polygon class="st30" points="25,73.5 131.9,0.1 115.9,77.1 15,149.5 	"/>
</g>
<g id="Layer_4">
	<path class="st31" d="M-70-20.5l-0.1,1.5c0,0.3,0,0.6-0.1,0.9L-74.6,56l89.5,96.7L25,73.5L-70-20.5z"/>
</g>
<g id="Layer_6" class="st0">
</g>
<g id="Layer_7">
	<polyline class="st32" points="-70,-20.5 25,73.5 131.9,0.1 	"/>
	<line class="st32" x1="25" y1="73.5" x2="15" y2="149.5"/>
</g>
</svg>
