<?xml version="1.0" encoding="utf-8"?>
<!-- Generator: Adobe Illustrator 25.4.1, SVG Export Plug-In . SVG Version: 6.00 Build 0)  -->
<svg version="1.1" id="Layer_1" xmlns="http://www.w3.org/2000/svg" xmlns:xlink="http://www.w3.org/1999/xlink" x="0px" y="0px"
	 viewBox="0 0 419.3 133.5" style="enable-background:new 0 0 419.3 133.5;" xml:space="preserve">
<style type="text/css">
	.st0{fill:#CA2A38;}
	.st1{fill:#FFFFFF;}
	.st2{fill:#FEFDFD;}
	.st3{fill:#FEFCFC;}
	.st4{fill:#FDFBFC;}
	.st5{fill:#3A92CC;}
	.st6{fill:#0A0A0A;}
	.st7{fill:#050505;}
	.st8{fill:#85ADC8;}
	.st9{fill:#020202;}
	.st10{fill:#CB2F3C;}
	.st11{fill:#77AED2;}
</style>
<path class="st0" d="M209.6,95c68.8,0,137.6,0,206.4,0c3.2,0,3.2,0,3.2,3.2c0,6.7,0,13.5,0,20.2c0,9.5-5.7,15.1-15.1,15.1
	c-129.6,0-259.2,0-388.8,0c-9.6,0-15.2-5.6-15.2-15.2c0-6.8,0.1-13.7-0.1-20.5c-0.1-2.4,0.8-2.8,3-2.8C71.9,95,140.8,95,209.6,95z"
	/>
<path class="st1" d="M205.2,0c11.5,0,23,0,34.5,0c5.7,0,8.5,2.8,8.5,8.4c0,23.1,0,46.1,0,69.2c0,5.6-2.9,8.5-8.4,8.5
	c-23.1,0-46.3,0-69.5,0c-5.3,0-8.2-2.9-8.2-8.2c0-23.2,0-46.4,0-69.7c0-5.5,2.8-8.2,8.3-8.2C182.1,0,193.6,0,205.2,0z"/>
<path class="st1" d="M335.9,71.1c-26.6,0-53.1,0-79.7,0c-0.8,0-2.3,0.7-2.5-0.7c-0.3-1.5-0.4-3.2,0.2-4.7c0.2-0.6,1-0.3,1.6-0.3
	c3.3,0,6.7,0,10,0c49.9,0,99.8,0,149.7,0c1,0,2.7-0.6,3,0.4c0.5,1.4,0.2,3.1,0.2,4.7c0,0.6-0.5,0.6-0.9,0.6c-0.7,0-1.3,0-2,0
	C388.9,71.1,362.4,71.1,335.9,71.1z"/>
<path class="st1" d="M78.2,71.1c-25.2,0-50.3-0.1-75.5,0.1c-2.5,0-2.6-0.9-2.6-2.9c0.1-1.8-0.1-3,2.5-3c50.5,0.1,101,0.1,151.5,0.1
	c0.8,0,2.1-0.6,2.2,0.8c0.1,1.5,0.5,3.2-0.3,4.6c-0.2,0.4-1.5,0.2-2.4,0.2C128.6,71.1,103.4,71.1,78.2,71.1z"/>
<path class="st1" d="M297.7,47.9c0,2.7-0.2,5.3,0,8c0.2,2.1-0.7,2.9-2.5,3.6c-7.1,2.7-14.2,3.9-21.7,1.8
	c-10.4-2.8-14.9-11.9-14.6-21.2c0.3-7.9,3.2-14.6,10.6-18.3c8.6-4.2,17.3-3.8,25.7,1.1c1.4,0.8,1.8,1.6,0.3,2.7
	c-0.1,0.1-0.2,0.2-0.3,0.4c-1.1,1.1-2,2.8-3.4,3.2c-1.5,0.5-2.6-1.3-4-2c-8.2-3.8-17.2-0.4-20.2,7.7c-3.1,8.5,1.2,18,9.2,20.3
	c4,1.1,8.1,0.6,12-0.8c1-0.4,1.6-0.9,1.6-2.1c-0.1-2.2-0.1-4.5,0-6.7c0.1-1.4-0.5-1.7-1.7-1.6c-1.7,0.1-3.5,0-5.2,0
	c-1.1,0-1.5-0.4-1.5-1.4c0-0.2,0-0.3,0-0.5c-0.1-4.7-0.1-4.7,4.6-4.7c3.1,0,6.2,0.1,9.2,0c1.5,0,2.1,0.4,2,1.9
	C297.7,42.1,297.8,45,297.7,47.9C297.7,47.9,297.7,47.9,297.7,47.9z"/>
<path class="st1" d="M410.1,39.4c4.7,1.2,7.8,3.6,8.6,8.2c1,5.8-1.9,10.5-7.5,12.4c-2.3,0.8-4.7,1.1-7.1,1.1c-4.6,0-9.2-0.1-13.7,0
	c-1.5,0-2-0.4-2-1.9c0.1-12.5,0-25,0-37.5c0-1.4,0.4-1.9,1.8-1.9c5.3,0.1,10.7-0.1,16,0.2c6.8,0.3,11.2,4.6,11,10.7
	C417,35.3,414.3,37.7,410.1,39.4z"/>
<path class="st1" d="M327.1,43c3.7,6.1,7.1,11.9,10.8,18.1c-3,0-5.5,0-8.1,0c-1.1,0-1.3-1-1.6-1.6c-2.6-4.6-5.1-9.3-7.7-14
	c-0.8-1.4-4.5-2.4-5.9-1.6c-0.7,0.5-0.4,1.2-0.4,1.8c0,4.5-0.1,9,0,13.5c0,1.5-0.4,2-1.9,2c-5.5,0.1-5.5,0.1-5.5-5.4
	c0-11.2,0-22.3,0-33.5c0-1.9,0.4-2.5,2.3-2.4c5.9,0.3,11.8-0.5,17.7,0.6c9,1.7,12.8,11.1,7.6,18.3C332.7,41.3,330.3,42.4,327.1,43z"
	/>
<path class="st1" d="M33.5,35.1c0-4.3,0-8.7,0-13c0-1.4,0.2-2.1,1.9-2.1c5.5-0.1,5.5-0.1,5.5,5.4c0,6.8-0.1,13.7,0,20.5
	c0.1,5.6,3.2,8.9,8.4,9.4c6,0.5,10-3.2,10.1-9.4c0.1-7.8,0.1-15.7,0-23.5c0-2,0.6-2.5,2.5-2.5c4.9,0.1,4.9,0,4.9,5
	c0,7.2,0.1,14.5-0.1,21.7c-0.2,7.2-4.3,12.7-10.6,14.8c-7.3,2.3-14.9,0.3-19.3-5.2c-2.6-3.2-3.2-7-3.2-11
	C33.5,41.9,33.5,38.5,33.5,35.1z"/>
<path class="st1" d="M377.7,35.1c0,3.9,0,7.8,0,11.7c-0.2,13.1-13.8,18.6-23.8,14.2c-6-2.7-9.1-7.4-9.2-13.9
	c-0.1-8.4,0-16.8-0.1-25.2c0-1.5,0.5-1.8,1.9-1.8c5.4-0.1,5.4-0.1,5.4,5.2c0,6.8-0.1,13.7,0,20.5c0.2,7.2,5.6,11.2,12.4,9.2
	c3.8-1.1,6-4,6.1-8.7c0.2-7.3,0.1-14.6,0.1-22c0-0.8,0-1.7,0-2.5c0-0.3-0.1-0.8,0.1-1c1.9-1.5,4.1-0.4,6.2-0.6
	c1.5-0.2,1.1,1.1,1.1,2C377.8,26.4,377.8,30.7,377.7,35.1C377.8,35.1,377.8,35.1,377.7,35.1z"/>
<path class="st1" d="M139,26.6c-6.8,0-13.1-0.1-19.3,0.1c-2.1,0.1-2.5-0.6-2.4-2.5c0.1-4.1,0-4.1,4.3-4.1c8.2,0,16.3,0,24.5,0
	c1.6,0,2.1,0.4,2.2,2.1c0.2,3.1-0.6,5.5-2.6,7.9c-6.1,7.3-11.9,14.8-17.8,22.3c-0.5,0.6-1.2,1.2-1.3,2.1c0.6,0.6,1.4,0.3,2.1,0.3
	c5.9,0,11.8,0.1,17.7,0c1.6,0,2.2,0.4,2.2,2.1c0,4.6,0.1,4.6-4.4,4.6c-8.2,0-16.5-0.1-24.7,0c-1.9,0-2.5-0.4-2.6-2.4
	c-0.1-3,0.8-5.3,2.7-7.7C126.1,43.2,132.3,35.1,139,26.6z"/>
<path class="st1" d="M88.2,43.8c0-4.7-0.1-9.5,0.1-14.2c0.1-2.3-0.4-3.3-2.9-3c-2.7,0.2-5.5,0-8.2,0.1c-1.2,0-1.5-0.4-1.6-1.6
	C75.2,20,75.1,20,80.3,20c8.5,0,17,0.1,25.5,0c1.8,0,2.5,0.4,2.4,2.3c-0.1,4.3,0,4.3-4.3,4.3c-2,0-4,0.1-6,0
	C96,26.4,95.3,27,95.3,29c0.1,9.9,0,19.8,0.1,29.7c0,2.2-0.6,2.6-2.6,2.5c-4.6-0.1-4.6,0-4.6-4.7C88.2,52.3,88.2,48.1,88.2,43.8z"/>
<path class="st1" d="M0.4,40.5c0-6.2,0-12.3,0-18.5c0-1.5,0.4-2,2-2c5.5-0.1,5.5-0.1,5.5,5.4c0,9,0.1,18,0,27c0,1.9,0.5,2.4,2.4,2.3
	c4.4-0.1,8.8,0,13.2-0.1c1.5,0,2,0.3,2,1.9c0,4.8,0.1,4.8-4.6,4.8c-6.1,0-12.2-0.1-18.2,0c-1.6,0-2.1-0.4-2.1-2.1
	C0.4,53,0.4,46.8,0.4,40.5z"/>
<path class="st2" d="M242.9,109.5c0,4.5,0,8.9,0,13.4c0,1.1,0.4,2.4-1.6,2.4c-2,0-1.6-1.3-1.6-2.4c0-5,0-10,0-15
	c0-0.9-0.7-2.5,1.1-2.5c1.6,0,3.7-1.1,4.7,1.4c1.7,4.3,3.5,8.6,5.3,12.9c0.2,0.5,0.3,1.1,1.1,1.5c1.9-4.6,3.8-9.2,5.6-13.8
	c0.7-1.8,3.8-2.9,5.5-2c0.7,0.4,0.5,1,0.5,1.5c0,5.6,0,11.1,0,16.7c0,1.2-0.3,1.6-1.6,1.6c-1.2,0-1.6-0.4-1.6-1.6
	c0-4.8,0-9.6-0.4-14.6c-0.6,1.2-1.1,2.4-1.7,3.7c-1.5,3.5-3,7.1-4.5,10.6c-0.5,1.1-0.9,2-2.4,2c-1.6,0-1.9-1.1-2.3-2.1
	c-1.9-4.6-3.8-9.2-5.8-13.8C243.3,109.4,243.1,109.5,242.9,109.5z"/>
<path class="st3" d="M198.3,115.1c0-2.6,0.1-5.2,0-7.7c0-1.4,0.3-2.2,1.9-2.1c2.9,0.1,5.8-0.2,8.7,0.6c5.1,1.4,7.7,5,7.4,10.1
	c-0.2,4.9-3.3,8.2-8.5,8.9c-2.6,0.3-5.3,0.2-8,0.3c-1.2,0.1-1.6-0.5-1.6-1.6C198.4,120.8,198.3,117.9,198.3,115.1z"/>
<path class="st2" d="M150,125.2c-1.6,0.3-2.1-0.8-2.4-2c-0.7-2.6-2.3-3.6-4.9-3.1c-0.7,0.1-1.5,0.1-2.2,0c-3.2-0.4-5.9,0-6.6,3.9
	c-0.3,1.6-1.8,1.5-2.8,1.1c-1.5-0.5-0.2-1.5,0.1-2.2c2.5-5.4,5-10.7,7.5-16c0.5-1.1,1.1-1.7,2.4-1.7c1.3,0,1.9,0.5,2.4,1.6
	c2.5,5.6,5.1,11.2,7.7,16.7C151.9,125.1,151.3,125.4,150,125.2z"/>
<path class="st2" d="M173.1,124.9c2.9-6.2,5.7-12.4,8.7-18.5c0.8-1.7,3.5-1.5,4.3,0.3c2.6,5.6,5.2,11.1,7.8,16.8
	c0.2,0.5,1,1.4,0.1,1.7c-0.8,0.3-2,0.5-2.8-0.3c-0.1-0.1-0.2-0.3-0.3-0.4c-0.8-4.9-4.4-4.5-7.9-4.2c-0.4,0-0.9,0.1-1.2,0
	c-2.6-0.5-3.9,0.6-4.7,3.1C176.2,125.5,176.1,125.5,173.1,124.9z"/>
<path class="st4" d="M221.8,115.1c0-2.6,0.1-5.1,0-7.7c0-1.4,0.3-2.1,1.9-2.1c2.9,0.1,5.8,0,8.7,0c1,0,1.8,0.1,1.8,1.5
	c0,1.3-0.8,1.2-1.7,1.2c-1.9,0-3.8,0.1-5.7,0c-1.3-0.1-1.8,0.4-1.7,1.7c0.1,0.7,0.1,1.3,0,2c-0.2,1.5,0.4,2.1,1.9,2
	c1.7-0.1,3.3,0,5,0c0.9,0,1.4,0.3,1.4,1.3c0,1-0.5,1.3-1.4,1.3c-1.7,0-3.5,0.1-5.2,0c-1.3-0.1-1.7,0.5-1.7,1.8
	c-0.2,4.8-0.2,4.8,4.4,4.8c0.9,0,1.8,0,2.7,0c0.9,0,1.9-0.3,2,1.2c0,1.4-1,1.3-1.9,1.3c-2.8,0-5.7-0.1-8.5,0c-1.8,0.1-2.1-0.7-2-2.2
	C221.9,120.4,221.8,117.7,221.8,115.1z"/>
<path class="st3" d="M166.2,125.6c-9.1,0.1-14.5-7.8-10.5-15.1c2.5-4.5,9.4-6.9,14.2-5c1.2,0.5,1.1,1.3,0.9,2.2
	c-0.2,1.1-1,0.5-1.5,0.4c-1.7-0.5-3.4-0.7-5.2-0.2c-4.1,1-6.5,4.1-6.1,8.1c0.3,3.8,3.2,6.6,7.2,7c1.4,0.1,2.8,0,4.2-0.4
	c0.7-0.2,1.5-0.5,1.6,0.8c0.1,0.9,0,1.5-1.1,1.8C168.5,125.5,167.3,125.5,166.2,125.6z"/>
<path class="st4" d="M267.7,105.6c2.5-0.8,3.8,0,5,1.8c1.2,1.9,2.6,3.6,3.9,5.5c0.8,1.1,1.3,1.3,2.1,0c1.3-1.9,2.8-3.7,4-5.7
	c1.1-1.8,2.5-2.2,4.7-1.6c-1.6,2.2-2.9,4.4-4.6,6.3c-2.9,3.2-4.2,6.8-3.7,11.1c0.1,0.7,0.4,1.9-0.7,2.1c-1.2,0.3-2.9,0.6-2.5-1.5
	c1-5.5-1.6-9.6-4.9-13.4C269.9,108.8,268.9,107.3,267.7,105.6z"/>
<path class="st0" d="M184.3,44.6c5.8,0,11.7,0.1,17.5,0c1.5,0,2,0.5,2,2c0,11.6-0.1,23.1,0,34.7c0,1.8-0.7,2.2-2.4,2.2
	c-10.2-0.1-20.5,0-30.7,0c-3.9,0-5.8-2-5.8-5.9c0-10.2,0-20.5,0-30.7c0-1.7,0.5-2.3,2.3-2.3C172.8,44.6,178.5,44.6,184.3,44.6z"/>
<path d="M203.7,22.4c0,5.8,0,11.5,0,17.2c0,1.6-0.4,2-2,2c-11.6-0.1-23.1-0.1-34.7,0c-1.9,0-2.2-0.7-2.2-2.3c0.1-10.2,0-20.3,0-30.5
	c0-4.2,1.9-6.1,6.1-6.1c10.2,0,20.3,0,30.5-0.1c1.8,0,2.3,0.5,2.2,2.3C203.6,10.7,203.7,16.5,203.7,22.4z"/>
<path d="M225.9,44.6c5.8,0,11.5,0.1,17.2,0c1.6,0,2.1,0.4,2.1,2.1c-0.1,10.4,0,20.8,0,31.2c0,3.8-1.6,5.5-5.5,5.5
	c-10.3,0.1-20.7,0-31,0c-1.5,0-2.2-0.4-2.2-2.1c0-11.6,0.1-23.1,0-34.7c0-1.8,0.7-2,2.2-2C214.4,44.6,220.2,44.6,225.9,44.6z"/>
<path class="st5" d="M225.2,2.7c0.3,0,0.7,0,1,0c1.3,0.4,2.8-0.1,4.1,0.4c6.7,0.7,13.7,7.2,14.4,13.3c0.2,1.1,0.1,2.2,0.5,3.2
	c0.2,2.2,0.2,4.4,0,6.5C244,34.5,239,39.3,231,41.5c-3.4,0.4-6.7,0.4-10.1,0c-6.5-1.2-10.5-5.4-13.4-10.9c0,2.4,0,4.9,0,7.4
	c0,1,0.3,2.2-1,2.9c-0.1-0.6-0.2-1.3-0.2-1.9c0-11.1,0-22.3,0-33.4c0-0.7,0.1-1.5,0.2-2.2c0.1,0.1,0.2,0.1,0.3,0.1
	c1.2,1.9,0.5,4.1,0.6,6.1c0.1,1.6,0.1,3.2,0,4.7c2.8-5.9,7.1-10.2,14-11.1C222.7,2.7,224,3,225.2,2.7z"/>
<path d="M231,41.5c0.8-1,2.2-1.1,3.3-1.7c5-2.7,8.6-6.6,10.2-12.1c0.2-0.5,0.4-1.1,0.7-1.6c0,4.6,0,9.1,0.1,13.7
	c0,1.4-0.4,1.9-1.8,1.8C239.3,41.5,235.2,41.5,231,41.5z"/>
<path d="M206.6,40.8c0-4.3,0-8.6,0-12.8c1-0.1,1,0.4,1.1,0.8c2.2,5.7,6.1,9.6,11.7,11.8c0.5,0.2,1,0.6,1.5,0.9
	c-4.1,0-8.3,0.1-12.5,0.1C207.8,41.5,206.9,41.8,206.6,40.8z"/>
<path d="M244.3,16.5c-2.2-7-7-11.2-14-13.1c0-0.4,0.2-0.6,0.6-0.6c3.6,0.1,7.2-0.3,10.8,0.2c2.4,0.7,3.5,2.3,3.5,4.7
	c0,3.1,0,6.2-0.1,9.4C244.6,17.3,244.5,16.9,244.3,16.5z"/>
<path class="st6" d="M225.2,2.7c-1.1,0.7-2.5,0.3-3.6,0.8c-3.8,0.4-7.6,0.9-11.5,0.6c-1.1-0.1-2.3,0-3.3-0.7c-0.1,0-0.2-0.1-0.2-0.2
	c0.3-0.7,0.9-0.7,1.5-0.7C213.8,2.6,219.5,2.6,225.2,2.7z"/>
<path class="st7" d="M241.7,3c-3.8,0.3-7.6-0.6-11.4,0.4c-1.3-0.6-2.8,0-4.1-0.8c4.6,0,9.2-0.1,13.9-0.1
	C240.7,2.5,241.3,2.6,241.7,3z"/>
<path class="st8" d="M244.3,16.5c0.3,0.2,0.6,0.4,0.9,0.6c0,0.8,0,1.6,0,2.5C244.6,18.6,244.5,17.6,244.3,16.5z"/>
<path class="st9" d="M401.5,43.1c1.8,0,4.1-0.1,6.4,0.7c2.2,0.8,3.6,2.1,3.7,4.5c0.1,2.5-0.7,4.7-3.2,5.7c-3.8,1.7-7.9,0.8-11.8,0.9
	c-0.8,0-0.8-0.6-0.8-1.3c0-3.1,0-6.1,0-9.2c0-1.2,0.5-1.4,1.5-1.4C398.5,43.1,399.8,43.1,401.5,43.1z"/>
<path class="st9" d="M395.7,31.6c0.2-5.3,0.2-5.3,5.7-5.3c1.8,0,3.6,0.2,5.4,0.9c1.9,0.7,3,2,3,4.1c0,2.1-0.7,3.7-2.7,4.6
	c-3.4,1.6-7,0.9-10.5,1c-0.8,0-0.8-0.7-0.8-1.3C395.7,34.2,395.7,32.9,395.7,31.6z"/>
<path class="st9" d="M314.3,31.8c0-5.7,0-5.8,5.8-5.5c1.5,0.1,3,0.1,4.5,0.4c2.9,0.6,4.3,2.3,4.3,5c0,2.9-1.3,4.6-4.2,5.3
	c-3,0.7-6.1,0.4-9.2,0.5c-1.1,0-1.2-0.6-1.2-1.5C314.3,34.6,314.3,33.2,314.3,31.8z"/>
<path class="st0" d="M201.6,115.4c0-1.2,0-2.5,0-3.7c0.1-4.2-0.9-3.8,3.8-3.7c4.6,0,7.5,2.8,7.6,7.1c0.1,4.5-2.3,7.1-7.1,7.5
	c-4.4,0.4-4.4,0.4-4.4-3.9C201.6,117.6,201.6,116.5,201.6,115.4z"/>
<path class="st10" d="M141,108.4c1.2,2.8,2.3,5.4,3.5,7.9c0.5,1.1,0.3,1.6-1,1.7c-7.1,0.5-7.1,0.6-4.3-5.9
	C139.6,110.9,139.9,109.6,141,108.4z"/>
<path class="st10" d="M183.9,108.4c1.3,2.9,2.5,5.6,3.7,8.2c0.5,1.2-0.1,1.4-1.1,1.4c-1.8,0-3.6,0-5.5,0c-0.7,0-1.5,0-1.1-1
	C181.1,114.1,182.1,111.2,183.9,108.4z"/>
<path d="M206.8,3.4c5-0.6,9.9-0.6,14.9,0c-7.2,1.8-12,6.4-14.9,13.3C206.8,12.3,206.8,7.8,206.8,3.4z"/>
<path class="st11" d="M206.8,24.7c0.7,0.5,0.3,1.2,0.4,1.9C206.3,25.9,207,25.3,206.8,24.7z"/>
</svg>
