<?xml version="1.0" encoding="utf-8"?>
<!-- Generator: Adobe Illustrator 25.4.1, SVG Export Plug-In . SVG Version: 6.00 Build 0)  -->
<svg version="1.1" id="Layer_1" xmlns="http://www.w3.org/2000/svg" xmlns:xlink="http://www.w3.org/1999/xlink" x="0px" y="0px"
	 viewBox="-250 -150 550 550" style="enable-background:new 0 0 50 50;" xml:space="preserve">
<style type="text/css">
	.st0{fill:#85E8E8;}
	.st1{fill:#66AFAC;}
	.st2{fill:#E5889C;}
	.st3{fill:#9AE58C;}
	.st4{fill:#6FC1BF;}
	.st5{fill:#88D27E;}
</style>
<path class="st0" d="M-231-31c0-2.3,0-4.7,0-7c12-0.1,24.1-0.1,36.1-0.2C-171-38.1-147-38-123.1-38c25.4,0,50.9-0.1,76.3-0.2
	c18,0,36,0,54,0c52.9,0,105.9,0,158.8,0c12.1,0,24.2,0,36.4,0.2c1.9,0,3.8,0.7,5.7,1c1.3,12.1,2.5,24.2,3.9,36.2
	c2.9,25.8,5.8,51.6,8.6,77.4c0.6,5.8,1.1,11.7,1.6,17.5c-50.2,0-99.3,0-148.5,0c-8.7,0-13.5,3.5-13.4,9.4c0.2,5.8,4.4,8.4,13.4,8.4
	c50,0,99.9,0,150.4,0c0.2,1.5,0.6,3.2,0.8,5c1.2,10.4,2.3,20.9,3.4,31.3c2.8,25.1,5.7,50.3,8.5,75.4c0.9,8.2-2.1,14.7-9.6,18.8
	c-0.8,0.5-1.5,1.2-2.3,1.9c-4.5,0-8.9,0-13.4,0c-130.6,0-261.2,0-391.8,0c-14.4,0-20.5-5.8-21.9-20.2c-1.7-16.9-3.7-33.8-5.6-50.6
	c-2.2-20.5-4.4-41-6.6-61.6c45.8,0,91.6,0,137.4,0c2,0,4,0.1,6-0.2c4.3-0.8,6.9-3.5,7.2-7.8c0.3-4.4-1.7-7.9-6.2-9
	c-2.4-0.6-4.9-0.8-7.4-0.8c-43.6,0-87.3,0-130.9,0c-2.6,0-5.3,0.5-7.9,0.8c-0.2-1-0.5-1.9-0.6-2.9c-3.8-34.4-7.6-68.7-11.4-103.1
	C-228.8-17.7-230-24.4-231-31z M-1.5,68c-19,0-35.1,16-35.3,35c-0.1,19.3,15.7,35.4,35.2,35.6c19.1,0.2,35.6-16.1,35.5-35.2
	C33.8,84,17.7,68-1.5,68z"/>
<path class="st1" d="M281,4c-1.3,8.3-2.9,16.5-4,24.8c-4.9,38.2-9.8,76.5-14.6,114.8c-3.4,26.9-6.9,53.8-10.3,80.6
	c-2,15.6-7.3,20.4-23.1,20.4c-1.3,0-2.7-0.1-4-0.1c0.8-0.6,1.4-1.4,2.3-1.9c7.5-4.1,10.5-10.6,9.6-18.8c-2.7-25.2-5.6-50.3-8.5-75.4
	c-1.2-10.4-2.3-20.9-3.4-31.3c-0.2-1.8-0.6-3.5-0.8-5c-50.5,0-100.4,0-150.4,0c-9,0-13.2-2.7-13.4-8.4c-0.2-5.9,4.7-9.4,13.4-9.4
	c49.2,0,98.3,0,148.5,0c-0.5-5.8-0.9-11.7-1.6-17.5c-2.8-25.8-5.8-51.6-8.6-77.4c-1.3-12.1-2.6-24.2-3.9-36.2
	c9.6,4.3,19.1,8.7,28.7,13C251.6-17,266.3-10,281-3C281-0.7,281,1.6,281,4z"/>
<path class="st2" d="M236.8-24c-9.6-4.3-19.1-8.7-28.7-13c-1.9-0.3-3.8-1-5.7-1c-12.1-0.1-24.2-0.1-36.4-0.2c-2-2.9-3.3-6.7-6-8.6
	c-18.7-13.7-37.6-27.1-56.4-40.5c-8.5-6-13.4-4.7-17.4,4.8c-1.9,4.6-3.7,9.3-5.6,13.9C78.4-62.8,76-57.1,73.6-51
	c-1.9-1-3.4-1.7-4.8-2.5c-15.3-8.7-30.6-17.6-46-26.2c-9.1-5.1-15.5-1.4-15.6,9c-0.1,10.8,0,21.7,0,32.5c-18,0-36,0-54,0
	c-1.9-3.1-4.7-6.1-5.6-9.5c-2.9-10.7-5.1-21.7-7.5-32.5c-2-9.2,0.4-12.7,9.7-14.8c11.6-2.7,23.3-5.4,34.9-8.1
	c19-4.2,38-8.3,56.9-12.5c51.7-11.6,103.5-23.2,155.2-34.7c7.5-1.7,11.4,0.7,13.1,8.2c7.7,34.2,15.3,68.5,23,102.7
	C234.2-34.3,235.6-29.1,236.8-24z M166.4-117.3c-14.6-0.1-26.4,11.5-26.5,26.1c-0.1,14.8,11.8,26.8,26.5,26.7
	c14.4-0.1,26.3-12,26.4-26.4C192.8-105.4,180.9-117.2,166.4-117.3z"/>
<path class="st3" d="M-15.2-103.1c-11.6,2.7-23.3,5.4-34.9,8.1c-9.4,2.1-11.7,5.6-9.7,14.8c2.4,10.9,4.6,21.8,7.5,32.5
	c0.9,3.4,3.7,6.3,5.6,9.5c-25.4,0.1-50.9,0.2-76.3,0.2c-23.9,0-47.9-0.1-71.8-0.1c-8.9-9-17.8-18-26.7-27c-7.5-7.6-7.6-11.3,0-18.8
	c34.9-34.9,69.7-69.8,104.6-104.6c7.1-7.1,10.8-7.1,18,0.2c26.9,26.9,53.7,53.7,80.6,80.6C-17.1-106.6-16.3-104.7-15.2-103.1z
	 M-176.2-64c2.7-1.7,5.7-3.1,7.9-5.3c22.3-22.2,44.6-44.4,66.8-66.7c1.5-1.5,3.4-3.4,3.5-5.2c0.2-2.7-0.1-6.3-1.7-8.1
	c-1.6-1.8-5.3-2.9-7.9-2.6c-2.5,0.3-5.1,2.4-7,4.3c-22.1,21.9-44.1,44-66.1,66c-1.2,1.2-2.4,2.4-3.2,3.8
	C-187.3-72-183.4-65-176.2-64z M-70.2-117c-0.4-4.2-2.1-6.9-5.5-8.4c-4.1-1.7-7.8-0.7-10.9,2.5c-14,14-28,28-42,42
	c-4.3,4.4-4.6,10.1-0.9,13.8c3.4,3.4,9.1,3,13.4-1.3c14.2-14.1,28.3-28.2,42.3-42.4C-72.2-112.5-71.4-114.9-70.2-117z"/>
<path class="st2" d="M7.2-38.2c0-10.8-0.1-21.7,0-32.5c0.1-10.4,6.5-14.1,15.6-9c15.4,8.6,30.7,17.5,46,26.2
	c1.4,0.8,2.9,1.5,4.8,2.5c2.5-6.1,4.8-11.8,7.1-17.5c1.9-4.6,3.6-9.3,5.6-13.9c4-9.5,8.9-10.9,17.4-4.8
	c18.9,13.4,37.8,26.8,56.4,40.5c2.7,2,4,5.7,6,8.6C113.1-38.2,60.2-38.2,7.2-38.2z"/>
<path class="st4" d="M-1.5,68c19.3,0,35.4,16,35.4,35.3c0,19.2-16.4,35.5-35.5,35.2c-19.4-0.2-35.3-16.3-35.2-35.6
	C-36.7,84-20.5,68-1.5,68z"/>
<path class="st4" d="M-214.1,112c-0.6-5.7-1.2-11.4-1.9-17.1c2.6-0.3,5.3-0.8,7.9-0.8c43.6,0,87.3,0,130.9,0c2.5,0,5,0.2,7.4,0.8
	c4.6,1.1,6.5,4.6,6.2,9c-0.3,4.3-3,7-7.2,7.8c-1.9,0.3-4,0.2-6,0.2C-122.5,112-168.3,112-214.1,112z"/>
<path class="st2" d="M166.4-117.3c14.5,0.1,26.4,11.9,26.3,26.3c0,14.4-11.9,26.3-26.4,26.4c-14.7,0.1-26.6-11.9-26.5-26.7
	C140-105.8,151.7-117.4,166.4-117.3z"/>
<path class="st5" d="M-176.2-64c-7.2-1-11-8-7.7-13.9c0.8-1.4,2-2.6,3.2-3.8c22-22,44-44.1,66.1-66c1.9-1.9,4.5-4,7-4.3
	c2.6-0.3,6.2,0.8,7.9,2.6c1.6,1.8,2,5.4,1.7,8.1c-0.2,1.8-2,3.7-3.5,5.2c-22.2,22.3-44.4,44.6-66.8,66.7
	C-170.5-67.1-173.6-65.8-176.2-64z"/>
<path class="st5" d="M-70.2-117c-1.2,2.1-2,4.5-3.6,6.2c-14,14.2-28.1,28.3-42.3,42.4c-4.3,4.3-9.9,4.7-13.4,1.3
	c-3.7-3.6-3.4-9.4,0.9-13.8c14-14.1,28-28,42-42c3.2-3.2,6.8-4.2,10.9-2.5C-72.3-123.9-70.6-121.2-70.2-117z"/>
</svg>
