<?xml version="1.0" encoding="utf-8"?>
<!-- Generator: Adobe Illustrator 25.4.1, SVG Export Plug-In . SVG Version: 6.00 Build 0)  -->
<svg version="1.1" id="Layer_1" xmlns="http://www.w3.org/2000/svg" xmlns:xlink="http://www.w3.org/1999/xlink" x="0px" y="0px"
	 viewBox="0 0 312.2 235.59" height="100px" style="enable-background:new 0 0 312.2 235.59;" xml:space="preserve">
<style type="text/css">
	.st0{fill:#A9A9A8;}
	.st1{fill:#A8A8A7;}
	.st2{fill:#FFFFFF;}
</style>
<g id="XMLID_1776_">
	<path id="XMLID_1813_" class="st0" d="M165.4,113.17c-0.47,5.22,0.71,7.53,0.68,9.95c0,0.2,0.27,0.4,0.41,0.6
		c0.08-0.29,0.15-0.59,0.23-0.88c0.07-0.29,0.15-0.59,0.22-0.88c0.15,0.3,0.32,0.59,0.43,0.9c0.06,0.2,0.01,0.43,0.01,0.64
		c0,0.32,0,0.65,0,0.97c-0.89,0.83-0.89,1.8,0,2.63c0.25,0.65-0.61,1.66,0.66,1.97c0.25,0.65-0.61,1.66,0.66,1.97
		c0.25,0.65-0.61,1.66,0.66,1.97c-0.06,1.29,0.06,2.52,1.31,3.29c0.1,0.5-0.33,1.26,0.66,1.31c0.15,0.26,0.26,0.57,0.47,0.78
		c0.7,0.71-0.53,2.15,0.76,2.45c1.15,0.27,0.77,1.33,1.37,1.86c0.69,0.61,1.18,1.45,1.74,2.2c0.54,0.75,1.54,1.57,1.47,2.28
		c-0.11,1.31,1.65,0.54,1.44,1.7c-0.15,0.83,0.2,1.57,0.55,2.37c0.43,0.97-0.65,0.76-1.38,0.8c-0.05,0,0.05,0,0.15,0
		c-0.06-0.17-0.09-0.36-0.2-0.5c-0.03-0.04-0.26,0.07-0.4,0.11c0.1,0.13,0.2,0.26,0.45,0.39c0.6,0.34,1.03,0.71,1.51,1
		c0.13,0.08,0.58-0.09,0.58-0.13c-0.06-1.45,1.23-1,1.6-0.8c0.61,0.32,1.73,0.88,0.68,1.96c-0.09,0.09-0.14,0.38-0.07,0.44
		c0.68,0.71,1.36,1.43,2.1,2.07c0.14,0.12,0.8-0.05,0.83-0.18c0.44-1.86,0.52-0.86,1.01,0.02c0.62,1.14,1.1,2.39,2.65,2.92
		c0.74,0.25,0.83,1.62,2.08,1.97c1.7,0.48,1.63,0.72,1.64,1.87c0,0.44,0,0.88,0,1.31c-0.22,0.22-0.44,0.44-0.66,0.8
		c0,0.05,0-0.05,0-0.15c-0.17,0.06-0.36,0.09-0.5,0.2c-0.04,0.03,0.07,0.26,0.11,0.4c0.13-0.1,0.26-0.2,0.39-0.45
		c0.22-0.37,0.44-0.58,0.66-0.8c0.65,0,1.34,0.11,1.95-0.03c0.57-0.14,0.87,1.29,1.49,0.2c0.16,0.15,0.48,0.32,0.46,0.44
		c-0.05,0.28-0.38,0.55-0.37,0.81c0.02,0.32,0.21,0.71,0.45,0.91c0.4,0.31,0.5,0.26,0.58-0.46c0.08-0.77-0.16-1.77,1.03-0.55
		c0.82,0.84,2.25,1,2.54,2.51c0.11,0.56,0.83,0.85,1.59,0.8c2.09-0.12,3.92,0.54,5.28,2.21c0.44,0.54,0.61,0.05,0.95-0.09
		c0.3-0.12,0.93-0.04,1.07,0.17c0.84,1.31,2.92,1.01,3.46,2.7c0.05,0.15,0.56,0.24,0.85,0.22c2.01-0.07,3.8,0.81,5.68,1.3
		c0.61,0.16,1.34-0.1,1.28,0.96c-0.01,0.1,1.21,0.49,1.33,0.34c0.79-1.02,1.48-0.08,2.11,0.08c1.16,0.29,2.24,1.1,3.4,1.2
		c1.33,0.11,2.33,0.19,2.93,1.62c0.33,0.79,1.03,0.46,1.54-0.1c0.38-0.42,0.78-1.15,1.38-0.2c2.3-0.45,4.21,0.86,6.3,1.37
		c0.07,0.18,0.14,0.36,0.22,0.54c0.15-0.18,0.29-0.36,0.44-0.54c0.44,0,0.91,0.11,1.3-0.04c0.28-0.1,0.7-0.66,0.63-0.79
		c-1.23-2.45-2.41-4.94-3.83-7.27c-3.24-5.3-6.28-10.71-9-16.3c-0.15-0.31-0.13-0.76-0.04-1.11c0.17-0.68,0.36-1.39,0.71-2
		c0.24-0.43,1.5,0.08,1.7,0.63c0.17,0.48,0.32,0.96,0.53,1.42c0.08,0.19,0.3,0.31,0.45,0.47c0.11-0.17,0.31-0.33,0.32-0.51
		c0.04-0.65-0.01-1.31,0.02-1.97c0.05-0.99,0.53-1.01,1.25-0.55c0.18,0.11,0.47,0.13,0.69,0.09c0.51-0.09,0.43-1.17,1.42-0.66
		c1.26,0.65,3.05,0.58,3.73,1.93c0.5,1.02,1.24,1.7,1.94,2.47c0.92,1.02,1.82,2.01,2.59,3.18c1.44,2.18,3.24,4.12,4.81,6.23
		c1.8,2.42,3.73,4.74,5.35,7.29c0.11,0.18,0.31,0.3,0.46,0.47c0.69,0.8,1.85,1.56,1.96,2.44c0.17,1.32,1.18,1.74,1.75,2.59
		c0.57,0.85,0.77,1.86,1.27,2.77c0.61,1.1,0.3,2.71,0.36,4.09c0,0.08-0.38,0.26-0.41,0.23c-1.74-1.94-2.23,2.17-3.84,0.78
		c-0.11,0.28-0.31,0.56-0.32,0.84c-0.02,1.26-0.72,2.13-1.53,2.98c-3.37,3.57-7.1,6.66-11.21,9.36c-3.05,2-5.81,4.45-8.75,6.63
		c-2.08,1.54-4.24,2.95-6.37,4.42c-1.45,1-2.84,2.09-4.35,2.99c-0.85,0.51-1.71,1.24-2.85,1.02c-0.38-0.07-1.04-0.25-1.05-0.41
		c-0.08-1.42-0.58-0.68-1.04-0.24c-0.23,0.22-0.45,0.57-0.72,0.63c-0.77,0.16-1.52,0.05-1.99-0.71c-0.54-0.88-0.3-3.45,0.43-4.2
		c0.73-0.75,1.64-1.29,2.46-1.92c7.5-5.7,15.71-10.36,23.28-15.94c0.32-0.23,0.77-0.28,1.11-0.49c0.27-0.17,0.47-0.45,0.7-0.68
		c-0.27-0.11-0.55-0.34-0.81-0.33c-1.82,0.11-3.54-0.2-5.15-1.06c-0.18-0.1-0.36-0.24-0.55-0.26c-2.1-0.23-4.21-0.33-6.29-0.69
		c-4.46-0.77-9.02-1.22-13.25-2.85c-1.39-0.54-2.8-0.27-4.22-0.9c-1.39-0.62-3.1-0.92-4.63-1.49c-4.27-1.59-8.53-3.1-12.51-5.49
		c-2.65-1.59-5.48-3.06-8.37-4.31c-0.67-0.29-0.88-0.56-0.62-1.1c0.44-0.92,0.48-0.89-0.45-0.91c-2.47-0.06-2.96-0.42-3.59-2.63
		c0.4-0.37,0.79-0.74,1.19-1.11c-0.4-0.07-0.79-0.13-1.33-0.2c-0.05,0,0.05,0,0.15,0c-0.06-0.17-0.09-0.36-0.2-0.5
		c-0.03-0.04-0.26,0.07-0.4,0.11c0.1,0.13,0.2,0.26,0.45,0.39c0.15,0.44,0.15,0.88,0.15,1.31c-1.56-0.02-1.6,0.02-3.32-1.33
		c-1.9-1.49-3.71-3.09-5.58-4.61c-0.73-0.59-1.13-1.25-0.98-2.24c0.04-0.27-0.26-0.61-0.41-0.91c-0.08,0.3-0.12,0.61-0.25,0.88
		c-0.05,0.11-0.29,0.12-0.45,0.18c0.05-1.26-1.26-1.16-1.83-1.8c-0.72-0.82-1.55-1.55-2.3-2.33c-0.67-0.7-1.33-1.4-1.96-2.14
		c-0.33-0.39-0.47-0.97-0.85-1.27c-2.28-1.83-3.26-4.56-4.84-6.87c-0.58-0.84-0.99-1.79-1.56-2.63c-1.61-2.4-2.25-5.2-3.25-7.84
		c-0.73-1.92-1.79-3.81-1.34-6.01c-1.47-1.43-1.01-3.51-1.73-5.19c-0.12-0.28-0.22-0.59-0.23-0.88c-0.15-4.4-0.74-8.76-0.76-13.18
		c-0.01-3.56,0.53-7.04,0.85-10.54c0.23-2.48,1.07-5.01,2.15-7.27c0.51-1.07-0.13-2.29,0.98-3.25c0.76-0.65,1-1.95,1.36-3
		c1.17-3.42,3.09-6.42,5.17-9.35c2.1-2.95,4.31-5.78,6.96-8.27c4.81-4.5,10.18-8.12,16.13-10.96c0.94-0.45,1.31,0.59,1.83,0.2
		c0.95-0.7,1.71-0.57,2.49,0.18c0.48-0.64,0.92-1.32,1.46-1.91c0.26-0.28,0.7-0.58,1.05-0.57c3.08,0.12,5.92-1.28,8.94-1.37
		c1.21-0.04,2.6-0.6,3.65,0.58c1.04-1.39,2.05-0.22,3.08,0.02c0.41,0.1,1.06,0.2,1.28-0.02c0.88-0.89,1.55-0.49,2.47-0.03
		c0.7,0.35,1.93-0.14,2.47,0.3c1.1,0.91,2.35-0.07,3.38,0.62c0.93,0.62,1.89,1.23,2.89,1.74c0.4,0.21,1.15-0.22,1.16,0.83
		c0,0.05,0-0.05,0-0.15c-0.17,0.06-0.36,0.09-0.5,0.2c-0.04,0.03,0.07,0.26,0.11,0.4c0.13-0.1,0.26-0.2,0.39-0.45
		c0.88,0.07,1.76,0.32,2.65,0.5c1.14,0.23,1.11,1.39,1.71,2.04c0.55,0.6,0.87,1.21,2.17,0.74c1.28-0.46,2.48,1.07,2.67,2.64
		c0.06,0.47-0.23,1.15,0.66,1.16c0.25,1.26,0.21,2.59,2.15,2.73c0.64,0.05,1.42,1.2,1.73,2.01c0.35,0.89-0.32,1.57-1.4,1.83
		c-0.05,0,0.05,0,0.15,0c-0.06-0.17-0.09-0.36-0.2-0.5c-0.03-0.04-0.26,0.07-0.4,0.11c0.1,0.13,0.2,0.26,0.45,0.39
		c0.22,0.19,0.28,0.39,0.38,0.56c0.1,0.17,0.25,0.31,0.38,0.47c-0.18,0.1-0.41,0.32-0.53,0.27c-0.37-0.15-0.7-0.41-1.06-0.61
		c-0.3-0.16-0.62-0.29-0.93-0.43c0.1,0.37,0.2,0.75,0.31,1.12c0.08,0.29,0.34,0.76,0.25,0.84c-0.61,0.54-0.69,1.04,0.07,1.42
		c0.81,0.41,1.12-0.41,1.23-0.85c0.31-1.3,0.8-1,1.52-0.35c0.37,0.34,0.9,0.85,1.28,0.8c1.47-0.23,1.36,1.18,1.76,1.79
		c0.44,0.68-0.46,1.24-1.18,1.55c-0.22,0.09-0.4,0.28-0.59,0.43c0.19,0.07,0.37,0.19,0.56,0.21c0.32,0.04,0.66,0.04,0.98,0
		c0.66-0.07,0.99,0.12,0.99,0.86c-0.01,1.36-0.14,2.72,0.6,4.02c0.22,0.38,0.21,1.56-0.87,0.54c-0.03-0.03-0.65,0.58-1,0.89
		c0.96,0.61,0.26,1.17-0.21,1.34c-0.66,0.24-1.52,0.34-2.15,0.12c-0.28-0.1-0.2-1.15-0.33-1.76c-0.05-0.24-0.26-0.45-0.39-0.67
		c-0.08,0.18-0.24,0.37-0.24,0.55c-0.02,1.31,0.08,2.63-0.06,3.93c-0.05,0.44-0.64,1.04-1.09,1.16c-0.59,0.15-1.48-0.97-1.4-1.53
		c0.16-1.03-0.26-3.8-0.75-4.79c-0.11-0.22-0.28-0.41-0.42-0.61c-0.08,0.19-0.22,0.37-0.22,0.56c-0.02,1.64,0.06,3.28-0.03,4.92
		c-0.06,1.03,0.29,2.05-0.35,3.14c-0.34,0.58,0.45,1.72,0.32,2.54c-0.28,1.81-0.82,3.58-1.29,5.36c-0.03,0.11-0.55,0.2-0.56,0.18
		c-0.27-0.66-0.9-1.66-0.67-1.94c1.16-1.4,0.62-2.98,0.49-4.37c-0.11-1.2,1.05-1.97,0.53-3.25c-0.42-1.03-0.5-2.3-0.38-3.42
		c0.13-1.17,0.12-2.09-0.35-3.27c-0.75-1.86-0.6-4.04-1.65-5.88c-0.06-0.1,0.12-0.42,0.27-0.51c0.16-0.1,0.49-0.15,0.61-0.06
		c0.39,0.34,0.97,0.72,1.03,1.14c0.1,0.76,0.54,0.68,1.04,0.87c1.01,0.39,0.91,1.14,0.34,1.92c-0.1,0.14-0.01,0.43-0.01,1.1
		c0-0.04,0-0.25,0-0.45c-0.39,0.28-0.79,0.57-1.18,0.85c0.15,0.15,0.35,0.46,0.45,0.43c0.3-0.08,0.57-0.29,0.73-0.83
		c0.33-0.45,0.66-0.47,0.98-0.45c1.02,0.06,1.2-0.23,0.39-0.93c0.81-0.75,0.57-1.73,0.6-2.66c0.04-1.19-0.43-1.37-1.33-0.67
		c-0.66,0.51-0.69-0.07-0.62-0.42c0.14-0.69,0.52-1.34,0.61-2.03c0.1-0.85-1.56-0.16-1.31-1.37c0.13-0.63,0.04-1.31,0-1.96
		c-0.01-0.08-0.4-0.24-0.56-0.19c-1.59,0.46-1.73,0.81-0.7,2.02c0.49,0.58,1,0.89-0.29,1.05c-0.4,0.05-0.7,0.93-1.06,1.43
		c-0.11,0.15-0.24,0.29-0.36,0.44c-0.1-0.18-0.27-0.35-0.28-0.54c-0.22-3.08-2.58-5.07-3.96-7.54c-0.57-1.01-1.93-1.57-2.9-2.36
		c-2.88-2.36-6.35-3.7-9.5-5.58c-0.9-0.54-1.38-0.69-1.41,0.59c0,0.01-0.57,0.1-0.62,0c-0.55-0.93-1.14-0.74-2-0.36
		c-0.49,0.21-1.25-0.3-1.89-0.3c-0.71,0.01-1.43,0.21-2.14,0.36c-1.1,0.24-1.45-0.76-2.13-1.22c-0.19-0.13-0.58,0.03-0.87,0.05
		c0.11,0.23,0.25,0.46,0.34,0.7c0.22,0.54,0.32,1.08-0.51,1.11c-1.28,0.04-2.63-0.28-3.5,1.14c-0.14,0.22-0.79,0.16-1.21,0.17
		c-0.67,0.01-1.24-0.08-1.29,0.96c-0.02,0.36-0.93,0.7-1.45,1.02c-3.26,2.03-6.23,4.48-9.39,6.65c-0.22,1.75-2.13,2.05-2.88,3.35
		c-0.79,1.38-2.24,2.17-2.96,3.69c-0.65,1.39-2.21,2.36-2.85,3.75c-0.49,1.07-1.09,1.87-2.05,2.23c-1,0.37-0.71,1.41-1.35,1.89
		c1.55,1.83-0.35,3.28-0.8,4.72c-0.47,1.53-0.46,3.4-2.06,4.74c0.05-0.21,0.22-0.33,0.22-0.44c-0.01-0.28-0.1-0.57-0.15-0.85
		c-0.14,0.04-0.41,0.08-0.41,0.11c0,0.35,0.05,0.71,0.35,1.17c0.23,0.49,0.3,1.12,0.2,1.72c-0.05,0.29-0.41,0.52-1.01,0.26
		c-0.23-0.18-0.08,0.17,0.07,0.52c0.1-0.21,0.32-0.43,0.29-0.62c-0.06-0.44-0.23-0.87-0.36-1.3c-0.12,0.26-0.23,0.53,0,1.4
		c0.38,1.79,0.42,3.05,0.35,4.32c-0.01,0.28-0.41,0.54-0.63,0.01c0-1.01,0.04-1.23-0.01-1.43c-0.09-0.35-0.24-0.68-0.37-1.01
		c-0.09,0.28-0.25,0.56-0.26,0.84c-0.04,0.63-0.04,1.27,0,1.9c0.01,0.17,0.21,0.33,0.32,0.49c0.11-0.11,0.29-0.2,0.3-0.32
		c0.04-0.42,0.01-0.85,0.01-0.48c0,4.57,0.01,8.35-0.01,12.12C166.04,115.25,166.28,115.93,165.4,113.17c0-4.39,0.02-6.01-0.02-7.64
		c0-0.24-0.24-0.48-0.36-0.72c-0.09,0.18-0.27,0.36-0.27,0.53c-0.02,3.36-0.02,6.72,0,10.08c0,0.17,0.21,0.34,0.32,0.51
		c0.11-0.22,0.31-0.43,0.31-0.65C165.41,113.66,165.4,112.03,165.4,113.17z M171.91,149.83c-0.1-0.13-0.21-0.25-0.31-0.38
		c-0.1,0.1-0.2,0.2-0.29,0.29c0.13,0.1,0.25,0.21,0.4,0.29c0.02,0.01,0.13-0.13-0.69-0.58c0.1,0,0.2,0,0.29,0
		c-0.06-0.17-0.09-0.36-0.2-0.5c-0.03-0.04-0.26,0.07-0.4,0.11C170.81,149.19,170.91,149.32,171.91,149.83z M213.36,60.08
		c0.22,0,0.44,0,1.26,0.38c-0.1-0.13-0.21-0.25-0.31-0.38c-0.1,0.1-0.2,0.2-0.29,0.29c0.13,0.1,0.25,0.21,0.4,0.29
		c0.02,0.01,0.13-0.13-0.4-0.58c-0.07-0.18-0.14-0.36-0.22-0.54c-0.15,0.18-0.29,0.36-0.44,0.84
		C213.36,60.28,213.36,60.18,213.36,60.08c-0.17,0.06-0.36,0.09-0.5,0.2c-0.04,0.03,0.07,0.26,0.11,0.4
		C213.1,60.58,213.23,60.48,213.36,60.08z M186.42,159.3c0.22,0.22,0.44,0.44,0.66,1.1c0,0.43-0.06,0.67,0.02,0.86
		c0.08,0.21,0.29,0.37,0.44,0.55c0.27-0.31,0.79-0.67,0.74-0.91c-0.07-0.36-0.56-0.63-0.86-0.93c-0.14,0.19-0.29,0.39-0.33,0
		c-0.22-0.22-0.44-0.44-1.25-0.53c0.23-0.17,0.41-0.3,0.59-0.44c-0.15-0.12-0.31-0.34-0.45-0.33c-0.27,0.01-0.54,0.16-0.81,0.25
		C185.36,159.07,185.56,159.22,186.42,159.3z M178.66,155.16c-0.39-0.16-0.75-0.33-1.14-0.44c-0.06-0.02-0.2,0.19-0.3,0.29
		c0.36,0.31,0.71,0.62,1.07,0.92c0.08-0.17,0.16-0.34-2.02-1.07c0.35-0.17,0.65-0.32,0.96-0.47c-0.26-0.12-0.52-0.33-0.78-0.32
		c-0.38,0-0.76,0.16-1.13,0.25C175.61,154.49,175.91,154.66,178.66,155.16z M182.67,160.22c0.29-0.35,0.46-0.46,0.45-0.57
		c-0.01-0.28-0.1-0.57-0.15-0.85c-0.14,0.04-0.41,0.08-0.41,0.11c0,0.35,0.05,0.71,1.41,2.09c-0.28-0.36-0.55-0.7-0.83-1.05
		c-0.21,0.34-0.63,0.73-0.57,1.01c0.09,0.36,0.56,0.63,0.87,0.94C183.58,161.66,183.72,161.41,182.67,160.22z M226.13,62.26
		c-0.15,0.81-0.29,1.15-0.27,1.48c0.03,0.38-0.39,1.17,0.6,0.92c0.25-0.06,0.68-0.37,0.66-0.41c-0.22-0.54-0.5-1.05-1.28,0.72
		c0-0.1,0-0.2,0-0.29c-0.17,0.06-0.36,0.09-0.5,0.2c-0.04,0.03,0.07,0.26,0.11,0.4C225.59,65.18,225.72,65.08,226.13,62.26z
		 M230.24,69.28c0.32,0,0.64,0.03,0.94-0.01c0.18-0.03,0.35-0.17,0.52-0.26c-0.12-0.13-0.24-0.36-0.37-0.36
		c-0.63-0.04-1.26-0.03-1.89,0c-0.11,0.01-0.21,0.2-0.32,0.3c0.16,0.11,0.31,0.28,0.49,0.33c0.19,0.06,0.42,0.01-0.59-0.62
		c0.03-0.22,0.07-0.45,0.1-0.67c0.1-0.69-0.09-1.24-0.65-1.69c-0.23-0.18-0.33-0.52-0.49-0.79c-0.28,0.43-0.89,1.07-0.78,1.24
		C227.66,67.41,228.32,67.94,230.24,69.28z M178.69,159.3c0.43,0,0.89,0.07,1.3-0.03c0.21-0.05,0.35-0.41,0.52-0.63
		c-1.25-0.15-0.35-1.24-0.77-1.77c-0.68-0.86-1.4,1.04-2.06-0.05c-0.01-0.02-0.39,0.07-0.43,0.18c-0.48,1.34,0.13,2.29,3.64,1.04
		c-0.13,0.1-0.25,0.21-0.38,0.31c0.1,0.1,0.2,0.2,0.29,0.29c0.1-0.13,0.21-0.25,0.29-0.4C181.11,158.22,180.97,158.12,178.69,159.3z
		 M194.57,170.87c-0.51-0.21-0.73-0.33-0.97-0.39c-0.19-0.05-0.41-0.01-0.61-0.01c0.15,0.22,0.26,0.56,0.46,0.63
		c0.23,0.08,0.54-0.09-1.78-0.36c0,0.65-0.03,0.77,0.01,0.86c0.09,0.28,0.21,0.56,0.32,0.83c0.11-0.27,0.23-0.54,0.33-0.82
		c0.29-0.78,0.46-2.15,0.89-2.25c2.21-0.48,0.49-1.49,0.38-2.2c-0.04-0.25-0.59-0.64-0.8-0.59c-0.36,0.1-0.65,0.5-0.96,0.77
		c0.25,0.17,0.54,0.29,0.73,0.51c0.12,0.14,0.17,0.44,0.1,0.61C192.3,169.39,191.88,170.29,194.57,170.87z M159.48,89.65
		c-0.19,0.08-0.52,0.13-0.54,0.23c-0.55,3.64-2.65,6.82-2.9,10.62c-0.12,1.84-1.14,3.76-1.09,5.68c0.05,1.98-0.7,3.87-0.43,5.84
		c0.1,0.74,0.38,1.49,0.34,2.22c-0.18,3.93,0.29,7.77,1.32,11.56c0.53,1.97,0.69,4.07,1.42,5.96c0.36,0.93,0.5,1.77,0.6,2.7
		c0.02,0.19,0.41,0.35,1.23,0.9c-0.1-0.13-0.21-0.25-0.31-0.38c-0.1,0.1-0.2,0.2-0.29,0.29c0.13,0.1,0.25,0.21,0.4,0.29
		c0.02,0.01,0.13-0.13-0.4-0.58c0.01-0.72,0.99-1.06,0.26-2.2c-1.14-1.78-1.61-3.97-1.58-6.18c0.01-0.64,0.08-1.33-0.13-1.9
		c-0.81-2.28-1.07-4.71-1.08-7.02c-0.02-4.69-0.37-9.38,0.43-14.12c0.6-3.56,1.19-7.11,2.17-10.57c0.32-1.13,0.59-2.19,0.97-3.94
		c-0.13,0.1-0.25,0.21-0.38,0.31c0.1,0.1,0.2,0.2,0.29,0.29c0.1-0.13,0.21-0.25,0.29-0.4C160.08,89.23,159.94,89.12,159.48,89.65z
		 M190.93,168.66c0.01,0.02-0.11-0.59-0.45-0.77c-0.53-0.28-0.77,0.17-0.91,1.48c-0.03,0.25-0.37,0.45-0.42,0.7
		c-0.06,0.28,0.03,0.59,0.06,0.88c0.23-0.12,0.46-0.31,0.7-0.33C190.82,170.52,191.17,170.05,190.93,168.66z M234.27,81.33
		c0.14,0.57,0.24,1.17,0.45,1.73c0.1,0.27,0.43,0.45,0.66,0.67c0.11-0.27,0.35-0.58,0.29-0.82c-0.14-0.57-0.41-1.1-0.63-1.65
		c-0.11-0.27-0.22-0.54-0.33-0.81C234.58,80.72,234.45,80.98,234.27,81.33z M188.41,168.19c-0.21-0.1-0.56-0.4-0.67-0.32
		c-0.66,0.47-1.28,1.01-1.9,1.55c-0.02,0.02,0.02,0.19,0.07,0.21c0.18,0.08,0.41,0.23,0.55,0.17c0.63-0.26,1.25-0.56,1.84-0.9
		C188.4,168.83,188.36,168.52,188.41,168.19z M223.03,63.37c-0.58,0.24-1.85-0.57-1.71,0.63c0.19,1.66,0.92-0.76,1.41,0.02
		c0.04,0.07,0.22,0.05,0.26,0.11c0.64,0.95,1.05,0.13,1.32-0.27c0.27-0.39,0.14-0.48-0.97-0.5
		C223.24,63.37,223.13,63.37,223.03,63.37z M223.98,60.43c-0.39,0.41-0.76,0.75-0.73,0.78c0.4,0.52,0.85,1.01,1.32,1.47
		c0.03,0.03,0.61-0.42,0.59-0.46C224.83,61.66,224.45,61.13,223.98,60.43z M243.26,182.85c-0.57-0.4-1.03-0.71-1.49-1.03
		c-0.27,0.43-0.8,0.89-0.76,1.3c0.12,1.18,1.25-0.99,1.46,0.36C242.65,183.34,242.83,183.19,243.26,182.85z M234.96,77.51
		c-0.13-0.1-0.3-0.34-0.44-0.32c-0.49,0.06-0.97,0.2-1.45,0.31c0.29,0.51,0.59,1.03,0.88,1.54
		C234.25,78.59,234.54,78.15,234.96,77.51z M206.8,58.77c0.32,0,0.65,0.03,0.96-0.02c0.1-0.02,0.15-0.28,0.23-0.43
		c-0.8,0-1.6,0.01-2.4,0.01c0.08,0.15,0.14,0.4,0.25,0.42C206.15,58.8,206.48,58.77,206.8,58.77z M163.42,117.55
		c0.06,0.13,0.24,0.52,0.43,0.91c0.08-0.4,0.17-0.79,0.22-1.2c0.04-0.32,0.04-0.65-0.01-0.96c-0.02-0.11-0.26-0.2-0.41-0.26
		c-0.05-0.02-0.21,0.13-0.21,0.21C163.41,116.58,163.42,116.91,163.42,117.55z M175.26,155.68c-0.26-0.12-0.49-0.33-0.68-0.3
		c-0.41,0.07-0.81,0.26-1.21,0.4c0.3,0.3,0.59,0.82,0.89,0.82S174.86,156.08,175.26,155.68z M184.97,166.88
		c0.43-0.46,0.8-0.73,0.76-0.84c-0.12-0.31-0.38-0.6-0.65-0.79c-0.06-0.05-0.59,0.31-0.59,0.47
		C184.49,166.03,184.73,166.34,184.97,166.88z M196.41,168.97c-0.15-0.45-0.25-0.73-0.34-1.02c-0.15,0.29-0.37,0.57-0.42,0.88
		c-0.04,0.27,0.12,0.58,0.19,0.87C196.03,169.45,196.23,169.2,196.41,168.97z M197.78,173.23c0.45-0.15,0.73-0.25,1.02-0.34
		c-0.29-0.15-0.57-0.37-0.88-0.42c-0.27-0.04-0.58,0.12-0.87,0.19C197.3,172.86,197.55,173.05,197.78,173.23z M164.22,102.48
		c-0.1-0.04-0.34-0.14-0.57-0.24c-0.07,0.18-0.24,0.39-0.2,0.54c0.06,0.21,0.27,0.38,0.41,0.57
		C163.93,103.17,164.01,102.99,164.22,102.48z M160,118.54c0.05-0.36,0.13-0.65,0.11-0.94c-0.01-0.09-0.27-0.17-0.41-0.25
		c-0.07,0.29-0.18,0.57-0.2,0.86C159.5,118.29,159.76,118.39,160,118.54z M162.71,120.62c0.16,0.24,0.27,0.41,0.38,0.58
		c0.11-0.27,0.28-0.54,0.31-0.82c0.02-0.15-0.2-0.33-0.31-0.5C162.96,120.14,162.83,120.4,162.71,120.62z M163.29,123.14
		c0.05-0.36,0.13-0.65,0.11-0.94c-0.01-0.09-0.27-0.17-0.41-0.25c-0.07,0.29-0.18,0.57-0.2,0.86
		C162.78,122.89,163.05,122.99,163.29,123.14z M164.87,122.2c-0.1-0.04-0.34-0.14-0.57-0.24c-0.07,0.18-0.24,0.39-0.2,0.54
		c0.06,0.21,0.27,0.38,0.41,0.57C164.59,122.88,164.66,122.7,164.87,122.2z M173.63,151.55c0.5-0.21,0.68-0.28,0.86-0.36
		c-0.19-0.14-0.36-0.35-0.57-0.41c-0.15-0.04-0.36,0.13-0.54,0.2C173.48,151.22,173.58,151.45,173.63,151.55z M174.94,151.94
		c-0.04,0.1-0.14,0.34-0.24,0.57c0.18,0.07,0.39,0.24,0.54,0.2c0.21-0.06,0.38-0.27,0.57-0.41
		C175.62,152.22,175.44,152.15,174.94,151.94z M187.05,164.42c-0.15-0.24-0.25-0.51-0.32-0.5c-0.29,0.02-0.57,0.13-0.86,0.2
		c0.08,0.14,0.16,0.41,0.25,0.41C186.4,164.55,186.7,164.48,187.05,164.42z M195.49,171.15c-0.24,0.15-0.51,0.25-0.5,0.32
		c0.02,0.29,0.13,0.57,0.2,0.86c0.14-0.08,0.41-0.16,0.41-0.25C195.62,171.8,195.54,171.51,195.49,171.15z M193.34,174.55
		c0.5-0.21,0.68-0.28,0.86-0.36c-0.19-0.14-0.36-0.35-0.57-0.41c-0.15-0.04-0.36,0.13-0.54,0.2
		C193.2,174.21,193.3,174.45,193.34,174.55z M199.25,174.28c-0.04,0.1-0.14,0.34-0.24,0.57c0.18,0.07,0.39,0.24,0.54,0.2
		c0.21-0.06,0.38-0.27,0.57-0.41C199.94,174.56,199.76,174.49,199.25,174.28z M218.01,176.31c-0.16-0.24-0.27-0.41-0.38-0.58
		c-0.11,0.27-0.28,0.54-0.31,0.82c-0.02,0.15,0.2,0.33,0.31,0.5C217.77,176.78,217.9,176.52,218.01,176.31z M228.34,63.39
		c-0.24,0.15-0.51,0.25-0.5,0.32c0.02,0.29,0.13,0.57,0.2,0.86c0.14-0.08,0.41-0.16,0.41-0.25
		C228.47,64.04,228.39,63.75,228.34,63.39z M229.22,70.98c-0.26-0.17-0.44-0.38-0.59-0.37c-0.28,0.03-0.55,0.2-0.82,0.31
		c0.17,0.11,0.33,0.31,0.5,0.31C228.6,71.22,228.88,71.09,229.22,70.98z M199.47,57.88c-0.08-0.14-0.15-0.28-0.23-0.42
		c-0.07,0.07-0.22,0.16-0.21,0.22c0.03,0.15,0.13,0.3,0.21,0.44C199.31,58.04,199.38,57.97,199.47,57.88z M202.61,58.02
		c0.09-0.09,0.16-0.16,0.23-0.23c-0.15-0.07-0.29-0.17-0.44-0.21c-0.05-0.01-0.14,0.13-0.22,0.21
		C202.33,57.86,202.48,57.94,202.61,58.02z M204.4,58.21c-0.09,0.09-0.16,0.16-0.23,0.23c0.15,0.07,0.29,0.17,0.44,0.21
		c0.05,0.01,0.14-0.13,0.22-0.21C204.68,58.36,204.53,58.28,204.4,58.21z M219.7,58.86c-0.14,0.08-0.28,0.16-0.42,0.23
		c0.07,0.07,0.16,0.22,0.22,0.21c0.15-0.03,0.3-0.13,0.44-0.21C219.86,59.02,219.79,58.95,219.7,58.86z M219.28,61.73
		c-0.07-0.07-0.16-0.22-0.22-0.21c-0.15,0.03-0.3,0.13-0.44,0.21c0.07,0.07,0.16,0.22,0.22,0.21
		C218.99,61.9,219.13,61.8,219.28,61.73z M229.56,65.24c0.09-0.09,0.16-0.16,0.23-0.23c-0.15-0.07-0.29-0.17-0.44-0.21
		c-0.05-0.01-0.14,0.13-0.22,0.21C229.27,65.09,229.42,65.17,229.56,65.24z M227.72,69.05c-0.08-0.14-0.15-0.28-0.23-0.42
		c-0.07,0.07-0.22,0.16-0.21,0.22c0.03,0.15,0.13,0.3,0.21,0.44C227.56,69.21,227.64,69.14,227.72,69.05z M225.09,69.52
		c-0.09-0.09-0.16-0.16-0.23-0.23c-0.07,0.15-0.17,0.29-0.21,0.44c-0.01,0.05,0.13,0.14,0.21,0.22
		C224.94,69.8,225.02,69.65,225.09,69.52z M225.75,71.49c-0.09-0.09-0.16-0.16-0.23-0.23c-0.07,0.15-0.17,0.29-0.21,0.44
		c-0.01,0.05,0.13,0.14,0.21,0.22C225.6,71.77,225.68,71.62,225.75,71.49z M231.53,72.01c-0.14,0.08-0.28,0.15-0.42,0.23
		c0.07,0.07,0.16,0.22,0.22,0.21c0.15-0.03,0.3-0.13,0.44-0.21C231.69,72.17,231.61,72.09,231.53,72.01z M233.5,79.89
		c-0.14,0.08-0.28,0.16-0.42,0.23c0.07,0.07,0.16,0.22,0.22,0.21c0.15-0.03,0.3-0.13,0.44-0.21
		C233.66,80.05,233.59,79.98,233.5,79.89z M160.56,87.12c-0.14,0.08-0.28,0.16-0.42,0.23c0.07,0.07,0.16,0.22,0.22,0.21
		c0.15-0.03,0.3-0.13,0.44-0.21C160.72,87.28,160.65,87.21,160.56,87.12z M159.06,112.55c0.14-0.08,0.28-0.16,0.42-0.23
		c-0.07-0.07-0.16-0.22-0.22-0.21c-0.15,0.03-0.3,0.13-0.44,0.21C158.9,112.39,158.97,112.47,159.06,112.55z M160.04,119.64
		c-0.08-0.14-0.15-0.28-0.23-0.42c-0.07,0.07-0.22,0.16-0.21,0.22c0.03,0.15,0.13,0.3,0.21,0.44
		C159.88,119.8,159.96,119.73,160.04,119.64z M160.04,120.77c-0.09-0.09-0.16-0.16-0.23-0.23c-0.07,0.15-0.17,0.29-0.21,0.44
		c-0.01,0.05,0.13,0.14,0.21,0.22C159.89,121.05,159.97,120.91,160.04,120.77z M160.8,124.81c-0.07-0.07-0.16-0.22-0.22-0.21
		c-0.15,0.03-0.3,0.13-0.44,0.21c0.07,0.07,0.16,0.22,0.22,0.21C160.51,124.98,160.65,124.88,160.8,124.81z M161.88,128.32
		c0.09-0.09,0.16-0.16,0.23-0.23c-0.15-0.07-0.29-0.17-0.44-0.21c-0.05-0.01-0.14,0.13-0.22,0.21
		C161.6,128.17,161.74,128.25,161.88,128.32z M162.44,129.73c-0.07,0.07-0.22,0.16-0.21,0.22c0.03,0.15,0.13,0.3,0.21,0.44
		c0.07-0.07,0.22-0.16,0.21-0.22C162.61,130.02,162.51,129.88,162.44,129.73z M165.82,139.03c-0.14,0.08-0.28,0.16-0.42,0.23
		c0.07,0.07,0.16,0.22,0.22,0.21c0.15-0.03,0.3-0.13,0.44-0.21C165.98,139.19,165.91,139.11,165.82,139.03z M166.71,140.58
		c-0.07-0.07-0.16-0.22-0.22-0.21c-0.15,0.03-0.3,0.13-0.44,0.21c0.07,0.07,0.16,0.22,0.22,0.21
		C166.42,140.75,166.56,140.65,166.71,140.58z M162.53,141c-0.14,0.08-0.28,0.15-0.42,0.23c0.07,0.07,0.16,0.22,0.22,0.21
		c0.15-0.03,0.3-0.13,0.44-0.21C162.69,141.16,162.62,141.09,162.53,141z M172.06,148.37c0.08,0.14,0.15,0.28,0.23,0.42
		c0.07-0.07,0.22-0.16,0.21-0.22c-0.03-0.15-0.13-0.3-0.21-0.44C172.22,148.2,172.15,148.28,172.06,148.37z M171.21,157.56
		c-0.09-0.09-0.16-0.16-0.23-0.23c-0.07,0.15-0.17,0.29-0.21,0.44c-0.01,0.05,0.13,0.14,0.21,0.22
		C171.06,157.84,171.14,157.7,171.21,157.56z M177.22,160.29c-0.07-0.07-0.16-0.22-0.22-0.21c-0.15,0.03-0.3,0.13-0.44,0.21
		c0.07,0.07,0.16,0.22,0.22,0.21C176.94,160.46,177.08,160.36,177.22,160.29z M183.89,164.14c0.08,0.14,0.15,0.28,0.23,0.42
		c0.07-0.07,0.22-0.16,0.21-0.22c-0.03-0.15-0.13-0.3-0.21-0.44C184.05,163.97,183.98,164.05,183.89,164.14z M180.18,165.22
		c-0.07,0.07-0.22,0.16-0.21,0.22c0.03,0.15,0.13,0.3,0.21,0.44c0.07-0.07,0.22-0.16,0.21-0.22
		C180.35,165.5,180.25,165.36,180.18,165.22z M180.84,166.53c-0.07,0.07-0.22,0.16-0.21,0.22c0.03,0.15,0.13,0.3,0.21,0.44
		c0.07-0.07,0.22-0.16,0.21-0.22C181.01,166.82,180.91,166.68,180.84,166.53z M188.63,166.62c-0.09,0.09-0.16,0.16-0.23,0.23
		c0.15,0.07,0.29,0.17,0.44,0.21c0.05,0.01,0.14-0.13,0.22-0.21C188.91,166.78,188.76,166.7,188.63,166.62z M201.63,173.52
		c0.09,0.09,0.16,0.16,0.23,0.23c0.07-0.15,0.17-0.29,0.21-0.44c0.01-0.05-0.13-0.14-0.21-0.22
		C201.78,173.24,201.71,173.39,201.63,173.52z M196.04,174.51c-0.14,0.08-0.28,0.16-0.42,0.23c0.07,0.07,0.16,0.22,0.22,0.21
		c0.15-0.03,0.3-0.13,0.44-0.21C196.2,174.67,196.13,174.6,196.04,174.51z M194.07,175.63c0.09-0.09,0.16-0.16,0.23-0.23
		c-0.15-0.07-0.29-0.17-0.44-0.21c-0.05-0.01-0.14,0.13-0.22,0.21C193.79,175.48,193.94,175.56,194.07,175.63z M198.34,177.93
		c0.08,0.14,0.16,0.28,0.23,0.42c0.07-0.07,0.22-0.16,0.21-0.22c-0.03-0.15-0.13-0.3-0.21-0.44
		C198.5,177.77,198.43,177.85,198.34,177.93z M220.82,180.89c0.14-0.08,0.28-0.15,0.42-0.23c-0.07-0.07-0.16-0.22-0.22-0.21
		c-0.15,0.03-0.3,0.13-0.44,0.21C220.66,180.73,220.74,180.8,220.82,180.89z"/>
	<path id="XMLID_1809_" class="st0" d="M177.31,104.57c-0.4-2.86,0.48-5.02,1.87-7.08c0.83-1.22,0.76-1.26,3.42-1.93
		c0.19-0.05,0.43-0.16,0.52-0.31c0.81-1.37,2.29-0.07,3.39-0.89c0.6-0.44,1.72,1.55,1.03,2.36c-3.13,3.71-2.27,7.96-0.89,11.72
		c2.33,6.31,5.5,10.05,13.43,12.71c1.44,0.48,3,1.34,4.75,0.15c0.61-0.41,2.12-0.57,2.97,0.55c0.17,0.23,0.85,0.15,0.92,0.36
		c0.3,0.8-0.45,1.16-0.92,1.53c-0.17,0.14-0.75-0.14-1.08-0.32c-0.45-0.25-0.81-0.71-1.28-0.86c-0.34-0.11-0.91,0-1.17,0.24
		c-0.35,0.33-0.51,0.86-0.7,1.33c-0.02,0.05,0.25,0.31,0.41,0.34c0.32,0.06,0.66,0.07,0.98,0.01c0.92-0.18,1.34,0.45,1.8,1.03
		c-0.62,0.1-1.23,0.26-1.85,0.27c-0.85,0.01-1.94,0.21-2.5-0.22c-0.99-0.76-1.35,0.57-2.23,0.32c-0.93-0.27-1.97,0.05-3.03,0.47
		c-1.66,0.66-3.6,0.04-5.2-0.69c-2.4-1.09-4.87-2.25-6.87-3.91c-1.1-0.92-2.26-2.06-3.18-3.34c-0.92-1.29-2.11-2.34-2.04-4.09
		c-1.78-1.8-1.56-4.38-2.47-6.53C176.96,106.77,177.31,105.43,177.31,104.57z M178.44,103.9c0.29,1.66,0.51,2.99,0.77,4.32
		c0.03,0.17,0.22,0.32,0.34,0.47c0.1-0.18,0.29-0.35,0.3-0.53c0.14-2.87-0.4-5.79,0.65-8.6c0.06-0.15-0.11-0.38-0.18-0.57
		c-0.23,0.14-0.62,0.24-0.67,0.43C179.18,100.99,178.78,102.58,178.44,103.9z M182.25,104.2c-0.14,0.08-0.28,0.16-0.42,0.23
		c0.07,0.07,0.16,0.22,0.22,0.21c0.15-0.03,0.3-0.13,0.44-0.21C182.41,104.36,182.33,104.29,182.25,104.2z"/>
	<path id="XMLID_1803_" class="st0" d="M217.96,121.85c-0.18-0.91,0.42-1.95-0.45-2.75c-0.07-0.07-0.13-0.15-0.19-0.23
		c0.63-0.23,1.27-0.46,1.9-0.68c-0.38-0.46-0.77-0.92-1.15-1.38c0.35-0.23,0.7-0.46,1.05-0.69c-0.33-0.27-0.7-0.75-0.09-0.88
		c1.14-0.24,0.33-1.89,1.75-2.03c0.64-0.06,1.16-1.22,1.75-1.86c0.05-0.05,0.28,0.03,0.31-0.01c0.48-0.86,0.93-1.72,1.4-2.59
		c1.05,0.74,1.7,0.17,2.26-0.69c0.47,0.09,1.1-0.29,1.32,0.49c0.08,0.28,0.22,0.55,0.33,0.82c0.11-0.28,0.34-0.57,0.3-0.83
		c-0.14-1.12,0.47-1.25,1.33-1.14c0.07,0.18,0.14,0.36,0.22,0.55c0.15-0.18,0.29-0.36,0.44-0.55c0.18-0.07,0.36-0.14,0.54-0.22
		c-0.18-0.15-0.36-0.29-0.54-0.44c0.2-0.91-0.48-1.99,0.47-2.75c0.86-0.69-1.21-1.63,0.29-2.32c1-0.46,0.18-1.75,0.62-2.32
		c0.84-1.1,0.39-2.27,0.63-3.37c0.24-1.11,0.87-2.13,0.64-3.34c-0.12-0.61,0.04-1.02,0.82-1.02c0.75,0,1.24,0.06,1.17,1.03
		c-0.05,0.72,0.14,1.46,0.22,2.19c0.31-0.69,0.62-1.39,0.92-2.08c0.08-0.19,0.12-0.39,0.14-0.6c0.09-1.2,0.09-1.23,0.71-1.17
		c0.41,0.04,0.92,0.04,1.17,0.28c0.35,0.33,0.51,0.86,0.7,1.33c0.02,0.05-0.28,0.34-0.43,0.33c-1.12-0.06-1.04,0.95-0.78,1.31
		c0.74,1.02,0.37,1.84-0.01,2.79c-0.12,0.3,0.17,0.77,0.28,1.17c0.31-0.3,0.69-0.56,0.9-0.91c0.15-0.24,0.03-0.63,0.11-0.94
		c0.07-0.25,0.25-0.47,0.38-0.7c0.09,0.18,0.25,0.36,0.26,0.55c0.07,1.27-0.13,2.46-0.61,3.68c-0.68,1.72-0.98,2.42-1.18,2.1
		c-0.54-0.87,0.01-1.56,0.45-2.29c0.09-0.15-0.14-0.68-0.33-0.77c-0.22-0.1-0.62,0.05-0.86,0.22c-0.79,0.57-1.17,1.43-0.53,2.19
		c0.59,0.71,0.37,1.42,0.42,2.13c0.04,0.55-0.09,0.6-0.69,0.36c-0.96-0.37-1.18,0.84-1.84,1.2c0.25,0.31,0.52,0.6,0.74,0.93
		c0.13,0.2,0.18,0.46,0.27,0.69c-0.3,0-0.72,0.12-0.87-0.03c-1-1.02-1.37,0.13-1.38,0.57c-0.01,0.99-0.4,3-0.57,3.64
		c-0.36,1.36-1.44-0.78-1.53,0.34c-0.09,1.11-0.77,0.8-1.86,0.88c0.31,0.26,0.56-0.44,0.95-0.84c0.07-0.07-0.03-0.3-0.06-0.45
		c-0.45,0.19-0.9,0.38-1.35,0.56c-0.09,0.04-0.23-0.01-0.31,0.04c-0.21,0.12-0.4,0.28-0.6,0.43c0.29,0.1,0.57,0.2,1.36,0.26
		c0.31,0.74,1.2,2.09-0.67,1.96c-0.98-0.07-1.02,0.53-0.52,1.23c0.12,0.17,0.37,0.34,0.36,0.5c-0.02,0.29-0.1,0.71-0.31,0.82
		c-0.2,0.11-0.81-0.05-0.83-0.16c-0.15-0.95-0.3-1.1-1.27-0.52c-0.66,0.39-1.28,0.62-1.51,1.39c-1.37,0.13-0.19,1.47-0.96,1.98
		c-1.1,0.73-2.02,1.76-3.17,2.39C219.75,121.98,218.79,121.79,217.96,121.85z M234.89,95.64c-0.21,0.11-0.48,0.18-0.48,0.27
		c-0.04,0.54-0.05,1.09,0,1.63c0.02,0.23,0.2,0.44,0.31,0.66c0.23-0.23,0.67-0.48,0.65-0.69c-0.06-0.62-0.3-1.22-0.98,0.98
		c0-0.1,0-0.2,0-0.29c-0.17,0.06-0.36,0.09-0.5,0.2c-0.04,0.03,0.07,0.26,0.11,0.4C234.13,98.69,234.26,98.59,234.89,95.64z
		 M221.52,116.73c-0.73,0.84-1.3,1.27-1.52,1.85c-0.1,0.26,0.58,1.16,0.8,1.12c0.71-0.11,1.19-0.66,1.09-1.48
		C221.85,117.87,221.73,117.54,221.52,116.73z M223.92,114.81c0.55-0.22,0.91-0.37,1.27-0.52c-0.3-0.3-0.55-0.74-0.9-0.84
		c-0.22-0.06-0.61,0.38-0.85,0.67C223.4,114.18,223.73,114.54,223.92,114.81z M234.15,99.6c-0.14,0.08-0.28,0.16-0.42,0.23
		c0.07,0.07,0.16,0.22,0.22,0.21c0.15-0.03,0.3-0.13,0.44-0.21C234.32,99.76,234.24,99.69,234.15,99.6z"/>
	<path id="XMLID_1799_" class="st0" d="M208.76,121.85c3.13-1.97,3.13-1.97,5.26-1.97c0.15,0.44,0.21,1.18,0.46,1.26
		c1.13,0.34,2.31,0.49,3.48,0.71c-0.62,0.34,1.9,1.17-0.24,1.37c-0.61,0.06-1.06,1.11-1.87,0.18c-0.41-0.47-1.07-0.46-1.16,0.3
		c-0.29,2.31-2.68,0.75-3.53,1.98c-0.15-0.19-0.44-0.41-0.42-0.58C210.98,123.46,210.12,122.51,208.76,121.85z M213.36,120.86
		c-0.07-0.07-0.16-0.22-0.22-0.21c-0.15,0.03-0.3,0.13-0.44,0.21c0.07,0.07,0.16,0.22,0.22,0.21
		C213.08,121.03,213.22,120.94,213.36,120.86z M213.27,122.74c-0.09-0.09-0.16-0.16-0.23-0.23c-0.07,0.15-0.17,0.29-0.21,0.44
		c-0.01,0.05,0.13,0.14,0.21,0.22C213.11,123.02,213.19,122.88,213.27,122.74z"/>
	<path id="XMLID_1798_" class="st0" d="M226.5,108.05c-0.59-0.05-1.69,0.16-1.25-0.81c0.74-1.66,1.73-3.2,2.16-5
		c0.07-0.27,0.44-0.47,0.67-0.7c0.13,0.23,0.36,0.46,0.37,0.7c0.04,0.98,0.01,1.96,0.02,2.94c0,0.89-0.54,1.32-1.46,1.55
		c-0.05,0,0.05,0,0.15,0c-0.06-0.17-0.09-0.36-0.2-0.5c-0.03-0.04-0.26,0.07-0.4,0.11c0.1,0.13,0.2,0.26,0.45,0.39
		C226.94,107.17,226.72,107.61,226.5,108.05z"/>
	<path id="XMLID_1797_" class="st0" d="M166.05,118.63c0-0.85-0.01-1.28,0.01-1.71c0-0.08,0.17-0.23,0.21-0.22
		c0.16,0.05,0.4,0.15,0.41,0.26c0.05,0.43,0.05,0.86,0.01,1.29c-0.04,0.51-0.14,1.02-0.22,1.52
		C166.29,119.27,166.1,118.76,166.05,118.63z"/>
	<path id="XMLID_1796_" class="st0" d="M215.28,118.45c0.35,0.21,0.64,0.3,0.65,0.41c0.03,0.27,0,0.77-0.13,0.81
		c-0.47,0.15-0.98,0.15-1.48,0.17c-0.03,0-0.16-0.42-0.09-0.5C214.58,119.01,214.96,118.72,215.28,118.45z"/>
	<path id="XMLID_1795_" class="st0" d="M209.52,125.48c-0.35-0.47-0.65-0.72-0.72-1.02c-0.04-0.17,0.3-0.42,0.47-0.64
		c0.27,0.22,0.61,0.4,0.78,0.68C210.11,124.62,209.81,124.96,209.52,125.48z"/>
	<path id="XMLID_1794_" class="st0" d="M167.37,124.48c0.22,0.26,0.58,0.49,0.63,0.78c0.1,0.6,0.03,1.23,0.03,1.85
		c-0.22,0-0.44,0-0.66,0C167.37,126.23,167.37,125.35,167.37,124.48z"/>
	<path id="XMLID_1793_" class="st0" d="M168.02,127.1c0.9,0.66,0.9,1.31,0,1.97C168.02,128.42,168.02,127.76,168.02,127.1z"/>
	<path id="XMLID_1792_" class="st0" d="M240.35,86.94c-0.11,0.22-0.25,0.48-0.38,0.74c-0.11-0.17-0.32-0.34-0.31-0.5
		c0.03-0.28,0.2-0.55,0.31-0.82C240.08,86.53,240.19,86.7,240.35,86.94z"/>
	<path id="XMLID_1791_" class="st0" d="M238.2,88.36c0.05,0.36,0.13,0.65,0.11,0.94c-0.01,0.09-0.27,0.17-0.41,0.25
		c-0.07-0.29-0.18-0.57-0.2-0.86C237.69,88.61,237.96,88.51,238.2,88.36z"/>
	<path id="XMLID_1790_" class="st0" d="M240.03,89.56c0.1,0.35,0.24,0.63,0.25,0.91c0,0.16-0.2,0.33-0.31,0.5
		c-0.11-0.27-0.28-0.54-0.31-0.82C239.65,89.99,239.86,89.82,240.03,89.56z"/>
	<path id="XMLID_1789_" class="st0" d="M240.35,92.86c-0.11,0.22-0.25,0.48-0.38,0.74c-0.11-0.17-0.32-0.34-0.31-0.5
		c0.03-0.28,0.2-0.55,0.31-0.82C240.08,92.45,240.19,92.61,240.35,92.86z"/>
	<path id="XMLID_1788_" class="st0" d="M226.11,117.65c-0.58,0.13-0.89,0.3-1.12,0.23c-0.2-0.07-0.31-0.41-0.46-0.63
		c0.2,0,0.42-0.04,0.61,0.01C225.38,117.31,225.6,117.44,226.11,117.65z"/>
	<path id="XMLID_1787_" class="st0" d="M169.08,129.47c0.13,0.58,0.3,0.89,0.23,1.12c-0.07,0.2-0.41,0.31-0.63,0.46
		c0-0.2-0.04-0.42,0.01-0.61C168.75,130.2,168.87,129.98,169.08,129.47z"/>
	<path id="XMLID_1786_" class="st0" d="M169.74,131.44c0.13,0.58,0.3,0.89,0.23,1.12c-0.07,0.2-0.41,0.31-0.63,0.46
		c0-0.2-0.04-0.42,0.01-0.61C169.4,132.17,169.53,131.95,169.74,131.44z"/>
	<path id="XMLID_1785_" class="st0" d="M171.05,134.72c0.13,0.58,0.3,0.89,0.23,1.12c-0.07,0.2-0.41,0.31-0.63,0.46
		c0-0.2-0.04-0.42,0.01-0.61C170.72,135.46,170.84,135.23,171.05,134.72z"/>
	<path id="XMLID_1784_" class="st0" d="M194.36,163.33c-0.16,0.24-0.27,0.41-0.38,0.58c-0.11-0.27-0.28-0.54-0.31-0.82
		c-0.02-0.15,0.2-0.33,0.31-0.5C194.11,162.85,194.24,163.1,194.36,163.33z"/>
	<path id="XMLID_1783_" class="st0" d="M232.14,65.39c0.08,0.08,0.22,0.18,0.2,0.21c-0.08,0.14-0.19,0.27-0.29,0.4
		c-0.1-0.1-0.2-0.2-0.29-0.29C231.89,65.6,232.02,65.5,232.14,65.39z"/>
	<path id="XMLID_1782_" class="st0" d="M240.86,96.46c-0.08,0.14-0.16,0.28-0.23,0.42c-0.07-0.07-0.22-0.16-0.21-0.22
		c0.03-0.15,0.13-0.3,0.21-0.44C240.7,96.3,240.78,96.37,240.86,96.46z"/>
	<path id="XMLID_1781_" class="st0" d="M229.79,107.39c0.22-0.22,0.44-0.44,0.66-0.66c0,0.22,0,0.44,0,0.66
		C230.23,107.39,230.01,107.39,229.79,107.39z"/>
	<path id="XMLID_1780_" class="st0" d="M234.95,109.13c-0.09,0.09-0.16,0.16-0.23,0.23c-0.07-0.15-0.17-0.29-0.21-0.44
		c-0.01-0.05,0.13-0.14,0.21-0.22C234.8,108.85,234.87,108.99,234.95,109.13z"/>
	<path id="XMLID_1779_" class="st0" d="M203.41,126.68c-0.08,0.14-0.15,0.28-0.23,0.42c-0.07-0.07-0.22-0.16-0.21-0.22
		c0.03-0.15,0.13-0.3,0.21-0.44C203.25,126.52,203.32,126.59,203.41,126.68z"/>
	<path id="XMLID_1778_" class="st0" d="M171.69,137.01c0.08,0.08,0.22,0.18,0.2,0.21c-0.08,0.14-0.19,0.27-0.29,0.4
		c-0.1-0.1-0.2-0.2-0.29-0.29C171.44,137.22,171.56,137.12,171.69,137.01z"/>
	<path id="XMLID_1777_" class="st0" d="M239.64,180.99c0.15-0.18,0.29-0.36,0.44-0.54c0.07,0.18,0.14,0.36,0.22,0.54
		C240.08,180.99,239.86,180.99,239.64,180.99z"/>
</g>
<g id="XMLID_1459_">
	<path id="XMLID_1471_" class="st1" d="M99.67,131.91c-1.01,0.06-0.57,0.83-0.67,1.34c-0.22,0.18-0.53,0.31-0.66,0.54
		c-0.45,0.78,0.7,1.35,0.28,2.25c-0.3,0.65-0.28,1.48-0.28,2.23c-0.02,1.52,1.13,4.41,2.69,6.6c1.85,2.62,3.94,5.04,6.94,6.4
		c2.14,0.97,4.36,1.93,6.77,1.44c2.53-0.51,4.55,0.99,6.81,1.48c1.26,0.27,1.39,2.21,0.27,2.92c-0.87,0.55-1.78,1.07-2.93,1.04
		c-2.68-0.07-5.42,0.31-8.05-0.09c-5.11-0.78-10.02-2.25-14.04-5.81c-0.79-0.7-1.77-1.2-2.55-1.92c-3.18-2.94-5.85-6.31-7.08-10.48
		c-1.47-4.95-1.56-7.52,1.1-12.54c1.41-2.65,3.68-4.49,6.16-6.2c3.38-2.33,6.99-3.49,11.07-3.32c1.23,0.05,2.46,0.03,3.69,0
		c4.11-0.1,7.98,1.12,11.84,2.25c4.4,1.28,8.46,3.41,12.41,5.68c3.42,1.96,6.84,3.94,9.59,6.86c1.38,1.47,2.83,2.87,4.27,4.28
		c2.46,2.42,4.26,5.29,5.68,8.4c1.94,4.27,3.52,8.68,3.11,13.46c-0.18,2.14,0.7,4.05,0.7,6.11c0,0.19-0.28,0.39-0.44,0.58
		c-0.07-0.19-0.16-0.38-0.21-0.58c-0.03-0.1,0.02-0.23-0.01-0.33c-0.07-0.3-0.17-0.6-0.25-0.9c-0.14,0.34-0.32,0.67-0.4,1.02
		c-0.18,0.81,0.43,1.42,0.57,2.09c0.14,0.63,0.72,1.78-0.58,2.19c0-0.55,0.01-1.11-0.01-1.66c0-0.08-0.16-0.24-0.21-0.23
		c-0.16,0.04-0.43,0.14-0.44,0.23c-0.04,0.55-0.02,1.1-0.02,1.66c-1.3,0.32-0.42,1.36-0.67,2.02c-1.3,0.32-0.42,1.35-0.67,2.02
		c-1.01,0.06-0.57,0.83-0.67,1.49c0,0.05,0-0.05,0-0.15c-0.17,0.06-0.37,0.1-0.51,0.2c-0.04,0.03,0.07,0.27,0.11,0.41
		c0.13-0.1,0.27-0.21,0.4-0.46c0.22-0.15,0.45-0.15,0.67-0.15c-0.24,1.38-0.49,2.75-2.17,3.36c-0.05,0,0.05,0,0.15,0
		c-0.06-0.17-0.1-0.37-0.2-0.51c-0.03-0.04-0.27,0.07-0.41,0.11c0.1,0.13,0.21,0.27,0.46,0.4c0.15,0.34,0.3,0.81,0.13,0.99
		c-2.79,3.03-5.39,6.18-8.62,8.88c-4.7,3.93-9.97,6.64-15.43,9.07c-3.11,1.39-6.46,2.26-9.75,3.21c-2.66,0.77-5.44,1-8.14,1.52
		c-2.75,0.53-5.43,0.41-8.14,0.5c-2.68,0.09-5.41,0.3-8.05-0.04c-5.51-0.71-11.03-1.56-16.13-3.99c-1.87-0.89-3.69-1.89-5.54-2.84
		c-0.23-0.12-0.47-0.2-0.71-0.3c-0.01,0.3-0.13,0.66-0.01,0.9c1.56,3.17,1.92,6.79,3.75,9.87c0.25,0.42,0.27,1.11,0.13,1.6
		c-0.36,1.29-0.86,2.55-1.33,3.81c-0.05,0.14-0.27,0.22-0.41,0.33c-0.08-0.19-0.19-0.37-0.25-0.57c-0.42-1.47-1-1.82-2.01-0.97
		c-0.76,0.64-1.2,1.2-1.95,0.04c-0.58-0.89-0.92,0.05-1.15,0.33c-1.36,1.71-2.42,1.78-3.63,0.14c-0.22-0.3-0.41-0.87-0.63-0.88
		c-2.71-0.06-2.17-2.8-3.41-4.05c-0.55-3.31-1.77-6.47-2.44-9.7c-0.59-2.89-1.69-5.71-1.65-8.77c0.04-3.26-0.06-3.15,2.42-5.14
		c3.65-2.93,7.64-5.36,11.47-8.02c1.45-1.01,3.12-1.69,4.58-2.69c1.96-1.34,4.09-0.33,6.12-0.59c0.18-0.02,0.4,1.1,0.72,1.17
		c0.4,0.09,0.91-0.46,1.4-0.53c0.62-0.08,1.91,1.84,1.5,2.31c-0.68,0.77-0.59,2.19-1.95,2.37c-0.15-0.26-0.26-0.56-0.46-0.78
		c-0.33-0.37-0.84-0.97-0.86,0.14c-0.02,1.01-2.21,0.45-1.37,1.98c-0.67,0.45-1.34,0.9-2.02,1.34c-0.55-0.14-1.05,1.23-1.63,0.05
		c-0.13,0.43-0.26,0.86-0.38,1.3c-0.48,0.09-1.27-0.31-1.31,0.51c-0.05,1.12-0.79,0.78-1.68,0.9c-0.07-0.11,0.12-0.24,0.3-0.38
		c-0.15-0.12-0.31-0.34-0.46-0.34c-0.28,0.01-0.55,0.16-0.82,0.26c0.2,0.16,0.4,0.31,0.98,0.46c0.3,0.38,0.3,0.83,0.3,1.28
		c-0.64,0.08-1.28,0.16-1.92,0.24c0.34,0.59,0.53,1.44,1.04,1.74c4.46,2.65,8.81,5.59,13.8,7.16c1.68,0.53,3.44,1.07,5.32,0.98
		c2.79-0.14,5.59,0,8.39-0.04c3.22-0.05,6.34-0.84,9.44-1.52c2.62-0.57,5.15-1.56,7.67-2.53c2.8-1.07,5.51-2.34,8.21-3.69
		c4.47-2.23,8.03-5.4,11.39-8.91c3.05-3.19,4.97-6.95,5.94-11.3c0.53-2.38,0.92-4.78,1.25-7.18c0.25-1.87-1.29-8.64-1.94-10.25
		c-1.94-4.83-4.48-9.27-8.61-12.52c-4.54-3.57-9.54-6.3-15.13-8.01c-5.21-1.59-9.88-0.35-14.33,2.2c-1.21,0.69-2,2.13-2.98,3.22
		c-0.07-0.19-0.15-0.37-0.22-0.56C99.97,131.54,99.82,131.72,99.67,131.91z M140,176.27c0.22-0.22,0.45-0.45,5.38-9.83
		c0-0.22,0.04-0.45-0.01-0.66c-0.06-0.3-0.18-0.59-0.28-0.88c-0.13,0.25-0.3,0.48-0.38,0.74c-0.76,2.57-1.87,4.99-3.11,7.36
		c-0.33,0.64-0.64,1.29-0.92,1.95c-0.08,0.19-0.01,0.44-0.01,0.66c0.19-0.08,0.41-0.11,0.56-0.24c1.51-1.27,2.03-3.11,2.85-4.8
		c0.65-1.33,1.33-2.6-3.42,5.04c-0.22,0.22-0.45,0.45-0.67,0.97C140,176.47,140,176.37,140,176.27c-0.17,0.06-0.37,0.1-0.51,0.2
		c-0.04,0.03,0.07,0.27,0.11,0.41C139.73,176.78,139.87,176.67,140,176.27z M92.95,126.81c-0.09-0.08-0.31-0.27-0.32-0.26
		c-1.28,1.29-2.83,2.41-3.02,4.43c-0.03,0.28,0.17,0.59,0.27,0.88c0.24-0.2,0.53-0.37,0.7-0.62c0.81-1.22,1.09-2.78,2.36-3.72
		c0.11-0.08,0.01-0.43,0.41-1.6c-0.13,0.11-0.26,0.21-0.39,0.32c0.1,0.1,0.2,0.2,0.3,0.3c0.1-0.13,0.22-0.26,0.3-0.4
		C93.56,126.1,93.42,125.99,92.95,126.81z M151.52,171.8c0.08,0.14,0.16,0.29,0.24,0.43c0.07-0.07,0.22-0.17,0.21-0.22
		c-0.04-0.16-0.14-0.3-0.21-0.45C151.69,171.64,151.61,171.71,151.52,171.8z M151.33,173.34c-0.08-0.14-0.16-0.29-0.24-0.43
		c-0.07,0.07-0.22,0.17-0.21,0.22c0.04,0.16,0.14,0.3,0.21,0.45C151.17,173.51,151.24,173.43,151.33,173.34z M75.23,174.83
		c0.09-0.09,0.16-0.16,0.24-0.24c-0.15-0.07-0.29-0.17-0.45-0.21c-0.06-0.01-0.15,0.14-0.22,0.21
		C74.94,174.67,75.09,174.75,75.23,174.83z M151.67,175.7c-0.09,0.09-0.16,0.16-0.24,0.24c0.15,0.07,0.29,0.17,0.45,0.21
		c0.06,0.01,0.15-0.14,0.22-0.21C151.95,175.85,151.81,175.77,151.67,175.7z M68.08,177.28c-0.07-0.07-0.17-0.22-0.22-0.21
		c-0.16,0.04-0.3,0.14-0.45,0.21c0.07,0.07,0.17,0.22,0.22,0.21C67.78,177.45,67.93,177.35,68.08,177.28z"/>
	<path id="XMLID_1470_" class="st1" d="M155.46,168.88c-0.26,0.66,0.62,1.7-0.67,2.02c0-0.67,0-1.34,0-2.02
		C155.01,168.88,155.24,168.88,155.46,168.88z"/>
	<path id="XMLID_1469_" class="st1" d="M154.79,170.89c-0.26,0.66,0.62,1.7-0.67,2.02c0-0.67,0-1.34,0-2.02
		C154.34,170.89,154.56,170.89,154.79,170.89z"/>
	<path id="XMLID_1468_" class="st1" d="M154.12,172.91c-0.1,0.51,0.33,1.29-0.67,1.34c0-0.45,0-0.9,0-1.34
		C153.67,172.91,153.89,172.91,154.12,172.91z"/>
	<path id="XMLID_1467_" class="st1" d="M77.09,180.04c-0.59,0.14-0.91,0.31-1.14,0.23c-0.21-0.07-0.32-0.42-0.47-0.64
		c0.21,0,0.43-0.04,0.62,0.01C76.34,179.7,76.56,179.82,77.09,180.04z"/>
	<path id="XMLID_1466_" class="st1" d="M80.23,177.63c-0.14,0.26-0.23,0.43-0.33,0.6c-0.13-0.32-0.28-0.64-0.38-0.98
		c-0.02-0.07,0.19-0.2,0.3-0.31C79.96,177.19,80.1,177.43,80.23,177.63z"/>
	<path id="XMLID_1465_" class="st1" d="M99.72,133.94c-0.14,0.26-0.23,0.43-0.33,0.6c-0.13-0.32-0.28-0.64-0.38-0.98
		c-0.02-0.07,0.19-0.2,0.29-0.31C99.45,133.49,99.6,133.74,99.72,133.94z"/>
	<path id="XMLID_1464_" class="st1" d="M82.19,175.9c-0.13,0.1-0.27,0.21-0.4,0.31c-0.04-0.14-0.15-0.38-0.11-0.41
		c0.14-0.11,0.34-0.14,0.51-0.2C82.19,175.7,82.19,175.8,82.19,175.9z"/>
	<path id="XMLID_1463_" class="st1" d="M78.1,178.68c-0.08,0.08-0.19,0.22-0.21,0.21c-0.15-0.08-0.27-0.19-0.4-0.3
		c0.1-0.1,0.2-0.2,0.3-0.3C77.89,178.42,78,178.55,78.1,178.68z"/>
	<path id="XMLID_1462_" class="st1" d="M74.7,182.08c-0.09,0.09-0.16,0.16-0.24,0.24c-0.07-0.15-0.17-0.29-0.21-0.45
		c-0.01-0.06,0.14-0.15,0.21-0.22C74.54,181.79,74.62,181.94,74.7,182.08z"/>
	<path id="XMLID_1461_" class="st1" d="M73.4,182.71c-0.08,0.08-0.19,0.22-0.21,0.21c-0.15-0.08-0.27-0.19-0.4-0.3
		c0.1-0.1,0.2-0.2,0.3-0.3C73.19,182.45,73.29,182.58,73.4,182.71z"/>
	<path id="XMLID_1460_" class="st1" d="M100.34,131.91c-0.15,0.19-0.3,0.37-0.45,0.56c-0.07-0.19-0.15-0.37-0.22-0.56
		C99.89,131.91,100.12,131.91,100.34,131.91z"/>
</g>
<g>
	<path class="st2" d="M27.02,57.02c2.02-0.81,4.34-1.21,6.98-1.21c6.4,0,11.36,2.12,14.87,6.37c1.23,1.52,1.84,2.88,1.84,4.1v0.76
		c-0.26,1.72-0.88,2.58-1.84,2.58c-0.88,0-2.15-0.86-3.82-2.58c-2.9-2.93-6.01-4.4-9.34-4.4c-0.18,0-0.53,0.03-1.05,0.08
		c-0.53,0.05-0.92,0.08-1.18,0.08c-5.26,0.51-9.56,2.58-12.9,6.22c-1.4,1.62-2.11,2.88-2.11,3.79c0,1.62,2.37,4.81,7.11,9.56
		c9.83,9.81,16.27,18.26,19.35,25.34c1.32,3.14,1.97,5.87,1.97,8.19c0,0.3-0.02,0.89-0.07,1.75c-0.05,0.86-0.07,1.59-0.07,2.2
		c-0.26,4.65-0.88,8.19-1.84,10.62c-1.32,3.04-3.42,5.34-6.32,6.9c-2.9,1.57-6.05,2.35-9.48,2.35c-8.07,0-14.21-3.34-18.43-10.02
		c-1.23-2.02-1.84-3.84-1.84-5.46c0-2.02,0.66-3.04,1.97-3.04c1.05,0,2.15,0.81,3.29,2.43c2.54,3.34,4.76,5.59,6.65,6.75
		c1.89,1.16,4.36,1.75,7.44,1.75h2.24c3.69-0.2,6.05-0.91,7.11-2.12c2.11-2.22,3.16-5.92,3.16-11.08c0-4.25-0.79-7.74-2.37-10.47
		C35,102.6,29.34,95.62,21.36,87.52c-3.6-3.74-6.1-6.62-7.5-8.65c-1.4-2.02-2.11-3.95-2.11-5.77c0-0.61,0.04-1.06,0.13-1.37
		c0.44-2.73,2.11-5.51,5-8.35C19.78,60.56,23.16,58.44,27.02,57.02z"/>
	<path class="st2" d="M144.15,53.07c0.7-1.01,1.45-1.42,2.24-1.21c1.32,0.3,1.97,1.11,1.97,2.43c0,2.02-1.93,9.86-5.79,23.52
		c-4.39,15.38-7.81,25.93-10.27,31.64c-2.46,5.72-5.09,9.28-7.9,10.7c-0.79,0.41-1.71,0.61-2.76,0.61c-2.98,0-5.79-2.17-8.42-6.53
		c-2.63-4.35-4.91-10.52-6.84-18.51c-2.81-11.53-4.43-17.3-4.87-17.3l-0.26,0.46c0,0.1-0.13,0.58-0.39,1.44
		c-0.26,0.86-0.53,1.77-0.79,2.73c-0.26,0.96-0.62,2.15-1.05,3.57c-0.44,1.42-0.83,2.78-1.18,4.1c-1.49,5.46-3.51,11.59-6.05,18.36
		c-2.55,6.78-4.3,10.77-5.26,11.99c-0.7,1.01-1.84,1.52-3.42,1.52c-1.49,0-2.65-1.21-3.49-3.64c-0.83-2.43-2.7-10.17-5.59-23.22
		c-3.42-15.28-5.66-25.09-6.71-29.44c-1.05-4.65-1.58-7.54-1.58-8.65c0-0.1,0-0.25,0-0.46l0.13-0.3c0.53-1.31,1.45-1.97,2.76-1.97
		c0.53,0,0.96,0.2,1.32,0.61c1.14,1.32,4.43,13.91,9.87,37.79c2.63,10.93,3.99,16.44,4.08,16.54c0.09,0.1,0.17,0.15,0.26,0.15
		c0.44,0,2.02-3.95,4.74-11.84c2.37-6.47,4.34-13.4,5.92-20.79c1.49-6.37,2.48-10.24,2.96-11.61c0.48-1.37,1.21-2.25,2.17-2.66
		c0.7-0.2,1.23-0.3,1.58-0.3c1.49,0,2.78,1.39,3.88,4.17c1.1,2.78,2.57,8.12,4.41,16.01c1.67,7.49,3.25,13.76,4.74,18.82
		c0.96,3.03,2.15,5.67,3.55,7.89c1.4,2.23,2.59,3.34,3.55,3.34c1.58,0,3.49-2.76,5.73-8.27c2.24-5.51,5.33-15.15,9.28-28.91
		C140.6,62.08,143.1,54.49,144.15,53.07z"/>
	<path class="st2" d="M163.5,52.01c0.17-1.11,0.28-1.84,0.33-2.2c0.04-0.35,0.17-0.91,0.4-1.67c0.22-0.76,0.53-1.26,0.92-1.52
		c0.39-0.25,0.86-0.38,1.38-0.38h0.39l1.84,0.3l-0.26,41.13c-0.18,27.52-0.44,41.78-0.79,42.79c-0.35,1.11-1.18,1.67-2.5,1.67
		c-1.49,0-2.37-0.25-2.63-0.76c-0.18-0.3-0.26-5.46-0.26-15.48C162.31,78.57,162.71,57.27,163.5,52.01z"/>
	<path class="st2" d="M201.79,52.31c1.58-0.3,3.38-0.46,5.4-0.46c5.53,0,9.65,0.61,12.37,1.82c3.51,1.52,6.19,3.79,8.03,6.83
		c1.4,2.02,2.11,4.86,2.11,8.5c0,3.24-0.66,6.48-1.97,9.71c-1.84,4.55-5.26,9.18-10.27,13.89c-5,4.7-10.62,8.63-16.85,11.76
		l-6.19,3.19l-1.05,6.68c-1.14,6.78-2.17,11.33-3.09,13.66c-0.92,2.33-2.13,3.49-3.62,3.49c-1.05,0-1.97-0.53-2.76-1.59
		c-0.79-1.06-1.18-2.2-1.18-3.41c0-1.21,0.44-2.12,1.32-2.73c0.79-0.5,1.58-2.58,2.37-6.22c0.7-3.44,1.05-5.51,1.05-6.22
		c0-0.91-0.48-1.62-1.45-2.12c-1.14-0.61-1.71-1.42-1.71-2.43c0-0.81,0.35-1.69,1.05-2.66c0.7-0.96,1.36-1.44,1.97-1.44
		c0.7,0,1.25-1.06,1.65-3.19c0.39-2.12,0.9-6.73,1.51-13.81c0.7-9.1,1.05-14.47,1.05-16.09c0-2.22-0.48-3.59-1.45-4.1
		c-1.23-0.61-1.84-2.02-1.84-4.25c0-1.21,0.31-2.43,0.92-3.64C190.38,55.25,194.6,53.53,201.79,52.31z M216.79,59.9
		c-2.11-0.81-5.7-1.21-10.79-1.21c-2.28,0-4.08,0.15-5.4,0.46c-0.79,0.2-1.32,0.68-1.58,1.44c-0.26,0.76-0.7,3.01-1.32,6.75
		c-0.35,2.33-0.77,7.06-1.25,14.19c-0.48,7.13-0.72,12.22-0.72,15.25c0,1.01,0.04,1.57,0.13,1.67h0.26c1.93,0,6.4-2.58,13.42-7.74
		c4.3-3.24,7.72-6.88,10.27-10.93c2.54-4.04,3.82-7.79,3.82-11.23C223.64,64.61,221.36,61.72,216.79,59.9z"/>
	<path class="st2" d="M271.81,49.28c7.63-0.5,13.07-0.76,16.32-0.76c5.09,0,7.98,0.41,8.69,1.21c1.32,1.52,1.4,2.88,0.26,4.1
		c-0.61,0.51-5.57,0.96-14.87,1.37c-9.83,0.51-16.06,1.11-18.69,1.82l-4.61,1.37v3.04c0.09,1.21,0.31,6.98,0.66,17.3l0.53,14.26
		l4.21,0.46c2.28,0.2,6.19,0.3,11.71,0.3h5.92l13.56-0.3l0.26,2.12c0.17,1.42-0.18,2.38-1.05,2.88c-0.7,0.41-4.23,0.86-10.59,1.37
		c-6.36,0.51-12.04,0.76-17.04,0.76h-6.84l-0.13,17v9.26c0,3.64,0.07,5.89,0.2,6.75c0.13,0.86,0.5,1.49,1.12,1.9
		c0.88,0.61,8.07,1.06,21.58,1.37l20,0.46l0.26,2.12c0.09,1.42-0.44,2.58-1.58,3.49c-0.88,0.71-3.2,1.06-6.97,1.06
		c-0.53,0-5.09-0.1-13.69-0.3c-12.55-0.4-19.61-0.86-21.19-1.37c-1.84-0.61-3.2-1.52-4.08-2.73c-0.79-1.01-1.25-2.4-1.38-4.17
		c-0.13-1.77-0.29-7.61-0.46-17.53l-0.13-19.88l-2.63-0.91c-1.67-0.61-3.2-1.57-4.61-2.88c-1.4-1.31-2.11-2.48-2.11-3.49
		c0-1.92,0.79-2.88,2.37-2.88c0.96,0,2.02,0.36,3.16,1.06c2.02,1.21,3.16,1.67,3.42,1.37c0.26-0.3,0.4-2.17,0.4-5.61
		c0-6.17-0.26-11.84-0.79-17c-0.53-5.46-0.79-9.26-0.79-11.38s0.31-3.39,0.92-3.79C255.75,50.95,261.98,49.89,271.81,49.28z"/>
</g>
</svg>
