<?xml version="1.0" encoding="utf-8"?>
<!-- Generator: Adobe Illustrator 25.4.1, SVG Export Plug-In . SVG Version: 6.00 Build 0)  -->
<svg version="1.1" id="Layer_1" xmlns="http://www.w3.org/2000/svg" xmlns:xlink="http://www.w3.org/1999/xlink" x="0px" y="0px"
	 viewBox="0 0 389.73 109.73" height="100px" style="enable-background:new 0 0 389.73 109.73;" xml:space="preserve">
<style type="text/css">
	.st0{fill:#FFFFFF;}
	.st1{fill:#222221;}
	.st2{fill:#FFFFFF;stroke:#FFFBFB;stroke-miterlimit:10;}
</style>
<g id="XMLID_1382_">
	<path id="XMLID_1387_" class="st0" d="M18.11,76.2c0.21,0.06,0.51,0.18,0.67,0.41c0.35,0.52,0.56,1.14,0.93,1.64
		c0.38,0.52,0.1,1.38,0.89,1.67c-0.06,0.1-0.1,0.24-0.19,0.3c-0.14,0.09-0.58-0.04-0.28,0.34c0.42,0.54,0.9,1.04,1.35,1.55
		c0.13,0.13,0.25,0.25,0.38,0.38c0.04,0.23,0.03,0.51,0.15,0.69c0.12,0.16,1.82,1.87,2.1,2.34c0.35,0.59,0.68,1.18,1.5,1.13
		c0.11-0.01,0.28,0.05,0.31,0.12c0.57,1.39,1.95,1.84,3.02,2.64c0.18,0.14,0.43,0.38,0.42,0.56c-0.03,0.57,0.17,1.04,0.69,1.14
		c0.3,0.06,0.65,0.76,1.01,0.06c0.57,0.43,1.2,0.8,1.69,1.3c0.55,0.56,0.51,0.53,1.32,0.61c0.46,0.05,0.89,0.41,1.34,0.63
		c-0.19,1.1,0.61,0.84,1.17,0.81c0.84-0.03,1.63,0.2,2.07,0.86c0.33,0.5,0.4,0.78,0.84,0.16c0.29-0.4,0.54-0.27,0.92,0
		c0.84,0.58,1.71,0.97,2.84,0.94c0.67-0.02,1.57,0.36,1.95,1.16c0.21,0.45,0.32,0.12,0.48,0c0.24-0.18,0.41-0.71,0.81-0.16
		c0.05,0.07,0.23,0.05,0.35,0.06c2.27,0.13,4.54,0.24,6.81,0.39c0.44,0.03,1.01,0.37,1.27,0.2c0.5-0.34,0.97-0.14,1.44-0.19
		c0.5-0.05,1.03,0.08,1.5-0.03c1.54-0.36,3.12-0.4,4.67-0.65c1.65-0.26,3.28-0.68,4.95-0.87c0.79-0.09,1.55-0.47,2.33-0.73
		c4.43-1.45,8.63-3.47,12.72-5.67c2.17-1.17,4.27-2.48,6.3-3.88c1.54-1.06,2.91-2.39,4.37-3.57c1.08-0.87,2.2-1.68,3.28-2.54
		c1.1-0.88,1.81-2.21,3.17-2.81c1.08-2.04,3.34-3.07,4.41-5.13c0.11-0.21,0.35-0.36,0.52-0.54c1.82-1.79,3.23-3.93,4.85-5.89
		c1.46-1.76,2.66-3.68,3.93-5.55c1.19-1.74,2.3-3.54,3.22-5.44c0.64-1.31,1.39-2.57,2.12-3.83c0.24-0.41,0.7-0.71,0.9-1.14
		c0.28-0.59,0.69,0.09,0.95-0.17c0.35-0.36,0.69-0.6,1.27-0.63c0.34-0.02,0.71-0.37,1.17-0.33c0.33,0.03,0.43,0.14,0.64,0.44
		c0.81,1.17,0.26,2.28-0.18,3.23c-0.83,1.79-1.46,3.68-2.38,5.42c-1.25,2.38-2.46,4.78-3.93,7.05c-1.04,1.59-2.2,3.1-3.18,4.71
		c-0.67,1.1-1.72,1.8-2.4,2.87c-0.27,0.44-0.76,0.87-1.06,1.31c-1.02,1.51-2.32,2.75-3.67,3.91c-0.73,0.62-0.82,1.69-1.91,2.09
		c-0.8,0.3-1.32,1.31-2.03,1.92c-2.06,1.77-4.12,3.55-6.25,5.24c-1.79,1.42-3.66,2.68-5.55,3.94c-1.29,0.85-2.48,1.96-3.83,2.59
		c-1.87,0.86-3.46,2.16-5.38,2.92c-1.89,0.74-3.64,1.83-5.46,2.75c-0.31,0.15-0.68,0.19-1.02,0.28c-0.51,0.13-1.14,0.13-1.5,0.43
		c-0.45,0.39-0.96,0.45-1.43,0.67c-0.37,0.17-0.59,0.41-0.93,0.02c-0.04-0.05-0.17-0.01-0.26-0.02c0.09,0.96-0.79,0.49-1.17,0.76
		c-0.42,0.29-0.94,0.56-1.43,0.59c-1.03,0.07-1.98,0.32-2.91,0.74c-0.12,0.05-0.38-0.21-0.58-0.33c0-0.13,0-0.25,0.25-0.58
		c0.11-0.51,0.01-0.71-0.08-0.91c-0.18,0.18-0.45,0.33-0.5,0.54c-0.04,0.16,0.21,0.38,0.33,0.58c0.16-0.12,0.31-0.25,0.25-0.2
		c-0.35,0.24-0.46,0.28-0.56,0.32c0.1,0.08,0.21,0.17,0.31,0.25c-0.28,0.42-0.44,1.12-1.18,0.53c-0.06-0.05-0.22-0.06-0.26-0.02
		c-1.03,1.09-2.26,0.6-3.44,0.46c-0.13-0.02-0.3-0.07-0.39-0.02c-0.41,0.24-0.76,0.6-1.19,0.76c-0.29,0.11-0.69-0.08-1.03-0.05
		c-0.47,0.04-0.94,0.16-1.41,0.22c-0.65,0.08-1.27-0.02-1.94,0.32c-0.51,0.25-1.3-0.05-1.96-0.13c-0.17-0.02-0.43-0.22-0.47-0.17
		c-0.45,0.48-1.17,0.56-1.52,0.31c-0.54-0.39-0.83,0.14-1.23,0.06c-0.3-0.06-0.64-0.07-0.94,0c-0.32,0.07-0.51-0.73-0.86-0.1
		c-0.13-0.2-0.22-0.48-0.41-0.58c-0.15-0.08-0.48,0-0.62,0.13c-0.42,0.38-0.76,0.89-1.35,0.18c-0.05-0.06-0.55,0.37-0.74,0.3
		c-2.1-0.81-4.38-0.58-6.51-1.11c-1.54-0.38-3.13-0.56-4.61-1.13c-1.4-0.54-2.91-0.83-4.19-1.71c-0.27-0.19-0.72-0.11-1-0.29
		c-2.49-1.55-5.22-2.72-7.52-4.54c-1.89-1.49-3.66-3.16-5.3-4.92c-1.6-1.72-2.96-3.65-4.41-5.5c-0.21-0.27-0.47-0.59-0.52-0.91
		c-0.14-0.9-0.49-0.65-0.93-0.24c-0.17,0.16-0.37,0.37-0.58,0.41c-0.46,0.07-0.51,0.35-0.32,0.62c0.09,0.14,0.44,0.1,0.67,0.15
		c0.22,0.46-0.45,0.81-0.11,1.4c0.15,0.26-0.41,0.9-0.59,1.39c-0.18,0.49-0.24,1.03-0.45,1.51c-0.11,0.25-0.42,0.42-0.66,0.6
		c-0.12,0.1-0.29,0.14-0.43,0.21c0.17,0.06,0.36,0.07,0.49,0.18c0.12,0.1,0.27,0.37,0.23,0.41c-0.19,0.22-0.44,0.39-0.67,0.58
		c0.33,0.27,0.38,0.5,0.12,0.92c-0.36,0.58-1.52,0.47-1.3,1.49c0.17,0.81-0.67,1.07-0.9,1.71C4.59,96,4.7,96.78,3.8,97.04
		c-0.51,0.15-0.8,0.99-1.23,1.5c-0.09,0.11-0.36,0.18-0.48,0.13c-0.11-0.05-0.2-0.29-0.21-0.45c-0.03-0.5,0.01-1.01-0.03-1.5
		c-0.01-0.1-0.24-0.27-0.37-0.26c-0.12,0-0.33,0.17-0.35,0.29c-0.05,0.31,0.01,0.63-0.03,0.94c-0.03,0.22-0.14,0.42-0.22,0.63
		c-0.25-0.14-0.62-0.23-0.74-0.44C0,97.57,0,97.17,0,96.81c0-0.34,0.5-0.63,0.02-1.04c-0.09-0.08,0.27-0.6,0.33-0.94
		c0.08-0.41,0.19-0.81,0.28-1.19c0.24-1.03,0.33-2.05,0.8-3.07c0.41-0.88,0.25-2.01,0.46-3.01c0.35-1.66,0.66-3.36,1.24-4.94
		c0.49-1.35,0.61-2.75,0.96-4.11c0.38-1.48,0.61-2.98,1.04-4.46c0.26-0.9,0.77-1.74,0.85-2.66c0.09-0.97,0.62-1.77,0.8-2.69
		c0.14-0.72,0.53-1.32,1.08-1.81c0.27-0.24,0.49-0.32,0.79-0.05c0.08,0.07,0.28,0.06,0.39,0.01c0.44-0.23,2.49-0.87,2.82-0.93
		c1.07-0.22,2,0.5,3.04,0.4c1.63,0.96,3.54,1.12,5.29,1.77c1.67,0.63,3.46,1.08,5.15,1.68c1.3,0.46,2.66,0.82,3.93,1.4
		c0.68,0.31,1.19,0.92,2.13,0.84c0.68-0.06,1.5,0.32,2.11,0.72c1.26,0.82,2.65,1.19,4.06,1.56c0.28,0.07,0.58,0.33,0.81,0.27
		c0.84-0.2,0.81,0.93,1.49,0.9c-0.05,0.34,0.01,0.74-0.17,0.99c-0.18,0.26-0.57,0.39-0.88,0.55c-0.11,0.06-0.26,0.02-0.4,0.03
		c0-0.19,0-0.38,0.11-0.74c0.04-0.11-0.04-0.05-0.11,0c0.06,0.06,0.11,0.11,0.17,0.17c0.06-0.07,0.12-0.15,0.17-0.23
		c0.01-0.01-0.07-0.08-0.23,0.05c-0.7,0.3-1.04,1.43-1.87,0.62c-0.21,0.27-0.74,0.51-0.44,0.89c0.35,0.43,0.34,0.63,0.02,1.08
		c-0.48,0.69-0.61,0.79-1.31,0.31c-0.26-0.17-0.61-0.96-0.7,0.11c-0.01,0.08-0.65,0.27-0.82,0.15c-1.14-0.79-2.59-0.63-3.79-1.36
		c-1.07-0.65-2.37-0.93-3.57-1.38c-1.9-0.71-3.78-1.49-5.72-2.1c-0.57-0.18-1.07-0.44-1.61-0.68c-0.26-0.11-0.58-0.06-0.88-0.08
		c-0.01,0.34-0.18,0.8-0.01,1C18.18,75.26,18.02,75.67,18.11,76.2c-0.15-0.05-0.38-0.26-0.61-0.48c-0.06,0.1-0.19,0.25-0.16,0.3
		c0.18,0.27,0.4,0.51,0.61,0.76C17.99,76.67,18.04,76.56,18.11,76.2z M5.65,91.88c-0.11,0.07-0.25,0.15-0.39,0.23
		c0.06,0.06,0.13,0.18,0.17,0.17c0.19-0.05,0.37-0.14,0.55-0.21c-0.1-0.05-0.19-0.1-0.72,0.39c0-0.06,0-0.11,0-0.17
		c-0.1,0.03-0.21,0.05-0.29,0.11c-0.02,0.02,0.04,0.15,0.06,0.23C5.12,92.57,5.19,92.51,5.65,91.88z M17.35,74.96
		c-0.07-0.11-0.15-0.25-0.23-0.39c-0.06,0.06-0.18,0.13-0.17,0.17c0.05,0.19,0.14,0.37,0.21,0.55c0.05-0.1,0.1-0.19-0.22-0.72
		c-0.06-0.29,0.19-0.72-0.65-0.6c0.16-0.2,0.26-0.26,0.26-0.32c-0.01-0.16-0.06-0.32-0.09-0.49c-0.08,0.02-0.24,0.04-0.24,0.06
		c0,0.2,0.03,0.41,0.33,0.6C16.63,74.1,16.38,74.54,17.35,74.96z M30.69,73.44c-0.3-0.3-0.51-0.51-0.72-0.72
		c-0.17,0.33-0.39,0.65-0.48,1.01c-0.02,0.09,0.41,0.45,0.49,0.41C30.23,73.99,30.41,73.73,30.69,73.44z M1.5,94.36
		c0,0.24-0.02,0.49,0.01,0.73c0.01,0.06,0.21,0.16,0.23,0.14c0.35-0.34-0.14-1.02,0.51-1.25c-0.13-0.13-0.24-0.29-0.39-0.38
		c-0.09-0.05-0.34,0-0.35,0.02C1.49,93.87,1.5,94.12,1.5,94.36z M35.14,77.4c-0.11-0.43-0.17-0.66-0.23-0.88
		c-0.08,0.11-0.23,0.22-0.23,0.33c0,0.23,0.07,0.45,0.12,0.68C34.93,77.48,35.07,77.42,35.14,77.4z M7.72,86.62
		c-0.07,0.11-0.21,0.25-0.18,0.3c0.09,0.17,0.22,0.33,0.37,0.46c0.02,0.02,0.21-0.15,0.32-0.23C8.06,86.97,7.89,86.79,7.72,86.62z
		 M7.51,88.59c-0.21-0.03-0.37-0.07-0.54-0.06c-0.05,0-0.1,0.15-0.14,0.24c0.16,0.04,0.33,0.1,0.49,0.12
		C7.37,88.88,7.43,88.73,7.51,88.59z M45.2,103.14c-0.09-0.14-0.14-0.29-0.19-0.29c-0.17,0.01-0.33,0.07-0.49,0.12
		c0.05,0.08,0.09,0.23,0.14,0.24C44.82,103.21,44.99,103.17,45.2,103.14z M121.58,55.3c0.05-0.05,0.09-0.09,0.13-0.13
		c-0.08-0.04-0.16-0.1-0.25-0.12c-0.03-0.01-0.08,0.08-0.12,0.12C121.42,55.21,121.5,55.26,121.58,55.3z M32.59,73.07
		c-0.04,0.04-0.12,0.09-0.12,0.12c0.02,0.09,0.08,0.17,0.12,0.25c0.04-0.04,0.12-0.09,0.12-0.12
		C32.69,73.23,32.63,73.15,32.59,73.07z M33.72,76.08c-0.04,0.04-0.12,0.09-0.12,0.12c0.02,0.09,0.08,0.17,0.12,0.25
		c0.04-0.04,0.12-0.09,0.12-0.12C33.82,76.24,33.76,76.16,33.72,76.08z M18.78,78.1c-0.05-0.05-0.09-0.09-0.13-0.13
		c-0.04,0.08-0.1,0.16-0.12,0.25c-0.01,0.03,0.08,0.08,0.12,0.12C18.69,78.26,18.73,78.18,18.78,78.1z M19.07,79.04
		c0.05-0.05,0.09-0.09,0.13-0.13c-0.08-0.04-0.16-0.1-0.25-0.12c-0.03-0.01-0.08,0.08-0.12,0.12C18.91,78.95,19,79,19.07,79.04z
		 M3.7,88.38c-0.04-0.08-0.09-0.16-0.13-0.24c-0.04,0.04-0.12,0.09-0.12,0.12c0.02,0.09,0.08,0.17,0.12,0.25
		C3.61,88.47,3.65,88.43,3.7,88.38z M4.89,94.36c-0.04-0.04-0.09-0.12-0.12-0.12c-0.09,0.02-0.17,0.08-0.25,0.12
		c0.04,0.04,0.09,0.12,0.12,0.12C4.72,94.46,4.81,94.4,4.89,94.36z M37.43,99.01c0.08-0.04,0.16-0.09,0.24-0.13
		c-0.04-0.04-0.09-0.12-0.12-0.12c-0.09,0.02-0.17,0.08-0.25,0.12C37.34,98.92,37.38,98.96,37.43,99.01z M45.59,101.52
		c-0.04-0.04-0.09-0.12-0.12-0.12c-0.09,0.02-0.17,0.08-0.25,0.12c0.04,0.04,0.09,0.12,0.12,0.12
		C45.42,101.62,45.5,101.56,45.59,101.52z M46.66,101.46c-0.05-0.05-0.09-0.09-0.13-0.13c-0.04,0.08-0.1,0.16-0.12,0.25
		c-0.01,0.03,0.08,0.08,0.12,0.12C46.58,101.62,46.62,101.54,46.66,101.46z M53.07,101.46c-0.05-0.05-0.09-0.09-0.13-0.13
		c-0.04,0.08-0.1,0.16-0.12,0.25c-0.01,0.03,0.08,0.08,0.12,0.12C52.98,101.62,53.03,101.54,53.07,101.46z M66.93,101.65
		c0.05-0.05,0.09-0.09,0.13-0.13c-0.08-0.04-0.16-0.1-0.25-0.12c-0.03-0.01-0.08,0.08-0.12,0.12
		C66.77,101.56,66.86,101.61,66.93,101.65z M38.67,102.78c0.05-0.05,0.09-0.09,0.13-0.13c-0.08-0.04-0.16-0.1-0.25-0.12
		c-0.03-0.01-0.08,0.08-0.12,0.12C38.51,102.69,38.59,102.74,38.67,102.78z M46.29,102.97c-0.05-0.05-0.09-0.09-0.13-0.13
		c-0.04,0.08-0.1,0.16-0.12,0.25c-0.01,0.03,0.08,0.08,0.12,0.12C46.2,103.13,46.24,103.05,46.29,102.97z M51.56,102.97
		c-0.05-0.05-0.09-0.09-0.13-0.13c-0.04,0.08-0.1,0.16-0.12,0.25c-0.01,0.03,0.08,0.08,0.12,0.12
		C51.47,103.13,51.52,103.05,51.56,102.97z"/>
	<path id="XMLID_1386_" class="st0" d="M21.47,82.11c0.08-0.1,0.17-0.21,0.25-0.31c0.04,0.1,0.08,0.21,0.12,0.31
		C21.72,82.11,21.6,82.11,21.47,82.11z"/>
	<path id="XMLID_1385_" class="st0" d="M21.85,82.11c0.1,0.08,0.21,0.17,0.31,0.25c-0.1,0.04-0.21,0.08-0.31,0.12
		C21.85,82.36,21.85,82.24,21.85,82.11z"/>
	<path id="XMLID_1384_" class="st0" d="M9.25,84.78c0.04,0.04,0.12,0.11,0.12,0.12c-0.04,0.08-0.11,0.15-0.17,0.23
		c-0.06-0.06-0.11-0.11-0.17-0.17C9.11,84.9,9.18,84.84,9.25,84.78z"/>
	<path id="XMLID_1383_" class="st0" d="M6.26,93.47c0.05,0.05,0.09,0.09,0.13,0.13c-0.08,0.04-0.16,0.1-0.25,0.12
		c-0.03,0.01-0.08-0.08-0.12-0.12C6.1,93.56,6.18,93.51,6.26,93.47z"/>
</g>
<g id="XMLID_00000005253050233268918950000004052286926488628611_">
	<path id="XMLID_00000077291957783746581600000018047076180273150114_" class="st0" d="M371.78,82.08c0.21-0.25,0.43-0.49,0.61-0.76
		c0.03-0.04-0.1-0.19-0.16-0.3c-0.23,0.21-0.46,0.42-0.61,0.48c0.08-0.53-0.07-0.94,0.26-1.35c0.16-0.2,0-0.65-0.01-1
		c-0.3,0.02-0.62-0.03-0.88,0.08c-0.53,0.23-1.04,0.49-1.61,0.68c-1.93,0.62-3.81,1.39-5.72,2.1c-1.2,0.45-2.49,0.73-3.57,1.38
		c-1.2,0.72-2.64,0.56-3.79,1.36c-0.17,0.12-0.81-0.07-0.82-0.15c-0.09-1.07-0.45-0.29-0.7-0.11c-0.7,0.48-0.83,0.38-1.31-0.31
		c-0.32-0.45-0.33-0.65,0.02-1.08c0.31-0.38-0.22-0.62-0.44-0.89c-0.83,0.81-1.17-0.32-1.87-0.62c-0.15-0.13-0.23-0.07-0.23-0.05
		c0.04,0.08,0.11,0.15,0.17,0.23c0.06-0.06,0.11-0.11,0.17-0.17c-0.07-0.06-0.15-0.12-0.11,0c0.11,0.36,0.11,0.55,0.11,0.74
		c-0.13-0.01-0.29,0.03-0.4-0.03c-0.31-0.16-0.7-0.29-0.88-0.55c-0.17-0.25-0.12-0.65-0.17-0.99c0.68,0.03,0.65-1.1,1.49-0.9
		c0.23,0.06,0.53-0.2,0.81-0.27c1.41-0.38,2.81-0.75,4.06-1.56c0.61-0.4,1.43-0.78,2.11-0.72c0.94,0.08,1.45-0.53,2.13-0.84
		c1.27-0.58,2.63-0.94,3.93-1.4c1.69-0.6,3.48-1.05,5.15-1.68c1.75-0.66,3.66-0.81,5.29-1.77c1.04,0.1,1.97-0.62,3.04-0.4
		c0.32,0.07,2.37,0.71,2.82,0.93c0.11,0.05,0.31,0.06,0.39-0.01c0.3-0.27,0.52-0.19,0.79,0.05c0.55,0.49,0.94,1.09,1.08,1.81
		c0.18,0.92,0.7,1.72,0.8,2.69c0.09,0.92,0.59,1.76,0.85,2.66c0.44,1.48,0.67,2.98,1.04,4.46c0.35,1.36,0.47,2.76,0.96,4.11
		c0.58,1.59,0.89,3.28,1.24,4.94c0.21,1,0.05,2.13,0.46,3.01c0.47,1.02,0.56,2.04,0.8,3.07c0.09,0.38,0.2,0.79,0.28,1.19
		c0.07,0.34,0.42,0.86,0.33,0.94c-0.48,0.41,0.02,0.71,0.02,1.04c0,0.36,0,0.76-0.15,1.06c-0.11,0.22-0.48,0.3-0.74,0.44
		c-0.08-0.21-0.19-0.42-0.22-0.63c-0.04-0.31,0.02-0.63-0.03-0.94c-0.02-0.12-0.22-0.29-0.35-0.29c-0.13,0-0.36,0.16-0.37,0.26
		c-0.04,0.5,0,1-0.03,1.5c-0.01,0.16-0.09,0.4-0.21,0.45c-0.13,0.05-0.39-0.02-0.48-0.13c-0.42-0.5-0.72-1.35-1.23-1.5
		c-0.9-0.26-0.79-1.04-0.95-1.51c-0.22-0.63-1.07-0.9-0.9-1.71c0.21-1.02-0.94-0.91-1.3-1.49c-0.27-0.43-0.21-0.65,0.12-0.92
		c-0.23-0.19-0.48-0.36-0.67-0.58c-0.04-0.04,0.11-0.32,0.23-0.41c0.13-0.1,0.32-0.12,0.49-0.18c-0.14-0.07-0.31-0.12-0.43-0.22
		c-0.24-0.18-0.55-0.35-0.66-0.6c-0.21-0.48-0.27-1.02-0.45-1.51c-0.18-0.49-0.74-1.13-0.59-1.39c0.34-0.59-0.33-0.94-0.11-1.4
		c0.23-0.04,0.58-0.01,0.67-0.15c0.18-0.27,0.13-0.55-0.32-0.62c-0.21-0.03-0.4-0.25-0.58-0.41c-0.45-0.41-0.79-0.66-0.93,0.24
		c-0.05,0.32-0.3,0.63-0.52,0.91c-1.45,1.85-2.82,3.78-4.41,5.5c-1.64,1.76-3.41,3.43-5.3,4.92c-2.3,1.82-5.03,2.99-7.52,4.54
		c-0.28,0.18-0.73,0.1-1,0.29c-1.27,0.88-2.78,1.17-4.19,1.71c-1.48,0.57-3.07,0.75-4.61,1.13c-2.13,0.52-4.41,0.3-6.51,1.11
		c-0.19,0.07-0.69-0.36-0.74-0.3c-0.58,0.7-0.93,0.2-1.35-0.18c-0.14-0.13-0.47-0.21-0.62-0.13c-0.19,0.1-0.28,0.38-0.41,0.58
		c-0.35-0.63-0.54,0.17-0.86,0.1c-0.3-0.07-0.63-0.06-0.94,0c-0.41,0.08-0.7-0.45-1.23-0.06c-0.34,0.25-1.07,0.17-1.52-0.31
		c-0.04-0.05-0.3,0.15-0.47,0.17c-0.66,0.08-1.45,0.38-1.96,0.13c-0.67-0.34-1.3-0.24-1.94-0.32c-0.47-0.06-0.94-0.18-1.41-0.22
		c-0.34-0.03-0.74,0.16-1.03,0.05c-0.43-0.16-0.79-0.52-1.19-0.76c-0.09-0.06-0.26,0-0.39,0.02c-1.18,0.14-2.42,0.62-3.44-0.46
		c-0.04-0.04-0.2-0.03-0.26,0.02c-0.74,0.59-0.9-0.11-1.18-0.53c0.1-0.08,0.21-0.17,0.31-0.25c-0.1-0.04-0.21-0.08-0.56-0.32
		c-0.06-0.05,0.09,0.08,0.25,0.2c0.12-0.19,0.36-0.42,0.33-0.58c-0.05-0.21-0.32-0.36-0.5-0.54c-0.09,0.2-0.18,0.4-0.08,0.91
		c0.25,0.33,0.25,0.45,0.25,0.58c-0.2,0.12-0.46,0.38-0.58,0.33c-0.93-0.42-1.88-0.67-2.91-0.74c-0.49-0.03-1.02-0.3-1.43-0.59
		c-0.38-0.27-1.26,0.21-1.17-0.76c-0.09,0-0.22-0.03-0.26,0.02c-0.34,0.38-0.57,0.14-0.93-0.02c-0.48-0.22-0.98-0.28-1.43-0.67
		c-0.36-0.31-0.99-0.3-1.5-0.43c-0.34-0.09-0.71-0.12-1.02-0.28c-1.82-0.91-3.57-2-5.46-2.75c-1.92-0.76-3.52-2.06-5.38-2.92
		c-1.35-0.62-2.54-1.73-3.83-2.59c-1.89-1.25-3.76-2.52-5.55-3.94c-2.14-1.69-4.19-3.47-6.25-5.24c-0.71-0.61-1.23-1.62-2.03-1.92
		c-1.1-0.4-1.18-1.47-1.91-2.09c-1.35-1.16-2.65-2.4-3.67-3.91c-0.3-0.44-0.79-0.88-1.06-1.31c-0.67-1.08-1.73-1.78-2.4-2.87
		c-0.98-1.61-2.15-3.12-3.18-4.71c-1.47-2.27-2.68-4.67-3.93-7.05c-0.92-1.74-1.55-3.63-2.38-5.42c-0.44-0.95-0.99-2.07-0.18-3.23
		c0.21-0.3,0.31-0.41,0.64-0.44c0.46-0.04,0.83,0.31,1.17,0.33c0.58,0.03,0.91,0.27,1.27,0.63c0.26,0.26,0.66-0.42,0.95,0.17
		c0.21,0.42,0.66,0.72,0.9,1.14c0.74,1.26,1.49,2.52,2.12,3.83c0.93,1.91,2.04,3.7,3.22,5.44c1.27,1.87,2.47,3.79,3.93,5.55
		c1.62,1.95,3.02,4.09,4.85,5.89c0.18,0.18,0.41,0.32,0.52,0.54c1.07,2.06,3.33,3.09,4.41,5.13c1.36,0.6,2.07,1.93,3.17,2.81
		c1.08,0.86,2.2,1.67,3.28,2.54c1.47,1.18,2.83,2.5,4.37,3.57c2.03,1.4,4.13,2.71,6.3,3.88c4.09,2.21,8.29,4.22,12.72,5.67
		c0.77,0.25,1.54,0.64,2.33,0.73c1.67,0.19,3.3,0.61,4.95,0.87c1.55,0.25,3.13,0.29,4.67,0.65c0.48,0.11,1.01-0.02,1.5,0.03
		c0.47,0.05,0.94-0.15,1.44,0.19c0.26,0.17,0.83-0.17,1.27-0.2c2.27-0.14,4.54-0.26,6.81-0.39c0.12-0.01,0.3,0.01,0.35-0.06
		c0.4-0.55,0.57-0.02,0.81,0.16c0.16,0.12,0.26,0.45,0.48,0c0.38-0.8,1.28-1.18,1.95-1.16c1.13,0.03,2-0.36,2.84-0.94
		c0.37-0.26,0.63-0.4,0.92,0c0.44,0.62,0.51,0.34,0.84-0.16c0.44-0.67,1.23-0.9,2.07-0.86c0.56,0.02,1.36,0.29,1.17-0.81
		c0.45-0.22,0.88-0.59,1.34-0.63c0.82-0.08,0.77-0.05,1.32-0.61c0.5-0.5,1.12-0.88,1.69-1.3c0.35,0.7,0.71,0,1.01-0.06
		c0.52-0.1,0.72-0.57,0.69-1.14c-0.01-0.18,0.23-0.43,0.42-0.56c1.07-0.81,2.45-1.26,3.02-2.64c0.03-0.07,0.21-0.13,0.31-0.12
		c0.83,0.05,1.15-0.54,1.5-1.13c0.28-0.47,1.99-2.18,2.11-2.34c0.13-0.17,0.11-0.45,0.15-0.68c0.13-0.13,0.25-0.25,0.38-0.38
		c0.45-0.52,0.93-1.01,1.35-1.55c0.3-0.39-0.14-0.25-0.28-0.34c-0.09-0.06-0.13-0.2-0.19-0.3c0.78-0.29,0.5-1.15,0.89-1.67
		c0.37-0.5,0.59-1.11,0.93-1.64c0.15-0.23,0.46-0.36,0.67-0.41C371.7,81.86,371.74,81.97,371.78,82.08z M384.69,97.93
		c0.02-0.08,0.09-0.21,0.06-0.23c-0.08-0.06-0.19-0.08-0.29-0.11c0,0.06,0,0.11,0,0.17c-0.53-0.49-0.63-0.44-0.72-0.39
		c0.18,0.07,0.36,0.16,0.55,0.21c0.04,0.01,0.11-0.11,0.17-0.17c-0.14-0.08-0.27-0.16-0.39-0.23
		C384.54,97.81,384.62,97.87,384.69,97.93z M373.16,79.12c0.3-0.19,0.33-0.39,0.33-0.6c0-0.02-0.15-0.04-0.24-0.06
		c-0.03,0.16-0.08,0.32-0.09,0.49c0,0.06,0.1,0.13,0.26,0.32c-0.83-0.12-0.59,0.32-0.65,0.6c-0.33,0.53-0.27,0.63-0.22,0.72
		c0.07-0.18,0.16-0.36,0.21-0.55c0.01-0.04-0.11-0.11-0.17-0.17c-0.08,0.14-0.16,0.27-0.23,0.39
		C373.35,79.84,373.1,79.41,373.16,79.12z M359.75,79.42c0.08,0.04,0.51-0.31,0.49-0.41c-0.09-0.35-0.31-0.67-0.48-1.01
		c-0.21,0.21-0.42,0.42-0.72,0.72C359.33,79.03,359.51,79.29,359.75,79.42z M388.22,98.93c0-0.02-0.26-0.08-0.35-0.03
		c-0.15,0.09-0.26,0.25-0.39,0.38c0.65,0.23,0.16,0.91,0.51,1.25c0.02,0.02,0.22-0.08,0.23-0.14c0.03-0.24,0.01-0.49,0.01-0.73
		C388.24,99.42,388.25,99.18,388.22,98.93z M354.94,82.83c0.04-0.23,0.12-0.45,0.12-0.68c0-0.11-0.15-0.22-0.23-0.33
		c-0.06,0.22-0.12,0.45-0.23,0.88C354.66,82.72,354.8,82.78,354.94,82.83z M381.51,92.44c0.11,0.08,0.29,0.25,0.32,0.23
		c0.15-0.13,0.28-0.28,0.37-0.46c0.03-0.05-0.11-0.18-0.18-0.3C381.84,92.1,381.67,92.27,381.51,92.44z M382.41,94.18
		c0.17-0.01,0.33-0.07,0.49-0.12c-0.05-0.08-0.09-0.23-0.14-0.24c-0.16-0.01-0.33,0.04-0.54,0.06
		C382.31,94.03,382.36,94.19,382.41,94.18z M345.07,108.5c0.05,0,0.1-0.15,0.14-0.24c-0.16-0.04-0.33-0.1-0.49-0.12
		c-0.04,0-0.1,0.15-0.19,0.29C344.74,108.47,344.91,108.51,345.07,108.5z M268.4,60.47c-0.04-0.04-0.09-0.12-0.12-0.12
		c-0.09,0.02-0.17,0.08-0.25,0.12c0.04,0.04,0.08,0.08,0.13,0.13C268.23,60.56,268.32,60.51,268.4,60.47z M357.03,78.62
		c-0.01,0.03,0.08,0.08,0.12,0.12c0.04-0.08,0.1-0.16,0.12-0.25c0.01-0.03-0.08-0.08-0.12-0.12
		C357.1,78.45,357.05,78.53,357.03,78.62z M355.9,81.64c-0.01,0.03,0.08,0.08,0.12,0.12c0.04-0.08,0.1-0.16,0.12-0.25
		c0.01-0.03-0.08-0.08-0.12-0.12C355.97,81.47,355.92,81.55,355.9,81.64z M371.09,83.64c0.04-0.04,0.12-0.09,0.12-0.12
		c-0.02-0.09-0.08-0.17-0.12-0.25c-0.04,0.04-0.08,0.08-0.13,0.13C371,83.48,371.04,83.56,371.09,83.64z M370.9,84.21
		c-0.04-0.04-0.09-0.12-0.12-0.12c-0.09,0.02-0.17,0.08-0.25,0.12c0.04,0.04,0.08,0.08,0.13,0.13
		C370.74,84.3,370.82,84.25,370.9,84.21z M386.16,93.82c0.04-0.08,0.1-0.16,0.12-0.25c0.01-0.03-0.08-0.08-0.12-0.12
		c-0.05,0.08-0.09,0.16-0.13,0.24C386.08,93.73,386.12,93.78,386.16,93.82z M385.1,99.78c0.03,0.01,0.08-0.08,0.12-0.12
		c-0.08-0.04-0.16-0.1-0.25-0.12c-0.03-0.01-0.08,0.08-0.12,0.12C384.93,99.7,385.01,99.76,385.1,99.78z M352.43,104.18
		c-0.08-0.04-0.16-0.1-0.25-0.12c-0.03-0.01-0.08,0.08-0.12,0.12c0.08,0.05,0.16,0.09,0.24,0.13
		C352.35,104.27,352.39,104.22,352.43,104.18z M344.4,106.94c0.03,0.01,0.08-0.08,0.12-0.12c-0.08-0.04-0.16-0.1-0.25-0.12
		c-0.03-0.01-0.08,0.08-0.12,0.12C344.23,106.86,344.31,106.92,344.4,106.94z M343.2,107.01c0.04-0.04,0.12-0.09,0.12-0.12
		c-0.02-0.09-0.08-0.17-0.12-0.25c-0.04,0.04-0.08,0.08-0.13,0.13C343.11,106.84,343.16,106.93,343.2,107.01z M336.8,107.01
		c0.04-0.04,0.12-0.09,0.12-0.12c-0.02-0.09-0.08-0.17-0.12-0.25c-0.04,0.04-0.08,0.08-0.13,0.13
		C336.71,106.84,336.75,106.93,336.8,107.01z M323.04,106.82c-0.04-0.04-0.09-0.12-0.12-0.12c-0.09,0.02-0.17,0.08-0.25,0.12
		c0.04,0.04,0.08,0.08,0.13,0.13C322.88,106.91,322.96,106.86,323.04,106.82z M351.3,107.95c-0.04-0.04-0.09-0.12-0.12-0.12
		c-0.09,0.02-0.17,0.08-0.25,0.12c0.04,0.04,0.08,0.08,0.13,0.13C351.14,108.04,351.22,108,351.3,107.95z M343.58,108.52
		c0.04-0.04,0.12-0.09,0.12-0.12c-0.02-0.09-0.08-0.17-0.12-0.25c-0.04,0.04-0.08,0.08-0.13,0.13
		C343.49,108.35,343.53,108.43,343.58,108.52z M338.3,108.52c0.04-0.04,0.12-0.09,0.12-0.12c-0.02-0.09-0.08-0.17-0.12-0.25
		c-0.04,0.04-0.08,0.08-0.13,0.13C338.21,108.35,338.26,108.43,338.3,108.52z"/>
	<path id="XMLID_00000112612029902586641700000007474777751468820899_" class="st0" d="M368.26,87.41c-0.08-0.1-0.17-0.21-0.25-0.31
		c-0.04,0.1-0.08,0.21-0.12,0.31C368.01,87.41,368.14,87.41,368.26,87.41z"/>
	<path id="XMLID_00000150784308616658556480000014222344360913927813_" class="st0" d="M367.89,87.41c-0.1,0.08-0.21,0.17-0.31,0.25
		c0.1,0.04,0.21,0.08,0.31,0.12C367.89,87.66,367.89,87.54,367.89,87.41z"/>
	<path id="XMLID_00000087398267859921703710000001670085182561059736_" class="st0" d="M380.48,90.08
		c-0.04,0.04-0.12,0.11-0.12,0.12c0.04,0.08,0.11,0.15,0.17,0.23c0.06-0.06,0.11-0.11,0.17-0.17
		C380.63,90.2,380.55,90.14,380.48,90.08z"/>
	<path id="XMLID_00000101799720796296624900000004346875409695314842_" class="st0" d="M383.47,98.77
		c-0.05,0.05-0.09,0.09-0.13,0.13c0.08,0.04,0.16,0.1,0.25,0.12c0.03,0.01,0.08-0.08,0.12-0.12
		C383.63,98.86,383.55,98.82,383.47,98.77z"/>
</g>
<path class="st1" d="M141.72,17.52"/>
<g>
	<path class="st2" d="M137.31,10.91c0.71-0.48,1.59-0.85,2.61-1.12c2.5-0.65,4.61-0.43,6.36,0.65c0.61,0.39,0.97,0.79,1.08,1.2
		l0.07,0.26c0.05,0.61-0.12,0.96-0.49,1.06c-0.34,0.09-0.91-0.07-1.71-0.49c-1.39-0.7-2.73-0.88-4.03-0.54
		c-0.07,0.02-0.2,0.06-0.4,0.13c-0.2,0.07-0.35,0.12-0.46,0.15c-2.01,0.7-3.5,1.84-4.48,3.41c-0.41,0.69-0.57,1.19-0.49,1.5
		c0.14,0.55,1.35,1.38,3.61,2.51c4.69,2.32,7.95,4.52,9.77,6.61c0.79,0.93,1.29,1.78,1.49,2.57c0.03,0.1,0.07,0.3,0.13,0.6
		c0.06,0.3,0.11,0.55,0.17,0.75c0.31,1.6,0.38,2.86,0.22,3.78c-0.25,1.16-0.86,2.15-1.86,2.97c-0.99,0.82-2.15,1.41-3.49,1.75
		c-3.15,0.82-5.83,0.31-8.06-1.52c-0.66-0.56-1.06-1.11-1.2-1.66c-0.18-0.68-0.01-1.09,0.5-1.23c0.41-0.11,0.91,0.06,1.5,0.49
		c1.29,0.87,2.35,1.41,3.18,1.61c0.84,0.2,1.85,0.15,3.05-0.16l0.87-0.23c1.42-0.44,2.28-0.92,2.58-1.44
		c0.62-0.97,0.71-2.32,0.26-4.06c-0.37-1.44-0.99-2.54-1.84-3.3c-1.82-1.65-4.63-3.43-8.46-5.36c-1.73-0.9-2.96-1.62-3.68-2.16
		c-0.73-0.54-1.17-1.12-1.33-1.74c-0.05-0.21-0.08-0.36-0.07-0.48c-0.07-0.97,0.34-2.08,1.22-3.33
		C134.8,12.84,135.93,11.78,137.31,10.91z"/>
	<path class="st2" d="M188.88,2.35c0.25-0.37,0.54-0.54,0.87-0.49c0.54,0.06,0.82,0.33,0.86,0.78c0.05,0.71-0.51,3.49-1.7,8.37
		c-1.35,5.49-2.44,9.27-3.28,11.33c-0.83,2.07-1.79,3.39-2.88,3.97c-0.31,0.17-0.67,0.26-1.09,0.3c-1.2,0.09-2.38-0.58-3.56-2.01
		c-1.17-1.43-2.25-3.51-3.24-6.24c-1.44-3.93-2.24-5.89-2.42-5.87l-0.09,0.17c0,0.04-0.04,0.21-0.12,0.51
		c-0.08,0.31-0.16,0.63-0.24,0.98c-0.08,0.34-0.19,0.77-0.33,1.27c-0.14,0.51-0.26,1-0.37,1.46c-0.45,1.95-1.1,4.14-1.94,6.58
		c-0.84,2.44-1.44,3.88-1.79,4.34c-0.26,0.37-0.7,0.59-1.33,0.63c-0.6,0.05-1.1-0.34-1.5-1.16c-0.4-0.82-1.35-3.46-2.87-7.91
		c-1.78-5.21-2.94-8.56-3.48-10.05c-0.55-1.59-0.84-2.58-0.87-2.96c0-0.03-0.01-0.09-0.01-0.16l0.04-0.11
		c0.18-0.47,0.53-0.73,1.06-0.77c0.21-0.02,0.39,0.04,0.54,0.17c0.49,0.42,2.15,4.71,4.97,12.85c1.35,3.72,2.04,5.6,2.08,5.63
		c0.04,0.03,0.07,0.05,0.11,0.04c0.18-0.01,0.7-1.44,1.59-4.27c0.78-2.33,1.39-4.8,1.82-7.42c0.43-2.27,0.72-3.64,0.88-4.13
		c0.16-0.49,0.42-0.82,0.8-0.99c0.28-0.09,0.48-0.14,0.63-0.15c0.6-0.05,1.15,0.4,1.67,1.33c0.51,0.94,1.25,2.75,2.2,5.44
		c0.87,2.56,1.67,4.69,2.41,6.41c0.47,1.03,1.01,1.91,1.64,2.64c0.62,0.73,1.13,1.08,1.52,1.05c0.63-0.05,1.33-1.07,2.08-3.06
		c0.75-1.99,1.74-5.44,2.95-10.35C187.69,5.6,188.49,2.88,188.88,2.35z"/>
	<path class="st2" d="M199.85,2.48c0.08-0.39,0.13-0.64,0.15-0.76c0.02-0.12,0.08-0.32,0.18-0.58c0.09-0.26,0.22-0.44,0.39-0.52
		c0.16-0.08,0.35-0.12,0.56-0.12l0.16,0l0.74,0.13l-0.52,14.35c-0.35,9.6-0.6,14.58-0.75,14.93c-0.15,0.38-0.49,0.57-1.02,0.55
		c-0.6-0.02-0.95-0.12-1.05-0.3c-0.07-0.11-0.05-1.91,0.05-5.41C199.11,11.74,199.48,4.31,199.85,2.48z"/>
	<path class="st2" d="M217.55,3.66c0.64-0.04,1.37-0.02,2.18,0.07c2.21,0.23,3.84,0.62,4.89,1.16c1.35,0.68,2.34,1.58,2.96,2.71
		c0.49,0.76,0.67,1.78,0.53,3.04c-0.12,1.12-0.5,2.22-1.15,3.29c-0.91,1.5-2.45,2.97-4.62,4.39c-2.17,1.42-4.57,2.55-7.18,3.37
		l-2.59,0.84l-0.67,2.27c-0.71,2.31-1.29,3.84-1.74,4.61c-0.46,0.77-0.98,1.12-1.58,1.06c-0.42-0.04-0.77-0.27-1.05-0.67
		s-0.39-0.81-0.35-1.24c0.04-0.42,0.25-0.72,0.63-0.89c0.33-0.14,0.73-0.83,1.18-2.06c0.41-1.16,0.62-1.87,0.65-2.12
		c0.03-0.32-0.13-0.58-0.5-0.8c-0.44-0.26-0.63-0.56-0.6-0.92c0.03-0.28,0.2-0.57,0.52-0.88c0.32-0.3,0.6-0.44,0.84-0.42
		c0.28,0.03,0.54-0.32,0.78-1.04s0.61-2.3,1.11-4.73c0.62-3.13,0.95-4.98,1.01-5.54c0.08-0.77-0.06-1.27-0.43-1.48
		c-0.47-0.26-0.66-0.78-0.58-1.55c0.04-0.42,0.21-0.83,0.5-1.23C212.87,4.2,214.62,3.78,217.55,3.66z M223.28,6.93
		c-0.81-0.37-2.24-0.66-4.28-0.88c-0.91-0.1-1.64-0.12-2.18-0.07c-0.32,0.04-0.55,0.18-0.69,0.43c-0.13,0.25-0.39,1.02-0.77,2.29
		c-0.23,0.79-0.57,2.42-1.02,4.88c-0.46,2.46-0.74,4.21-0.85,5.27c-0.04,0.35-0.04,0.55-0.01,0.59l0.1,0.01
		c0.77,0.08,2.66-0.62,5.66-2.12c1.84-0.94,3.34-2.06,4.51-3.36c1.17-1.3,1.81-2.54,1.94-3.74C225.85,8.86,225.04,7.76,223.28,6.93z
		"/>
	<path class="st2" d="M250.45,8.45c3.01,0.65,5.14,1.15,6.4,1.5c1.97,0.55,3.06,0.99,3.26,1.34c0.37,0.65,0.28,1.12-0.28,1.41
		c-0.29,0.1-2.25-0.27-5.9-1.14c-3.86-0.89-6.33-1.35-7.42-1.4l-1.92-0.04l-0.28,1.02c-0.08,0.42-0.53,2.38-1.36,5.89l-1.12,4.86
		l1.59,0.61c0.87,0.31,2.37,0.77,4.52,1.36l2.3,0.64l5.29,1.35l-0.1,0.74c-0.06,0.5-0.29,0.78-0.68,0.86
		c-0.31,0.06-1.72-0.17-4.24-0.68c-2.52-0.51-4.74-1.04-6.69-1.58l-2.66-0.74l-1.64,5.71l-0.86,3.12c-0.34,1.23-0.52,1.99-0.55,2.29
		c-0.03,0.3,0.06,0.56,0.26,0.76c0.28,0.3,3.03,1.23,8.25,2.78l7.72,2.3l-0.1,0.74c-0.1,0.49-0.41,0.82-0.94,1
		c-0.41,0.14-1.34,0.01-2.81-0.39c-0.2-0.06-1.97-0.58-5.28-1.57c-4.83-1.48-7.53-2.4-8.1-2.74c-0.66-0.4-1.1-0.85-1.33-1.36
		c-0.21-0.42-0.26-0.94-0.15-1.55c0.11-0.61,0.6-2.59,1.46-5.95l1.8-6.71l-0.94-0.59c-0.59-0.38-1.1-0.87-1.52-1.47
		c-0.42-0.59-0.59-1.06-0.49-1.4c0.18-0.65,0.58-0.89,1.19-0.72c0.37,0.1,0.75,0.34,1.13,0.7c0.67,0.63,1.07,0.9,1.2,0.83
		c0.13-0.07,0.36-0.69,0.68-1.85c0.58-2.08,1-4.01,1.28-5.81c0.31-1.9,0.56-3.2,0.75-3.92c0.2-0.72,0.43-1.11,0.71-1.18
		C244.07,7.28,246.58,7.59,250.45,8.45z"/>
</g>
</svg>
