<svg id="Layer_1" data-name="Layer 1" xmlns="http://www.w3.org/2000/svg" viewBox="0 0 476.53 192.79"><defs><style>.cls-1{fill:#fff;}.cls-2{isolation:isolate;}</style></defs><path class="cls-1" d="M156.49,154.67c2.62-.09,4.84-.19,6.68-.19a29.76,29.76,0,0,1,6.09.49,8.89,8.89,0,0,1,3.58,1.83c1.55,1.36,2.32,3.58,2.32,6.58v.49a10,10,0,0,1-.77,4.15,10.34,10.34,0,0,1-2.81,3.2,25.35,25.35,0,0,1-10,5.22l-3.1.87v4.16a21.18,21.18,0,0,1-.38,5.32,2,2,0,0,1-2,1.55,2.5,2.5,0,0,1-1.94-1.16q-1.46-1.74-1.45-13.35c0-2.32,0-4.06.1-5.32.19-8.42.48-12.77.58-13.16l.09-.09A6.38,6.38,0,0,1,156.49,154.67Zm11.71,2.23a9,9,0,0,0-3.77-.58h-.87a16.88,16.88,0,0,0-4.94.48,1.74,1.74,0,0,0-1.16,1.84,3.87,3.87,0,0,0,.1,1.16q.28,2.91.58,8.13c.19,4,.38,6,.58,6.09a.43.43,0,0,0,.29.1q1,0,4.35-1.74a33.67,33.67,0,0,0,5.13-3.29c1.45-1.26,2.32-3.39,2.61-6.19v-.78C170.91,159.51,170,157.87,168.2,156.9Z" transform="translate(-8 -3)"/><path class="cls-1" d="M192.77,152.26c0-.2.48-.29,1.35-.29a17.84,17.84,0,0,1,6.49,1.16,13.77,13.77,0,0,1,3.77,2.13,10.49,10.49,0,0,1,2.51,3.38,11.45,11.45,0,0,1,1.07,2.61,22.77,22.77,0,0,1,.19,3.39,25.65,25.65,0,0,1-.09,3.19,5.9,5.9,0,0,1-.88,1.84,8.32,8.32,0,0,1-3.09,2.61,10.75,10.75,0,0,0-2.13,1.36c0,.19.48.77,1.35,1.64a23.7,23.7,0,0,1,2.62,3.68c.19.38.67,1.25,1.45,2.51s1.26,2.13,1.55,2.61a12,12,0,0,1,1.64,3.78.77.77,0,0,1-.68.87,2.85,2.85,0,0,1-1,.09,4.94,4.94,0,0,1-3.68-2,31.86,31.86,0,0,1-5.13-6.87,15.27,15.27,0,0,0-2.22-3.48,3.62,3.62,0,0,0-1-.87,6.61,6.61,0,0,0-1.45-.1,10.18,10.18,0,0,0-1.84.1,15,15,0,0,0-3.48.39c-.29.09-.39,1.45-.39,4,0,5.52-1.16,8.32-3.38,8.32-.29,0-.49,0-.58-.09-.78-.2-1.46-.87-2.13-2.13l-1-1.84.1-12.09v-4.94a75.23,75.23,0,0,0-.2-7.83,3.16,3.16,0,0,1-.19-1.26,2.64,2.64,0,0,1,.1-1,2.72,2.72,0,0,1,.48-1.45,5.45,5.45,0,0,1,1.55-.77,33.84,33.84,0,0,1,6.67-2C192,152.64,192.58,152.55,192.77,152.26Zm5.8,2.9a10.19,10.19,0,0,0-4.83-1,3.12,3.12,0,0,0-1.26.19,11.53,11.53,0,0,1-2,.88,10.68,10.68,0,0,0-2,.87,1.44,1.44,0,0,0-.49.77,9.36,9.36,0,0,0,.39,2,48.38,48.38,0,0,1,1,7.26c.29,3.48.58,5.22.58,5.32.19.19,1.55.38,4.06.38s4-.09,4.16-.38a10.79,10.79,0,0,1,1.84-1.26,7.23,7.23,0,0,0,3.09-5.42c0-.38.1-.87.1-1.55C203.22,159.42,201.67,156.8,198.57,155.16Z" transform="translate(-8 -3)"/><path class="cls-1" d="M229.63,154.38a36.72,36.72,0,0,1,3.87-.19c3.38,0,5.61.19,6.67.58a10.55,10.55,0,0,1,6,5.61c1.35,2.81,2.13,6.87,2.13,12.09,0,4.94-.58,8.42-1.84,10.55-1.64,2.9-5.32,4.74-11,5.61a29.48,29.48,0,0,1-3,.29,15.59,15.59,0,0,1-6.58-1.93,14.12,14.12,0,0,1-5.8-4.74,13.79,13.79,0,0,1-1.84-7,12.17,12.17,0,0,1,.29-3,29.31,29.31,0,0,1,1.16-3.09,17.31,17.31,0,0,1,1.55-3.1,18.7,18.7,0,0,1,2.52-2.71c2.71-2.61,5-4,6.87-4.06,1.64,0,2.51.29,2.51.87,0,.39-.48.77-1.35,1.16a11,11,0,0,0-3.58,2.81A16.49,16.49,0,0,0,223.05,175v1a9.8,9.8,0,0,0,5.71,9.38,8.85,8.85,0,0,0,3.48,1.26,3.87,3.87,0,0,0,1.16-.1c3.39-.39,5.8-1.45,7.26-3.09q3.18-3.63,3.19-12.77c0-4.45-.68-8-2.13-10.55a8.52,8.52,0,0,0-2.23-2.8,3.51,3.51,0,0,0-1.45-.78c-.48-.09-1.54-.19-3.19-.29h-2a11.21,11.21,0,0,0-4.55,1.26c-3,1.26-4.64,1.94-4.83,1.94a.9.9,0,0,1-.49-.3c-.09-.09-.09-.19-.09-.38,0-.68,1-1.45,2.9-2.42A12.74,12.74,0,0,1,229.63,154.38Z" transform="translate(-8 -3)"/><path class="cls-1" d="M269.68,156.61c.19-.39.77-.58,1.64-.58.39,0,.58.1.78.1a.69.69,0,0,1,.38.19,1.9,1.9,0,0,1,.29.48,4.53,4.53,0,0,0,.2.87c.19,1.55.58,4.65,1.06,9.29s.77,7.74.77,9.38v1.84c0,2.42-.19,5.13-.48,8s-.68,4.84-1.06,5.52c-.49,1.16-1.74,2-3.68,2.9a15.7,15.7,0,0,1-5.9,1.16,3.87,3.87,0,0,1-1.16-.1,8.48,8.48,0,0,1-3.68-1.16,5.63,5.63,0,0,1-3.19-4.74,9.46,9.46,0,0,1,.58-2.9,4.73,4.73,0,0,1,.68-1.45,1.76,1.76,0,0,1,1-.49h.38c.49,0,1,.49,1.45,1.55a32.3,32.3,0,0,0,3.58,5.81,1.52,1.52,0,0,0,1.07.58,6,6,0,0,0,1.06-.2,3.66,3.66,0,0,0,1.94-1.16q1.74-2.33,1.74-22.34C269.29,161.25,269.39,157.09,269.68,156.61Z" transform="translate(-8 -3)"/><path class="cls-1" d="M282.64,154.58a31.91,31.91,0,0,1,4.74-.2c7.26,0,11.42.2,12.38.59.49.09.68.29.68.48,0,.39-1.55.68-4.64.87s-4.74.29-5.23.29l-1.16.1.2,6c.19,4.26.29,6.58.38,7.07l.29,1.06,4.45-.1h.87c3,0,4.45.2,4.45.68,0,.1-.09.19-.38.39s-2.71.58-6.87,1l-2.71.2-.29,4.84c0,.67-.1,1.54-.1,2.51s-.09,1.74-.09,2.23a5.25,5.25,0,0,1-.1,1l-.1.87,4.84.2c4.74.19,7.06.87,7.06,1.93,0,.58-.39,1-1.16,1.16a22.89,22.89,0,0,1-4.64.29c-1.84,0-3.29,0-4.55-.09-5.13-.1-7.93-.49-8.42-.87a1.63,1.63,0,0,1-.38-.49c0-.09-.1-.48-.2-1.26a30.31,30.31,0,0,1-.09-3.28c0-.1,0-4.45.09-12.87v-4.93c0-4.65,0-7.36-.09-8s-.2-1-.1-1.16C282.06,155,282.25,154.77,282.64,154.58Z" transform="translate(-8 -3)"/><path class="cls-1" d="M318.63,152.35a11.79,11.79,0,0,1,3.19-.29,8.13,8.13,0,0,1,1.74.1,20.28,20.28,0,0,1,4.55.58,7.61,7.61,0,0,1,3,2c.87.87,1.35,1.55,1.35,2.23q0,.72-.87.87a1.81,1.81,0,0,1-.58.09c-.39,0-1.65-.77-3.58-2.41a5.32,5.32,0,0,0-2.9-1.46h-1a4.41,4.41,0,0,0-2.13.58,14.63,14.63,0,0,0-2.22,2.91,7.59,7.59,0,0,0-1.26,2.51,33.32,33.32,0,0,0-1,4.94,43.19,43.19,0,0,0-.48,6.48c0,4.45.48,7.64,1.55,9.57a12.29,12.29,0,0,0,1.83,2.52,6.11,6.11,0,0,0,2.33,1.74,5.06,5.06,0,0,0,1.93.58c.1,0,1-.1,2.52-.29a10.94,10.94,0,0,0,3.58-.87,6.18,6.18,0,0,0,1.45-2.71,10.24,10.24,0,0,1,1.64-3.29,2.85,2.85,0,0,1,2.32-1.25,3.74,3.74,0,0,1,1.26.19,2.7,2.7,0,0,1,.77,1.06,4.69,4.69,0,0,1,.58,2.13,10.73,10.73,0,0,1-.48,2.61,5.33,5.33,0,0,1-3.58,4.07,25.54,25.54,0,0,1-4.84,1,51.7,51.7,0,0,1-5.8.49,14,14,0,0,1-6.58-1.65,13.39,13.39,0,0,1-5-4.54c-1.64-2.52-2.51-5.91-2.51-10.16a34.36,34.36,0,0,1,1.16-8.61c.87-2.9,1.35-4.55,1.64-5.13a18.78,18.78,0,0,1,3.1-3.77A9.76,9.76,0,0,1,318.63,152.35Z" transform="translate(-8 -3)"/><path class="cls-1" d="M366.13,155.64c5.12-.19,7.83-.38,8.32-.38,1,0,1.35.09,1.35.38,0,.78-2.32,1.36-7,1.65-.38,0-1,.09-1.54.09a5,5,0,0,0-1.36.1c-.29,0-.68.1-1,.1a1.33,1.33,0,0,0-.67.19c-.1.1-.2.19-.2.29,0,1.36.1,3.68.2,7,.09,1.83.19,6.67.38,14.51a55.91,55.91,0,0,1-.29,7.64,2.91,2.91,0,0,1-1.83,2.13,3.72,3.72,0,0,1-1.07.19c-1.06,0-1.93-.68-2.61-2.13-.58-1.16-.87-4-.87-8.32,0-2.71.1-5.22.29-7.74l.58-9,.19-3.49h-1.83a26.82,26.82,0,0,0-5.23.59,17,17,0,0,1-3.09.38,5.68,5.68,0,0,1-1.55-.29c-.87-.19-1.26-.48-1.26-.58C346,157.29,352.78,156.22,366.13,155.64Z" transform="translate(-8 -3)"/><path class="cls-1" d="M388.28,151.68a10.43,10.43,0,0,1,3.19-.39,28.92,28.92,0,0,1,5.13.48,14.76,14.76,0,0,1,4.25,1.65c1.26.67,2,1.35,2.13,2a3.38,3.38,0,0,1,.1.58.77.77,0,0,1-.87.87,3.93,3.93,0,0,1-2.61-1.06,5.87,5.87,0,0,0-2-1.26,17.72,17.72,0,0,0-3.49-.87,8.17,8.17,0,0,0-2-.29,1.54,1.54,0,0,0-1.16.38,13.47,13.47,0,0,0-1.26,1.75,5.85,5.85,0,0,0-1,3.19c0,3.19,2.9,6.38,8.8,9.48s9,6.77,9.58,11.32a14.39,14.39,0,0,1,.09,1.64,6.37,6.37,0,0,1-1.84,4.55,10.88,10.88,0,0,1-5.9,3.29,17.51,17.51,0,0,1-3.48.38,12.15,12.15,0,0,1-7.06-2.12,6.37,6.37,0,0,1-1.84-1.55,11.28,11.28,0,0,1-1.35-2.32,9.84,9.84,0,0,1-1.36-4.36c0-1.74.49-2.61,1.55-2.61,1.55,0,3.29,1.65,5.32,5s3.77,4.84,5.51,4.84a4.88,4.88,0,0,0,3-1.36,5.6,5.6,0,0,0,2.23-4.06,10.12,10.12,0,0,0-.48-2.9,9.64,9.64,0,0,0-2.33-4,22.23,22.23,0,0,0-5-3.48,32.3,32.3,0,0,1-7.93-5.51,8.28,8.28,0,0,1-2.51-5.61,7.27,7.27,0,0,1,.29-2.13,10.16,10.16,0,0,1,1.93-3.2A5,5,0,0,1,388.28,151.68Z" transform="translate(-8 -3)"/><g class="cls-2"><path class="cls-1" d="M177.68,52.05a1.16,1.16,0,0,1,.68-.68,8.7,8.7,0,0,1,2-.1c1.55,0,2.42.2,2.61.49v.09c0,.1.1.2.1.29,0,.87-.2,2.81-.58,6a229.29,229.29,0,0,0-2.13,27.47v2.91a34,34,0,0,0,.09,4.35c.1,0,.2.1.39.1a97,97,0,0,0,11.8-1.26,40.66,40.66,0,0,1,4.74-.48,2.94,2.94,0,0,1,2.33.67,2.85,2.85,0,0,1,.67,2.13,2.46,2.46,0,0,1-.58,1.84c-1.06,1.06-6.48,2.13-16.25,3.09a21.41,21.41,0,0,0-4.06.88,11,11,0,0,1-3,.58,3,3,0,0,1-1.84-.58,2.46,2.46,0,0,1-.77-1.17,20.43,20.43,0,0,1-.29-2.9V93.35a198.73,198.73,0,0,1,2-26.89C176.62,57.85,177.39,53,177.68,52.05Z" transform="translate(-8 -3)"/><path class="cls-1" d="M229.24,52.72a3,3,0,0,1,1.26-.29,4.73,4.73,0,0,1,1.64.39c.87.39,1.65,1.45,2.52,3.19a93.25,93.25,0,0,1,3.48,9.77c2,6.19,3.68,12.19,5,17.8a77.93,77.93,0,0,1,2.23,11.9v1.16a6.16,6.16,0,0,1-.2,1.84,1.77,1.77,0,0,1-.67.87,3.73,3.73,0,0,1-2.33.58,2.36,2.36,0,0,1-1.64-.39c-.87-.67-1.45-2.22-1.65-4.83a33.23,33.23,0,0,0-.58-3.68c-.29-1.45-.58-3-1-4.64s-.58-2.9-.78-3.58a19.64,19.64,0,0,0-.48-2.32,1,1,0,0,0-1-.58,11.08,11.08,0,0,0-2.22.38c-8.32,1.65-12.77,2.62-13.06,2.91s-.68,1.16-1.16,2.9c-.29,1.06-1.16,3.29-2.62,6.77s-2.32,5.51-2.7,6.38a3.38,3.38,0,0,1-1.17,1.26,2.3,2.3,0,0,1-1.35.49,3,3,0,0,1-2.13-1.16,2.39,2.39,0,0,1-.58-1.46c0-1,.58-2.7,1.65-5.41,1.25-3.2,2.12-5.52,2.61-7.16,1.55-4.74,4.74-11.9,9.58-21.28,2.51-4.84,4.16-7.94,5-9.29S228.56,52.92,229.24,52.72ZM231.08,64a5.81,5.81,0,0,0-.78-2c-.09,0-1.64,2.81-4.54,8.42-2.32,4.64-3.48,7.16-3.48,7.83,0,.1,0,.1.09.1h.1a21,21,0,0,0,4.45-.87c2.61-.68,4.55-1.07,5.8-1.26s1.74-.48,1.74-.77-.48-1.94-1.35-4.84c-.29-1-.68-2.22-1.16-3.87A20.11,20.11,0,0,1,231.08,64Z" transform="translate(-8 -3)"/><path class="cls-1" d="M266,52.92a11.62,11.62,0,0,1,3.68-.58,10.14,10.14,0,0,1,4.45.87,7.08,7.08,0,0,1,2.71,2.32,13.33,13.33,0,0,1,1.64,3.87l.87,3-.87.67a2.28,2.28,0,0,1-1.35.58c-.78,0-1.65-.77-2.71-2.32a23.72,23.72,0,0,0-2.71-3.19,4,4,0,0,0-2.23-1.26c-.38,0-.58.2-.77.58s-.29.78-.48,1.26-.29.78-.39,1a2.61,2.61,0,0,1-.29.77c-.1.39-.19.68-.29,1s-.1.68-.29,1.26-.19,1.16-.29,1.84-.19,1.45-.39,2.51a110.71,110.71,0,0,0-1.74,17.61c0,1.74,0,3,.1,3.87A41.12,41.12,0,0,0,266,95.09c.68,2.52,1.16,3.78,1.55,3.87h.1c.87,0,2.51-2.51,4.83-7.54A48.22,48.22,0,0,1,275.29,86c.58-1,1.26-1.35,1.74-1.35.29,0,.39.29.39.87,0,.09,0,.77-.1,2.13-.39,5.41-.77,8.51-1.35,9.28a13.18,13.18,0,0,1-8.32,6.29,20.43,20.43,0,0,1-5.61.87c-2.71,0-4.45-.58-5.13-1.84-.2-.48-.87-2.22-1.84-5.32s-1.64-5.41-1.93-6.87a25.08,25.08,0,0,1-.49-5.41,61.26,61.26,0,0,1,3.1-19.54C258.07,58.53,261.45,54.46,266,52.92Z" transform="translate(-8 -3)"/><path class="cls-1" d="M291.35,54.08a5.18,5.18,0,0,1,1.45-.39c1.16,0,1.93,1,2.32,2.9.19.87.39,4.36.68,10.45s.48,9.09.58,9.09c.67,0,5.22-4.83,13.83-14.6a22,22,0,0,1,4.16-3.87,5.59,5.59,0,0,1,1.74-.58.46.46,0,0,1,.49.48c0,.39-1,1.94-3,4.74s-3.68,5-5,6.58c-.68.77-1.65,1.93-3,3.38s-1.94,2.23-2,2.33c-1.26,1.45-1.94,2.32-1.94,2.32s.58.09,1.65.09h1.25c.39,0,1-.09,1.74-.09A12.62,12.62,0,0,1,313.31,79c4.16,2.61,7,6.77,8.32,12.38A29.93,29.93,0,0,1,322.5,99a12.25,12.25,0,0,1-.58,4.65,3.86,3.86,0,0,1-1.46,1.64,4,4,0,0,1-2,.58h-.29a1,1,0,0,1-.87-.58,23.54,23.54,0,0,1-.48-3,43,43,0,0,0-2.23-9.09,25.58,25.58,0,0,0-3.87-7,22.59,22.59,0,0,0-3.87-3.2,10.67,10.67,0,0,0-3.67-1.74h-.48a13.86,13.86,0,0,0-4,.68l-3.1.87L295,87.65c-.38,2.7-.77,6.09-1.16,10.15a24.82,24.82,0,0,1-1,5.61,3.1,3.1,0,0,1-2.41,1.36c-.2,0-.49.1-.78.1a1.36,1.36,0,0,1-1.16-.78c-1.06-1.64-1.64-5.42-1.64-11.41a77.36,77.36,0,0,1,.58-9.19c.48-3.78.87-8.32,1.16-13.55.48-9.09,1-14,1.55-15.09A4,4,0,0,1,291.35,54.08Z" transform="translate(-8 -3)"/></g><g class="cls-2"><path class="cls-1" d="M411.4,54.46a8.84,8.84,0,0,1,3.38-.67c1.07,0,1.75.19,2,.58a.77.77,0,0,1,.09.39c0,.29-.67,1.16-2,2.61q-2.61,2.61-2.61,3.77a.2.2,0,0,0,.19.19,8.05,8.05,0,0,0,1.65-1.16,13.41,13.41,0,0,1,6.58-2.42,25.45,25.45,0,0,1,2.61-.19,11.92,11.92,0,0,1,5.51,1,12.45,12.45,0,0,1,3.1,2.22A11,11,0,0,1,434,63.27a22.45,22.45,0,0,1,1.45,5,32.5,32.5,0,0,1,.77,5.71,22.05,22.05,0,0,1-4,12,44.16,44.16,0,0,1-11.22,11.32,12.63,12.63,0,0,1-4.93,2.13,27,27,0,0,1-4.45.48,22,22,0,0,1-4.16-.48,12.32,12.32,0,0,1-3.19-1.16,14.59,14.59,0,0,1-3.1-2.42c-2.71-2.42-4.06-7-4.06-13.54a43.4,43.4,0,0,1,1.93-12.58C401.63,61.82,405.69,56.69,411.4,54.46ZM424,62.88a8,8,0,0,0-4.36-1.16A7.14,7.14,0,0,0,415.17,63,4.21,4.21,0,0,1,413,64a1.25,1.25,0,0,1-1-.39l-.58-.39A11.62,11.62,0,0,0,410,65.69a42.26,42.26,0,0,0-2.51,8.22,43.91,43.91,0,0,0-1.06,8.51c.09,4.45.87,7.84,2.22,10.16A5.73,5.73,0,0,0,411,94.8a6.13,6.13,0,0,0,3,.88q1.61,0,4.35-2.33a32.22,32.22,0,0,0,5.32-5.61,20.38,20.38,0,0,0,2.42-3.48,41.1,41.1,0,0,0,1.65-4.06,20.15,20.15,0,0,0,1.06-6.48,19.08,19.08,0,0,0-.68-5.42A10.22,10.22,0,0,0,426.68,65,16.82,16.82,0,0,0,424,62.88Z" transform="translate(-8 -3)"/><path class="cls-1" d="M468.77,53.21a4.63,4.63,0,0,1,1.16-.2,2.11,2.11,0,0,1,1.74.58,1.33,1.33,0,0,1,.29.68,10.71,10.71,0,0,1-.58,1.94c-1.07,2.9-3.49,8.41-7.36,16.54l-1.16,2.32,5.32,7.06c4.74,6.39,8.61,12,11.71,17s4.64,8.12,4.64,9.28c0,1.36-1,2.23-2.9,2.42-.19,0-.48.1-.87.1a3.06,3.06,0,0,1-1.93-1.26c-.78-.87-3-3.48-6.58-7.83-4.84-5.9-8.9-11.32-12.29-16.06-1-1.36-1.55-2-1.84-2s-1.54,1.93-4,5.7-4.45,7.07-6,9.68c-1,1.45-1.94,2.13-3.1,2.13h-.29a.88.88,0,0,1-.77-.39,4.28,4.28,0,0,1-.1-1.36c0-1.16,1.74-4.93,5.23-11.51s5.22-10,5.32-10.35-.2-.87-.78-1.84c-.87-1.35-2-3.38-3.48-6.19-3.19-5.9-4.84-9.09-4.84-9.48a1.13,1.13,0,0,1,.29-.58,3.39,3.39,0,0,1,1.84-1.16l1.36-.39,3.58,3.78q3.76,4.07,4.64,5.22c.77,1,1.26,1.55,1.55,1.65s1.06-1.55,2.71-4.65C464.8,57.46,467.22,53.88,468.77,53.21Z" transform="translate(-8 -3)"/></g><g class="cls-2"><path class="cls-1" d="M133.28,52c2.9-.39,4.64-.58,5.22-.58h.39a22.91,22.91,0,0,1,5.32,1,28.17,28.17,0,0,1,5.42,1.83,13.07,13.07,0,0,1,4.15,3.39,16.28,16.28,0,0,1,3,4.45,12.68,12.68,0,0,1,.68,4.35c0,3.68-1.16,8-3.48,13a55.33,55.33,0,0,1-9.29,13.73c-1.93,2-2.8,3.39-2.8,4a.35.35,0,0,0,.38.39.71.71,0,0,0,.39-.1.71.71,0,0,1,.39-.1A32.9,32.9,0,0,1,155.43,95a22.62,22.62,0,0,1,9.29,1.64c3.38,1.65,5,3.87,5,6.77a19.18,19.18,0,0,1-1.74,7,37.87,37.87,0,0,1-5,8.61c-2,2.61-6.57,7.45-13.44,14.61-5.13,5.22-10.74,11.22-17,17.89a66.09,66.09,0,0,1-19.35,15.09c-3.57,1.84-6.09,2.71-7.64,2.71s-2.51-.19-2.51-.58,1-1.16,2.8-2.61a79.1,79.1,0,0,0,8.9-8.32c4-4.16,7.45-8.12,10.55-11.9a260.25,260.25,0,0,1,18.67-19.73c7.16-7.06,11.7-11.9,13.73-14.42a11.55,11.55,0,0,0,3-7.15c0-1.55-.38-2.62-1.16-3.2a7,7,0,0,0-4.06-.87c-2.23,0-5.8.68-10.84,2.13a73.1,73.1,0,0,0-11.89,4.26,29.84,29.84,0,0,1-5.32,2.13l-2.71.87.19,8.12v3.58c0,12-.58,18.87-1.74,20.8q-1.45,2.32-5.23,2.32a3.25,3.25,0,0,1-1.16-.1c-3-.87-4.45-3.38-4.45-7.64a58.12,58.12,0,0,1,.58-6.58c1.17-7.83,2-22,2.52-42.27.19-8.71.48-14.51.77-17.41s.78-4.74,1.36-5.52a2.49,2.49,0,0,1,1.74-1.06c1.06,0,1.84,1.16,2.51,3.38C123,72.75,123.7,80.58,123.7,91c0,5.9.19,9,.58,9.19h.1c.58,0,1.45-.77,2.8-2.22,13.35-14.51,20.12-24.57,20.22-30.09q0-2.32-2.32-5.8a13.45,13.45,0,0,0-12.77-6.58A26.93,26.93,0,0,0,117.6,59.4a145.82,145.82,0,0,0-14.89,9.87c-1.84,1.35-2.91,2-3.29,2s-.68-.2-.68-.58c0-1.07,1-2.42,2.9-4,.39-.39,1.45-1.35,3.1-2.8s3.19-2.81,4.45-3.87,2.32-1.94,3.09-2.52a64.78,64.78,0,0,1,9.87-3.1A61.35,61.35,0,0,1,133.28,52Z" transform="translate(-8 -3)"/></g><g class="cls-2"><path class="cls-1" d="M130.28,4.64A3.33,3.33,0,0,1,133,3a3.06,3.06,0,0,1,2.41,1.16,3.3,3.3,0,0,1,.68,2.9c-.29,1.36-17.22,19.45-50.59,54.27l-8.42,8.81V112.8c0,19.93.1,32.12.19,36.66s.59,7.74,1.36,9.58l1.55,3.68h-6.1c-4.16,0-6.19-.2-6.19-.49A6.69,6.69,0,0,1,69,160c.87-1.26,1.36-15.19,1.45-41.7,0-4,0-9.19.1-15.77s.1-11.12.1-13.54,0-4.64-.1-6.77-.1-4-.1-5.23V74.88A8.05,8.05,0,0,0,69,70.52a103.67,103.67,0,0,0-7.93-8.32Q41.81,43,24.93,25.44C13.61,13.54,8,7.26,8,6.48s.87-1.35,2.71-2a.73.73,0,0,0,.39-.1.76.76,0,0,1,.38-.09c1.07,0,3.39,1.64,6.87,4.93S30.25,20.8,43.41,34.25L73.69,64.91l2.9-2.71q3.76-3.77,42.66-45.46C124.86,10.74,128.54,6.77,130.28,4.64Z" transform="translate(-8 -3)"/></g><g class="cls-2"><path class="cls-1" d="M356.74,52c2.9-.39,4.65-.58,5.23-.58h.38a22.74,22.74,0,0,1,5.32,1,27.67,27.67,0,0,1,5.42,1.83,13.1,13.1,0,0,1,4.16,3.39,16.51,16.51,0,0,1,3,4.45,12.92,12.92,0,0,1,.68,4.35c0,3.68-1.16,8-3.49,13a55.28,55.28,0,0,1-9.28,13.73c-1.94,2-2.81,3.39-2.81,4a.36.36,0,0,0,.39.39.73.73,0,0,0,.39-.1.7.7,0,0,1,.38-.1A32.9,32.9,0,0,1,378.89,95a22.58,22.58,0,0,1,9.29,1.64c3.39,1.65,5,3.87,5,6.77a19.18,19.18,0,0,1-1.74,7,37.84,37.84,0,0,1-5,8.61c-2,2.61-6.58,7.45-13.45,14.61-5.12,5.22-10.73,11.22-17,17.89a66.22,66.22,0,0,1-19.35,15.09c-3.58,1.84-6.09,2.71-7.64,2.71s-2.52-.19-2.52-.58,1-1.16,2.81-2.61a80.9,80.9,0,0,0,8.9-8.32c4-4.16,7.45-8.12,10.54-11.9a260.25,260.25,0,0,1,18.67-19.73c7.16-7.06,11.71-11.9,13.74-14.42s3-4.93,3-7.15a3.79,3.79,0,0,0-1.16-3.2,7.06,7.06,0,0,0-4.07-.87c-2.22,0-5.8.68-10.83,2.13a73.27,73.27,0,0,0-11.9,4.26,29.21,29.21,0,0,1-5.32,2.13l-2.71.87.2,8.12v3.58c0,12-.58,18.87-1.75,20.8q-1.44,2.32-5.22,2.32a3.22,3.22,0,0,1-1.16-.1c-3-.87-4.45-3.38-4.45-7.64a55.82,55.82,0,0,1,.58-6.58c1.16-7.83,2-22,2.52-42.27.19-8.71.48-14.51.77-17.41S340.39,66,341,65.2a2.49,2.49,0,0,1,1.74-1.06c1.07,0,1.84,1.16,2.52,3.38,1.26,5.23,1.93,13.06,1.93,23.51,0,5.9.2,9,.59,9.19h.09c.58,0,1.45-.77,2.81-2.22C364,83.49,370.77,73.43,370.87,67.91q0-2.32-2.33-5.8a13.43,13.43,0,0,0-12.77-6.58,26.92,26.92,0,0,0-14.7,3.87,147.24,147.24,0,0,0-14.9,9.87c-1.84,1.35-2.9,2-3.29,2s-.67-.2-.67-.58c0-1.07,1-2.42,2.9-4,.39-.39,1.45-1.35,3.09-2.8s3.2-2.81,4.45-3.87,2.33-1.94,3.1-2.52a64,64,0,0,1,9.87-3.1A63.17,63.17,0,0,1,356.74,52Z" transform="translate(-8 -3)"/></g></svg>