<svg id="Layer_1" data-name="Layer 1" xmlns="http://www.w3.org/2000/svg" viewBox="0 0 448 512"><path d="M135.2,17.69A32,32,0,0,1,163.8,0H284.2a32,32,0,0,1,28.6,17.69L320,32h96a32,32,0,0,1,0,64H32a32,32,0,0,1,0-64h96ZM31.1,128H416V448a64.06,64.06,0,0,1-64,64H95.1c-34.45,0-64-28.7-64-64Zm80,80V432c0,8.8,8.1,16,16,16,9.7,0,16-7.2,16-16V208c0-8.8-6.3-16-16-16C119.2,192,111.1,199.2,111.1,208Zm96,0V432c0,8.8,8.1,16,16,16,9.7,0,16.9-7.2,16.9-16V208c0-8.8-7.2-16-16.9-16C215.2,192,207.1,199.2,207.1,208Zm96.9,0V432a16,16,0,0,0,32,0V208a16,16,0,0,0-32,0Z"/></svg>